<svg width="41" height="37" viewBox="0 0 41 37" fill="none" xmlns="http://www.w3.org/2000/svg">
<path d="M39.5728 13.4552H34.939L30.8353 7.27634C30.6514 6.99951 30.278 6.92423 30.001 7.10793C29.7242 7.29187 29.6488 7.66536 29.8326 7.94218L34.748 15.3432C35.0071 15.7333 34.86 16.277 34.4413 16.4845C34.091 16.6582 33.6523 16.54 33.4361 16.2144L24.6339 2.96085C24.3962 2.60314 24.4971 2.10657 24.8542 1.86938C25.2158 1.62923 25.7056 1.72804 25.9457 2.08968L28.5016 5.93799C28.6855 6.2149 29.0588 6.29009 29.3358 6.10639C29.6126 5.92253 29.688 5.54897 29.5042 5.27214L26.9483 1.42383C26.3409 0.509254 25.1027 0.25941 24.1883 0.866802C23.285 1.46675 23.0302 2.72189 23.6313 3.62678L30.1589 13.4552H10.8411L17.3686 3.62678C17.976 2.71228 17.7261 1.47419 16.8116 0.866722C15.9068 0.265816 14.6516 0.520464 14.0516 1.42383L6.06111 13.4552H1.42715C0.640225 13.4552 0 14.0955 0 14.8825V18.9723C0 19.7592 0.640225 20.3995 1.42715 20.3995H2.32819L4.95884 34.6221C5.15631 35.69 6.08794 36.465 7.17388 36.465H26.5114C26.8438 36.465 27.1132 36.1957 27.1132 35.8633C27.1132 35.5309 26.8438 35.2615 26.5114 35.2615H7.17388C6.66811 35.2615 6.23432 34.9005 6.14231 34.4032L3.55211 20.3995H10.7861C11.1184 20.3995 11.3879 20.1301 11.3879 19.7977C11.3879 19.4653 11.1185 19.1959 10.7861 19.1959H1.42715C1.30383 19.1959 1.20349 19.0956 1.20349 18.9723V14.8825C1.20349 14.7592 1.30383 14.6587 1.42715 14.6587H5.26177L5.24952 14.6772C4.95531 15.1202 4.85121 15.6513 4.95644 16.1726C5.07599 16.7653 5.46565 17.2779 6.00418 17.5528C6.89136 18.0057 8.01622 17.7088 8.56652 16.8802L10.0419 14.6587H30.9582L32.4336 16.8802C33.0329 17.7827 34.2898 18.0373 35.1935 17.4372C36.1079 16.8299 36.3579 15.5917 35.7506 14.6772L35.7383 14.6587H39.5728C39.6962 14.6587 39.7965 14.759 39.7965 14.8824V18.9722C39.7965 19.0955 39.6962 19.1958 39.5728 19.1958H13.1932C12.8609 19.1958 12.5914 19.4652 12.5914 19.7976C12.5914 20.13 12.8608 20.3994 13.1932 20.3994H37.4479L34.8577 34.4032C34.7657 34.9005 34.3319 35.2615 33.826 35.2615H28.9183C28.5859 35.2615 28.3165 35.5309 28.3165 35.8633C28.3165 36.1957 28.5859 36.465 28.9183 36.465H33.826C34.912 36.465 35.8436 35.69 36.0411 34.6221L38.6717 20.3994H39.5728C40.3597 20.3994 40.9999 19.7592 40.9999 18.9722V14.8824C41 14.0955 40.3598 13.4552 39.5728 13.4552ZM7.56394 16.2144C7.34549 16.5435 6.90033 16.6599 6.54887 16.4796C6.13711 16.2683 5.99537 15.7297 6.2521 15.3432L15.0543 2.08976C15.2916 1.73261 15.788 1.63163 16.1458 1.86938C16.5075 2.10969 16.6064 2.59937 16.3661 2.96101L7.56394 16.2144Z" fill="#5FB34E"/>
<path d="M19.8982 22.9143V31.7319C19.8982 32.0599 20.172 32.3337 20.5 32.3337C20.8279 32.3337 21.1018 32.0599 21.1018 31.7319V22.9143C21.1018 22.5819 20.8324 22.3125 20.5 22.3125C20.1677 22.3125 19.8982 22.5819 19.8982 22.9143Z" fill="#5FB34E"/>
<path d="M15.0338 22.3146C14.7027 22.3424 14.4568 22.6335 14.4847 22.9647L15.2276 31.7823C15.2551 32.1096 15.5509 32.3583 15.8777 32.3314C16.2045 32.3046 16.4543 32.0074 16.4268 31.6813L15.6839 22.8636C15.6561 22.5325 15.3656 22.2874 15.0338 22.3146Z" fill="#5FB34E"/>
<path d="M9.23926 22.3208C8.91158 22.376 8.69064 22.6864 8.7459 23.0142L10.2316 31.8318C10.2868 32.1593 10.6096 32.3848 10.9361 32.3231C11.254 32.263 11.4722 31.9513 11.4184 31.6318L9.93274 22.8141C9.8774 22.4865 9.56694 22.2653 9.23926 22.3208Z" fill="#5FB34E"/>
<path d="M25.3159 22.8636L24.573 31.6813C24.5455 32.0079 24.7953 32.3042 25.1221 32.3315C25.4489 32.3588 25.7447 32.1092 25.7723 31.7824L26.5152 22.9647C26.5431 22.6335 26.2972 22.3424 25.9661 22.3146C25.6348 22.2874 25.3438 22.5324 25.3159 22.8636Z" fill="#5FB34E"/>
<path d="M30.1758 32.3339C30.4642 32.3339 30.719 32.1259 30.7684 31.832L32.2542 23.0144C32.3095 22.6866 32.0886 22.3762 31.7609 22.321C31.4333 22.2657 31.1227 22.4867 31.0675 22.8144L29.5817 31.6321C29.5207 31.9942 29.8086 32.3339 30.1758 32.3339Z" fill="#5FB34E"/>
</svg>
