<svg width="45" height="29" viewBox="0 0 45 29" fill="none" xmlns="http://www.w3.org/2000/svg">
<path d="M39.19 6.97117C39.19 7.38135 39.0283 7.5632 38.6918 7.90378C38.3255 8.2745 37.8239 8.78224 37.8239 9.73674C37.8239 10.0905 38.1106 10.3772 38.4643 10.3772C38.818 10.3772 39.1048 10.0905 39.1048 9.73674C39.1048 9.32655 39.2666 9.14462 39.603 8.80404C39.9693 8.43332 40.4709 7.92557 40.4709 6.97117C40.4709 6.01668 39.9693 5.50893 39.603 5.13821C39.2665 4.79746 39.1048 4.61552 39.1048 4.20525C39.1048 3.79498 39.2666 3.61305 39.603 3.27247C39.9693 2.90166 40.4709 2.39382 40.4709 1.43933C40.4709 1.08557 40.1842 0.798874 39.8305 0.798874C39.4767 0.798874 39.19 1.08557 39.19 1.43933C39.19 1.84961 39.0282 2.03154 38.6918 2.37229C38.3255 2.74302 37.8239 3.25076 37.8239 4.20525C37.8239 5.15974 38.3255 5.66757 38.6918 6.03838C39.0283 6.37896 39.19 6.5609 39.19 6.97117Z" fill="#21222F"/>
<path d="M31.2719 6.97117C31.2719 7.38135 31.1102 7.5632 30.7737 7.90378C30.4074 8.2745 29.9058 8.78224 29.9058 9.73674C29.9058 10.0905 30.1925 10.3772 30.5462 10.3772C30.8999 10.3772 31.1867 10.0905 31.1867 9.73674C31.1867 9.32655 31.3485 9.14462 31.6849 8.80404C32.0512 8.43332 32.5529 7.92557 32.5529 6.97117C32.5529 6.01668 32.0512 5.50893 31.6849 5.13821C31.3484 4.79746 31.1867 4.61552 31.1867 4.20525C31.1867 3.79498 31.3485 3.61304 31.6849 3.27247C32.0512 2.90166 32.5529 2.39382 32.5529 1.43933C32.5529 1.08557 32.2662 0.798872 31.9124 0.798872C31.5587 0.798872 31.2719 1.08557 31.2719 1.43933C31.2719 1.8496 31.1101 2.03154 30.7737 2.37229C30.4074 2.74301 29.9058 3.25076 29.9058 4.20525C29.9058 5.15974 30.4074 5.66757 30.7737 6.03838C31.1102 6.37896 31.2719 6.56089 31.2719 6.97117Z" fill="#21222F"/>
<path d="M7.5177 6.97082C7.5177 7.38109 7.35589 7.56303 7.01945 7.9036C6.65321 8.27441 6.15153 8.78224 6.15153 9.73674C6.15153 10.0905 6.43823 10.3772 6.79199 10.3772C7.14566 10.3772 7.43245 10.0905 7.43245 9.73674C7.43245 9.32646 7.59425 9.14453 7.9307 8.80378C8.29694 8.43306 8.79862 7.92531 8.79862 6.97082C8.79862 6.01633 8.29694 5.5085 7.9307 5.13777C7.59417 4.79702 7.43245 4.61509 7.43245 4.20481C7.43245 3.79463 7.59417 3.61278 7.9307 3.27221C8.29703 2.90148 8.79871 2.39374 8.79871 1.43934C8.79871 1.08558 8.51201 0.798878 8.15825 0.798878C7.80449 0.798878 7.51779 1.08558 7.51779 1.43934C7.51779 1.84952 7.35607 2.03137 7.01954 2.37194C6.65321 2.74267 6.15153 3.25041 6.15153 4.20481C6.15153 5.1593 6.65321 5.66714 7.01945 6.03786C7.35598 6.37861 7.5177 6.56055 7.5177 6.97082Z" fill="#21222F"/>
<path d="M15.4358 6.97082C15.4358 7.38109 15.274 7.56303 14.9375 7.9036C14.5713 8.27441 14.0696 8.78224 14.0696 9.73674C14.0696 10.0905 14.3563 10.3772 14.7101 10.3772C15.0638 10.3772 15.3505 10.0905 15.3505 9.73674C15.3505 9.32646 15.5123 9.14453 15.8488 8.80378C16.215 8.43306 16.7167 7.92531 16.7167 6.97082C16.7167 6.01633 16.215 5.50849 15.8488 5.13777C15.5123 4.79702 15.3505 4.61508 15.3505 4.20481C15.3505 3.79462 15.5123 3.61278 15.8488 3.2722C16.2151 2.90148 16.7168 2.39374 16.7168 1.43933C16.7168 1.08557 16.4301 0.798874 16.0763 0.798874C15.7226 0.798874 15.4359 1.08557 15.4359 1.43933C15.4359 1.84952 15.2742 2.03137 14.9376 2.37194C14.5713 2.74266 14.0696 3.25041 14.0696 4.20481C14.0696 5.1593 14.5713 5.66714 14.9375 6.03786C15.2741 6.37861 15.4358 6.56054 15.4358 6.97082Z" fill="#21222F"/>
<path d="M23.3538 6.97117C23.3538 7.38135 23.1921 7.5632 22.8556 7.90378C22.4894 8.2745 21.9877 8.78224 21.9877 9.73674C21.9877 10.0905 22.2744 10.3772 22.6281 10.3772C22.9819 10.3772 23.2686 10.0905 23.2686 9.73674C23.2686 9.32655 23.4304 9.14462 23.7668 8.80404C24.1331 8.43332 24.6348 7.92557 24.6348 6.97117C24.6348 6.01668 24.1331 5.50893 23.7668 5.13821C23.4303 4.79746 23.2686 4.61552 23.2686 4.20525C23.2686 3.79498 23.4304 3.61305 23.7668 3.27247C24.1331 2.90166 24.6348 2.39382 24.6348 1.43933C24.6348 1.08557 24.3481 0.798874 23.9943 0.798874C23.6406 0.798874 23.3538 1.08557 23.3538 1.43933C23.3538 1.84961 23.192 2.03154 22.8556 2.37229C22.4894 2.74302 21.9877 3.25076 21.9877 4.20525C21.9877 5.15974 22.4894 5.66757 22.8556 6.03838C23.1921 6.37896 23.3538 6.5609 23.3538 6.97117Z" fill="#21222F"/>
<path d="M1.83586 28.5263L4.74979 28.5263C5.10345 28.5263 5.39024 28.2733 5.39024 27.961C5.39024 27.6488 5.10355 27.3958 4.74979 27.3958L1.83586 27.3958C1.52982 27.3958 1.28083 27.176 1.28083 26.9059L1.28083 13.5676C1.28083 13.2975 1.52982 13.0778 1.83586 13.0778L2.77163 13.0778L2.77163 16.6504C2.77163 17.5862 3.63428 18.3475 4.6945 18.3475L34.1524 18.3475C34.506 18.3475 34.7928 18.0945 34.7928 17.7823C34.7928 17.47 34.5061 17.217 34.1524 17.217L4.69441 17.217C4.34039 17.217 4.05237 16.9628 4.05237 16.6503L4.05237 16.5314L40.9475 16.5315L40.9475 16.6503C40.9475 16.9627 40.6595 17.217 40.3055 17.217L37.1869 17.217C36.8332 17.217 36.5464 17.47 36.5464 17.7823C36.5464 18.0945 36.8331 18.3475 37.1869 18.3475L40.3055 18.3475C41.3658 18.3475 42.2284 17.5862 42.2284 16.6504L42.2284 13.0778L43.1641 13.0778C43.4702 13.0778 43.7192 13.2975 43.7192 13.5676L43.7192 26.906C43.7192 27.1761 43.4702 27.3959 43.1641 27.3959L7.80073 27.3959C7.44706 27.3959 7.16036 27.6489 7.16036 27.9611C7.16036 28.2733 7.44706 28.5264 7.80073 28.5264L43.1641 28.5264C44.1765 28.5263 45 27.7995 45 26.906L45 13.5677C45 12.6742 44.1765 11.9474 43.1641 11.9474L41.588 11.9474L3.412 11.9474L1.83586 11.9474C0.823537 11.9474 1.38584e-06 12.6742 1.30773e-06 13.5677L1.41655e-07 26.906C6.35477e-08 27.7995 0.823536 28.5263 1.83586 28.5263ZM4.05237 13.0779L40.9475 13.0779L40.9475 13.7684L4.05237 13.7684L4.05237 13.0779ZM4.05237 14.8988L40.9475 14.8988L40.9475 15.4012L4.05237 15.4012L4.05237 14.8988Z" fill="#21222F"/>
</svg>
