<svg width="36" height="36" viewBox="0 0 36 36" fill="none" xmlns="http://www.w3.org/2000/svg">
<g clip-path="url(#clip0)">
<path d="M26.1561 1.71063C22.9888 1.60994 19.9954 3.03447 17.9998 5.55637C16.0759 3.12897 13.2041 1.70557 10.1617 1.70557C10.147 1.70557 10.1321 1.70557 10.1175 1.70564C7.4907 1.71752 4.99756 2.78332 3.09729 4.70679C1.10724 6.72103 -0.0214869 9.52024 0.000309956 12.3866C0.0216146 15.1811 1.07679 17.8095 2.97242 19.7886L9.92991 27.0184C10.0452 27.1383 10.1991 27.1986 10.3533 27.1986C10.4998 27.1986 10.6466 27.144 10.7605 27.0344C10.9942 26.8095 11.0014 26.4376 10.7765 26.2038L3.81997 18.975C2.13338 17.2142 1.19415 14.8712 1.17516 12.3777C1.15569 9.82132 2.16087 7.32635 3.93296 5.53254C5.61216 3.8328 7.81041 2.89096 10.1227 2.88056C10.1357 2.88049 10.1484 2.88049 10.1615 2.88049C13.0809 2.88049 15.8268 4.37336 17.5126 6.87944C17.6217 7.04165 17.8045 7.13897 18 7.13897C18.1956 7.13897 18.3783 7.04165 18.4874 6.87944C20.2351 4.28147 23.0869 2.78859 26.1187 2.88492C26.442 2.8968 26.7141 2.64086 26.7245 2.31651C26.7349 1.9923 26.4804 1.72096 26.1561 1.71063Z" fill="#5FB34E"/>
<path d="M35.9967 12.0263C35.889 7.5941 33.0976 3.66532 29.0506 2.25C28.7442 2.14263 28.4093 2.30428 28.3022 2.61056C28.1951 2.91684 28.3565 3.25181 28.6627 3.3589C32.2511 4.61384 34.7263 8.10851 34.8222 12.0548C34.8844 14.6198 33.9786 17.0427 32.2715 18.8772C32.2671 18.8819 32.2629 18.8866 32.2587 18.8914L32.2423 18.9084C32.191 18.9631 32.139 19.0171 32.0815 19.0754L18.9755 32.6965C18.7131 32.9692 18.3667 33.1195 18.0002 33.1195C17.6337 33.1195 17.2872 32.9693 17.0248 32.6966L12.8016 28.308C12.5766 28.0743 12.2048 28.0671 11.971 28.2921C11.7373 28.517 11.7301 28.8889 11.955 29.1227L16.1783 33.5112C16.6643 34.0163 17.3113 34.2944 18.0003 34.2944C18.6892 34.2944 19.3362 34.0162 19.8221 33.5111L32.9233 19.8951C32.9823 19.8352 33.0407 19.7744 33.0938 19.718L33.1256 19.6849C33.1346 19.6755 33.1433 19.6658 33.1516 19.656C35.056 17.5981 36.0662 14.8898 35.9967 12.0263Z" fill="#5FB34E"/>
</g>
<defs>
<clipPath id="clip0">
<rect width="36" height="36" fill="white"/>
</clipPath>
</defs>
</svg>
