<svg width="20" height="20" viewBox="0 0 20 20" fill="none" xmlns="http://www.w3.org/2000/svg">
<path d="M19.6079 8.97126L11.2526 0.615551C10.562 -0.0730153 9.43908 -0.0739921 8.74709 0.616487L0.39179 8.97126C-0.130597 9.49357 -0.130597 10.3408 0.39179 10.8631C0.914503 11.3858 1.76119 11.3858 2.28382 10.8631L3.41643 9.73036V18.4757C3.41643 19.263 4.05469 19.9012 4.84203 19.9012H7.88747V15.928C7.88747 15.6194 8.13761 15.3688 8.44681 15.3688H11.5544C11.8633 15.3688 12.1135 15.6194 12.1135 15.928V19.9012H15.1584C15.9458 19.9012 16.584 19.263 16.584 18.4757V9.7311L17.716 10.8632C17.9775 11.1245 18.3197 11.2551 18.662 11.2551C19.0042 11.2551 19.3465 11.1245 19.6079 10.8632C20.1307 10.3408 20.1307 9.49361 19.6079 8.97126Z" fill="#21222F"/>
</svg>
