<svg width="14" height="20" viewBox="0 0 14 20" fill="none" xmlns="http://www.w3.org/2000/svg">
<path fill-rule="evenodd" clip-rule="evenodd" d="M13.0215 18.4433V1.5526C13.0215 0.698672 12.3269 0 11.4689 0H2.52917C1.67523 0 0.976562 0.694586 0.976562 1.5526V18.4474C0.976562 19.3013 1.67115 20 2.52917 20H11.4689C12.3228 19.9959 13.0215 19.3013 13.0215 18.4433ZM1.97758 3.59959H12.0164V14.9663H1.97758V3.59959ZM5.98182 17.0214H8.01247C8.29031 17.0214 8.51503 17.2461 8.51503 17.5239C8.51503 17.8018 8.29031 18.0265 8.01247 18.0265H5.98182C5.70399 18.0265 5.47927 17.8018 5.47927 17.5239C5.47927 17.2461 5.70399 17.0214 5.98182 17.0214Z" fill="#5FB34E"/>
</svg>
