<svg width="22" height="22" viewBox="0 0 22 22" fill="none" xmlns="http://www.w3.org/2000/svg">
<path d="M20.0667 2.62109H1.93386C1.63622 2.62109 1.35757 2.69427 1.10547 2.81488L10.9573 12.6667L13.1654 10.5446C13.1654 10.5446 13.1656 10.5444 13.1656 10.5443C13.1657 10.5442 13.1659 10.5441 13.1659 10.5441L20.8954 2.81505C20.6432 2.69436 20.3644 2.62109 20.0667 2.62109Z" fill="#5FB34E"/>
<path d="M21.8071 3.72656L14.5332 11.0001L21.8068 18.2737C21.9274 18.0216 22.0006 17.7429 22.0006 17.4453V4.55466C22.0006 4.25718 21.9276 3.97857 21.8071 3.72656Z" fill="#5FB34E"/>
<path d="M0.193789 3.72656C0.0731758 3.97866 0 4.25731 0 4.55496V17.4456C0 17.7431 0.0730898 18.0217 0.193617 18.2738L7.4675 11.0003L0.193789 3.72656Z" fill="#5FB34E"/>
<path d="M13.6218 11.9112L11.4133 14.0336C11.2874 14.1595 11.1225 14.2224 10.9576 14.2224C10.7928 14.2224 10.6278 14.1595 10.502 14.0336L8.37948 11.9111L1.10547 19.1847C1.35761 19.3054 1.63643 19.3786 1.93416 19.3786H20.067C20.3646 19.3786 20.6433 19.3055 20.8954 19.1848L13.6218 11.9112Z" fill="#5FB34E"/>
</svg>
