<svg width="22" height="22" viewBox="0 0 22 22" fill="none" xmlns="http://www.w3.org/2000/svg">
<path d="M10.8419 10.5975C12.2978 10.5975 13.5583 10.0753 14.5886 9.04507C15.6185 8.015 16.1408 6.75464 16.1408 5.29857C16.1408 3.84301 15.6186 2.58248 14.5884 1.55208C13.5582 0.52217 12.2976 0 10.8419 0C9.38582 0 8.12546 0.52217 7.09538 1.55224C6.06531 2.58232 5.54297 3.84284 5.54297 5.29857C5.54297 6.75464 6.06531 8.01517 7.09538 9.04524C8.12579 10.0751 9.38632 10.5975 10.8419 10.5975ZM8.00713 2.46382C8.79752 1.67343 9.7247 1.28923 10.8419 1.28923C11.9589 1.28923 12.8863 1.67343 13.6768 2.46382C14.4672 3.25437 14.8516 4.18172 14.8516 5.29857C14.8516 6.41576 14.4672 7.34294 13.6768 8.1335C12.8863 8.92406 11.9589 9.30826 10.8419 9.30826C9.72504 9.30826 8.79785 8.92389 8.00713 8.1335C7.21657 7.34311 6.8322 6.41576 6.8322 5.29857C6.8322 4.18172 7.21657 3.25437 8.00713 2.46382Z" fill="#21222F"/>
<path d="M20.1149 16.917C20.0852 16.4883 20.0251 16.0207 19.9367 15.5269C19.8474 15.0294 19.7324 14.5591 19.5948 14.1292C19.4524 13.6849 19.2592 13.2462 19.0201 12.8257C18.7721 12.3893 18.4808 12.0093 18.1538 11.6966C17.8119 11.3695 17.3933 11.1065 16.9092 10.9146C16.4268 10.7238 15.8922 10.6271 15.3204 10.6271C15.0958 10.6271 14.8786 10.7193 14.4592 10.9924C14.201 11.1607 13.899 11.3554 13.562 11.5708C13.2738 11.7544 12.8834 11.9264 12.4012 12.0822C11.9307 12.2344 11.453 12.3116 10.9814 12.3116C10.5101 12.3116 10.0324 12.2344 9.56155 12.0822C9.07983 11.9266 8.68925 11.7545 8.40157 11.5709C8.06772 11.3576 7.76559 11.1629 7.50359 10.9922C7.08447 10.7191 6.86728 10.627 6.6427 10.627C6.07068 10.627 5.53625 10.7238 5.05403 10.9148C4.5703 11.1063 4.15152 11.3693 3.80928 11.6968C3.48232 12.0097 3.19093 12.3895 2.94319 12.8257C2.70435 13.2462 2.51099 13.6848 2.36865 14.1294C2.23119 14.5593 2.11621 15.0294 2.02692 15.5269C1.93829 16.02 1.87837 16.4878 1.84866 16.9175C1.81946 17.3376 1.80469 17.7749 1.80469 18.2166C1.80469 19.365 2.16975 20.2947 2.88965 20.9804C3.60065 21.657 4.54126 22 5.68547 22H16.2786C17.4225 22 18.3631 21.657 19.0743 20.9804C19.7943 20.2952 20.1594 19.3652 20.1594 18.2165C20.1592 17.7732 20.1443 17.3359 20.1149 16.917ZM18.1853 20.0463C17.7155 20.4935 17.0918 20.7108 16.2784 20.7108H5.68547C4.87192 20.7108 4.2482 20.4935 3.77856 20.0465C3.31783 19.6079 3.09392 19.0092 3.09392 18.2166C3.09392 17.8044 3.10751 17.3974 3.1347 17.0066C3.16122 16.6233 3.21544 16.2021 3.29584 15.7547C3.37523 15.3127 3.47627 14.898 3.59645 14.5225C3.71176 14.1625 3.86903 13.806 4.06407 13.4625C4.25021 13.1352 4.46439 12.8544 4.70071 12.6282C4.92177 12.4165 5.20039 12.2433 5.5287 12.1134C5.83234 11.9932 6.17357 11.9274 6.54401 11.9175C6.58916 11.9415 6.66956 11.9873 6.7998 12.0723C7.06483 12.245 7.37032 12.442 7.70802 12.6577C8.0887 12.9004 8.57915 13.1196 9.1651 13.3088C9.76414 13.5025 10.3751 13.6009 10.9815 13.6009C11.588 13.6009 12.1991 13.5025 12.7978 13.309C13.3843 13.1195 13.8745 12.9004 14.2557 12.6574C14.6013 12.4365 14.8982 12.2452 15.1633 12.0723C15.2935 11.9875 15.3739 11.9415 15.4191 11.9175C15.7897 11.9274 16.1309 11.9932 16.4347 12.1134C16.7628 12.2433 17.0415 12.4167 17.2625 12.6282C17.4989 12.8543 17.713 13.1351 17.8992 13.4627C18.0944 13.806 18.2518 14.1626 18.367 14.5223C18.4873 14.8983 18.5885 15.3129 18.6677 15.7545C18.748 16.2028 18.8024 16.6241 18.8289 17.0068C18.8562 17.396 18.87 17.8032 18.8702 18.2166C18.87 19.0094 18.6461 19.6079 18.1853 20.0463Z" fill="#21222F"/>
</svg>
