<svg width="18" height="22" viewBox="0 0 18 22" fill="none" xmlns="http://www.w3.org/2000/svg">
<path fill-rule="evenodd" clip-rule="evenodd" d="M0.185547 8.81354C0.185547 3.95377 4.13927 0 8.99908 0C13.8589 0 17.8126 3.95377 17.8126 8.81358V9.05721C17.8126 11.515 16.4035 14.3791 13.6243 17.5699C11.6096 19.883 9.62303 21.4958 9.53945 21.5634L8.99908 22L8.4587 21.5634C8.37517 21.4958 6.3886 19.8829 4.37388 17.5698C1.59466 14.3791 0.185547 11.515 0.185547 9.05717V8.81354ZM8.9987 4.72968C6.74662 4.72968 4.91439 6.56191 4.91439 8.81399C4.91439 11.0661 6.74662 12.8983 8.9987 12.8983C11.2508 12.8983 13.083 11.0661 13.083 8.81399C13.083 6.56191 11.2508 4.72968 8.9987 4.72968Z" fill="#5FB34E"/>
</svg>
