<svg width="45" height="39" viewBox="0 0 45 39" fill="none" xmlns="http://www.w3.org/2000/svg">
<path d="M42.8993 29.2903H42.3081V20.7329C42.3081 20.3766 42.0193 20.0877 41.6629 20.0877C41.3065 20.0877 41.0177 20.3766 41.0177 20.7329V29.9354V32.8463V35.7346C41.0177 36.7987 40.152 37.6643 39.088 37.6643C38.0239 37.6643 37.1583 36.7987 37.1583 35.7346V3.26506C37.1583 2.20097 38.0239 1.33533 39.088 1.33533C40.152 1.33533 41.0177 2.20097 41.0177 3.26506V6.15332V9.06426V17.6574C41.0177 18.0137 41.3065 18.3026 41.6629 18.3026C42.0193 18.3026 42.3081 18.0137 42.3081 17.6574V9.70937H42.8993C44.0576 9.70937 45 8.76701 45 7.6087C45 6.45039 44.0575 5.50803 42.8993 5.50803H42.3081V3.26506C42.3081 1.48949 40.8636 0.0450097 39.088 0.0450097C38.0364 0.0450097 37.1011 0.551787 36.5131 1.33384C35.925 0.551787 34.9898 0.0450097 33.9383 0.0450097C32.8867 0.0450097 31.9514 0.551787 31.3634 1.33384C30.7753 0.551787 29.8401 0.0450097 28.7886 0.0450097C27.737 0.0450097 26.8016 0.551787 26.2136 1.33384C25.6257 0.551787 24.6903 0.0450097 23.6388 0.0450097C22.5873 0.0450097 21.6519 0.551787 21.064 1.33384C20.4759 0.551787 19.5406 0.0450097 18.4891 0.0450097C17.4376 0.0450097 16.5023 0.551787 15.9143 1.33384C15.3262 0.551787 14.3909 0.0450097 13.3393 0.0450097C11.5639 0.0450097 10.1193 1.48958 10.1193 3.26506V5.50811H8.80277V1.61219C8.80277 0.747959 8.09974 0.0449219 7.23551 0.0449219H1.56744C0.703037 0.0449219 0 0.748047 0 1.61219V30.7152C0 31.0715 0.288809 31.3604 0.645205 31.3604C1.0016 31.3604 1.29041 31.0715 1.29041 30.7152V1.61219C1.29041 1.45952 1.41469 1.33533 1.56727 1.33533H7.23533C7.388 1.33533 7.51219 1.45952 7.51219 1.61219V6.15323V9.06417V29.9353V32.8462V37.3873C7.51219 37.5399 7.38791 37.6641 7.23533 37.6641H1.56727C1.4146 37.6641 1.29041 37.5399 1.29041 37.3873V33.7869C1.29041 33.4306 1.0016 33.1417 0.645205 33.1417C0.288809 33.1417 0 33.4308 0 33.7872V37.3875C0 38.2518 0.703037 38.9548 1.56727 38.9548H7.23533C8.09956 38.9548 8.8026 38.2518 8.8026 37.3875V33.4916H10.1191V35.7347C10.1191 37.5102 11.5637 38.9547 13.3392 38.9547C14.3908 38.9547 15.3261 38.4479 15.9141 37.6659C16.5021 38.4479 17.4374 38.9547 18.4889 38.9547C19.5405 38.9547 20.4758 38.4479 21.0638 37.6659C21.6519 38.4479 22.5871 38.9547 23.6386 38.9547C24.6901 38.9547 25.6255 38.4479 26.2135 37.6659C26.8015 38.4479 27.7369 38.9547 28.7884 38.9547C29.8399 38.9547 30.7753 38.4479 31.3632 37.6659C31.9513 38.4479 32.8866 38.9547 33.9381 38.9547C34.9896 38.9547 35.9249 38.4479 36.5129 37.6659C37.101 38.4479 38.0363 38.9547 39.0878 38.9547C40.8633 38.9547 42.3079 37.5101 42.3079 35.7347V33.4916H42.8992C44.0575 33.4916 44.9998 32.5492 44.9998 31.3909C44.9998 30.2326 44.0575 29.2903 42.8993 29.2903ZM42.308 6.79853H42.8992C43.3461 6.79853 43.7096 7.16204 43.7096 7.60879C43.7096 8.05562 43.3461 8.41905 42.8992 8.41905H42.308V6.79853ZM10.1191 32.2012H8.8026V30.5806H10.1191V32.2012ZM10.1191 29.2903H8.8026V9.70946H10.1191V29.2903ZM10.1191 8.41914H8.8026V6.79853H10.1191V8.41914ZM15.2689 35.7347C15.2689 36.7988 14.4032 37.6644 13.3392 37.6644C12.2751 37.6644 11.4095 36.7988 11.4095 35.7347V32.8464V29.9355V9.06426V6.15332V3.26506C11.4095 2.20097 12.2752 1.33533 13.3392 1.33533C14.4033 1.33533 15.2689 2.20097 15.2689 3.26506V35.7347ZM20.4186 35.7347C20.4186 36.7988 19.5529 37.6644 18.4889 37.6644C17.4248 37.6644 16.5593 36.7988 16.5593 35.7347V3.26506C16.5593 2.20097 17.4249 1.33533 18.4889 1.33533C19.553 1.33533 20.4186 2.20097 20.4186 3.26506V35.7347ZM23.6387 37.6644C22.5747 37.6644 21.709 36.7988 21.709 35.7347V3.26506C21.709 2.20097 22.5746 1.33533 23.6386 1.33533C24.7026 1.33533 25.5683 2.20097 25.5683 3.26506V35.7347H25.5683C25.5683 36.7988 24.7027 37.6644 23.6387 37.6644ZM30.7181 35.7347C30.7181 36.7988 29.8525 37.6644 28.7885 37.6644C27.7245 37.6644 26.8588 36.7988 26.8588 35.7347V3.26506C26.8588 2.20097 27.7245 1.33533 28.7885 1.33533C29.8525 1.33533 30.7181 2.20097 30.7181 3.26506V35.7347ZM35.8678 35.7347C35.8678 36.7988 35.0022 37.6644 33.9382 37.6644C32.8741 37.6644 32.0085 36.7988 32.0085 35.7347V3.26506C32.0085 2.20097 32.8742 1.33533 33.9382 1.33533C35.0023 1.33533 35.8678 2.20097 35.8678 3.26506V35.7347ZM42.8993 32.2012H42.3081V30.5806H42.8993C43.3462 30.5806 43.7097 30.9441 43.7097 31.3908C43.7097 31.8376 43.3462 32.2012 42.8993 32.2012Z" fill="#5FB34E"/>
<path d="M5.8453 2.98535H2.95722C2.39665 2.98535 1.94067 3.44142 1.94067 4.00198V6.88998C1.94067 7.45055 2.39665 7.90661 2.95722 7.90661H5.8453C6.40587 7.90661 6.86184 7.45055 6.86184 6.88998V4.00198C6.86184 3.44142 6.40587 2.98535 5.8453 2.98535ZM5.57143 6.6162H3.231V4.27567H5.57143V6.6162Z" fill="#5FB34E"/>
</svg>
