<?xml version="1.0" encoding="utf-8"?>
<!-- Generator: Adobe Illustrator 23.0.2, SVG Export Plug-In . SVG Version: 6.00 Build 0)  -->
<svg version="1.1" id="Шар_1" xmlns="http://www.w3.org/2000/svg" xmlns:xlink="http://www.w3.org/1999/xlink" x="0px" y="0px"
	 viewBox="0 0 24 22" style="enable-background:new 0 0 24 22;" xml:space="preserve">
<style type="text/css">
	.st0{fill:#21222F;}
</style>
<path class="st0" d="M20.8,3.7c-2-2-4.6-3.1-7.4-3.1c-3.8,0-7.5,2.2-9.2,5.6H1.9c-0.5,0-1,0.3-1.2,0.8C0.5,7.5,0.7,8,1,8.4l3.1,3.1
	c0.5,0.4,1.2,0.4,1.7,0l3.1-3.1C9.3,8,9.4,7.5,9.2,7C9,6.5,8.5,6.2,8,6.2H6.5c1.6-2.2,4.2-3.6,6.9-3.6c4.7,0,8.4,3.8,8.4,8.4
	s-3.8,8.4-8.4,8.4c-2.3,0-4.4-0.9-6-2.5c-0.4-0.4-1-0.4-1.4,0c-0.4,0.4-0.4,1,0,1.4c2,2,4.6,3.1,7.4,3.1s5.4-1.1,7.4-3.1
	c2-2,3.1-4.6,3.1-7.4S22.8,5.7,20.8,3.7z"/>
</svg>
