<svg width="21" height="21" viewBox="0 0 21 21" fill="none" xmlns="http://www.w3.org/2000/svg">
<path d="M8.75104 1.26764H12.2608V1.8582H13.5282V1.18497C13.5284 0.531601 12.9971 0 12.3441 0H8.66772C8.01468 0 7.4834 0.531601 7.4834 1.18497V1.8582H8.75104V1.26764Z" fill="#A9A9A9"/>
<path d="M16.4544 6.87988H4.55536C4.22931 6.87988 3.97265 7.15802 3.99892 7.4831L4.99371 19.7839C5.04915 20.4706 5.62192 20.9995 6.31006 20.9995H14.6995C15.3876 20.9995 15.9604 20.4706 16.0159 19.7838L17.0106 7.4831C17.0371 7.15802 16.7804 6.87988 16.4544 6.87988ZM7.43654 19.6875C7.42325 19.6883 7.40995 19.6888 7.39681 19.6888C7.06452 19.6888 6.78558 19.43 6.76491 19.0939L6.14151 8.99555C6.12004 8.64612 6.38584 8.34539 6.73511 8.32392C7.08327 8.30277 7.38527 8.56793 7.40674 8.91753L8.02999 19.0159C8.05162 19.3653 7.78582 19.6659 7.43654 19.6875ZM11.1457 19.055C11.1457 19.4049 10.862 19.6886 10.5119 19.6886C10.1618 19.6886 9.8781 19.4049 9.8781 19.055V8.95646C9.8781 8.60638 10.1618 8.32264 10.5119 8.32264C10.8618 8.32264 11.1457 8.60638 11.1457 8.95646V19.055ZM14.8682 8.99379L14.273 19.0921C14.2533 19.4289 13.9739 19.6886 13.641 19.6886C13.6285 19.6886 13.6158 19.6883 13.6031 19.6877C13.2537 19.667 12.9871 19.3671 13.0078 19.0176L13.6028 8.91913C13.6233 8.56969 13.9223 8.30309 14.2727 8.32376C14.6221 8.34427 14.8887 8.64436 14.8682 8.99379Z" fill="#A9A9A9"/>
<path d="M18.6477 4.92458L18.2314 3.6768C18.1217 3.34788 17.8137 3.12598 17.4669 3.12598H3.54575C3.19904 3.12598 2.89094 3.34788 2.78135 3.6768L2.36511 4.92458C2.28484 5.16522 2.3893 5.41068 2.58428 5.53308C2.66375 5.58291 2.7578 5.61287 2.86114 5.61287H18.1516C18.255 5.61287 18.3492 5.58291 18.4285 5.53292C18.6235 5.41052 18.7279 5.16506 18.6477 4.92458Z" fill="#A9A9A9"/>
</svg>
