<?xml version="1.0" standalone="no"?>
<!DOCTYPE svg PUBLIC "-//W3C//DTD SVG 1.1//EN" "http://www.w3.org/Graphics/SVG/1.1/DTD/svg11.dtd">
<svg xmlns="http://www.w3.org/2000/svg">
<metadata>Copyright (C) 2020 by original authors @ fontello.com</metadata>
<defs>
<font id="fontello" horiz-adv-x="1000" >
<font-face font-family="fontello" font-weight="400" font-stretch="normal" units-per-em="1000" ascent="850" descent="-150" />
<missing-glyph horiz-adv-x="1000" />
<glyph glyph-name="star" unicode="&#xe800;" d="M526 850l161-305 340-59-240-247 49-341-310 152-309-152 49 341-240 247 339 59 161 305z" horiz-adv-x="1053" />

<glyph glyph-name="star-empty" unicode="&#xe801;" d="M221-116l48 345-245 252 345 59 162 310 162-310 345-59-238-252 48-345-313 156-314-156z m314 211l248-124-38 276 193 200-272 48-131 245-132-245-272-48 193-200-38-276 249 124z" horiz-adv-x="1069" />

<glyph glyph-name="heatertt" unicode="&#xe802;" d="M941-5v31h15c8 0 15 6 15 14v766c0 24-20 44-44 44-24 0-44-20-44-44v-15h-766v15c0 24-19 44-44 44-24 0-44-20-44-44v-766c0-8 7-14 15-14h15v-31c-34-7-59-36-59-72 0-40 33-73 73-73 41 0 74 33 74 73 0 36-26 65-59 72v31h15c8 0 14 6 14 14v78h88v-195c0-8 7-14 15-14h560c8 0 15 6 15 14v195h88v-78c0-8 6-14 15-14h14v-31c-33-7-58-36-58-72 0-40 32-73 73-73 40 0 73 33 73 73 0 36-25 65-59 72z m-824-72c0-24-19-44-44-44-24 0-44 20-44 44 0 24 20 44 44 44 25 0 44-20 44-44z m-29 132h-29v751c0 8 6 15 14 15 8 0 15-7 15-15v-751z m117 92h-88v29h88v-29z m0 59h-88v58h88v-58z m0 87h-88v30h88v-30z m0 59h-88v59h88v-59z m0 88h-88v29h88v-29z m0 58h-88v59h88v-59z m0 88h-88v30h88v-30z m561-648h-532v707h532v-707z m117 209h-88v29h88v-29z m0 59h-88v58h88v-58z m0 87h-88v30h88v-30z m0 59h-88v59h88v-59z m0 88h-88v29h88v-29z m0 58h-88v59h88v-59z m0 88h-88v30h88v-30z m0 59h-88v15c0 8-7 14-15 14h-560c-8 0-15-6-15-14v-15h-88v59h766v-59z m0 88h-766v29h766v-29z m29 73c0 8 7 15 15 15 8 0 14-7 14-15v-751h-29v751z m15-927c-24 0-44 20-44 44 0 24 20 44 44 44 24 0 44-20 44-44 0-24-20-44-44-44z m-205 737c-8 0-15-7-15-15v-605h-414v78c0 8-7 14-15 14-8 0-14-6-14-14v-92c0-8 6-15 14-15h444c8 0 14 7 14 15v619c0 8-6 15-14 15z m-444 0c-8 0-14-7-14-15v-469c0-8 6-14 14-14 8 0 15 6 15 14v469c0 8-7 15-15 15z" horiz-adv-x="1000" />

<glyph glyph-name="login" unicode="&#xe803;" d="M535-129c-10 0-18 2-25 7-12 10-12 26-12 31v4l-192 2c-11 0-25 2-35 11-9 9-10 23-10 34v220c-19 1-38 4-40 31v35c-2 1-4 1-9 1h-174c-9 0-20 1-28 9-9 9-10 21-10 33v123c0 12 1 25 10 34 9 9 21 9 28 9h49v-32h-49c-3 0-5 0-6 0 0-1 0-4 0-11v-123c0-7 0-10 0-11 1 0 3 0 6 0h174c13 0 25-1 33-9 5-5 8-12 8-20v-37c1 0 4 0 9 0h1l160 133c8 6 11 10 12 11-1 0-4 3-11 9l-154 128c-8 5-14 6-15 5-1 0-2-2-2-8v-22c0-27-3-44-41-44h-67v31h67c5 0 7 1 9 1 0 2 0 7 0 12v22c0 23 12 32 19 36 7 4 15 5 23 3v211c0 12 2 27 13 38 12 13 32 15 52 15 0 0 0 0 1 0h167v8c0 12 1 29 14 40 14 12 35 11 67 5l376-80c34-8 54-21 53-60v-698c-3-39-18-55-54-60l-384-73c-13-2-24-4-33-4z m-5 58v-20c0-5 0-7 0-7 1 0 7-1 32 4l384 73c22 3 26 6 27 30v697c1 18 0 22-28 29l-374 80c-30 5-39 4-41 1 0 0-3-2-3-14v-25l3-575h-32l-2 559h-168 0c-21 0-28-2-30-5-2-2-3-7-3-16v-227l148-123c12-9 24-19 24-35 0-15-12-26-24-34l-150-125v-236c0-9 1-11 1-12 0 1 2-1 12-1l192-2v205h32v-221h0z m106 355c-26 0-57 2-58 42v58c1 17 8 29 22 35 11 5 25 5 41 5l0-32c-11 1-24 0-29-2-1 0-2 0-2-6v-58c0-10 0-10 31-10l0-32c-1 0-3 0-5 0z" horiz-adv-x="1026" />

<glyph glyph-name="heart" unicode="&#xe804;" d="M500-79q-14 0-25 10l-348 336q-5 5-15 15t-31 37-38 54-30 67-13 77q0 123 71 192t196 70q34 0 70-12t67-33 54-38 42-38q20 20 42 38t54 38 67 33 70 12q125 0 196-70t71-192q0-123-128-251l-347-335q-10-10-25-10z" horiz-adv-x="1000" />

<glyph glyph-name="little-phone" unicode="&#xe805;" d="M651-72v844c0 43-35 78-78 78h-446c-43 0-78-35-78-78v-844c0-43 35-78 78-78h446c43 0 78 35 78 78z m-552 742h502v-568h-502v568z m200-671h102c14 0 25-11 25-25 0-14-11-25-25-25h-102c-14 0-25 11-25 25 0 14 11 25 25 25z" horiz-adv-x="700" />

<glyph glyph-name="lens" unicode="&#xe806;" d="M994-85l-291 291c56 68 89 154 89 248 0 218-178 396-396 396-218 0-396-178-396-396 0-218 178-396 396-396 94 0 181 34 249 89l290-291c8-8 21-8 29 0l30 30c8 8 8 21 0 29z m-598 227c-172 0-313 140-313 312 0 173 141 313 313 313 172 0 312-140 312-313 0-172-140-312-312-312z m30 314v114h-32v-114h-114v-32h114v-114h32v114h114v32h-114z" horiz-adv-x="1000" />

<glyph glyph-name="ok" unicode="&#xe807;" d="M1237 750l-706-706-368 369-63-63 431-431 769 768-63 63z" horiz-adv-x="1400" />

<glyph glyph-name="mail" unicode="&#xe808;" d="M912 731h-824c-14 0-26-3-38-9l448-448 100 97c0 0 0 0 0 0 0 0 1 0 1 0l351 351c-12 6-24 9-38 9z m79-50l-330-331 330-331c6 12 9 25 9 38v586c0 14-3 26-9 38z m-982 0c-6-12-9-24-9-38v-586c0-13 3-26 9-38l330 331-330 331z m610-372l-100-97c-6-6-13-8-21-8-7 0-15 2-21 8l-96 97-331-331c12-6 24-9 38-9h824c14 0 26 3 38 9l-331 331z" horiz-adv-x="1000" />

<glyph glyph-name="play" unicode="&#xe809;" d="M719 358l-340-196v392l340-196z" horiz-adv-x="1000" />

<glyph glyph-name="radiator" unicode="&#xe80a;" d="M1100 99h-15v219c0 10-8 17-17 17-9 0-16-7-16-17v-236-74-74c0-28-22-50-50-50-27 0-49 22-49 50v832c0 28 22 50 49 50 28 0 50-22 50-50v-74-74-221c0-9 7-16 16-16 9 0 17 7 17 16v204h15c30 0 54 24 54 54 0 30-24 54-54 54h-15v57c0 46-37 83-83 83-27 0-51-13-66-33-15 20-39 33-66 33-27 0-51-13-66-33-15 20-39 33-66 33-27 0-51-13-66-33-15 20-39 33-66 33-27 0-51-13-66-33-15 20-39 33-66 33-27 0-51-13-66-33-15 20-39 33-66 33-45 0-82-37-82-83v-57h-34v100c0 22-18 40-40 40h-146c-22 0-40-18-40-40v-747c0-9 7-16 17-16 9 0 16 7 16 16v747c0 4 3 7 7 7h146c3 0 7-3 7-7v-117-74-536-74-117c0-4-4-7-7-7h-146c-4 0-7 3-7 7v93c0 9-7 16-16 16-10 0-17-7-17-16v-93c0-22 18-40 40-40h146c22 0 40 18 40 40v100h34v-57c0-46 37-83 82-83 27 0 51 13 66 33 15-20 39-33 66-33 27 0 51 13 66 33 15-20 39-33 66-33 27 0 51 13 66 33 15-20 39-33 66-33 27 0 51 13 66 33 15-20 39-33 66-33 27 0 51 13 66 33 15-20 39-33 66-33 46 0 83 37 83 83v57h15c30 0 54 24 54 54 0 30-24 54-54 54z m-15 577h15c11 0 21-10 21-21 0-12-10-21-21-21h-15v42z m-825-652h-34v42h34v-42z m0 75h-34v502h34v-502z m0 535h-34v42h34v-42z m132-700c0-28-23-50-50-50-27 0-49 22-49 50v74 74 536 74 74c0 28 22 50 49 50 27 0 50-22 50-50v-832z m132 0c0-28-23-50-50-50-27 0-49 22-49 50v832c0 28 22 50 49 50 27 0 50-22 50-50v-832z m82-50c-27 0-49 22-49 50v832c0 28 22 50 49 50 27 0 50-22 50-50v-832h0c0-28-23-50-50-50z m182 50c0-28-23-50-50-50-27 0-49 22-49 50v832c0 28 22 50 49 50 27 0 50-22 50-50v-832z m132 0c0-28-22-50-50-50-27 0-49 22-49 50v832c0 28 22 50 49 50 28 0 50-22 50-50v-832z m180 90h-15v42h15c11 0 21-9 21-21 0-11-10-21-21-21z m-950 750h-74c-14 0-26-12-26-27v-74c0-14 12-26 26-26h74c14 0 26 12 26 26v74c0 15-12 27-26 27z m-7-94h-60v60h60v-60z" horiz-adv-x="1154" />

<glyph glyph-name="home" unicode="&#xe80b;" d="M980 401l-417 418c-35 35-91 35-126 0l-417-418c-27-26-27-68 0-94 26-26 68-26 94 0l57 57v-438c0-39 32-71 71-71h152v199c0 15 13 28 28 28h156c15 0 28-13 28-28v-199h152c39 0 71 32 71 71v437l57-56c13-13 30-20 47-20 17 0 34 7 47 20 27 26 27 68 0 94z" horiz-adv-x="1000" />

<glyph glyph-name="phone" unicode="&#xe80c;" d="M496 836h-424c-40 0-72-32-72-72v-842c0-40 32-72 72-72h424c40 0 72 32 72 72v842c0 40-32 72-72 72z m43-784h-409c-8 0-14-6-14-14 0-8 6-15 14-15h409v-101c0-24-19-43-43-43h-424c-24 0-43 19-43 43v101h43c8 0 15 7 15 15 0 8-7 14-15 14h-43v640h510v-640z m0 669h-510v43c0 24 19 43 43 43h424c24 0 43-19 43-43v-43z m-197 57h-58c-8 0-14-6-14-14 0-8 6-15 14-15h58c8 0 14 7 14 15 0 8-6 14-14 14z m-58-784c-24 0-43-19-43-43 0-24 19-43 43-43 24 0 43 19 43 43 0 24-19 43-43 43z m0-57c-8 0-14 6-14 14 0 8 6 15 14 15 8 0 15-7 15-15 0-8-7-14-15-14z m-58 812c8 0 15 7 15 15 0 8-7 14-15 14-8 0-14-6-14-14 0-8 6-15 14-15z m604-366c0 32-13 63-36 85-22 23-53 36-85 36-9 0-16-8-16-16 0-9 7-17 16-17 24 0 46-9 63-25 16-17 25-39 25-63 0-49-39-88-88-88-9 0-16-7-16-16 0-5 2-9 5-12 3-3 7-4 11-4 67 0 121 54 121 120z m81-2c0 55-22 108-61 147-39 39-91 61-147 61-9 0-16-7-16-16 0-9 7-16 16-16 47 0 91-18 124-52 34-33 52-77 52-124 0-97-79-176-176-176-9 0-16-7-16-16 0-5 2-9 4-12 3-3 7-4 12-4 115 0 208 93 208 208z m85-1c0 78-31 152-86 208-56 55-129 85-208 85-8 0-16-7-16-16 0-9 8-16 16-16 70 0 136-27 185-76 49-50 77-115 77-185 0-144-118-261-262-261-9 0-16-7-16-16 0-5 2-9 5-12 3-2 7-4 11-4 162 0 294 131 294 293z" horiz-adv-x="1132" />

<glyph glyph-name="point" unicode="&#xe80d;" d="M8 449c0 221 180 401 401 401 221 0 401-180 401-401v-11c0-111-64-242-191-387-91-105-182-178-185-181l-25-20-24 20c-4 3-95 76-186 181-126 145-191 276-191 387v11z m401 186c-102 0-186-83-186-186 0-102 84-185 186-185 102 0 186 83 186 185 0 103-84 186-186 186z" horiz-adv-x="818" />

<glyph glyph-name="localvent" unicode="&#xe80e;" d="M487 698c6 6 9 10 9 17 0 8-3 11-9 17l0 0c-7 7-16 17-16 34 0 18 9 27 16 34l0 0c6 6 9 9 9 17 0 7 5 12 12 12 6 0 12-5 12-12 0-18-10-27-16-34l0 0c-6-6-9-9-9-17 0-7 3-11 9-17l0 0c6-7 16-16 16-34 0-17-10-27-16-33l0 0 0 0c-6-7-9-10-9-17 0-7-6-12-12-12-7 0-12 5-12 12 0 17 9 26 16 33l0 0z m174-125c0 7 0 15 0 25l-561-8 0 0-1 0c-12 1-19 0-22-1-3-1-5-3-8-8-4-10-8-24-12-38h104c167 24 332 23 501 2 0 3 0 5 0 8-1 5-1 10-1 15 0 1 0 3 0 5z m35-114c-14 17-23 37-29 55-155-45-345-41-506 3h-110c-1-5-2-9-3-13 0-3-1-5-1-7l0-1v-494c0-15 3-26 9-35 5-8 13-15 25-18 157-43 262-65 366-65 104 0 209 21 366 65 15 4 23 13 27 21 4 10 5 21 5 30v381c-61 1-115 31-149 78z m175-77v-382c0-10-1-26-8-41-7-15-20-28-43-35-157-43-265-66-373-66-108 1-216 23-373 66-17 5-31 15-40 29-9 14-13 31-13 49v495 1l1 1 12-2c-12 2-12 2-12 2l0 0 0 0 0 0 0 0 0 1 0 0 0 2c0 2 1 4 1 7 2 6 3 15 5 24 5 19 11 42 17 58l1 1 0 0c5 10 11 17 22 21 9 3 20 3 32 2l570 9c23 76 94 131 178 131 103 0 187-84 187-187 0-7-6-13-13-13-7 0-13 6-13 13 0 89-72 161-161 161-88 0-159-69-161-156 0-8 0-13 0-18 2-31 13-59 30-82 27-35 73-65 136-67 71 2 131 51 150 117 2 7 9 11 16 9 6-2 10-9 8-16-20-71-81-125-156-134z m-636 144c123 13 246 12 371-1-117-24-249-22-371 1z m633 16c-12-3-20 0-24 3-4 4-7 11-7 18 0 7 3 13 7 16 4 3 11 6 23 2 7-3 14 1 16 8 3 7-1 14-8 16-19 6-35 3-47-6-11-9-16-23-16-36 0-14 5-28 16-37 11-10 28-13 46-8 7 2 11 9 10 15-2 7-9 11-16 9z m-131 64h-12v-13-32-31-13h12 43c7 0 13 6 13 13 0 7-6 13-13 13h-30v6h30c7 0 13 5 13 12 0 7-6 13-13 13h-30v6h30c7 0 13 6 13 13 0 7-6 13-13 13h-43z m202-63c-8 0-13 2-15 5-3 4-5 8-5 13 0 5 2 10 5 13 3 3 8 6 15 6 8 0 12-3 15-6 3-3 5-8 5-13 0-4-1-9-4-12-3-3-8-6-16-6z m0 63c-14 0-26-6-34-14-7-9-11-20-11-31-1-10 3-21 11-30 8-9 20-14 34-14 15 0 26 6 34 14 8 9 12 20 12 31 0 10-4 21-12 30-8 8-20 14-34 14z m-265-177c0 7-6 13-13 13-7 0-12-6-12-13h12c-12 0-12 0-12 0v0 0 0 0 0 0 0 0 0 0 0 0 0 0-1 0 0 0 0 0 0 0 0-1 0 0 0 0 0-1 0 0 0 0-1 0 0 0-1 0 0 0-1 0 0 0-1 0 0 0-1 0 0-1 0 0-1 0 0-1 0 0-1 0 0-1 0-1 0 0-1 0-1 0 0-1 0-1 0-1 0-1 0-1 0 0-1 0-1 0-1 0-1 0-1 0-1-1 0-1 0-1 0-1 0-1-1 0-1 0-1-1 0-1 0-1-1 0-1 0-1-1 0-1-1 0-1-1 0-1-1 0-1-1-1 0-1-1 0-1-1-1 0-1-1 0-1-1-1 0-1-1-1-1 0-1-1-1 0-1-1-1-1 0-1-1-1-1-1 0-1-1-1-1-1 0-1-1-1-1-1-1-1 0-1-1-1-1-1-1-1-1-1 0-1-1-1-1-1-1-1-1-1-1-1-1-1-1-1-1 0-1-1-1-1-1-1-1-1-1-1-1-1-1-1-1-1-1-1-1-1-1-1-2-1-1-1-1-1-1-1-1-1-1-1-1-1-1-1-1-1-2-1-1-1-1-1-1-1-1-1-1-2-1-1-1-1-1-1-1-1-2-1-1-1-1-1-1-1-2-1-1-1-1-1-1-2-1-1-1-1-1-1-2-1-1-1-1-1-2-1-1-1-1-2-1-1-1-1-1-2-1-1-1-1-2-1-1-1-1-2-1-1-1-1-2-1-1-1-2-1-1-1-1-2-1-1-1-1-2-1-1-1-2-1-1-1-2-1-1-1-1-2-1-1-1-2-1-1-1-2-1-1-1-2-1-1-1-2-1-1-1-2-1-1-1-2-1-1-1-2-1-1-1-2-1-1-1-2-1-1-1-2-1-1-1-2-1-1-1-2-1-1-2-1-1-1-2-1-1-1-2-1-1-1-2-1-1-1-2-1-1-1-2-1-1-1-2-1-1-1-2-1-1-1-2-1-1-2-1-1-1-2-1-1-1-1-2-1-1-1-2-1-1-1-2-1-1-1-2-1-1-1-2-1-1-1-2-1-1-1-1-2-1-1-1-2-1-1-1-2-1-1-1-1-2-1-1-1-1-2-1-1-1-1-2-1-1-1-1-2-1-1-1-1-2-1-1-1-1-1c0-8 5-13 12-13 7 0 13 5 13 13v1 1 1 1 1 2 1 1 1 1 2 1 1 1 1 2 1 1 1 1 2 1 1 1 1 2 1 1 1 1 2 1 1 1 2 1 1 1 2 1 1 1 1 2 1 1 1 2 1 1 1 2 1 1 1 2 1 1 1 2 1 1 1 2 1 1 1 1 2 1 1 1 2 1 1 2 1 1 1 2 1 1 1 2 1 1 1 2 1 1 1 2 1 1 1 2 1 1 1 2 1 1 1 2 1 1 1 2 1 1 2 1 1 1 2 1 1 1 2 1 1 1 2 1 1 1 2 1 1 1 2 1 1 1 2 1 1 1 2 1 1 1 2 1 1 1 2 1 1 1 2 1 1 1 2 1 1 1 2 1 1 1 1 2 1 1 1 2 1 1 1 2 1 1 1 1 2 1 1 1 1 2 1 1 1 2 1 1 1 1 2 1 1 1 1 2 1 1 1 1 2 1 1 1 1 1 2 1 1 1 1 2 1 1 1 1 1 2 1 1 1 1 1 1 2 1 1 1 1 1 1 2 1 1 1 1 1 1 1 2 1 1 1 1 1 1 1 1 2 1 1 1 1 1 1 1 1 1 1 2 1 1 1 1 1 1 1 1 1 1 1 1 1 1 1 1 1 2 1 1 1 1 1 1 1 1 1 1 1 1 1 1 1 1 1 1 1 1 1 1 0 1 1 1 1 1 1 1 1 1 1 1 1 1 1 1 1 0 1 1 1 1 1 1 1 1 1 0 1 1 1 1 1 1 1 0 1 1 1 1 1 0 1 1 1 1 1 0 1 1 1 1 0 1 1 1 0 1 1 1 1 0 1 1 1 0 1 1 0 1 1 1 0 1 1 0 1 1 1 0 1 1 0 1 1 0 1 1 0 1 1 0 1 0 1 1 0 1 0 1 1 0 1 0 1 1 0 1 0 1 0 1 0 1 1 0 1 0 1 0 1 0 1 0 1 0 0 1 0 1 0 1 0 1 0 1 0 0 1 0 1 0 0 1 0 1 0 0 1 0 0 1 0 0 1 0 0 1 0 0 1 0 0 0 1 0 0 0 1 0 0 0 1 0 0 0 1 0 0 0 0 1 0 0 0 0 0 1 0 0 0 0 0 0 0 0 1 0 0 0 0 0 0 0 0 0 0 0 0 0 0c0 0 0 0-13 0h13z m-325-22c0 8-6 13-13 13-7 0-12-5-12-13v-470c0-7 5-13 12-13 7 0 13 6 13 13v470z m109 0c0 8-6 13-13 13-7 0-13-5-13-13v-470c0-7 6-13 13-13 7 0 13 6 13 13v470z m109 0c0 8-6 13-13 13-7 0-13-5-13-13v-470c0-7 6-13 13-13 7 0 13 6 13 13v470z m-216 308c0-7-3-11-9-17l-1 0c-6-7-15-16-15-33 0-7 5-12 11-12 7 0 12 5 12 12 0 7 3 10 9 17l0 0c7 6 16 16 16 33 0 18-9 27-16 34l0 0c-6 6-9 10-9 17 0 8 3 11 9 17l0 0c7 7 16 16 16 34 0 7-5 12-12 12-6 0-11-5-11-12 0-8-3-11-9-17l-1 0c-6-7-15-16-15-34 0-17 9-27 15-34l1 0c6-6 9-9 9-17z m-113-290c0 7-5 12-12 12-7 0-13-5-13-12v-86c0-7 6-12 13-12 7 0 12 5 12 12v86z m-12-115c7 0 12-6 12-13v-341c0-7-5-12-12-12-7 0-13 5-13 12v341c0 7 6 13 13 13z m261 388l-2 2 0 0 2-2z m0 34l2 3 0 0-2-3z m0 0l-2-2 0 0 2 2z m-16 34l-3 0v0h3z m16 34l-2 2 0 0 2-2z m0 0l2-2 0 0-2 2z m17-17l2-2 0 0-2 2z m0 0l-3 3 0 0 3-3z m0-34l2 2 0 0-2-2z m0 0l-3-2 0 0 3 2z m0-67l2-3 0 0 0 0-2 3z m0 0l-2 2 0 0-1 0 3-2z m0 0l-3 2 0 0 3-2z m-17 16l2-2 0 0-2 2z m174-125l3 0 0 0-3 0z m0 25l3 0 0 3-3 0 0-3z m-561-8l0 3 0 0 0-3z m0 0l-1-3 0 0 1 0 0 3z m-1 0l0-3 0 0 0 3z m-22-1l1-3 0 0-1 3z m-8-8l-3 1 0 0 3-1z m-12-38l-3 1-1-4h4v3z m104 0v-3h1l0 0-1 3z m501 2l0-3 4-1-1 4-3 0z m0 8l3 0 0 0-3 0z m34-94l3 1 0 1-3-2z m-29 55l3 1-1 3-3-1 1-3z m-506 3l0 3 0 1h0v-4z m-110 0v4h-2l-1-3 3-1z m-3-13l-3 1 0 0 3-1z m-1-7l-3 1 0 0 3-1z m0-1l-3 1 0-1v0h3z m0-494l3 0v0h-3z m9-35l2 2 0 0-2-2z m25-18l-1-3 0 0 1 3z m366-65l0-3 0 0 0 3z m366 65l-1 3 0 0 1-3z m27 21l3-1 0 0-3 1z m5 411h3v3l-3 0 0-3z m26 1l-1 3-2 0v-3h3z m-8-423l3-1 0 0-3 1z m-43-35l-1 4 0 0 1-4z m-373-66l0-3 0 0 0 3z m-373 66l-1-3 0 0 1 3z m-40 29l-2-2 0 0 2 2z m-13 49l4 0v0h-4z m0 496l-3 1 0 0v-1h3z m1 1l0 4-3 0-1-3 4-1z m0 0l3 0 0 0-3 0z m0 0l-4 1 0 0 4-1z m0 0l3 0 0 0-3 0z m0 0l-4 1 0 0 4-1z m0 0l-4 1 0 0 4-1z m0 1l-4 0 0 0 4 0z m0 0l-3 1 0 0 3-1z m0 2l-3 1 0 0 3-1z m1 7l4 0 0 0-4 0z m5 24l-3 1 0 0 3-1z m17 58l3-1 0 0-3 1z m1 1l-3 1 0 0 3-1z m0 0l3-2 0 0-3 2z m22 21l-1 3 0 0 1-3z m32 2l0-3 0 0 0 0 0 3z m570 9l0-3 2 0 1 2-3 1z m17-51l-4 0 0 0 4 0z m0-18l-3-1 0 0 3 1z m30-82l-2-2 0 0 2 2z m136-67l-1-3 1 0 0 3z m150 117l3-1 0 0-3 1z m16 9l-1-3 0 0 1 3z m8-16l4-1 0 0-4 1z m-792 10l0 4-1-7 1 3z m371-1l1-3 0 6-1-3z m238 20l2 3 0 0-2-3z m24-3l-1 4 0 0 1-4z m-24 37l-2 2 0 0 2-2z m23 2l1 3 0 0-1-3z m16 8l-3 1 0 0 3-1z m-8 16l1 3 0 0-1-3z m-47-6l-2 2 0 0 2-2z m0-73l2 2 0 0-2-2z m46-8l0 3 0 0 0-3z m10 15l-4 0 0 0 4 0z m-159 73v3h-4v-3h4z m0-89h-4v-3h4v3z m25 26h-3v-3h3v3z m0 6v3h-3v-3h3z m0 25h-3v-3h3v3z m0 6v3h-3v-3h3z m174-32l-3-2 0 0 3 2z m15-5l0 3 0 0 0-3z m-20 18l-3 0 0 0 3 0z m5 13l-2 2 0 0 2-2z m30 0l3 2 0 0-3-2z m5-13l3 0 0 0-3 0z m-4-12l-3 2 0 0 3-2z m-50 43l3-3 0 0-3 3z m-11-31l3 0 0 0-3 0z m11-30l-2-2 0 0 2 2z m34-14l0 4 0 0 0-4z m34 14l-2 3 0 0 2-3z m12 31l-4 0 0 0 4 0z m-12 30l-3-2 0 0 3 2z m-299-163v-3h3v3h-3z m-25 0h-4v-3h4v3z m-307 269l-3 2 0 0 3-2z m9 17l3 0v0h-3z m-10-17l3-2 0 0-3 2z m17-16l3-3 0 0-3 3z m0 0l-2 2 0 0 2-2z m16 33l3 0v0h-3z m-16 34l3 2 0 0-3-2z m0 0l-2-2 0 0 2 2z m0 34l3-2 0 0-3 2z m0 0l-2 3 0 0 2-3z m-16 17l-3 2 0 0 3-2z m-1 0l3-2 0 0-3 2z m0-68l3 3 0 0-3-3z m1 0l-3-2 0 0 3 2z m151-17c0-3-1-5-2-7-1-2-3-4-6-8l4-4c3 3 6 6 8 9 1 3 2 6 2 10h-6z m-8 15c3-3 5-5 6-7 1-2 2-4 2-8h6c0 5-1 8-2 11-2 3-5 6-8 9l-4-5z m0 0l0 0 4 5 0 0-4-5z m-17 36c0-19 10-29 17-36l4 5c-6 6-15 15-15 31h-6z m17 36c-7-7-17-17-17-36l6 0c0 16 9 25 15 32l-4 4z m0 0l0 0 4-4 0 0-4 4z m8 15c0-3-1-5-2-7-1-3-3-5-6-8l4-4c3 3 6 5 8 8 1 3 2 7 2 11h-6z m15 15c-8 0-15-7-15-15h6c0 5 4 9 9 9v6z m15-15c0 8-7 15-15 15v-6c5 0 8-4 8-9h7z m-17-36c7 7 17 17 17 36h-7c0-16-8-25-15-31l5-5z m0 0l0 0-5 5 0 0 5-5z m-8-15c0 3 0 6 2 8 1 2 3 4 6 7l-5 5c-3-4-5-6-7-9-2-3-3-7-3-11h7z m8-15c-3 3-5 6-6 8-2 2-2 4-2 7h-7c0-4 1-7 3-10 2-3 4-6 7-9l5 4z m0 0l0 0-5-4 0 0 5 4z m17-36c0 19-10 29-17 36l-5-4c7-7 15-15 15-32h7z m-17-36c7 7 17 17 17 36h-7c0-16-8-24-15-31l5-5z m0 0l0 0-4 5 0 0 4-5z m0 0l0 0-5 5 0 0 5-5z m-8-14c0 3 0 5 2 7 1 2 3 4 6 7l-5 5c-3-3-5-6-7-9-2-3-3-6-3-10h7z m-15-15c8 0 15 6 15 15h-7c0-5-3-9-8-9v-6z m-15 15c0-9 7-15 15-15v6c-5 0-9 4-9 9h-6z m17 35c-7-6-17-17-17-35h6c0 16 9 24 15 31l-4 4z m0 0l0 0 4-4 0 0-4 4z m179-127c0 7 0 15 0 25l-6 0c0-10 0-18 0-25l6 0z m-3 28l-561-8 0-6 561 8 0 6z m-561-8l0 0 0-6 0 0 0 6z m0 0l-1 0 0-6 0 0 1 6z m-1 0c-12 1-19 1-23-1l2-6c3 1 8 2 21 1l0 6z m-23-1c-2-1-4-1-5-3-2-2-4-4-5-7l6-3c1 3 2 4 3 5 1 1 2 2 3 2l-2 6z m-10-10c-4-10-9-24-12-38l6-2c4 14 8 28 12 38l-6 2z m-9-42h104v6h-104v-6z m105 0c167 24 331 22 500 2l0 6c-169 21-334 23-501-2l1-6z m503 5c0 3 0 5 0 8l-7 0c0-3 1-6 1-8l6 0z m0 8c-1 5-1 10-1 15h-6c0-5 0-10 0-15l7 0z m-1 15c0 1 0 3 0 5l-6 0c0-2 0-3 0-5h6z m35-107c-14 17-23 36-29 54l-6-2c6-19 16-38 30-56l5 4z m-33 56c-155-45-343-40-505 3l-1-6c162-44 352-48 508-3l-2 6z m-505 4h-110v-7h110v7z m-113-3c-1-5-2-9-3-13l7-1c0 3 1 8 2 13l-6 1z m-3-13c0-3-1-5-1-7l6-1c1 1 1 4 2 7l-7 1z m-1-7l0-1 6-2 0 2-6 1z m0-2v-494h6v494h-6z m0-494c0-15 3-27 9-37l5 4c-5 8-8 19-8 33l-6 0z m9-37c6-9 15-16 27-19l2 6c-11 3-19 9-24 17l-5-4z m27-19c157-44 262-65 367-65l0 6c-104 0-208 22-365 65l-2-6z m367-65c105 0 210 21 367 65l-2 6c-156-44-261-65-365-65l0-6z m367 65c16 5 24 13 29 23l-6 3c-4-8-10-16-25-20l2-6z m29 23c5 10 5 21 5 31h-6c0-9-1-20-5-28l6-3z m5 31v381h-6v-381h6z m-3 384c-60 1-113 31-146 76l-6-3c35-48 90-79 152-79l0 6z m23-2v-382h6v382h-6z m0-382c0-10-1-25-8-39l6-3c7 15 8 31 8 42h-6z m-8-39c-7-15-19-27-41-33l2-7c23 7 37 21 45 37l-6 3z m-41-33c-157-44-264-66-372-66l0-7c109 0 216 23 374 66l-2 7z m-372-66c-107 0-215 22-372 66l-2-7c158-43 266-66 374-66l0 7z m-372 66c-17 4-29 14-38 27l-5-4c9-14 23-25 41-30l2 7z m-38 27c-9 13-12 29-12 47l-7 0c0-19 4-36 14-51l5 4z m-12 47v495h-7v-495h7z m0 495v1h-7v-1h7z m-1 1l1 1-7 1 0-1 6-1z m-3-2l13-2 1 6-13 3-1-7z m14 4c-7 1-10 2-11 2-1 0-2 0-2 1 0 0 0 0 0 0 0 0 0 0 0 0 0 0 0 0 0 0 0 0 0 0 0 0 0 0 0 0 0 0 0-1 0-1 1-1 0 0 0 0 0 0 0 0 0 0 1 0 0-1 1-1 1-2 0 0 0-1 0-1 0 0 0 0 0 0l-7 1c0 0 0 0 0 0 0 0 0-1 0-1 1-1 1-2 1-2 1 0 1 0 1 0 0-1 0-1 0-1 1 0 1 0 1 0 0 0 0 0 0 0 0 0 0 0 0 0 0 0 0 0 0 0 0 0 0 0 0 0 0 0 0 0 0 0 0 0 1 0 2 0 1 0 4-1 11-2l1 6z m-10-1l0 0-7 1 0 0 7-1z m0 0l0 0-7 1 0 0 7-1z m0 0l0 0-7 1 0 0 7-1z m0 0l0 0-7 1 0 0 7-1z m0 0l0 0-7 1 0 0 7-1z m0 0l0 1-6 1-1-1 7-1z m0 1l0 1-6 2 0-2 6-1z m0 1c0 2 1 5 2 8l-7 1c0-3-1-6-1-7l6-2z m2 8c1 6 2 14 5 23l-7 2c-2-10-4-18-5-24l7-1z m5 23c4 19 10 42 16 58l-6 2c-6-16-12-40-17-58l7-2z m16 58l1 0-6 3-1-1 6-2z m0 0l1 0-6 3 0 0 5-3z m1 0c4 10 11 17 20 20l-2 6c-12-4-19-12-24-23l6-3z m20 20c9 3 19 3 31 2l1 7c-12 1-24 1-34-3l2-6z m31 2l570 9 0 6-570-8 0-7z m573 11c23 74 93 128 175 128v7c-85 0-157-56-181-133l6-2z m175 128c101 0 183-82 183-183h7c0 105-85 190-190 190v-7z m183-183c0-6-4-10-9-10v-6c9 0 16 7 16 16h-7z m-9-10c-5 0-10 4-10 10h-6c0-9 7-16 16-16v6z m-10 10c0 91-73 164-164 164v-6c87 0 158-71 158-158h6z m-164 164c-89 0-162-71-165-159l7 0c2 85 72 153 158 153v6z m-165-159c0-8 1-14 1-19l6 1c0 5 0 10 0 18l-7 0z m1-19c2-31 13-59 31-83l5 4c-17 23-27 50-30 80l-6-1z m31-83c27-36 74-66 137-68l1 7c-62 1-107 30-133 65l-5-4z m138-68c73 2 134 52 153 119l-6 2c-19-65-77-112-148-114l1-7z m153 119c1 5 7 8 12 7l2 6c-9 2-18-2-20-11l6-2z m12 7c5-2 8-7 6-12l7-2c2 9-3 18-11 20l-2-6z m6-12c-20-70-80-123-154-132l1-6c77 9 139 64 160 136l-7 2z m-789 6c123 13 246 12 371-1l1 6c-126 13-249 14-372 2l0-7z m371 5c-117-24-249-22-371 1l-1-6c123-24 255-25 373-1l-1 6z m236 15c5-4 14-7 27-4l-2 7c-11-3-18-1-21 2l-4-5z m-8 20c0-8 3-15 8-20l4 5c-3 3-6 8-6 15h-6z m8 18c-5-4-8-11-8-18h6c0 6 3 11 6 13l-4 5z m26 3c-13 4-21 1-26-3l4-5c3 3 9 5 20 2l2 6z m12 6c-1-5-7-8-12-6l-2-6c9-3 18 2 20 10l-6 2z m-6 12c5-2 8-7 6-12l6-2c3 8-2 17-10 20l-2-6z m-44-6c11 9 26 12 44 6l2 6c-19 6-37 4-50-7l4-5z m-15-33c0 12 4 25 15 33l-4 5c-12-9-18-24-18-38h7z m15-35c-11 9-15 22-15 35h-7c0-14 6-29 18-39l4 4z m44-7c-18-5-34-2-44 7l-4-4c12-11 30-15 49-9l-1 6z m6 12c2-6-1-11-6-12l1-6c9 2 14 11 12 19l-7-1z m-11 6c5 2 10-1 11-6l7 1c-3 9-11 14-20 12l2-7z m-144 63h12v7h-12v-7z m3-9v13h-7v-13h7z m0-32v32h-7v-32h7z m0-31v31h-7v-31h7z m0-13v13h-7v-13h7z m9 4h-12v-7h12v7z m43 0h-43v-7h43v7z m10 9c0-5-4-9-10-9v-7c9 0 16 7 16 16h-6z m-10 10c6 0 10-5 10-10h6c0 9-7 16-16 16v-6z m-30 0h30v6h-30v-6z m-3 9v-6h6v6h-6z m33 3h-30v-7h30v7z m10 9c0-5-4-9-10-9v-7c9 0 16 8 16 16h-6z m-10 10c6 0 10-4 10-10h6c0 9-7 16-16 16v-6z m-30 0h30v6h-30v-6z m-3 9v-6h6v6h-6z m33 3h-30v-6h30v6z m10 10c0-6-4-10-10-10v-6c9 0 16 7 16 16h-6z m-10 9c6 0 10-4 10-9h6c0 9-7 16-16 16v-7z m-43 0h43v7h-43v-7z m184-56c4-3 9-6 18-6l0 6c-7 0-11 2-13 5l-5-5z m-5 15c0-6 2-11 5-15l5 5c-2 2-4 6-4 10l-6 0z m6 15c-4-4-6-9-6-15l6 0c0 4 2 8 4 11l-4 4z m17 7c-8 0-14-3-17-7l4-4c3 3 7 5 13 5v6z m18-7c-4 4-10 7-18 7v-6c7 0 11-2 13-5l5 4z m5-15c0 6-2 12-5 15l-5-4c2-3 4-6 4-11l6 0z m-5-14c4 3 5 9 5 14l-6 0c0-4-1-8-4-10l5-4z m-18-7c9 0 14 3 18 7l-5 4c-2-2-6-5-13-5l0-6z m-31 49c7 8 18 13 31 13v7c-15 0-27-6-36-15l5-5z m-11-28c0 10 4 21 11 28l-5 5c-8-9-12-21-13-33l7 0z m10-28c-7 8-10 18-10 28l-7 0c0-11 4-23 13-32l4 4z m32-12c-13-1-24 4-32 12l-4-4c8-10 21-15 36-15l0 7z m32 13c-7-8-18-13-32-13l0-7c15 0 28 6 37 15l-5 5z m10 28c1-10-3-21-10-28l5-5c8 9 12 21 12 33l-7 0z m-11 28c8-8 11-18 11-28l7 0c0 11-4 23-13 32l-5-4z m-31 12c13 0 24-5 31-12l5 4c-9 9-21 15-36 15v-7z m-278-163c6 0 10-4 10-10h6c0 9-7 16-16 16v-6z m-9-10c0 6 4 10 9 10v6c-9 0-16-7-16-16h7z m9 3h-12v-6h12v6z m-9-3c0 0 0 0 0-1-1-1-1-1-2-1 0-1 0-1-1-1 0 0 0 0 0 0 0 0 0 0 0 0 0 0 0 0 0 0 0 0 0 0 0 0 0 0 0 0 0 0 0 0 0 0 1 0 2 0 5 0 11 0v6c-6 0-9 0-11 0-1 0-1 0-1 0 0 0 0 0 0 0 0 0-1 0-1 0 0 0 0 0 0 0 0 0 0 0 0 0 0 0 0 0 0 0-1 0-1 0-1 0-1 0-1-1-1-2-1 0-1 0-1 0 0-1 0-1 0-1 0 0 0 0 0 0h7z m0 0v0h-7v0h7z m0 0v0h-7v0h7z m0 0v0h-7v0h7z m0 0v0h-7v0h7z m0 0v0h-7v0h7z m0 0v0h-7v0h7z m0 0v0h-7v0h7z m0 0v0h-7v0h7z m0 0v0h-7v0h7z m0 0v0h-7v0h7z m0 0v0h-7v0h7z m0 0v0h-7v0h7z m0 0v0h-7v0h7z m0 0v0h-7v0h7z m0-1v1h-7v-1h7z m0 0v0h-7v0h7z m0 0v0h-7v0h7z m0 0v0h-7v0h7z m0 0v0h-7v0h7z m0 0v0h-7v0h7z m0 0v0h-7v0h7z m0 0v0h-7v0h7z m0 0v0h-7v0h7z m0-1v1h-7v-1h7z m0 0v0h-7v0h7z m0 0v0h-7v0h7z m0 0v0h-7v0h7z m0 0v0h-7v0h7z m0 0v0h-7v0h7z m0-1v1h-7v-1h7z m0 0v0h-7v0h7z m0 0v0h-7v0h7z m0 0v0h-7v0h7z m0 0v0h-7v0h7z m0-1v1h-7v-1h7z m0 0v0h-7v0h7z m0 0v0h-7v0h7z m0 0v0h-7v0h7z m0-1v1h-7v-1h7z m0 0v0h-7v0h7z m0 0v0h-7v0h7z m0 0v0h-7v0h7z m0-1v1h-7v-1h7z m0 0v0h-7v0h7z m0 0v0h-7v0h7z m0 0v0h-7v0h7z m0-1v1h-7v-1h7z m0 0v0h-7v0h7z m0 0v0h-7v0h7z m0 0v0h-7v0h7z m0-1v1h-7v-1h7z m0 0v0h-7v0h7z m0 0v0h-7v0h7z m0-1v1h-7v-1h7z m0 0v0h-7v0h7z m0 0v0h-7v0h7z m0-1v1h-7v-1h7z m0 0v0h-7v0h7z m0 0v0h-7v0h7z m0-1v1h-7v-1h7z m0 0v0h-7v0h7z m0 0v0h-7v0h7z m0-1v1h-7v-1h7z m0 0v0h-7v0h7z m0 0v0h-7v0h7z m0-1v1h-7v-1h7z m0 0v0h-7v0h7z m0-1v1h-7v-1h7z m0 0v0h-7v0h7z m0 0v0h-7v0h7z m0-1v1h-7v-1h7z m0 0v0h-7v0h7z m0-1v1h-7v-1h7z m0 0v0h-7v0h7z m0 0v0h-7v0h7z m0-1v1h-7v-1h7z m0 0v0h-7v0h7z m0-1v1h-7v-1h7z m0 0v0h-7v0h7z m0-1v1h-7v-1h7z m0 0v0h-7v0h7z m0-1v1h-7v-1h7z m0 0v0h-7v0h7z m0-1v1h-7v-1h7z m0 0v0h-7v0h7z m0 0v0h-7v0h7z m0-1v1h-7v-1h7z m0 0v0h-7v0h7z m0-1v1h-7v-1h7z m0 0v0h-7v0h7z m0-1v1h-7v-1h7z m0 0v0h-7v0h7z m0-1v1h-7v-1h7z m0 0v0h-7v0h7z m0-1v1h-7v-1h7z m0 0v0h-7v0h7z m0-1v1h-7v-1h7z m0-1v1h-7v-1h7z m0 0v0h-7v0h7z m0-1v1h-7v-1h7z m0 0v0h-7v0h7z m0-1v1h-7v-1h7z m0 0v0h-7v0h7z m0-1v1h-7v-1h7z m0 0v0h-7v0h7z m0-1v1h-7v-1h7z m0-1v1h-7v-1h7z m0 0v0h-7v0h7z m0-1v1h-7v-1h7z m0 0v0h-7v0h7z m0-1v1h-7v-1h7z m0-1v1h-7v-1h7z m0 0v0h-7v0h7z m0-1v1h-7v-1h7z m0 0v0h-7v0h7z m0-1v1h-7v-1h7z m0-1v1h-7v-1h7z m0 0v0h-7v0h7z m0-1v1h-7v-1h7z m0 0v0h-7v0h7z m0-1v1h-7v-1h7z m0-1v1h-7v-1h7z m0 0v0h-7v0h7z m0-1v1h-7v-1h7z m0-1v1h-7v-1h7z m0 0v0h-7v0h7z m0-1v1h-7v-1h7z m0-1v1h-7v-1h7z m0 0v0h-7v0h7z m0-1v1h-7v-1h7z m0-1v1h-7v-1h7z m0 0v0h-7v0h7z m0-1v1h-7v-1h7z m0-1v1h-7v-1h7z m0-1v1h-7v-1h7z m0 0v0h-7v0h7z m0-1v1h-7v-1h7z m0-1v1h-7v-1h7z m0 0v0h-7v0h7z m0-1v1h-7v-1h7z m0-1v1h-7v-1h7z m0-1v1h-7v-1h7z m0 0v0h-7v0h7z m0-1v1h-7v-1h7z m0-1v1h-7v-1h7z m0 0v0h-7v0h7z m0-1v1h-7v-1h7z m0-1v1h-7v-1h7z m0-1v1h-7v-1h7z m0 0v0h-7v0h7z m0-1v1h-7v-1h7z m0-1v1h-7v-1h7z m0-1v1h-7v-1h7z m0-1v1h-7v-1h7z m0 0v0h-7v0h7z m0-1v1h-7v-1h7z m0-1v1h-7v-1h7z m0-1v1h-7v-1h7z m0 0v0h-7v0h7z m0-1v1h-7v-1h7z m0-1v1h-7v-1h7z m0-1v1h-7v-1h7z m0-1v1h-7v-1h7z m0 0v0h-7v0h7z m0-1v1h-7v-1h7z m0-1v1h-7v-1h7z m0-1v1h-7v-1h7z m0-1v1h-7v-1h7z m0-1v1h-7v-1h7z m0 0v0h-7v0h7z m0-1v1h-7v-1h7z m0-1v1h-7v-1h7z m0-1v1h-7v-1h7z m0-1v1h-7v-1h7z m0-1v1h-7v-1h7z m0 0v0h-7v0h7z m0-1v1h-7v-1h7z m0-1v1h-7v-1h7z m0-1v1h-7v-1h7z m0-1v1h-7v-1h7z m0-1v1h-7v-1h7z m0-1v1h-7v-1h7z m0-1v1h-7v-1h7z m0 0v0h-7v0h7z m0-1v1h-7v-1h7z m0-1v1h-7v-1h7z m0-1v1h-7v-1h7z m0-1v1h-7v-1h7z m0-1v1h-7v-1h7z m0-1v1h-7v-1h7z m0-1v1h-7v-1h7z m0-1v1h-7v-1h7z m0-1v1h-7v-1h7z m0 0v0h-7v0h7z m0-1v1h-7v-1h7z m0-1v1h-7v-1h7z m0-1v1h-7v-1h7z m0-1v1h-7v-1h7z m0-1v1h-7v-1h7z m0-1v1h-7v-1h7z m0-1v1h-7v-1h7z m0-1v1h-7v-1h7z m0-1v1h-7v-1h7z m0-1v1h-7v-1h7z m0-1v1h-7v-1h7z m0-1v1h-7v-1h7z m0-1v1h-7v-1h7z m0-1v1h-7v-1h7z m0-1v1h-7v-1h7z m0-1v1h-7v-1h7z m0 0v0h-7v0h7z m0-1v1h-7v-1h7z m0-1v1h-7v-1h7z m0-1v1h-7v-1h7z m0-1v1h-7v-1h7z m0-1v1h-7v-1h7z m0-1v1h-7v-1h7z m0-1v1h-7v-1h7z m0-1v1h-7v-1h7z m0-1v1h-7v-1h7z m0-1v1h-7v-1h7z m0-1v1h-7v-1h7z m0-1v1h-7v-1h7z m0-1v1h-7v-1h7z m0-1v1h-7v-1h7z m0-1v1h-7v-1h7z m0-1v1h-7v-1h7z m0-1v1h-7v-1h7z m0-1v1h-7v-1h7z m0-1v1h-7v-1h7z m0-1v1h-7v-1h7z m0-1v1h-7v-1h7z m0-1v1h-7v-1h7z m0-2v2h-7v-2h7z m0-1v1h-7v-1h7z m0-1v1h-7v-1h7z m0-1v1h-7v-1h7z m0-1v1h-7v-1h7z m0-1v1h-7v-1h7z m0-1v1h-7v-1h7z m0-1v1h-7v-1h7z m0-1v1h-7v-1h7z m0-1v1h-7v-1h7z m0-1v1h-7v-1h7z m0-1v1h-7v-1h7z m0-1v1h-7v-1h7z m0-1v1h-7v-1h7z m0-1v1h-7v-1h7z m0-1v1h-7v-1h7z m0-1v1h-7v-1h7z m0-1v1h-7v-1h7z m0-2v2h-7v-2h7z m0-1v1h-7v-1h7z m0-1v1h-7v-1h7z m0-1v1h-7v-1h7z m0-1v1h-7v-1h7z m0-1v1h-7v-1h7z m0-1v1h-7v-1h7z m0-1v1h-7v-1h7z m0-1v1h-7v-1h7z m0-1v1h-7v-1h7z m0-1v1h-7v-1h7z m0-2v2h-7v-2h7z m0-1v1h-7v-1h7z m0-1v1h-7v-1h7z m0-1v1h-7v-1h7z m0-1v1h-7v-1h7z m0-1v1h-7v-1h7z m0-1v1h-7v-1h7z m0-1v1h-7v-1h7z m0-1v1h-7v-1h7z m0-2v2h-7v-2h7z m0-1v1h-7v-1h7z m0-1v1h-7v-1h7z m0-1v1h-7v-1h7z m0-1v1h-7v-1h7z m0-1v1h-7v-1h7z m0-1v1h-7v-1h7z m0-1v1h-7v-1h7z m0-2v2h-7v-2h7z m0-1v1h-7v-1h7z m0-1v1h-7v-1h7z m0-1v1h-7v-1h7z m0-1v1h-7v-1h7z m0-1v1h-7v-1h7z m0-1v1h-7v-1h7z m0-2v2h-7v-2h7z m0-1v1h-7v-1h7z m0-1v1h-7v-1h7z m0-1v1h-7v-1h7z m0-1v1h-7v-1h7z m0-1v1h-7v-1h7z m0-1v1h-7v-1h7z m0-2v2h-7v-2h7z m0-1v1h-7v-1h7z m0-1v1h-7v-1h7z m0-1v1h-7v-1h7z m0-1v1h-7v-1h7z m0-1v1h-7v-1h7z m0-2v2h-7v-2h7z m0-1v1h-7v-1h7z m0-1v1h-7v-1h7z m0-1v1h-7v-1h7z m0-1v1h-7v-1h7z m0-2v2h-7v-2h7z m0-1v1h-7v-1h7z m0-1v1h-7v-1h7z m0-1v1h-7v-1h7z m0-1v1h-7v-1h7z m0-1v1h-7v-1h7z m0-2v2h-7v-2h7z m0-1v1h-7v-1h7z m0-1v1h-7v-1h7z m0-1v1h-7v-1h7z m0-1v1h-7v-1h7z m0-2v2h-7v-2h7z m0-1v1h-7v-1h7z m0-1v1h-7v-1h7z m0-1v1h-7v-1h7z m0-1v1h-7v-1h7z m0-2v2h-7v-2h7z m0-1v1h-7v-1h7z m0-1v1h-7v-1h7z m0-1v1h-7v-1h7z m0-1v1h-7v-1h7z m0-2v2h-7v-2h7z m0-1v1h-7v-1h7z m0-1v1h-7v-1h7z m0-1v1h-7v-1h7z m0-2v2h-7v-2h7z m0-1v1h-7v-1h7z m0-1v1h-7v-1h7z m0-1v1h-7v-1h7z m0-1v1h-7v-1h7z m0-2v2h-7v-2h7z m0-1v1h-7v-1h7z m0-1v1h-7v-1h7z m0-1v1h-7v-1h7z m0-1v1h-7v-1h7z m0-2v2h-7v-2h7z m0-1v1h-7v-1h7z m0-1v1h-7v-1h7z m0-1v1h-7v-1h7z m0-2v2h-7v-2h7z m0-1v1h-7v-1h7z m0-1v1h-7v-1h7z m0-1v1h-7v-1h7z m0-2v2h-7v-2h7z m0-1v1h-7v-1h7z m0-1v1h-7v-1h7z m0-1v1h-7v-1h7z m0-1v1h-7v-1h7z m0-2v2h-7v-2h7z m0-1v1h-7v-1h7z m0-1v1h-7v-1h7z m0-1v1h-7v-1h7z m0-2v2h-7v-2h7z m0-1v1h-7v-1h7z m0-1v1h-7v-1h7z m0-1v1h-7v-1h7z m0-2v2h-7v-2h7z m0-1v1h-7v-1h7z m0-1v1h-7v-1h7z m0-1v1h-7v-1h7z m0-2v2h-7v-2h7z m0-1v1h-7v-1h7z m0-1v1h-7v-1h7z m0-1v1h-7v-1h7z m0-2v2h-7v-2h7z m0-1v1h-7v-1h7z m0-1v1h-7v-1h7z m0-1v1h-7v-1h7z m0-2v2h-7v-2h7z m0-1v1h-7v-1h7z m0-1v1h-7v-1h7z m0-1v1h-7v-1h7z m0-2v2h-7v-2h7z m0-1v1h-7v-1h7z m0-1v1h-7v-1h7z m0-1v1h-7v-1h7z m0-2v2h-7v-2h7z m0-1v1h-7v-1h7z m0-1v1h-7v-1h7z m0-1v1h-7v-1h7z m0-2v2h-7v-2h7z m0-1v1h-7v-1h7z m0-1v1h-7v-1h7z m0-1v1h-7v-1h7z m0-2v2h-7v-2h7z m0-1v1h-7v-1h7z m0-1v1h-7v-1h7z m0-1v1h-7v-1h7z m0-2v2h-7v-2h7z m0-1v1h-7v-1h7z m0-1v1h-7v-1h7z m0-1v1h-7v-1h7z m0-2v2h-7v-2h7z m0-1v1h-7v-1h7z m0-1v1h-7v-1h7z m0-1v1h-7v-1h7z m0-2v2h-7v-2h7z m0-1v1h-7v-1h7z m0-1v1h-7v-1h7z m0-2v2h-7v-2h7z m0-1v1h-7v-1h7z m0-1v1h-7v-1h7z m0-1v1h-7v-1h7z m0-2v2h-7v-2h7z m0-1v1h-7v-1h7z m0-1v1h-7v-1h7z m0-1v1h-7v-1h7z m0-2v2h-7v-2h7z m0-1v1h-7v-1h7z m0-1v1h-7v-1h7z m0-1v1h-7v-1h7z m0-2v2h-7v-2h7z m0-1v1h-7v-1h7z m0-1v1h-7v-1h7z m0-1v1h-7v-1h7z m0-2v2h-7v-2h7z m0-1v1h-7v-1h7z m0-1v1h-7v-1h7z m0-1v1h-7v-1h7z m0-2v2h-7v-2h7z m0-1v1h-7v-1h7z m0-1v1h-7v-1h7z m0-1v1h-7v-1h7z m0-2v2h-7v-2h7z m0-1v1h-7v-1h7z m0-1v1h-7v-1h7z m0-1v1h-7v-1h7z m0-2v2h-7v-2h7z m0-1v1h-7v-1h7z m0-1v1h-7v-1h7z m0-1v1h-7v-1h7z m0-2v2h-7v-2h7z m0-1v1h-7v-1h7z m0-1v1h-7v-1h7z m0-2v2h-7v-2h7z m0-1v1h-7v-1h7z m0-1v1h-7v-1h7z m0-1v1h-7v-1h7z m0-2v2h-7v-2h7z m0-1v1h-7v-1h7z m0-1v1h-7v-1h7z m0-1v1h-7v-1h7z m0-1v1h-7v-1h7z m0-2v2h-7v-2h7z m0-1v1h-7v-1h7z m0-1v1h-7v-1h7z m0-1v1h-7v-1h7z m0-2v2h-7v-2h7z m0-1v1h-7v-1h7z m0-1v1h-7v-1h7z m0-1v1h-7v-1h7z m0-2v2h-7v-2h7z m0-1v1h-7v-1h7z m0-1v1h-7v-1h7z m0-1v1h-7v-1h7z m0-2v2h-7v-2h7z m0-1v1h-7v-1h7z m0-1v1h-7v-1h7z m0-1v1h-7v-1h7z m0-2v2h-7v-2h7z m0-1v1h-7v-1h7z m0-1v1h-7v-1h7z m0-1v1h-7v-1h7z m0-2v2h-7v-2h7z m0-1v1h-7v-1h7z m0-1v1h-7v-1h7z m0-1v1h-7v-1h7z m0-1v1h-7v-1h7z m0-2v2h-7v-2h7z m0-1v1h-7v-1h7z m0-1v1h-7v-1h7z m0-1v1h-7v-1h7z m0-2v2h-7v-2h7z m0-1v1h-7v-1h7z m0-1v1h-7v-1h7z m0-1v1h-7v-1h7z m0-2v2h-7v-2h7z m0-1v1h-7v-1h7z m0-1v1h-7v-1h7z m0-1v1h-7v-1h7z m0-1v1h-7v-1h7z m0-2v2h-7v-2h7z m0-1v1h-7v-1h7z m0-1v1h-7v-1h7z m0-1v1h-7v-1h7z m0-1v1h-7v-1h7z m0-2v2h-7v-2h7z m0-1v1h-7v-1h7z m0-1v1h-7v-1h7z m0-1v1h-7v-1h7z m0-1v1h-7v-1h7z m0-2v2h-7v-2h7z m0-1v1h-7v-1h7z m0-1v1h-7v-1h7z m0-1v1h-7v-1h7z m0-1v1h-7v-1h7z m0-2v2h-7v-2h7z m0-1v1h-7v-1h7z m0-1v1h-7v-1h7z m0-1v1h-7v-1h7z m0-1v1h-7v-1h7z m0-2v2h-7v-2h7z m0-1v1h-7v-1h7z m0-1v1h-7v-1h7z m0-1v1h-7v-1h7z m0-1v1h-7v-1h7z m0-1v1h-7v-1h7z m9-10c-5 0-9 4-9 10h-7c0-9 7-16 16-16v6z m10 10c0-6-4-10-10-10v-6c9 0 16 7 16 16h-6z m0 1v-1h6v1h-6z m0 1v-1h6v1h-6z m0 1v-1h6v1h-6z m0 1v-1h6v1h-6z m0 1v-1h6v1h-6z m0 2v-2h6v2h-6z m0 1v-1h6v1h-6z m0 1v-1h6v1h-6z m0 1v-1h6v1h-6z m0 1v-1h6v1h-6z m0 2v-2h6v2h-6z m0 1v-1h6v1h-6z m0 1v-1h6v1h-6z m0 1v-1h6v1h-6z m0 1v-1h6v1h-6z m0 2v-2h6v2h-6z m0 1v-1h6v1h-6z m0 1v-1h6v1h-6z m0 1v-1h6v1h-6z m0 1v-1h6v1h-6z m0 2v-2h6v2h-6z m0 1v-1h6v1h-6z m0 1v-1h6v1h-6z m0 1v-1h6v1h-6z m0 1v-1h6v1h-6z m0 2v-2h6v2h-6z m0 1v-1h6v1h-6z m0 1v-1h6v1h-6z m0 1v-1h6v1h-6z m0 1v-1h6v1h-6z m0 2v-2h6v2h-6z m0 1v-1h6v1h-6z m0 1v-1h6v1h-6z m0 1v-1h6v1h-6z m0 2v-2h6v2h-6z m0 1v-1h6v1h-6z m0 1v-1h6v1h-6z m0 1v-1h6v1h-6z m0 2v-2h6v2h-6z m0 1v-1h6v1h-6z m0 1v-1h6v1h-6z m0 1v-1h6v1h-6z m0 1v-1h6v1h-6z m0 2v-2h6v2h-6z m0 1v-1h6v1h-6z m0 1v-1h6v1h-6z m0 1v-1h6v1h-6z m0 2v-2h6v2h-6z m0 1v-1h6v1h-6z m0 1v-1h6v1h-6z m0 1v-1h6v1h-6z m0 2v-2h6v2h-6z m0 1v-1h6v1h-6z m0 1v-1h6v1h-6z m0 1v-1h6v1h-6z m0 2v-2h6v2h-6z m0 1v-1h6v1h-6z m0 1v-1h6v1h-6z m0 1v-1h6v1h-6z m0 2v-2h6v2h-6z m0 1v-1h6v1h-6z m0 1v-1h6v1h-6z m0 1v-1h6v1h-6z m0 2v-2h6v2h-6z m0 1v-1h6v1h-6z m0 1v-1h6v1h-6z m0 1v-1h6v1h-6z m0 1v-1h6v1h-6z m0 2v-2h6v2h-6z m0 1v-1h6v1h-6z m0 1v-1h6v1h-6z m0 1v-1h6v1h-6z m0 2v-2h6v2h-6z m0 1v-1h6v1h-6z m0 1v-1h6v1h-6z m0 2v-2h6v2h-6z m0 1v-1h6v1h-6z m0 1v-1h6v1h-6z m0 1v-1h6v1h-6z m0 2v-2h6v2h-6z m0 1v-1h6v1h-6z m0 1v-1h6v1h-6z m0 1v-1h6v1h-6z m0 2v-2h6v2h-6z m0 1v-1h6v1h-6z m0 1v-1h6v1h-6z m0 1v-1h6v1h-6z m0 2v-2h6v2h-6z m0 1v-1h6v1h-6z m0 1v-1h6v1h-6z m0 1v-1h6v1h-6z m0 2v-2h6v2h-6z m0 1v-1h6v1h-6z m0 1v-1h6v1h-6z m0 1v-1h6v1h-6z m0 2v-2h6v2h-6z m0 1v-1h6v1h-6z m0 1v-1h6v1h-6z m0 1v-1h6v1h-6z m0 2v-2h6v2h-6z m0 1v-1h6v1h-6z m0 1v-1h6v1h-6z m0 1v-1h6v1h-6z m0 2v-2h6v2h-6z m0 1v-1h6v1h-6z m0 1v-1h6v1h-6z m0 1v-1h6v1h-6z m0 2v-2h6v2h-6z m0 1v-1h6v1h-6z m0 1v-1h6v1h-6z m0 2v-2h6v2h-6z m0 1v-1h6v1h-6z m0 1v-1h6v1h-6z m0 1v-1h6v1h-6z m0 2v-2h6v2h-6z m0 1v-1h6v1h-6z m0 1v-1h6v1h-6z m0 1v-1h6v1h-6z m0 2v-2h6v2h-6z m0 1v-1h6v1h-6z m0 1v-1h6v1h-6z m0 1v-1h6v1h-6z m0 2v-2h6v2h-6z m0 1v-1h6v1h-6z m0 1v-1h6v1h-6z m0 1v-1h6v1h-6z m0 2v-2h6v2h-6z m0 1v-1h6v1h-6z m0 1v-1h6v1h-6z m0 1v-1h6v1h-6z m0 2v-2h6v2h-6z m0 1v-1h6v1h-6z m0 1v-1h6v1h-6z m0 1v-1h6v1h-6z m0 2v-2h6v2h-6z m0 1v-1h6v1h-6z m0 1v-1h6v1h-6z m0 1v-1h6v1h-6z m0 2v-2h6v2h-6z m0 1v-1h6v1h-6z m0 1v-1h6v1h-6z m0 1v-1h6v1h-6z m0 2v-2h6v2h-6z m0 1v-1h6v1h-6z m0 1v-1h6v1h-6z m0 1v-1h6v1h-6z m0 2v-2h6v2h-6z m0 1v-1h6v1h-6z m0 1v-1h6v1h-6z m0 1v-1h6v1h-6z m0 2v-2h6v2h-6z m0 1v-1h6v1h-6z m0 1v-1h6v1h-6z m0 1v-1h6v1h-6z m0 2v-2h6v2h-6z m0 1v-1h6v1h-6z m0 1v-1h6v1h-6z m0 1v-1h6v1h-6z m0 2v-2h6v2h-6z m0 1v-1h6v1h-6z m0 1v-1h6v1h-6z m0 1v-1h6v1h-6z m0 1v-1h6v1h-6z m0 2v-2h6v2h-6z m0 1v-1h6v1h-6z m0 1v-1h6v1h-6z m0 1v-1h6v1h-6z m0 2v-2h6v2h-6z m0 1v-1h6v1h-6z m0 1v-1h6v1h-6z m0 1v-1h6v1h-6z m0 2v-2h6v2h-6z m0 1v-1h6v1h-6z m0 1v-1h6v1h-6z m0 1v-1h6v1h-6z m0 1v-1h6v1h-6z m0 2v-2h6v2h-6z m0 1v-1h6v1h-6z m0 1v-1h6v1h-6z m0 1v-1h6v1h-6z m0 1v-1h6v1h-6z m0 2v-2h6v2h-6z m0 1v-1h6v1h-6z m0 1v-1h6v1h-6z m0 1v-1h6v1h-6z m0 2v-2h6v2h-6z m0 1v-1h6v1h-6z m0 1v-1h6v1h-6z m0 1v-1h6v1h-6z m0 1v-1h6v1h-6z m0 2v-2h6v2h-6z m0 1v-1h6v1h-6z m0 1v-1h6v1h-6z m0 1v-1h6v1h-6z m0 1v-1h6v1h-6z m0 2v-2h6v2h-6z m0 1v-1h6v1h-6z m0 1v-1h6v1h-6z m0 1v-1h6v1h-6z m0 1v-1h6v1h-6z m0 2v-2h6v2h-6z m0 1v-1h6v1h-6z m0 1v-1h6v1h-6z m0 1v-1h6v1h-6z m0 1v-1h6v1h-6z m0 1v-1h6v1h-6z m0 2v-2h6v2h-6z m0 1v-1h6v1h-6z m0 1v-1h6v1h-6z m0 1v-1h6v1h-6z m0 1v-1h6v1h-6z m0 2v-2h6v2h-6z m0 1v-1h6v1h-6z m0 1v-1h6v1h-6z m0 1v-1h6v1h-6z m0 1v-1h6v1h-6z m0 1v-1h6v1h-6z m0 2v-2h6v2h-6z m0 1v-1h6v1h-6z m0 1v-1h6v1h-6z m0 1v-1h6v1h-6z m0 1v-1h6v1h-6z m0 1v-1h6v1h-6z m0 1v-1h6v1h-6z m0 2v-2h6v2h-6z m0 1v-1h6v1h-6z m0 1v-1h6v1h-6z m0 1v-1h6v1h-6z m0 1v-1h6v1h-6z m0 1v-1h6v1h-6z m0 1v-1h6v1h-6z m0 2v-2h6v2h-6z m0 1v-1h6v1h-6z m0 1v-1h6v1h-6z m0 1v-1h6v1h-6z m0 1v-1h6v1h-6z m0 1v-1h6v1h-6z m0 1v-1h6v1h-6z m0 1v-1h6v1h-6z m0 2v-2h6v2h-6z m0 1v-1h6v1h-6z m0 1v-1h6v1h-6z m0 1v-1h6v1h-6z m0 1v-1h6v1h-6z m0 1v-1h6v1h-6z m0 1v-1h6v1h-6z m0 1v-1h6v1h-6z m0 1v-1h6v1h-6z m0 2v-2h6v2h-6z m0 1v-1h6v1h-6z m0 1v-1h6v1h-6z m0 1v-1h6v1h-6z m0 1v-1h6v1h-6z m0 1v-1h6v1h-6z m0 1v-1h6v1h-6z m0 1v-1h6v1h-6z m0 1v-1h6v1h-6z m0 1v-1h6v1h-6z m0 1v-1h6v1h-6z m0 2v-2h6v2h-6z m0 1v-1h6v1h-6z m0 1v-1h6v1h-6z m0 1v-1h6v1h-6z m0 1v-1h6v1h-6z m0 1v-1h6v1h-6z m0 1v-1h6v1h-6z m0 1v-1h6v1h-6z m0 1v-1h6v1h-6z m0 1v-1h6v1h-6z m0 1v-1h6v1h-6z m0 1v-1h6v1h-6z m0 1v-1h6v1h-6z m0 1v-1h6v1h-6z m0 1v-1h6v1h-6z m0 1v-1h6v1h-6z m0 1v-1h6v1h-6z m0 1v-1h6v1h-6z m0 2v-2h6v2h-6z m0 1v-1h6v1h-6z m0 1v-1h6v1h-6z m0 1v-1h6v1h-6z m0 1v-1h6v1h-6z m0 1v-1h6v1h-6z m0 1v-1h6v1h-6z m0 1v-1h6v1h-6z m0 1v-1h6v1h-6z m0 1v-1h6v1h-6z m0 1v-1h6v1h-6z m0 1v-1h6v1h-6z m0 1v-1h6v1h-6z m0 1v-1h6v1h-6z m0 1v-1h6v1h-6z m0 1v-1h6v1h-6z m0 1v-1h6v1h-6z m0 1v-1h6v1h-6z m0 1v-1h6v1h-6z m0 1v-1h6v1h-6z m0 1v-1h6v1h-6z m0 1v-1h6v1h-6z m0 1v-1h6v1h-6z m0 0v0h6v0h-6z m0 1v-1h6v1h-6z m0 1v-1h6v1h-6z m0 1v-1h6v1h-6z m0 1v-1h6v1h-6z m0 1v-1h6v1h-6z m0 1v-1h6v1h-6z m0 1v-1h6v1h-6z m0 1v-1h6v1h-6z m0 1v-1h6v1h-6z m0 1v-1h6v1h-6z m0 1v-1h6v1h-6z m0 1v-1h6v1h-6z m0 1v-1h6v1h-6z m0 1v-1h6v1h-6z m0 1v-1h6v1h-6z m0 1v-1h6v1h-6z m0 0v0h6v0h-6z m0 1v-1h6v1h-6z m0 1v-1h6v1h-6z m0 1v-1h6v1h-6z m0 1v-1h6v1h-6z m0 1v-1h6v1h-6z m0 1v-1h6v1h-6z m0 1v-1h6v1h-6z m0 1v-1h6v1h-6z m0 1v-1h6v1h-6z m0 0v0h6v0h-6z m0 1v-1h6v1h-6z m0 1v-1h6v1h-6z m0 1v-1h6v1h-6z m0 1v-1h6v1h-6z m0 1v-1h6v1h-6z m0 1v-1h6v1h-6z m0 1v-1h6v1h-6z m0 0v0h6v0h-6z m0 1v-1h6v1h-6z m0 1v-1h6v1h-6z m0 1v-1h6v1h-6z m0 1v-1h6v1h-6z m0 1v-1h6v1h-6z m0 0v0h6v0h-6z m0 1v-1h6v1h-6z m0 1v-1h6v1h-6z m0 1v-1h6v1h-6z m0 1v-1h6v1h-6z m0 1v-1h6v1h-6z m0 0v0h6v0h-6z m0 1v-1h6v1h-6z m0 1v-1h6v1h-6z m0 1v-1h6v1h-6z m0 1v-1h6v1h-6z m0 0v0h6v0h-6z m0 1v-1h6v1h-6z m0 1v-1h6v1h-6z m0 1v-1h6v1h-6z m0 0v0h6v0h-6z m0 1v-1h6v1h-6z m0 1v-1h6v1h-6z m0 1v-1h6v1h-6z m0 1v-1h6v1h-6z m0 0v0h6v0h-6z m0 1v-1h6v1h-6z m0 1v-1h6v1h-6z m0 1v-1h6v1h-6z m0 0v0h6v0h-6z m0 1v-1h6v1h-6z m0 1v-1h6v1h-6z m0 0v0h6v0h-6z m0 1v-1h6v1h-6z m0 1v-1h6v1h-6z m0 1v-1h6v1h-6z m0 0v0h6v0h-6z m0 1v-1h6v1h-6z m0 1v-1h6v1h-6z m0 0v0h6v0h-6z m0 1v-1h6v1h-6z m0 1v-1h6v1h-6z m0 1v-1h6v1h-6z m0 0v0h6v0h-6z m0 1v-1h6v1h-6z m0 1v-1h6v1h-6z m0 0v0h6v0h-6z m0 1v-1h6v1h-6z m0 1v-1h6v1h-6z m0 0v0h6v0h-6z m0 1v-1h6v1h-6z m0 1v-1h6v1h-6z m0 0v0h6v0h-6z m0 1v-1h6v1h-6z m0 1v-1h6v1h-6z m0 0v0h6v0h-6z m0 1v-1h6v1h-6z m0 0v0h6v0h-6z m0 1v-1h6v1h-6z m0 1v-1h6v1h-6z m0 0v0h6v0h-6z m0 1v-1h6v1h-6z m0 0v0h6v0h-6z m0 1v-1h6v1h-6z m0 1v-1h6v1h-6z m0 0v0h6v0h-6z m0 1v-1h6v1h-6z m0 0v0h6v0h-6z m0 1v-1h6v1h-6z m0 1v-1h6v1h-6z m0 0v0h6v0h-6z m0 1v-1h6v1h-6z m0 0v0h6v0h-6z m0 1v-1h6v1h-6z m0 0v0h6v0h-6z m0 1v-1h6v1h-6z m0 0v0h6v0h-6z m0 1v-1h6v1h-6z m0 1v-1h6v1h-6z m0 0v0h6v0h-6z m0 1v-1h6v1h-6z m0 0v0h6v0h-6z m0 1v-1h6v1h-6z m0 0v0h6v0h-6z m0 1v-1h6v1h-6z m0 0v0h6v0h-6z m0 1v-1h6v1h-6z m0 0v0h6v0h-6z m0 1v-1h6v1h-6z m0 0v0h6v0h-6z m0 0v0h6v0h-6z m0 1v-1h6v1h-6z m0 0v0h6v0h-6z m0 1v-1h6v1h-6z m0 0v0h6v0h-6z m0 1v-1h6v1h-6z m0 0v0h6v0h-6z m0 1v-1h6v1h-6z m0 0v0h6v0h-6z m0 1v-1h6v1h-6z m0 0v0h6v0h-6z m0 0v0h6v0h-6z m0 1v-1h6v1h-6z m0 0v0h6v0h-6z m0 1v-1h6v1h-6z m0 0v0h6v0h-6z m0 0v0h6v0h-6z m0 1v-1h6v1h-6z m0 0v0h6v0h-6z m0 1v-1h6v1h-6z m0 0v0h6v0h-6z m0 0v0h6v0h-6z m0 1v-1h6v1h-6z m0 0v0h6v0h-6z m0 0v0h6v0h-6z m0 1v-1h6v1h-6z m0 0v0h6v0h-6z m0 0v0h6v0h-6z m0 1v-1h6v1h-6z m0 0v0h6v0h-6z m0 0v0h6v0h-6z m0 1v-1h6v1h-6z m0 0v0h6v0h-6z m0 0v0h6v0h-6z m0 1v-1h6v1h-6z m0 0v0h6v0h-6z m0 0v0h6v0h-6z m0 0v0h6v0h-6z m0 1v-1h6v1h-6z m0 0v0h6v0h-6z m0 0v0h6v0h-6z m0 0v0h6v0h-6z m0 1v-1h6v1h-6z m0 0v0h6v0h-6z m0 0v0h6v0h-6z m0 0v0h6v0h-6z m0 1v-1h6v1h-6z m0 0v0h6v0h-6z m0 0v0h6v0h-6z m0 0v0h6v0h-6z m0 1v-1h6v1h-6z m0 0v0h6v0h-6z m0 0v0h6v0h-6z m0 0v0h6v0h-6z m0 0v0h6v0h-6z m0 1v-1h6v1h-6z m0 0v0h6v0h-6z m0 0v0h6v0h-6z m0 0v0h6v0h-6z m0 0v0h6v0h-6z m0 0v0h6v0h-6z m0 1v-1h6v1h-6z m0 0v0h6v0h-6z m0 0v0h6v0h-6z m0 0v0h6v0h-6z m0 0v0h6v0h-6z m0 0v0h6v0h-6z m0 0v0h6v0h-6z m0 0v0h6v0h-6z m0 0v0h6v0h-6z m0 1v-1h6v1h-6z m0 0v0h6v0h-6z m0 0v0h6v0h-6z m0 0v0h6v0h-6z m0 0v0h6v0h-6z m0 0v0h6v0h-6z m0 0v0h6v0h-6z m0 0v0h6v0h-6z m0 0v0h6v0h-6z m0 0v0h6v0h-6z m0 0v0h6v0h-6z m0 0v0h6v0h-6z m0 0v0h6v0h-6z m0 0v0h6v0h-6z m0 0v0h6v0h-6z m-10-3c7 0 10 0 11 0 1 0 2 0 2 0 0 0 0 0 0 0 0 0 0 0 0 0 0 0 0 0 0 0 0 0 0 0 0 0-1 0-1 0-1 0 0 0 0 0-1 1 0 0-1 0-1 1 0 1 0 1 0 1h6c0 0 0 0 0 0 0 0 0 0 0 1 0 0 0 0 0 0 0 1-1 2-1 2-1 0-1 0-1 0 0 0 0 0 0 0-1 0-1 0-1 0 0 0 0 0 0 0 0 0 0 0 0 0 0 0 0 0 0 0 0 0-1 0-2 0-1 0-4 0-11 0v-6z m13 6h-13v-6h13v6z m-338-15c6 0 10-4 10-10h6c0 9-7 16-16 16v-6z m-9-10c0 6 4 10 9 10v6c-8 0-16-7-16-16h7z m0-470v470h-7v-470h7z m9-10c-5 0-9 4-9 10h-7c0-9 8-16 16-16v6z m10 10c0-6-4-10-10-10v-6c9 0 16 7 16 16h-6z m0 470v-470h6v470h-6z m99 10c6 0 10-4 10-10h6c0 9-7 16-16 16v-6z m-9-10c0 6 4 10 9 10v6c-9 0-16-7-16-16h7z m0-470v470h-7v-470h7z m9-10c-5 0-9 4-9 10h-7c0-9 7-16 16-16v6z m10 10c0-6-4-10-10-10v-6c9 0 16 7 16 16h-6z m0 470v-470h6v470h-6z m99 10c5 0 10-4 10-10h6c0 9-7 16-16 16v-6z m-10-10c0 6 5 10 10 10v6c-9 0-16-7-16-16h6z m0-470v470h-6v-470h6z m10-10c-5 0-10 4-10 10h-6c0-9 7-16 16-16v6z m10 10c0-6-5-10-10-10v-6c9 0 16 7 16 16h-6z m0 470v-470h6v470h-6z m-220 289c3 3 5 6 7 9 2 3 3 6 3 10l-7 0c0-3 0-5-1-7-2-2-4-4-7-8l5-4z m0 0l0 0-5 4 0 0 5-4z m-15-31c0 16 8 24 15 31l-5 4c-7-6-17-17-17-35h7z m8-9c-4 0-8 4-8 9h-7c0-9 7-15 15-15v6z m9 9c0-5-4-9-9-9v-6c9 0 15 6 15 15h-6z m10 19c-3-3-6-6-7-9-2-3-3-6-3-10h6c0 3 1 5 2 7 1 2 3 4 7 7l-5 5z m0 0l0 0 5-5 0 0-5 5z m15 31c0-16-8-24-15-31l5-5c6 7 16 17 16 36l-6 0z m-15 32c7-7 15-15 15-32h6c0 19-10 29-16 36l-5-4z m0 0l0 0 5 4 0 0-5-4z m-10 19c0-4 1-7 3-10 1-3 4-6 7-9l5 4c-4 3-6 6-7 8-1 2-2 4-2 7h-6z m10 20c-3-4-6-6-7-9-2-3-3-7-3-11h6c0 3 1 6 2 8 1 2 3 4 7 7l-5 5z m0 0l0 0 5-5 0 0-5 5z m15 31c0-16-8-25-15-31l5-5c6 7 16 17 16 36h-6z m-9 9c5 0 9-4 9-9h6c0 8-6 15-15 15v-6z m-8-9c0 5 4 9 8 9v6c-8 0-15-7-15-15h7z m-10-19c3 3 5 5 7 8 2 3 3 7 3 11h-7c0-3 0-5-1-7-2-3-4-5-7-8l5-4z m0 0l0 0-5 4 0 0 5-4z m-15-32c0 16 8 25 15 32l-5 4c-7-7-17-17-17-36h7z m15-31c-7 6-15 15-15 31h-7c0-19 10-29 17-36l5 5z m0 0l0 0-5-5 0 0 5 5z m10-20c0 5-1 8-3 11-2 3-4 6-7 9l-5-5c3-3 5-5 7-7 1-2 1-4 1-8h7z m-128-281c5 0 9-4 9-9h7c0 8-8 15-16 15v-6z m-10-9c0 5 4 9 10 9v6c-9 0-16-7-16-15h6z m0-86v86h-6v-86h6z m10-9c-6 0-10 4-10 9h-6c0-8 7-16 16-16v7z m9 9c0-5-4-9-9-9v-7c8 0 16 8 16 16h-7z m0 86v-86h7v86h-7z m7-128c0 9-8 16-16 16v-7c5 0 9-4 9-9h7z m0-341v341h-7v-341h7z m-16-16c8 0 16 8 16 16h-7c0-5-4-9-9-9v-7z m-16 16c0-8 7-16 16-16v7c-6 0-10 4-10 9h-6z m0 341v-341h6v341h-6z m16 16c-9 0-16-7-16-16h6c0 5 4 9 10 9v7z" horiz-adv-x="1043" />

<glyph glyph-name="reload" unicode="&#xe80f;" d="M946 682c-91 91-210 141-337 141-173 0-341-100-418-255h-105c-22 0-45-13-54-36-9-23 0-46 14-64l140-141c23-18 55-18 78 0l141 141c18 18 22 41 13 64-9 23-32 36-54 36h-68c72 100 190 164 313 164 214 0 382-173 382-382s-173-382-382-382c-104 0-200 41-273 114-18 18-45 18-63 0-18-18-18-46 0-64 91-91 209-141 336-141s246 50 337 141c90 91 140 209 140 337s-50 236-140 327z" horiz-adv-x="1091" />

<glyph glyph-name="search" unicode="&#xe810;" d="M345 850c185 0 336-151 336-337 0-91-36-174-96-235l55-55c12 8 26 13 40 13 21 1 41-7 56-22l224-224c8-9 13-20 13-32 0-12-5-23-13-32l-44-43c-8-9-19-14-31-14-13 0-24 5-32 14l-222 221c-27 27-31 69-11 99l-56 55c-59-51-136-81-219-81-186 0-337 151-337 336 0 186 151 337 337 337z m307-725l221-222c3-3 7-5 12-5 4 0 8 2 11 5l43 43c4 4 5 8 5 12 0 4-1 8-5 12l-223 223c-9 9-21 14-34 14 0 0 0 0-1 0-13 0-25-6-34-15-16-19-14-49 5-67z m-307 80c169 0 308 138 308 308 0 170-139 308-308 308-170 0-308-138-308-308 0-170 138-308 308-308z m0 584c151 0 275-124 275-276 0-152-124-275-275-275-152 0-276 123-276 275 0 152 124 276 276 276z m0-522c136 0 246 110 246 246 0 136-110 247-246 247-136 0-247-111-247-247 0-136 111-246 247-246z" horiz-adv-x="973" />

<glyph glyph-name="tg" unicode="&#xe811;" d="M265 273l137-342 178 178 305-242 215 966-1100-458 265-102z m521 283l-337-307-42-158-77 194 456 271z" horiz-adv-x="1100" />

<glyph glyph-name="tools" unicode="&#xe812;" d="M663 540c-11 0-19-8-19-19 0-10 8-19 19-19 11 0 19 9 19 19 0 11-8 19-19 19z m-347-347c-10 0-19-8-19-19 0-10 9-19 19-19 11 0 19 9 19 19 0 11-8 19-19 19z m639 526c-7 1-14 0-18-5l-79-80h-38l-42 43v39l78 79c4 5 6 11 5 18-2 6-6 11-13 13-19 7-40 10-61 10-62 0-118-29-155-79-34-47-44-105-29-161l-141-141-234 235v46c0 7-3 13-9 17l-135 81c-8 4-17 3-23-3l-54-54c-7-6-8-16-3-23l81-135c3-6 9-10 16-10l46 0 234-234-140-141c-55 15-113 5-161-29-50-36-79-93-79-155 0-21 3-41 10-61 2-6 7-11 14-13 6-1 13 1 18 6l79 79h38l43-43v-38l-79-79c-5-5-7-12-6-18 2-7 7-12 13-14 20-7 40-10 61-10 62 0 118 29 155 80 34 47 44 105 29 160l113 113 26-28-12-12c-8-7-8-19 0-27 7-7 19-7 27 0l10 11 242-263c0 0 1 0 1 0 44-45 117-45 162 0 44 44 44 117 0 162 0 0-1 0-1 0l-263 242 11 10c7 8 7 20 0 27-8 8-20 8-27 0l-12-12-28 26 113 113c16-4 33-6 49-6 106 0 191 85 191 191 0 20-3 41-10 60-2 7-7 11-13 13z m-786-77c-4 3-9 5-14 5l-43 0-68 113 33 33 113-67v-44c0-5 2-10 6-13l239-241-27-27-239 241z m485-372l264-243c29-29 29-78 0-107-30-30-78-30-108-1l-243 264 87 87z m-28 25l-84-84-26 28 82 82 28-26z m161 198c-16 0-33 3-48 8-7 2-15 0-20-5-96-95-302-302-378-378-5-5-7-12-4-19 15-47 8-98-21-138-29-41-74-64-124-64-6 0-11 1-17 1l61 60c3 4 5 9 5 14v54c0 5-2 10-5 13l-55 55c-3 4-8 6-13 6h-54c-5 0-10-2-14-6l-60-61c-1 6-1 11-1 17 0 50 23 95 64 124 40 29 91 37 138 21 7-3 14-1 19 4 1 1 378 378 378 378 5 5 7 13 5 20-16 47-9 97 20 138 29 40 75 63 124 63 6 0 12 0 18-1l-60-60c-3-4-5-8-5-13v-54c0-5 2-10 5-14l53-54c3-4 8-6 13-6h54c6 0 10 2 14 6l60 60c1-5 1-11 1-16 0-85-68-153-153-153z m-191-12l-239-239c-8-8-8-20 0-27 7-8 19-8 27 0l239 239c7 7 7 19 0 27-8 7-20 7-27 0z m241-507c7-8 19-8 27 0 7 7 7 19 0 27l-172 171c-8 8-20 8-27 0-8-7-8-19 0-27l172-171z" horiz-adv-x="977" />

<glyph glyph-name="trash" unicode="&#xe813;" d="M417 790h167v-28h60v32c0 31-25 56-56 56h-175c-31 0-57-25-57-56v-32h61v28z m367-268h-567c-16 0-28-13-27-28l48-586c2-33 30-58 63-58h399c33 0 60 25 63 58l47 586c1 15-11 28-26 28z m-430-610c0 0-1 0-2 0-16 0-29 13-30 29l-29 481c-2 16 11 31 28 32 16 1 31-12 32-29l29-481c1-16-11-31-28-32z m177 31c0-17-14-31-30-31-17 0-31 14-31 31v481c0 16 14 30 31 30 16 0 30-14 30-30v-481z m177 479l-28-481c-1-16-15-29-30-29-1 0-2 0-2 0-17 1-30 16-29 32l29 481c1 17 15 30 32 29 16-1 29-16 28-32z m180 194l-20 59c-5 16-20 26-36 26h-663c-17 0-31-10-37-26l-19-59c-4-12 1-24 10-29 4-3 8-4 13-4h728c5 0 10 1 14 4 9 5 14 17 10 29z" horiz-adv-x="1000" />

<glyph glyph-name="triangle-b" unicode="&#xe814;" d="M682-71l-669 886 1338 0-669-886z" horiz-adv-x="1364" />

<glyph glyph-name="triangle-r" unicode="&#xe815;" d="M467 350l-450-491 0 982 450-491z" horiz-adv-x="467" />

<glyph glyph-name="heart-empty" unicode="&#xe816;" d="M929 517q0 46-12 80t-31 55-46 33-52 18-55 4-62-14-62-36-48-40-34-34q-10-13-27-13t-27 13q-14 15-34 34t-48 40-62 36-62 14-55-4-52-18-46-33-31-55-12-80q0-93 105-198l324-312 324 312q105 105 105 198z m71 0q0-123-128-251l-347-335q-10-10-25-10t-25 10l-348 336q-5 5-15 15t-31 37-38 54-30 67-13 77q0 123 71 192t196 70q34 0 70-12t67-33 54-38 42-38q20 20 42 38t54 38 67 33 70 12q125 0 196-70t71-192z" horiz-adv-x="1000" />

<glyph glyph-name="triangle-s-b" unicode="&#xe817;" d="M1091-150l-1024 955 1980 0-956-955z" horiz-adv-x="2182" />

<glyph glyph-name="triangle-s-t" unicode="&#xe818;" d="M1091 850l1023-955h-2047l1024 955z" horiz-adv-x="2182" />

<glyph glyph-name="triangle-t" unicode="&#xe819;" d="M750 837l736-976h-1472l736 976z" horiz-adv-x="1500" />

<glyph glyph-name="triangle-tb" unicode="&#xe81a;" d="M315 845l273-361h-546l273 361z m0-963l-273 361 546 0-273-361z" horiz-adv-x="630" />

<glyph glyph-name="viber" unicode="&#xe81b;" d="M749 850h-499c-137 0-250-113-250-251v-499c0-137 113-250 250-250h499c138 0 251 113 251 251v498c0 138-113 251-251 251z m-276-206c2 25 25 16 37 18 149-5 277-139 276-283 0-15 5-35-17-35-21 0-15 21-17 35-20 154-92 226-247 250-13 1-33-1-32 15z m223-272c-24-3-19 18-21 31-16 94-50 128-146 149-14 3-36 0-32 22 3 20 23 13 38 12 96-11 175-93 174-183-2-9 5-28-13-31z m-59 49c0-12-2-24-16-26-11-1-17 7-19 18-4 38-24 61-64 67-12 2-23 6-17 22 4 10 13 12 23 12 43 0 93-50 93-93z m150-292c-16-46-73-92-121-91-7 2-21 4-33 9-212 90-367 237-454 448-30 71 1 131 75 155 14 5 26 5 40 0 31-11 112-120 113-152 2-24-16-38-32-49-33-21-33-48-19-79 31-68 85-116 154-146 24-11 49-10 65 15 31 45 68 43 108 15 21-14 42-28 61-43 26-21 59-39 43-82z" horiz-adv-x="1000" />

<glyph glyph-name="arr-r" unicode="&#xe81c;" d="M517 367l-393 393c-10 9-24 9-34 0-9-9-9-24 0-34l377-376-377-376c-9-10-9-24 0-34 5-4 11-7 17-7 6 0 12 3 17 7l393 393c9 10 9 25 0 34z" horiz-adv-x="583" />

<glyph glyph-name="cart" unicode="&#xe81d;" d="M1070 486h-126l-111 167c-5 8-15 10-22 5-8-5-10-15-5-23l133-200c7-10 3-25-8-30-10-5-21-2-27 7l-238 358c-7 10-4 23 6 30 10 6 23 3 29-6l69-104c5-8 15-10 23-5 7 5 9 15 4 23l-69 104c-16 24-49 31-74 15-25-17-32-51-15-75l176-266h-522l176 266c17 25 10 58-15 75-24 16-58 9-74-15l-216-326h-125c-22 0-39-17-39-38v-111c0-21 17-38 39-38h24l71-385c5-29 31-50 60-50h523c9 0 16 8 16 17 0 9-7 16-16 16h-523c-14 0-25 10-28 23l-70 379h196c9 0 16 7 16 16 0 9-7 16-16 16h-253c-4 0-6 3-6 6v111c0 3 2 6 6 6h103l0-1c-8-12-11-26-8-40 3-16 14-30 28-37 24-13 55-5 70 18l39 60h566l40-60c16-25 50-31 74-15 25 16 32 50 15 74l0 1h104c3 0 6-3 6-6v-111c0-3-3-6-6-6h-713c-9 0-17-7-17-16 0-9 8-16 17-16h655l-70-379c-2-13-14-23-28-23h-132c-9 0-17-7-17-16 0-9 8-17 17-17h132c30 0 55 21 60 50l71 385h25c21 0 38 17 38 38v111c0 21-17 38-38 38z m-866-74c-5-9-17-12-27-7-11 5-15 20-8 30l238 359c6 9 20 12 29 6 10-7 13-20 6-30l-238-358z m334-181v-239c0-9 7-16 16-16 9 0 16 7 16 16v239c0 9-7 16-16 16-9 0-16-7-16-16z m-132 16c-9-1-15-9-14-18l20-238c0-9 8-16 17-15 9 1 16 9 15 18l-20 238c-1 9-9 16-18 15z m-156 0c-9-2-15-10-14-19l41-238c1-9 10-15 19-14 8 2 14 10 13 19l-40 238c-2 9-10 15-19 14z m434-15l-20-238c-1-9 6-17 15-18 9-1 17 6 18 15l20 238c0 9-6 17-15 18-9 1-17-6-18-15z m132-256c7 0 14 6 16 14l40 238c1 9-5 17-14 19-8 1-17-5-18-14l-40-238c-2-10 6-19 16-19z" horiz-adv-x="1108" />

<glyph glyph-name="circleplay" unicode="&#xe81e;" d="M500-150c-276 0-500 224-500 500s224 500 500 500 500-224 500-500-224-500-500-500z m0 970c-259 0-470-211-470-470s211-470 470-470 470 211 470 470-211 470-470 470z m219-462l-340-196v392l340-196z" horiz-adv-x="1000" />

<glyph glyph-name="convector" unicode="&#xe81f;" d="M1351 610c0-14-5-21-17-32-12-13-30-31-30-64 0-12 10-22 22-22 13 0 22 10 22 22 0 14 6 21 18 32 12 13 30 31 30 64 0 33-18 50-30 63-12 12-18 18-18 32 0 14 6 20 18 32 12 13 30 31 30 63 0 13-10 23-22 23-13 0-23-10-23-23 0-14-5-20-17-32-12-13-30-30-30-63 0-33 18-50 30-63 12-12 17-18 17-32z m-273 0c0-14-5-21-17-32-12-13-30-31-30-64 0-12 10-22 22-22 13 0 22 10 22 22 0 14 6 21 18 32 12 13 30 31 30 64 0 33-18 50-30 63-12 12-18 18-18 32 0 14 6 20 18 32 12 13 30 31 30 63 0 13-10 23-23 23-12 0-22-10-22-23 0-14-5-20-17-32-12-13-30-30-30-63 0-33 18-50 30-63 12-12 17-18 17-32z m-819 0c0-14-5-21-17-32-13-13-30-31-30-64 0-12 10-22 22-22 12 0 22 10 22 22 0 14 6 21 18 32 12 13 29 31 29 64 0 33-17 50-29 63-12 12-18 18-18 32 0 14 6 20 18 32 12 13 29 31 29 63 0 13-9 23-22 23-12 0-22-10-22-23 0-14-5-20-17-32-13-13-30-30-30-63 0-33 17-50 30-63 12-12 17-18 17-32z m273 0c0-14-5-21-17-32-12-13-30-31-30-64 0-12 10-22 22-22 12 0 22 10 22 22 0 14 6 21 18 32 12 13 29 31 29 64 0 33-17 50-29 63-12 12-18 18-18 32 0 14 6 20 18 32 12 13 29 31 29 63 0 13-9 23-22 23-12 0-22-10-22-23 0-14-5-20-17-32-12-13-30-30-30-63 0-33 18-50 30-63 12-12 17-18 17-32z m273 0c0-14-5-21-17-32-12-13-30-31-30-64 0-12 10-22 22-22 13 0 22 10 22 22 0 14 6 21 18 32 12 13 30 31 30 64 0 33-18 50-30 63-12 12-18 18-18 32 0 14 6 20 18 32 12 13 30 31 30 63 0 13-10 23-23 23-12 0-22-10-22-23 0-14-5-20-17-32-12-13-30-30-30-63 0-33 18-50 30-63 12-12 17-18 17-32z m-742-744l101 0c12 0 22 9 22 20 0 11-10 19-22 19l-101 0c-10 0-19 8-19 17l0 460c0 10 9 17 19 17l33 0 0-123c0-32 29-59 66-59l1016 0c12 0 22 9 22 20 0 11-10 19-22 19l-1016 0c-12 0-22 9-22 20l0 4 1272 0 0-4c0-11-10-20-22-20l-108 0c-12 0-22-8-22-19 0-11 10-20 22-20l108 0c36 0 66 27 66 59l0 123 32 0c11 0 20-7 20-17l0-460c0-9-9-17-20-17l-1219 0c-12 0-22-8-22-19 0-11 10-20 22-20l1219 0c35 0 64 25 64 56l0 460c0 31-29 56-64 56l-54 0-1316 0-55 0c-35 0-63-25-63-56l0-460c0-31 28-56 63-56z m77 533l1272 0 0-24-1272 0 0 24z m0-63l1272 0 0-17-1272 0 0 17z" horiz-adv-x="1552" />

<glyph glyph-name="download" unicode="&#xe820;" d="M800 306l-300-300-300 300 55 55 206-206v695h78v-695l206 206 55-55z m200-378h-1000v-78h1000v78z" horiz-adv-x="1000" />

<glyph glyph-name="file" unicode="&#xe821;" d="M54-67h88v-29c0-14 6-28 16-38 10-10 24-16 38-16h452c0 0 1 0 1 0 0 0 0 0 1 0h0c2 0 3 0 5 1 1 1 3 2 4 3 0 0 0 0 1 1l107 103c0 0 0 0 0 0 2 2 3 3 4 5 1 2 1 4 1 6 0 0 0 0 0 0 0 0 0 1 0 1v718c0 15-6 28-16 39-10 10-24 15-38 15h-88v54c0 14-6 28-16 38-10 10-24 16-38 16h-522c-14 0-28-6-38-16-10-10-16-24-16-38v-809c0-14 6-28 16-38 10-10 24-16 38-16z m608 19l65 2-65-63 0 61z m85 736v-708l-93-4c-2 0-5 0-7-1-2-1-4-2-6-4-1-2-3-4-3-6-1-2-2-4-1-7l0-83h-441c-8 0-15 3-21 8-5 6-8 13-8 21v784c0 8 3 15 8 21 6 5 13 8 21 8h522c8 0 15-3 20-8 6-6 9-13 9-21z m-722 108c0 8 3 15 8 21 6 5 13 8 21 8h522c8 0 15-3 21-8 5-6 8-13 8-21v-54h-409c-14 0-28-5-38-15-10-11-16-24-16-39v-730h-88c-8 0-15 3-21 8-5 6-8 13-8 21v809z m214-501h450c4 0 7 2 9 4 2 2 4 5 4 9 0 3-2 6-4 8-2 3-5 4-9 4h-450c-3 0-7-1-9-4-2-2-3-5-3-8 0-4 1-7 3-9 2-2 6-4 9-4z m0-140h450c4 0 7 2 9 4 2 2 4 6 4 9 0 3-2 6-4 9-2 2-5 3-9 3h-450c-3 0-7-1-9-3-2-3-3-6-3-9 0-3 1-7 3-9 2-2 6-4 9-4z m0-139h450c4 0 7 1 9 3 2 3 4 6 4 9 0 3-2 6-4 9-2 2-5 3-9 3h-450c-3 0-7-1-9-3-2-3-3-6-3-9 0-3 1-6 3-9 2-2 6-3 9-3z m4 404h166c5 0 9 2 12 5 3 3 5 7 5 11v167c0 4-2 8-5 12-3 3-7 4-12 4h-166c-4 0-9-1-12-4-3-4-4-8-4-12v-167c0-4 1-8 4-11 3-3 8-5 12-5z m8 175h150v-150h-150v150z m234-20h204c3 0 7 1 9 4 2 2 4 5 4 8 0 4-2 7-4 9-2 3-6 4-9 4h-204c-3 0-6-1-9-4-2-2-3-5-3-9 0-3 1-6 3-8 3-3 6-4 9-4z m0-140h204c3 0 7 1 9 4 2 2 4 5 4 9 0 3-2 6-4 8-2 3-6 4-9 4h-204c-3 0-6-1-9-4-2-2-3-5-3-8 0-4 1-7 3-9 3-3 6-4 9-4z" horiz-adv-x="778" />
</font>
</defs>
</svg>
