<svg width="224" height="56" viewBox="0 0 224 56" fill="none" xmlns="http://www.w3.org/2000/svg">
<g filter="url(#filter0_d)">
<path d="M21.6407 40.2735H25.9469L15.0681 22.3688L24.6777 8.54362H20.1902L13.0283 19.2411L10.6712 23.0487V8.54362H6.95428V40.2735H10.6712V28.7601L12.847 25.5871L21.6407 40.2735ZM39.2568 40.8628C45.1495 40.8628 48.6398 36.8286 48.6398 30.3013V18.4705C48.6398 11.9886 45.1495 7.95435 39.2568 7.95435C33.3641 7.95435 29.8284 11.9886 29.8284 18.4705V30.3013C29.8284 36.8286 33.3641 40.8628 39.2568 40.8628ZM39.2568 37.2365C35.5398 37.2365 33.636 34.7435 33.636 30.3013V18.4705C33.636 14.0737 35.5398 11.5806 39.2568 11.5806C42.9284 11.5806 44.8322 14.0737 44.8322 18.4705V30.3013C44.8322 34.7435 42.9284 37.2365 39.2568 37.2365ZM70.5534 40.2735H74.769L67.4258 27.9442C71.4147 26.811 73.7264 23.366 73.7264 18.1532C73.7264 12.0792 70.4174 8.54362 64.4341 8.54362H56.6829V40.2735H60.3999V28.3068H63.6182L70.5534 40.2735ZM60.3999 12.0339H64.4341C68.0604 12.0339 69.9642 14.1643 69.9642 18.2892C69.9642 22.5048 68.0604 24.8165 64.3888 24.8165H60.3999V12.0339ZM94.901 40.2735H98.7993L90.6401 8.54362H86.6059L78.4468 40.2735H82.345L84.0222 33.3836H93.2239L94.901 40.2735ZM84.8381 29.9386L87.4218 19.1958C87.9204 17.156 88.3737 14.4816 88.555 13.2578H88.691C88.8723 14.4816 89.3256 17.156 89.8242 19.1958L92.4079 29.9386H84.8381ZM104.774 40.2735H112.343C118.327 40.2735 121.908 36.7379 121.908 30.6639V18.1532C121.908 12.0792 118.372 8.54362 112.298 8.54362H104.774V40.2735ZM108.49 36.7379V12.0792H112.343C116.106 12.0792 118.191 14.1643 118.191 18.2439V30.5279C118.191 34.6528 116.06 36.7379 112.343 36.7379H108.49ZM138.493 40.8628C144.385 40.8628 147.876 36.8286 147.876 30.3013V18.4705C147.876 11.9886 144.385 7.95435 138.493 7.95435C132.6 7.95435 129.064 11.9886 129.064 18.4705V30.3013C129.064 36.8286 132.6 40.8628 138.493 40.8628ZM138.493 37.2365C134.776 37.2365 132.872 34.7435 132.872 30.3013V18.4705C132.872 14.0737 134.776 11.5806 138.493 11.5806C142.164 11.5806 144.068 14.0737 144.068 18.4705V30.3013C144.068 34.7435 142.164 37.2365 138.493 37.2365ZM166.828 30.2106H177.843V26.9923H166.828V30.2106Z" fill="#E8E8E8"/>
<path d="M201.441 27.5219L201.442 27.5256C201.772 29.0019 201.847 29.3782 201.904 29.6727C201.91 29.7064 201.916 29.7394 201.923 29.7728C201.982 30.0864 202.047 30.4244 202.289 31.5331L207.183 31.4904C207.432 30.2451 207.478 30.0538 207.541 29.8052C207.549 29.7757 207.556 29.7456 207.564 29.7141C207.647 29.3908 207.765 28.926 208.082 27.5126C208.082 27.5122 208.082 27.5118 208.082 27.5114L208.082 27.5111L208.083 27.5068L212.066 10.0894H212.798L205.639 38.7278H203.882L196.722 10.0894H197.412L201.441 27.5219L201.441 27.5219Z" stroke="#5FB34E" stroke-width="5"/>
<mask id="path-3-inside-1" fill="white">
<path d="M21.6407 40.2735L20.8219 40.7635L21.1001 41.2277H21.6407V40.2735ZM25.9469 40.2735V41.2277H27.6436L26.7623 39.7777L25.9469 40.2735ZM15.0681 22.3687L14.2846 21.8243L13.9301 22.3339L14.2526 22.8645L15.0681 22.3687ZM24.6777 8.54355L25.4612 9.08797L26.5033 7.58927H24.6777V8.54355ZM20.1902 8.54355V7.58927H19.6806L19.3972 8.01249L20.1902 8.54355ZM13.0283 19.2411L12.2353 18.71L12.2257 18.7243L12.2172 18.7386L13.0283 19.2411ZM10.6712 23.0487H9.71694V26.403L11.4828 23.5511L10.6712 23.0487ZM10.6712 8.54355H11.6255V7.58927H10.6712V8.54355ZM6.95428 8.54355V7.58927H6V8.54355H6.95428ZM6.95428 40.2735H6V41.2277H6.95428V40.2735ZM10.6712 40.2735V41.2277H11.6255V40.2735H10.6712ZM10.6712 28.76L9.88442 28.2204L9.71694 28.4642V28.76H10.6712ZM12.847 25.587L13.6658 25.097L12.9014 23.8202L12.0602 25.0474L12.847 25.587ZM21.6407 41.2277H25.9469V39.3192H21.6407V41.2277ZM26.7623 39.7777L15.8835 21.873L14.2526 22.8645L25.1315 40.7692L26.7623 39.7777ZM15.8515 22.9131L25.4612 9.08797L23.8942 7.99866L14.2846 21.8243L15.8515 22.9131ZM24.6777 7.58927H20.1902V9.49784H24.6777V7.58927ZM19.3972 8.01249L12.2353 18.71L13.8213 19.7721L20.9832 9.07461L19.3972 8.01249ZM12.2172 18.7386L9.86007 22.5462L11.4828 23.5511L13.8399 19.7435L12.2172 18.7386ZM11.6255 23.0487V8.54355H9.71694V23.0487H11.6255ZM10.6712 7.58927H6.95428V9.49784H10.6712V7.58927ZM6 8.54355V40.2735H7.90857V8.54355H6ZM6.95428 41.2277H10.6712V39.3192H6.95428V41.2277ZM11.6255 40.2735V28.76H9.71694V40.2735H11.6255ZM11.4585 29.2997L13.6343 26.1267L12.0602 25.0474L9.88442 28.2204L11.4585 29.2997ZM12.0282 26.0771L20.8219 40.7635L22.4595 39.7834L13.6658 25.097L12.0282 26.0771ZM39.2568 41.817C42.4336 41.817 45.0564 40.7215 46.8739 38.6607C48.6774 36.6157 49.594 33.7271 49.594 30.3012H47.6855C47.6855 33.4026 46.8571 35.7945 45.4424 37.3987C44.0415 38.9871 41.9731 39.9085 39.2568 39.9085V41.817ZM49.594 30.3012V18.4705H47.6855V30.3012H49.594ZM49.594 18.4705C49.594 15.0656 48.677 12.1884 46.8729 10.1491C45.0559 8.09552 42.4331 7 39.2568 7V8.90857C41.9731 8.90857 44.042 9.83041 45.4434 11.414C46.8576 13.0125 47.6855 15.3934 47.6855 18.4705H49.594ZM39.2568 7C36.0809 7 33.4485 8.09504 31.6206 10.1467C29.8046 12.1851 28.8742 15.0627 28.8742 18.4705H30.7827C30.7827 15.3963 31.6201 13.0158 33.0453 11.4164C34.4582 9.83088 36.5399 8.90857 39.2568 8.90857V7ZM28.8742 18.4705V30.3012H30.7827V18.4705H28.8742ZM28.8742 30.3012C28.8742 33.7299 29.8036 36.619 31.6196 38.6636C33.4476 40.722 36.0809 41.817 39.2568 41.817V39.9085C36.5404 39.9085 34.4591 38.9866 33.0463 37.3958C31.6211 35.7912 30.7827 33.3998 30.7827 30.3012H28.8742ZM39.2568 36.2822C37.6292 36.2822 36.5237 35.7482 35.7984 34.8393C35.0446 33.8946 34.5903 32.4064 34.5903 30.3012H32.6818C32.6818 32.6382 33.1799 34.6179 34.3069 36.0298C35.4625 37.4784 37.1678 38.1907 39.2568 38.1907V36.2822ZM34.5903 30.3012V18.4705H32.6818V30.3012H34.5903ZM34.5903 18.4705C34.5903 16.3901 35.0436 14.9134 35.797 13.9739C36.5227 13.0692 37.6288 12.5348 39.2568 12.5348V10.6263C37.1678 10.6263 35.464 11.3387 34.3083 12.7796C33.1808 14.1858 32.6818 16.154 32.6818 18.4705H34.5903ZM39.2568 12.5348C40.8585 12.5348 41.954 13.0664 42.675 13.9715C43.4251 14.912 43.8779 16.3901 43.8779 18.4705H45.7864C45.7864 16.154 45.2878 14.1872 44.1675 12.782C43.0195 11.341 41.3266 10.6263 39.2568 10.6263V12.5348ZM43.8779 18.4705V30.3012H45.7864V18.4705H43.8779ZM43.8779 30.3012C43.8779 32.4064 43.4241 33.896 42.674 34.8417C41.9526 35.7506 40.8581 36.2822 39.2568 36.2822V38.1907C41.3271 38.1907 43.0205 37.4755 44.1689 36.0279C45.2888 34.6165 45.7864 32.6382 45.7864 30.3012H43.8779ZM70.5534 40.2735L69.7275 40.752L70.0033 41.2277H70.5534V40.2735ZM74.769 40.2735V41.2277H76.448L75.5887 39.7854L74.769 40.2735ZM67.4258 27.9441L67.1648 27.0261L65.9705 27.3654L66.606 28.4322L67.4258 27.9441ZM56.6829 8.54355V7.58927H55.7286V8.54355H56.6829ZM56.6829 40.2735H55.7286V41.2277H56.6829V40.2735ZM60.3999 40.2735V41.2277H61.3541V40.2735H60.3999ZM60.3999 28.3068V27.3525H59.4456V28.3068H60.3999ZM63.6182 28.3068L64.4436 27.8282L64.1678 27.3525H63.6182V28.3068ZM60.3999 12.0338V11.0796H59.4456V12.0338H60.3999ZM60.3999 24.8165H59.4456V25.7707H60.3999V24.8165ZM70.5534 41.2277H74.769V39.3192H70.5534V41.2277ZM75.5887 39.7854L68.2455 27.456L66.606 28.4322L73.9492 40.7616L75.5887 39.7854ZM67.6863 28.8621C69.8921 28.2357 71.6633 26.956 72.8719 25.0989C74.0723 23.2538 74.6807 20.8963 74.6807 18.1532H72.7721C72.7721 20.6229 72.2244 22.5944 71.272 24.0578C70.3273 25.5102 68.9483 26.5194 67.1648 27.0261L67.6863 28.8621ZM74.6807 18.1532C74.6807 14.9492 73.8061 12.281 72.013 10.4101C70.2137 8.53353 67.6147 7.58927 64.4341 7.58927V9.49784C67.2368 9.49784 69.2838 10.3214 70.635 11.7309C71.992 13.1465 72.7721 15.2832 72.7721 18.1532H74.6807ZM64.4341 7.58927H56.6829V9.49784H64.4341V7.58927ZM55.7286 8.54355V40.2735H57.6372V8.54355H55.7286ZM56.6829 41.2277H60.3999V39.3192H56.6829V41.2277ZM61.3541 40.2735V28.3068H59.4456V40.2735H61.3541ZM60.3999 29.261H63.6182V27.3525H60.3999V29.261ZM62.7922 28.7853L69.7275 40.752L71.3789 39.7949L64.4436 27.8282L62.7922 28.7853ZM60.3999 12.9881H64.4341V11.0796H60.3999V12.9881ZM64.4341 12.9881C66.0578 12.9881 67.1457 13.4591 67.8447 14.2478C68.5623 15.057 69.0099 16.3563 69.0099 18.2892H70.9184C70.9184 16.0972 70.4141 14.2688 69.2728 12.9814C68.1138 11.6741 66.4367 11.0796 64.4341 11.0796V12.9881ZM69.0099 18.2892C69.0099 20.2712 68.5599 21.6482 67.8247 22.5171C67.1123 23.3593 66.0144 23.8622 64.3888 23.8622V25.7707C66.4343 25.7707 68.1243 25.118 69.2819 23.75C70.416 22.4093 70.9184 20.5227 70.9184 18.2892H69.0099ZM64.3888 23.8622H60.3999V25.7707H64.3888V23.8622ZM61.3541 24.8165V12.0338H59.4456V24.8165H61.3541ZM94.901 40.2735L93.9739 40.4992L94.1514 41.2277H94.901V40.2735ZM98.7993 40.2735V41.2277H100.03L99.7235 40.0358L98.7993 40.2735ZM90.6401 8.54355L91.5644 8.30594L91.3802 7.58927H90.6401V8.54355ZM86.6059 8.54355V7.58927H85.8659L85.6817 8.30594L86.6059 8.54355ZM78.4468 40.2735L77.5225 40.0358L77.2162 41.2277H78.4468V40.2735ZM82.345 40.2735V41.2277H83.0951L83.2721 40.4992L82.345 40.2735ZM84.0222 33.3835V32.4293H83.2726L83.0951 33.1579L84.0222 33.3835ZM93.2239 33.3835L94.1509 33.1579L93.9739 32.4293H93.2239V33.3835ZM84.8381 29.9386L83.9105 29.7153L83.6271 30.8929H84.8381V29.9386ZM87.4218 19.1957L86.4947 18.9691L86.4943 18.9724L87.4218 19.1957ZM88.555 13.2577V12.3034H87.732L87.6112 13.1179L88.555 13.2577ZM88.691 13.2577L89.6353 13.1179L89.5146 12.3034H88.691V13.2577ZM89.8242 19.1957L90.7523 18.9724L90.7513 18.9691L89.8242 19.1957ZM92.4079 29.9386V30.8929H93.6189L93.336 29.7153L92.4079 29.9386ZM94.901 41.2277H98.7993V39.3192H94.901V41.2277ZM99.7235 40.0358L91.5644 8.30594L89.7159 8.78117L97.875 40.5111L99.7235 40.0358ZM90.6401 7.58927H86.6059V9.49784H90.6401V7.58927ZM85.6817 8.30594L77.5225 40.0358L79.371 40.5111L87.5301 8.78117L85.6817 8.30594ZM78.4468 41.2277H82.345V39.3192H78.4468V41.2277ZM83.2721 40.4992L84.9493 33.6092L83.0951 33.1579L81.4179 40.0478L83.2721 40.4992ZM84.0222 34.3378H93.2239V32.4293H84.0222V34.3378ZM92.2968 33.6092L93.9739 40.4992L95.8281 40.0478L94.1509 33.1579L92.2968 33.6092ZM85.7661 30.1619L88.3498 19.419L86.4943 18.9724L83.9105 29.7153L85.7661 30.1619ZM88.3489 19.4224C88.8575 17.3416 89.3156 14.6347 89.4993 13.3975L87.6112 13.1179C87.4318 14.3284 86.9833 16.9704 86.4947 18.9691L88.3489 19.4224ZM88.555 14.212H88.691V12.3034H88.555V14.212ZM87.7472 13.3975C87.9304 14.6347 88.3885 17.3416 88.8971 19.4224L90.7513 18.9691C90.2627 16.9704 89.8142 14.3284 89.6353 13.1179L87.7472 13.3975ZM88.8967 19.419L91.4804 30.1619L93.336 29.7153L90.7523 18.9724L88.8967 19.419ZM92.4079 28.9843H84.8381V30.8929H92.4079V28.9843ZM104.774 40.2735H103.819V41.2277H104.774V40.2735ZM104.774 8.54355V7.58927H103.819V8.54355H104.774ZM108.49 36.7378H107.536V37.6921H108.49V36.7378ZM108.49 12.0792V11.1249H107.536V12.0792H108.49ZM104.774 41.2277H112.343V39.3192H104.774V41.2277ZM112.343 41.2277C115.523 41.2277 118.18 40.2849 120.044 38.4212C121.908 36.5575 122.862 33.8879 122.862 30.6638H120.953C120.953 33.5138 120.117 35.649 118.695 37.0718C117.272 38.4942 115.148 39.3192 112.343 39.3192V41.2277ZM122.862 30.6638V18.1532H120.953V30.6638H122.862ZM122.862 18.1532C122.862 14.932 121.921 12.2614 120.055 10.3958C118.19 8.53019 115.519 7.58927 112.298 7.58927V9.49784C115.151 9.49784 117.285 10.3247 118.706 11.7452C120.127 13.1661 120.953 15.3004 120.953 18.1532H122.862ZM112.298 7.58927H104.774V9.49784H112.298V7.58927ZM103.819 8.54355V40.2735H105.728V8.54355H103.819ZM109.445 36.7378V12.0792H107.536V36.7378H109.445ZM108.49 13.0335H112.343V11.1249H108.49V13.0335ZM112.343 13.0335C114.052 13.0335 115.231 13.5034 115.99 14.2931C116.755 15.0885 117.236 16.3567 117.236 18.2438H119.145C119.145 16.0514 118.584 14.2373 117.366 12.9705C116.142 11.6975 114.397 11.1249 112.343 11.1249V13.0335ZM117.236 18.2438V30.5278H119.145V18.2438H117.236ZM117.236 30.5278C117.236 32.435 116.745 33.7156 115.973 34.5182C115.207 35.315 114.026 35.7836 112.343 35.7836V37.6921C114.377 37.6921 116.12 37.1181 117.349 35.8413C118.572 34.5697 119.145 32.7456 119.145 30.5278H117.236ZM112.343 35.7836H108.49V37.6921H112.343V35.7836ZM138.493 41.817C141.669 41.817 144.292 40.7215 146.109 38.6607C147.913 36.6157 148.83 33.7271 148.83 30.3012H146.921C146.921 33.4026 146.093 35.7945 144.678 37.3987C143.277 38.9871 141.209 39.9085 138.493 39.9085V41.817ZM148.83 30.3012V18.4705H146.921V30.3012H148.83ZM148.83 18.4705C148.83 15.0656 147.912 12.1884 146.108 10.1491C144.291 8.09552 141.669 7 138.493 7V8.90857C141.209 8.90857 143.278 9.83041 144.679 11.414C146.094 13.0125 146.921 15.3934 146.921 18.4705H148.83ZM138.493 7C135.317 7 132.684 8.09504 130.856 10.1467C129.04 12.1851 128.11 15.0627 128.11 18.4705H130.019C130.019 15.3963 130.856 13.0158 132.281 11.4164C133.694 9.83088 135.776 8.90857 138.493 8.90857V7ZM128.11 18.4705V30.3012H130.019V18.4705H128.11ZM128.11 30.3012C128.11 33.7299 129.04 36.619 130.855 38.6636C132.683 40.722 135.316 41.817 138.493 41.817V39.9085C135.776 39.9085 133.695 38.9866 132.282 37.3958C130.857 35.7912 130.019 33.3998 130.019 30.3012H128.11ZM138.493 36.2822C136.865 36.2822 135.76 35.7482 135.034 34.8393C134.28 33.8946 133.826 32.4064 133.826 30.3012H131.918C131.918 32.6382 132.415 34.6179 133.542 36.0298C134.698 37.4784 136.403 38.1907 138.493 38.1907V36.2822ZM133.826 30.3012V18.4705H131.918V30.3012H133.826ZM133.826 18.4705C133.826 16.3901 134.279 14.9134 135.033 13.9739C135.758 13.0692 136.865 12.5348 138.493 12.5348V10.6263C136.404 10.6263 134.699 11.3387 133.544 12.7796C132.416 14.1858 131.918 16.154 131.918 18.4705H133.826ZM138.493 12.5348C140.094 12.5348 141.189 13.0664 141.911 13.9715C142.66 14.912 143.114 16.3901 143.114 18.4705H145.022C145.022 16.154 144.523 14.1872 143.403 12.782C142.255 11.341 140.563 10.6263 138.493 10.6263V12.5348ZM143.114 18.4705V30.3012H145.022V18.4705H143.114ZM143.114 30.3012C143.114 32.4064 142.66 33.896 141.909 34.8417C141.188 35.7506 140.094 36.2822 138.493 36.2822V38.1907C140.563 38.1907 142.256 37.4755 143.405 36.0279C144.524 34.6165 145.022 32.6382 145.022 30.3012H143.114ZM166.828 30.2106H165.874V31.1648H166.828V30.2106ZM177.843 30.2106V31.1648H178.797V30.2106H177.843ZM177.843 26.9922H178.797V26.0379H177.843V26.9922ZM166.828 26.9922V26.0379H165.874V26.9922H166.828ZM166.828 31.1648H177.843V29.2563H166.828V31.1648ZM178.797 30.2106V26.9922H176.889V30.2106H178.797ZM177.843 26.0379H166.828V27.9465H177.843V26.0379ZM165.874 26.9922V30.2106H167.782V26.9922H165.874Z"/>
</mask>
<path d="M49.594 28.8012H47.6855V31.8012H49.594V28.8012ZM37.7568 39.9085V41.817H40.7568V39.9085H37.7568ZM49.594 16.9705H47.6855V19.9705H49.594V16.9705ZM37.7568 7V8.90857H40.7568V7H37.7568ZM28.8742 19.9705H30.7827V16.9705H28.8742V19.9705ZM28.8742 31.8012H30.7827V28.8012H28.8742V31.8012ZM34.5903 28.8012H32.6818V31.8012H34.5903V28.8012ZM40.7568 38.1907V36.2822H37.7568V38.1907H40.7568ZM34.5903 16.9705H32.6818V19.9705H34.5903V16.9705ZM40.7568 12.5348V10.6263H37.7568V12.5348H40.7568ZM43.8779 19.9705H45.7864V16.9705H43.8779V19.9705ZM43.8779 31.8012H45.7864V28.8012H43.8779V31.8012ZM74.6807 16.6532H72.7721V19.6532H74.6807V16.6532ZM62.9341 7.58927V9.49784H65.9341V7.58927H62.9341ZM65.9341 12.9881V11.0796H62.9341V12.9881H65.9341ZM69.0099 19.7892H70.9184V16.7892H69.0099V19.7892ZM62.8888 23.8622V25.7707H65.8888V23.8622H62.8888ZM113.843 41.2277V39.3192H110.843V41.2277H113.843ZM122.862 29.1638H120.953V32.1638H122.862V29.1638ZM122.862 16.6532H120.953V19.6532H122.862V16.6532ZM110.798 7.58927V9.49784H113.798V7.58927H110.798ZM113.843 13.0335V11.1249H110.843V13.0335H113.843ZM117.236 19.7438H119.145V16.7438H117.236V19.7438ZM117.236 32.0278H119.145V29.0278H117.236V32.0278ZM110.843 35.7836V37.6921H113.843V35.7836H110.843ZM148.83 28.8012H146.921V31.8012H148.83V28.8012ZM136.993 39.9085V41.817H139.993V39.9085H136.993ZM148.83 16.9705H146.921V19.9705H148.83V16.9705ZM136.993 7V8.90857H139.993V7H136.993ZM128.11 19.9705H130.019V16.9705H128.11V19.9705ZM128.11 31.8012H130.019V28.8012H128.11V31.8012ZM133.826 28.8012H131.918V31.8012H133.826V28.8012ZM139.993 38.1907V36.2822H136.993V38.1907H139.993ZM133.826 16.9705H131.918V19.9705H133.826V16.9705ZM139.993 12.5348V10.6263H136.993V12.5348H139.993ZM143.114 19.9705H145.022V16.9705H143.114V19.9705ZM143.114 31.8012H145.022V28.8012H143.114V31.8012ZM21.6407 40.2735H24.6407V34.9818L20.1001 37.6993L21.6407 40.2735ZM20.8219 40.7635L18.248 42.3046L18.2485 42.3054L20.8219 40.7635ZM21.1001 41.2277L18.5267 42.7697L19.4003 44.2277H21.1001V41.2277ZM25.9469 40.2735L24.3884 37.71L22.9469 38.5864V40.2735H25.9469ZM27.6436 41.2277V44.2277H32.9775L30.2073 39.6697L27.6436 41.2277ZM15.0681 22.3687L16.6266 24.9322L20.5669 22.5366L16.78 19.9051L15.0681 22.3687ZM13.9301 22.3339L11.4674 20.6206L10.3522 22.2236L11.3666 23.8923L13.9301 22.3339ZM24.6777 8.54355H21.6777V10.1121L22.9658 11.0072L24.6777 8.54355ZM26.5033 7.58927L28.9664 9.3019L32.2431 4.58927H26.5033V7.58927ZM20.1902 8.54355L18.5209 11.0362L23.1902 14.1631V8.54355H20.1902ZM19.6806 7.58927V4.58927H18.0791L17.1879 5.91999L19.6806 7.58927ZM19.3972 8.01249L16.9045 6.34321L16.9043 6.34352L19.3972 8.01249ZM13.0283 19.2411L11.4486 21.7915L14.6976 16.7484L13.0283 19.2411ZM12.2353 18.71L9.74238 17.041L9.73875 17.0465L12.2353 18.71ZM12.2257 18.7243L9.72921 17.0608L9.68994 17.1197L9.6535 17.1804L12.2257 18.7243ZM10.6712 23.0487L12.2503 20.4979L11.5247 20.0487H10.6712V23.0487ZM9.71694 26.403H6.71694V36.9464L12.2676 27.9823L9.71694 26.403ZM11.4828 23.5511L14.0334 25.1304L14.0336 25.1302L11.4828 23.5511ZM10.6712 8.54355H7.67122V11.5436H10.6712V8.54355ZM11.6255 7.58927H14.6255V4.58927H11.6255V7.58927ZM6.95428 8.54355V11.5436H9.95428V8.54355H6.95428ZM6 7.58927V4.58927H3V7.58927H6ZM6.95428 40.2735H9.95428V37.2735H6.95428V40.2735ZM6 41.2277H3V44.2277H6V41.2277ZM10.6712 40.2735V37.2735H7.67122V40.2735H10.6712ZM11.6255 41.2277V44.2277H14.6255V41.2277H11.6255ZM10.6712 28.76V31.76H20.3491L12.3681 26.286L10.6712 28.76ZM9.71694 28.4642L7.24413 26.7656L6.71694 27.5331V28.4642H9.71694ZM12.847 25.587L11.1501 28.0611L12.7367 29.1493L14.3876 28.1612L12.847 25.587ZM12.9014 23.8202L15.4754 22.2793L13.0722 18.2649L10.4269 22.124L12.9014 23.8202ZM25.9469 39.3192H28.9469V36.3192H25.9469V39.3192ZM21.6407 39.3192V36.3192H18.6407V39.3192H21.6407ZM15.8835 21.873L18.4474 20.3152L16.8892 17.7507L14.3251 19.3095L15.8835 21.873ZM25.1315 40.7692L22.5676 42.327L24.1258 44.8915L26.6899 43.3326L25.1315 40.7692ZM15.8515 22.9131L14.1396 25.3767L16.6029 27.0884L18.3149 24.6254L15.8515 22.9131ZM23.8942 7.99866L25.6067 5.53541L23.1432 3.82283L21.4308 6.28645L23.8942 7.99866ZM20.1902 9.49784H17.1902V12.4978H20.1902V9.49784ZM24.6777 9.49784V12.4978H27.6777V9.49784H24.6777ZM13.8213 19.7721L12.152 22.2648L14.645 23.9343L16.3142 21.4411L13.8213 19.7721ZM20.9832 9.07461L23.4761 10.7436L25.1449 8.25101L22.6525 6.58193L20.9832 9.07461ZM9.86007 22.5462L7.30928 20.9672L5.73042 23.5176L8.28067 25.0968L9.86007 22.5462ZM13.8399 19.7435L16.3907 21.3226L17.9696 18.7721L15.4193 17.1929L13.8399 19.7435ZM11.6255 23.0487V26.0487H14.6255V23.0487H11.6255ZM9.71694 8.54355V5.54355H6.71694V8.54355H9.71694ZM6.95428 9.49784H3.95428V12.4978H6.95428V9.49784ZM10.6712 9.49784V12.4978H13.6712V9.49784H10.6712ZM7.90857 40.2735V43.2735H10.9086V40.2735H7.90857ZM7.90857 8.54355H10.9086V5.54355H7.90857V8.54355ZM10.6712 39.3192H13.6712V36.3192H10.6712V39.3192ZM6.95428 39.3192V36.3192H3.95428V39.3192H6.95428ZM11.6255 28.76H14.6255V25.76H11.6255V28.76ZM9.71694 40.2735H6.71694V43.2735H9.71694V40.2735ZM11.4585 29.2997L9.76199 31.7739L12.2362 33.4704L13.9327 30.9963L11.4585 29.2997ZM13.6343 26.1267L16.1085 27.8233L17.8051 25.349L15.3308 23.6524L13.6343 26.1267ZM12.0282 26.0771L10.4876 23.5029L7.91286 25.0438L9.45433 27.6182L12.0282 26.0771ZM22.4595 39.7834L24.0001 42.3576L26.5748 40.8167L25.0334 38.2423L22.4595 39.7834ZM46.8739 38.6607L44.6239 36.6764L44.6239 36.6764L46.8739 38.6607ZM45.4424 37.3987L47.6924 39.383L47.6924 39.383L45.4424 37.3987ZM46.8729 10.1491L49.1199 8.16137L49.1197 8.16123L46.8729 10.1491ZM45.4434 11.414L47.6902 9.42612L47.6901 9.42595L45.4434 11.414ZM31.6206 10.1467L29.3806 8.1511L29.3806 8.15112L31.6206 10.1467ZM33.0453 11.4164L35.2851 13.4123L35.2851 13.4122L33.0453 11.4164ZM31.6196 38.6636L33.8628 36.6716L33.8626 36.6713L31.6196 38.6636ZM33.0463 37.3958L35.2894 35.4037L35.2893 35.4036L33.0463 37.3958ZM35.7984 34.8393L38.1434 32.9682L38.1434 32.9681L35.7984 34.8393ZM34.3069 36.0298L36.6521 34.1589L36.6515 34.1582L34.3069 36.0298ZM35.797 13.9739L33.4569 12.0967L33.4566 12.0971L35.797 13.9739ZM34.3083 12.7796L31.968 10.9027L31.9678 10.9029L34.3083 12.7796ZM42.675 13.9715L40.3284 15.8406L40.3296 15.8421L42.675 13.9715ZM44.1675 12.782L41.8211 14.6513L41.8218 14.6522L44.1675 12.782ZM42.674 34.8417L45.0239 36.7067L45.0245 36.7059L42.674 34.8417ZM44.1689 36.0279L41.8188 34.1632L41.8187 34.1633L44.1689 36.0279ZM70.5534 40.2735H73.5534V35.0679L69.0494 37.6777L70.5534 40.2735ZM69.7275 40.752L67.1319 42.2563L67.1321 42.2567L69.7275 40.752ZM70.0033 41.2277L67.4079 42.7324L68.2748 44.2277H70.0033V41.2277ZM74.769 40.2735L73.2341 37.6958L71.769 38.5683V40.2735H74.769ZM76.448 41.2277V44.2277H81.7274L79.0253 39.6923L76.448 41.2277ZM67.4258 27.9441L68.9606 30.5218L70.942 29.3419L70.3114 27.1237L67.4258 27.9441ZM65.9705 27.3654L65.1507 24.4795L61.395 25.5464L63.3931 28.9007L65.9705 27.3654ZM56.6829 8.54355V11.5436H59.6829V8.54355H56.6829ZM55.7286 7.58927V4.58927H52.7286V7.58927H55.7286ZM56.6829 40.2735H59.6829V37.2735H56.6829V40.2735ZM55.7286 41.2277H52.7286V44.2277H55.7286V41.2277ZM60.3999 40.2735V37.2735H57.3999V40.2735H60.3999ZM61.3541 41.2277V44.2277H64.3541V41.2277H61.3541ZM60.3999 28.3068V31.3068H63.3999V28.3068H60.3999ZM59.4456 27.3525V24.3525H56.4456V27.3525H59.4456ZM63.6182 28.3068H60.6182V33.5138L65.1229 30.9021L63.6182 28.3068ZM64.4436 27.8282L67.0392 26.3239L67.039 26.3235L64.4436 27.8282ZM64.1678 27.3525L66.7632 25.8478L65.8963 24.3525H64.1678V27.3525ZM60.3999 12.0338V15.0338H63.3999V12.0338H60.3999ZM59.4456 11.0796V8.07956H56.4456V11.0796H59.4456ZM60.3999 24.8165H63.3999V21.8165H60.3999V24.8165ZM59.4456 25.7707H56.4456V28.7707H59.4456V25.7707ZM74.769 39.3192H77.769V36.3192H74.769V39.3192ZM70.5534 39.3192V36.3192H67.5534V39.3192H70.5534ZM68.2455 27.456L70.823 25.9209L69.288 23.3436L66.7106 24.8784L68.2455 27.456ZM73.9492 40.7616L71.3718 42.2967L72.9067 44.8739L75.4841 43.3392L73.9492 40.7616ZM67.6863 28.8621L64.8005 29.6819L65.6201 32.5676L68.5059 31.748L67.6863 28.8621ZM72.8719 25.0989L75.3862 26.7354L75.3865 26.735L72.8719 25.0989ZM71.272 24.0578L68.7576 22.4214L68.7572 22.422L71.272 24.0578ZM72.013 10.4101L74.1789 8.33431L74.1785 8.33388L72.013 10.4101ZM70.635 11.7309L72.8008 9.6549L72.8006 9.65473L70.635 11.7309ZM56.6829 9.49784H53.6829V12.4978H56.6829V9.49784ZM57.6372 40.2735V43.2735H60.6372V40.2735H57.6372ZM57.6372 8.54355H60.6372V5.54355H57.6372V8.54355ZM60.3999 39.3192H63.3999V36.3192H60.3999V39.3192ZM56.6829 39.3192V36.3192H53.6829V39.3192H56.6829ZM61.3541 28.3068H64.3541V25.3068H61.3541V28.3068ZM59.4456 40.2735H56.4456V43.2735H59.4456V40.2735ZM60.3999 29.261H57.3999V32.261H60.3999V29.261ZM63.6182 29.261V32.261H66.6182V29.261H63.6182ZM62.7922 28.7853L61.2879 26.1898L58.6924 27.6941L60.1966 30.2896L62.7922 28.7853ZM71.3789 39.7949L72.8833 42.3904L75.4787 40.8861L73.9745 38.2906L71.3789 39.7949ZM60.3999 12.9881H57.3999V15.9881H60.3999V12.9881ZM67.8447 14.2478L65.5996 16.2376L65.6001 16.2382L67.8447 14.2478ZM69.2728 12.9814L67.0279 14.9715L67.028 14.9716L69.2728 12.9814ZM67.8247 22.5171L65.5346 20.5792L65.5342 20.5796L67.8247 22.5171ZM69.2819 23.75L71.572 25.6879L71.5723 25.6875L69.2819 23.75ZM60.3999 23.8622V20.8622H57.3999V23.8622H60.3999ZM61.3541 24.8165V27.8165H64.3541V24.8165H61.3541ZM61.3541 12.0338H64.3541V9.03384H61.3541V12.0338ZM94.901 40.2735H97.901V36.4555L94.1914 37.3586L94.901 40.2735ZM93.9739 40.4992L91.059 41.2087L91.0592 41.2093L93.9739 40.4992ZM94.1514 41.2277L91.2367 41.9379L91.7945 44.2277H94.1514V41.2277ZM98.7993 40.2735L98.0523 37.368L95.7993 37.9472V40.2735H98.7993ZM100.03 41.2277V44.2277H103.9L102.936 40.48L100.03 41.2277ZM90.6401 8.54355H87.6401V12.4124L91.3871 11.4491L90.6401 8.54355ZM91.3802 7.58927L94.2858 6.84257L93.7067 4.58927H91.3802V7.58927ZM86.6059 8.54355L85.8589 11.4491L89.6059 12.4124V8.54355H86.6059ZM85.8659 7.58927V4.58927H83.5393L82.9603 6.8426L85.8659 7.58927ZM78.4468 40.2735H81.4468V37.9472L79.1938 37.368L78.4468 40.2735ZM77.5225 40.0358L74.6171 39.2887L74.617 39.2891L77.5225 40.0358ZM77.2162 41.2277L74.3107 40.481L73.3478 44.2277H77.2162V41.2277ZM82.345 40.2735L83.0546 37.3586L79.345 36.4555V40.2735H82.345ZM83.0951 41.2277V44.2277H85.4534L86.0103 41.9361L83.0951 41.2277ZM84.0222 33.3835L83.3126 36.2984L87.0222 37.2015V33.3835H84.0222ZM83.2726 32.4293V29.4293H80.9157L80.3578 31.7192L83.2726 32.4293ZM83.0951 33.1579L80.1803 32.4478L80.1802 32.4483L83.0951 33.1579ZM93.2239 33.3835H90.2239V37.2015L93.9334 36.2984L93.2239 33.3835ZM93.9739 32.4293L96.8891 31.7209L96.3322 29.4293H93.9739V32.4293ZM84.8381 29.9386H87.8381V27.5751L85.5402 27.0219L84.8381 29.9386ZM83.6271 30.8929L80.7104 30.1909L79.8194 33.8929H83.6271V30.8929ZM87.4218 19.1957L86.7196 22.1124L88.1342 16.2816L87.4218 19.1957ZM86.4947 18.9691L83.5805 18.2567L83.5445 18.4041L83.5235 18.5544L86.4947 18.9691ZM88.555 13.2577L88.1154 16.2253L91.555 16.7348V13.2577H88.555ZM87.732 12.3034V9.30343H85.1438L84.7644 11.8636L87.732 12.3034ZM87.6112 13.1179L84.6437 12.6781L84.6437 12.6781L87.6112 13.1179ZM88.691 13.2577H85.691V16.7346L89.1304 16.2254L88.691 13.2577ZM89.6353 13.1179L92.603 12.6792L92.6029 12.6781L89.6353 13.1179ZM89.5146 12.3034L92.4822 11.8636L92.1027 9.30343H89.5146V12.3034ZM89.8242 19.1957L89.1118 16.2816L90.526 22.1125L89.8242 19.1957ZM90.7523 18.9724L93.6691 18.2709L93.6534 18.2057L93.6348 18.1413L90.7523 18.9724ZM92.4079 29.9386L91.7061 27.0218L89.4079 27.5748V29.9386H92.4079ZM93.6189 30.8929V33.8929H97.4252L96.5359 30.192L93.6189 30.8929ZM93.336 29.7153L96.253 29.0144L96.2528 29.0138L93.336 29.7153ZM98.7993 39.3192H101.799V36.3192H98.7993V39.3192ZM94.901 39.3192V36.3192H91.901V39.3192H94.901ZM89.7159 8.78117L88.9689 5.87566L86.0633 6.6227L86.8104 9.52829L89.7159 8.78117ZM97.875 40.5111L94.9696 41.2582L95.7166 44.1636L98.622 43.4166L97.875 40.5111ZM86.6059 9.49784H83.6059V12.4978H86.6059V9.49784ZM90.6401 9.49784V12.4978H93.6401V9.49784H90.6401ZM79.371 40.5111L78.624 43.4166L81.5294 44.1636L82.2765 41.2582L79.371 40.5111ZM87.5301 8.78117L90.4356 9.52829L91.1827 6.6227L88.2771 5.87566L87.5301 8.78117ZM82.345 39.3192H85.345V36.3192H82.345V39.3192ZM78.4468 39.3192V36.3192H75.4468V39.3192H78.4468ZM84.9493 33.6092L87.8641 34.3188L88.5737 31.4039L85.6589 30.6944L84.9493 33.6092ZM81.4179 40.0478L78.503 39.3382L77.7935 42.2531L80.7083 42.9626L81.4179 40.0478ZM84.0222 34.3378H81.0222V37.3378H84.0222V34.3378ZM93.2239 34.3378V37.3378H96.2239V34.3378H93.2239ZM92.2968 33.6092L91.5872 30.6944L88.6724 31.4039L89.3819 34.3188L92.2968 33.6092ZM95.8281 40.0478L96.5377 42.9626L99.4525 42.2531L98.743 39.3382L95.8281 40.0478ZM85.7661 30.1619L85.0641 33.0786L87.9813 33.7807L88.683 30.8634L85.7661 30.1619ZM88.3498 19.419L91.2667 20.1206L91.9681 17.2042L89.0518 16.5023L88.3498 19.419ZM88.3489 19.4224L87.6365 22.3366L90.5507 23.049L91.2631 20.1347L88.3489 19.4224ZM89.4993 13.3975L92.4668 13.8381L92.9075 10.8695L89.9388 10.4299L89.4993 13.3975ZM88.555 14.212H85.555V17.212H88.555V14.212ZM88.691 14.212V17.212H91.691V14.212H88.691ZM87.7472 13.3975L87.3077 10.4299L84.3401 10.8694L84.7796 13.837L87.7472 13.3975ZM88.8971 19.4224L85.9829 20.1347L86.6953 23.049L89.6096 22.3366L88.8971 19.4224ZM88.8967 19.419L88.1947 16.5023L85.2784 17.2042L85.9798 20.1206L88.8967 19.419ZM91.4804 30.1619L88.5636 30.8634L89.2652 33.7807L92.1824 33.0786L91.4804 30.1619ZM92.4079 28.9843H95.4079V25.9843H92.4079V28.9843ZM84.8381 28.9843V25.9843H81.8381V28.9843H84.8381ZM104.774 40.2735H107.774V37.2735H104.774V40.2735ZM103.819 41.2277H100.819V44.2277H103.819V41.2277ZM104.774 8.54355V11.5436H107.774V8.54355H104.774ZM103.819 7.58927V4.58927H100.819V7.58927H103.819ZM108.49 36.7378H111.49V33.7378H108.49V36.7378ZM107.536 37.6921H104.536V40.6921H107.536V37.6921ZM108.49 12.0792V15.0792H111.49V12.0792H108.49ZM107.536 11.1249V8.12489H104.536V11.1249H107.536ZM104.774 39.3192V36.3192H101.774V39.3192H104.774ZM118.695 37.0718L120.816 39.1935L120.816 39.1928L118.695 37.0718ZM104.774 9.49784H101.774V12.4978H104.774V9.49784ZM105.728 40.2735V43.2735H108.728V40.2735H105.728ZM105.728 8.54355H108.728V5.54355H105.728V8.54355ZM109.445 36.7378V39.7378H112.445V36.7378H109.445ZM109.445 12.0792H112.445V9.07917H109.445V12.0792ZM108.49 13.0335H105.49V16.0335H108.49V13.0335ZM115.99 14.2931L113.827 16.3722L113.828 16.3725L115.99 14.2931ZM117.366 12.9705L115.203 15.0496L115.203 15.0498L117.366 12.9705ZM115.973 34.5182L113.811 32.4384L113.811 32.4387L115.973 34.5182ZM117.349 35.8413L119.511 37.921L119.511 37.9208L117.349 35.8413ZM108.49 35.7836V32.7836H105.49V35.7836H108.49ZM146.109 38.6607L143.86 36.6761L143.859 36.6767L146.109 38.6607ZM144.678 37.3987L146.928 39.3834L146.929 39.3826L144.678 37.3987ZM146.108 10.1491L148.355 8.16137L148.355 8.16123L146.108 10.1491ZM144.679 11.414L146.926 9.42612L146.926 9.42595L144.679 11.414ZM130.856 10.1467L128.616 8.15081L128.616 8.15141L130.856 10.1467ZM132.281 11.4164L134.521 13.4123L134.521 13.4122L132.281 11.4164ZM130.855 38.6636L128.612 40.6555L128.612 40.6559L130.855 38.6636ZM132.282 37.3958L134.525 35.4037L134.525 35.4036L132.282 37.3958ZM135.034 34.8393L137.379 32.9682L137.379 32.9674L135.034 34.8393ZM133.542 36.0298L135.887 34.1584L135.887 34.1582L133.542 36.0298ZM135.033 13.9739L137.373 15.8515L137.374 15.8504L135.033 13.9739ZM133.544 12.7796L131.203 10.9027L131.203 10.9029L133.544 12.7796ZM141.911 13.9715L139.565 15.8414L139.565 15.8414L141.911 13.9715ZM143.403 12.782L145.749 10.9123L145.749 10.9122L143.403 12.782ZM141.909 34.8417L144.259 36.7067L144.26 36.7059L141.909 34.8417ZM143.405 36.0279L145.755 37.8924L145.755 37.892L143.405 36.0279ZM166.828 30.2106H169.828V27.2106H166.828V30.2106ZM165.874 31.1648H162.874V34.1648H165.874V31.1648ZM177.843 30.2106V27.2106H174.843V30.2106H177.843ZM178.797 31.1648V34.1648H181.797V31.1648H178.797ZM177.843 26.9922H174.843V29.9922H177.843V26.9922ZM178.797 26.0379H181.797V23.0379H178.797V26.0379ZM166.828 26.9922V29.9922H169.828V26.9922H166.828ZM165.874 26.0379V23.0379H162.874V26.0379H165.874ZM177.843 29.2563H180.843V26.2563H177.843V29.2563ZM166.828 29.2563V26.2563H163.828V29.2563H166.828ZM176.889 26.9922V23.9922H173.889V26.9922H176.889ZM176.889 30.2106H173.889V33.2106H176.889V30.2106ZM166.828 27.9465H163.828V30.9465H166.828V27.9465ZM177.843 27.9465V30.9465H180.843V27.9465H177.843ZM167.782 30.2106V33.2106H170.782V30.2106H167.782ZM167.782 26.9922H170.782V23.9922H167.782V26.9922ZM20.1001 37.6993L19.2813 38.1893L22.3625 43.3377L23.1813 42.8477L20.1001 37.6993ZM18.2485 42.3054L18.5267 42.7697L23.6735 39.6858L23.3953 39.2215L18.2485 42.3054ZM21.1001 44.2277H21.6407V38.2277H21.1001V44.2277ZM24.6407 41.2277V40.2735H18.6407V41.2277H24.6407ZM22.9469 40.2735V41.2277H28.9469V40.2735H22.9469ZM25.9469 44.2277H27.6436V38.2277H25.9469V44.2277ZM30.2073 39.6697L29.326 38.2196L24.1987 41.3358L25.08 42.7858L30.2073 39.6697ZM25.2039 37.2143L24.3884 37.71L27.5054 42.8369L28.3208 42.3412L25.2039 37.2143ZM16.78 19.9051L15.9965 19.3607L12.5727 24.2879L13.3562 24.8323L16.78 19.9051ZM11.822 20.111L11.4674 20.6206L16.3927 24.0472L16.7473 23.5376L11.822 20.111ZM11.3666 23.8923L11.6892 24.4229L16.8161 21.3061L16.4936 20.7755L11.3666 23.8923ZM15.8111 25.4279L16.6266 24.9322L13.5096 19.8053L12.6942 20.3011L15.8111 25.4279ZM22.9658 11.0072L23.7493 11.5516L27.1731 6.62438L26.3896 6.07996L22.9658 11.0072ZM27.9243 10.8006L28.9664 9.3019L24.0401 5.87664L22.9981 7.37534L27.9243 10.8006ZM26.5033 4.58927H24.6777V10.5893H26.5033V4.58927ZM21.6777 7.58927V8.54355H27.6777V7.58927H21.6777ZM23.1902 8.54355V7.58927H17.1902V8.54355H23.1902ZM20.1902 4.58927H19.6806V10.5893H20.1902V4.58927ZM17.1879 5.91999L16.9045 6.34321L21.8899 9.68177L22.1733 9.25855L17.1879 5.91999ZM17.7279 10.5052L18.5209 11.0362L21.8595 6.05087L21.0665 5.5198L17.7279 10.5052ZM14.6976 16.7484L13.9045 16.2173L10.566 21.2027L11.359 21.7338L14.6976 16.7484ZM9.73875 17.0465L9.72921 17.0608L14.7223 20.3878L14.7318 20.3735L9.73875 17.0465ZM9.6535 17.1804L9.64491 17.1948L14.7894 20.2825L14.798 20.2682L9.6535 17.1804ZM10.6374 21.289L11.4486 21.7915L14.608 16.6907L13.7969 16.1882L10.6374 21.289ZM10.6712 20.0487H9.71694V26.0487H10.6712V20.0487ZM6.71694 23.0487V26.403H12.7169V23.0487H6.71694ZM12.2676 27.9823L14.0334 25.1304L8.93222 21.9717L7.16632 24.8236L12.2676 27.9823ZM13.0619 21.0003L12.2503 20.4979L9.09214 25.5994L9.90375 26.1019L13.0619 21.0003ZM10.6712 11.5436H11.6255V5.54355H10.6712V11.5436ZM14.6255 8.54355V7.58927H8.6255V8.54355H14.6255ZM11.6255 4.58927H10.6712V10.5893H11.6255V4.58927ZM7.67122 7.58927V8.54355H13.6712V7.58927H7.67122ZM9.95428 8.54355V7.58927H3.95428V8.54355H9.95428ZM6.95428 4.58927H6V10.5893H6.95428V4.58927ZM3 7.58927V8.54355H9V7.58927H3ZM6 11.5436H6.95428V5.54355H6V11.5436ZM6.95428 37.2735H6V43.2735H6.95428V37.2735ZM3 40.2735V41.2277H9V40.2735H3ZM6 44.2277H6.95428V38.2277H6V44.2277ZM9.95428 41.2277V40.2735H3.95428V41.2277H9.95428ZM7.67122 40.2735V41.2277H13.6712V40.2735H7.67122ZM10.6712 44.2277H11.6255V38.2277H10.6712V44.2277ZM14.6255 41.2277V40.2735H8.6255V41.2277H14.6255ZM11.6255 37.2735H10.6712V43.2735H11.6255V37.2735ZM12.3681 26.286L11.5813 25.7464L8.18756 30.6944L8.97436 31.234L12.3681 26.286ZM7.41161 26.5218L7.24413 26.7656L12.1897 30.1628L12.3572 29.919L7.41161 26.5218ZM6.71694 28.4642V28.76H12.7169V28.4642H6.71694ZM9.71694 31.76H10.6712V25.76H9.71694V31.76ZM14.3876 28.1612L15.2064 27.6712L12.1251 22.5228L11.3064 23.0129L14.3876 28.1612ZM16.2398 23.5561L15.4754 22.2793L10.3274 25.3611L11.0918 26.638L16.2398 23.5561ZM10.4269 22.124L9.5857 23.3513L14.5347 26.7436L15.3759 25.5163L10.4269 22.124ZM10.3633 27.5214L11.1501 28.0611L14.5438 23.113L13.757 22.5734L10.3633 27.5214ZM21.6407 44.2277H25.9469V38.2277H21.6407V44.2277ZM28.9469 41.2277V39.3192H22.9469V41.2277H28.9469ZM25.9469 36.3192H21.6407V42.3192H25.9469V36.3192ZM18.6407 39.3192V41.2277H24.6407V39.3192H18.6407ZM29.3262 38.2199L18.4474 20.3152L13.3197 23.4308L24.1985 41.3355L29.3262 38.2199ZM14.3251 19.3095L12.6942 20.301L15.8111 25.4279L17.442 24.4364L14.3251 19.3095ZM11.6888 24.4223L22.5676 42.327L27.6953 39.2114L16.8165 21.3067L11.6888 24.4223ZM26.6899 43.3326L28.3208 42.3411L25.2039 37.2143L23.573 38.2058L26.6899 43.3326ZM18.3149 24.6254L27.9246 10.8002L22.9978 7.37573L13.3882 21.2009L18.3149 24.6254ZM27.1736 6.62473L25.6067 5.53541L22.1818 10.4619L23.7488 11.5512L27.1736 6.62473ZM21.4308 6.28645L11.8212 20.1121L16.748 23.5365L26.3576 9.71087L21.4308 6.28645ZM12.5727 24.2879L14.1396 25.3767L17.5635 20.4495L15.9965 19.3607L12.5727 24.2879ZM24.6777 4.58927H20.1902V10.5893H24.6777V4.58927ZM17.1902 7.58927V9.49784H23.1902V7.58927H17.1902ZM20.1902 12.4978H24.6777V6.49784H20.1902V12.4978ZM27.6777 9.49784V7.58927H21.6777V9.49784H27.6777ZM16.9043 6.34352L9.74239 17.041L14.7282 20.379L21.8901 9.68146L16.9043 6.34352ZM10.566 21.2027L12.152 22.2648L15.4906 17.2794L13.9046 16.2173L10.566 21.2027ZM16.3142 21.4411L23.4761 10.7436L18.4903 7.40564L11.3284 18.1032L16.3142 21.4411ZM22.6525 6.58193L21.0665 5.51981L17.7279 10.5052L19.3139 11.5673L22.6525 6.58193ZM9.66636 17.1596L7.30928 20.9672L12.4109 24.1253L14.7679 20.3177L9.66636 17.1596ZM8.28067 25.0968L9.90343 26.1017L13.0622 21.0005L11.4395 19.9956L8.28067 25.0968ZM14.0336 25.1302L16.3907 21.3226L11.2891 18.1644L8.93204 21.972L14.0336 25.1302ZM15.4193 17.1929L13.7966 16.1881L10.6378 21.2892L12.2605 22.2941L15.4193 17.1929ZM14.6255 23.0487V8.54355H8.6255V23.0487H14.6255ZM11.6255 5.54355H9.71694V11.5436H11.6255V5.54355ZM6.71694 8.54355V23.0487H12.7169V8.54355H6.71694ZM9.71694 26.0487H11.6255V20.0487H9.71694V26.0487ZM10.6712 4.58927H6.95428V10.5893H10.6712V4.58927ZM3.95428 7.58927V9.49784H9.95428V7.58927H3.95428ZM6.95428 12.4978H10.6712V6.49784H6.95428V12.4978ZM13.6712 9.49784V7.58927H7.67122V9.49784H13.6712ZM3 8.54355V40.2735H9V8.54355H3ZM6 43.2735H7.90857V37.2735H6V43.2735ZM10.9086 40.2735V8.54355H4.90857V40.2735H10.9086ZM7.90857 5.54355H6V11.5436H7.90857V5.54355ZM6.95428 44.2277H10.6712V38.2277H6.95428V44.2277ZM13.6712 41.2277V39.3192H7.67122V41.2277H13.6712ZM10.6712 36.3192H6.95428V42.3192H10.6712V36.3192ZM3.95428 39.3192V41.2277H9.95428V39.3192H3.95428ZM14.6255 40.2735V28.76H8.6255V40.2735H14.6255ZM11.6255 25.76H9.71694V31.76H11.6255V25.76ZM6.71694 28.76V40.2735H12.7169V28.76H6.71694ZM9.71694 43.2735H11.6255V37.2735H9.71694V43.2735ZM13.9327 30.9963L16.1085 27.8233L11.1601 24.4301L8.98431 27.6031L13.9327 30.9963ZM15.3308 23.6524L13.7567 22.5732L10.3637 27.5216L11.9378 28.6009L15.3308 23.6524ZM9.586 23.3508L7.41023 26.5238L12.3586 29.917L14.5344 26.744L9.586 23.3508ZM8.18791 30.6946L9.76199 31.7739L13.155 26.8254L11.5809 25.7462L8.18791 30.6946ZM9.45433 27.6182L18.248 42.3046L23.3958 39.2223L14.6021 24.5359L9.45433 27.6182ZM22.3625 43.3377L24.0001 42.3576L20.9189 37.2092L19.2813 38.1893L22.3625 43.3377ZM25.0334 38.2423L16.2396 23.5559L11.0919 26.6382L19.8856 41.3246L25.0334 38.2423ZM12.1251 22.5228L10.4876 23.5029L13.5688 28.6513L15.2064 27.6712L12.1251 22.5228ZM39.2568 44.817C43.1563 44.817 46.6515 43.4485 49.1239 40.645L44.6239 36.6764C43.4614 37.9945 41.7108 38.817 39.2568 38.817V44.817ZM49.1238 40.6451C51.5395 37.9061 52.594 34.2364 52.594 30.3012H46.594C46.594 33.2177 45.8154 35.3253 44.6239 36.6764L49.1238 40.6451ZM44.6855 30.3012C44.6855 32.8918 43.9959 34.5033 43.1924 35.4144L47.6924 39.383C49.7184 37.0858 50.6855 33.9135 50.6855 30.3012H44.6855ZM43.1925 35.4143C42.4454 36.2614 41.2485 36.9085 39.2568 36.9085V42.9085C42.6978 42.9085 45.6377 41.7128 47.6924 39.383L43.1925 35.4143ZM52.594 30.3012V18.4705H46.594V30.3012H52.594ZM44.6855 18.4705V30.3012H50.6855V18.4705H44.6855ZM52.594 18.4705C52.594 14.5516 51.5365 10.8931 49.1199 8.16137L44.626 12.1369C45.8174 13.4837 46.594 15.5796 46.594 18.4705H52.594ZM49.1197 8.16123C46.6484 5.36802 43.1553 4 39.2568 4V10C41.7109 10 43.4635 10.823 44.6261 12.137L49.1197 8.16123ZM39.2568 11.9086C41.2484 11.9086 42.4482 12.5563 43.1967 13.4021L47.6901 9.42595C45.6358 7.10453 42.6979 5.90857 39.2568 5.90857V11.9086ZM43.1966 13.402C43.999 14.3088 44.6855 15.9091 44.6855 18.4705H50.6855C50.6855 14.8777 49.7163 11.7161 47.6902 9.42612L43.1966 13.402ZM39.2568 4C35.36 4 31.8617 5.36627 29.3806 8.1511L33.8606 12.1424C35.0353 10.8238 36.8018 10 39.2568 10V4ZM29.3806 8.15112C26.9503 10.879 25.8742 14.539 25.8742 18.4705H31.8742C31.8742 15.5865 32.6589 13.4912 33.8606 12.1424L29.3806 8.15112ZM33.7827 18.4705C33.7827 15.9213 34.4738 14.3228 35.2851 13.4123L30.8056 9.42055C28.7665 11.7088 27.7827 14.8712 27.7827 18.4705H33.7827ZM35.2851 13.4122C36.0461 12.5582 37.263 11.9086 39.2568 11.9086V5.90857C35.8168 5.90857 32.8702 7.10354 30.8055 9.42061L35.2851 13.4122ZM25.8742 18.4705V30.3012H31.8742V18.4705H25.8742ZM33.7827 30.3012V18.4705H27.7827V30.3012H33.7827ZM25.8742 30.3012C25.8742 34.2487 26.9466 37.92 29.3767 40.6558L33.8626 36.6713C32.6606 35.3181 31.8742 33.2112 31.8742 30.3012H25.8742ZM29.3765 40.6556C31.8584 43.4505 35.3599 44.817 39.2568 44.817V38.817C36.802 38.817 35.0367 37.9935 33.8628 36.6716L29.3765 40.6556ZM39.2568 36.9085C37.2637 36.9085 36.0495 36.2596 35.2894 35.4037L30.8032 39.3879C32.8687 41.7136 35.8171 42.9085 39.2568 42.9085V36.9085ZM35.2893 35.4036C34.4772 34.4893 33.7827 32.8793 33.7827 30.3012H27.7827C27.7827 33.9202 28.765 37.0931 30.8033 39.388L35.2893 35.4036ZM39.2568 33.2822C38.7692 33.2822 38.5056 33.2024 38.3816 33.1487C38.2731 33.1017 38.2076 33.0487 38.1434 32.9682L33.4534 36.7104C34.8539 38.4655 36.9011 39.2822 39.2568 39.2822V33.2822ZM38.1434 32.9681C37.9749 32.757 37.5903 32.0403 37.5903 30.3012H31.5903C31.5903 32.7724 32.1142 35.0321 33.4535 36.7105L38.1434 32.9681ZM29.6818 30.3012C29.6818 33.0022 30.2487 35.7546 31.9623 37.9013L36.6515 34.1582C36.1111 33.4812 35.6818 32.2743 35.6818 30.3012H29.6818ZM31.9617 37.9006C33.7956 40.1994 36.4454 41.1907 39.2568 41.1907V35.1907C37.8902 35.1907 37.1295 34.7573 36.6521 34.1589L31.9617 37.9006ZM37.5903 30.3012V18.4705H31.5903V30.3012H37.5903ZM29.6818 18.4705V30.3012H35.6818V18.4705H29.6818ZM37.5903 18.4705C37.5903 16.7621 37.9714 16.0578 38.1374 15.8507L33.4566 12.0971C32.1158 13.769 31.5903 16.0181 31.5903 18.4705H37.5903ZM38.1371 15.8511C38.2015 15.7708 38.2682 15.7167 38.3788 15.6689C38.5045 15.6146 38.7694 15.5348 39.2568 15.5348V9.53484C36.9007 9.53484 34.8569 10.3516 33.4569 12.0967L38.1371 15.8511ZM39.2568 7.62628C36.4458 7.62628 33.8011 8.61703 31.968 10.9027L36.6487 14.6565C37.1269 14.0603 37.8899 13.6263 39.2568 13.6263V7.62628ZM31.9678 10.9029C30.2524 13.0423 29.6818 15.7836 29.6818 18.4705H35.6818C35.6818 16.5244 36.1093 15.3292 36.6488 14.6563L31.9678 10.9029ZM39.2568 15.5348C39.727 15.5348 39.9797 15.6125 40.0971 15.6637C40.1999 15.7085 40.2641 15.7598 40.3284 15.8406L45.0216 12.1024C43.6307 10.3562 41.5973 9.53484 39.2568 9.53484V15.5348ZM40.3296 15.8421C40.4972 16.0522 40.8779 16.762 40.8779 18.4705H46.8779C46.8779 16.0183 46.353 13.7717 45.0204 12.1009L40.3296 15.8421ZM48.7864 18.4705C48.7864 15.7837 48.2164 13.048 46.5132 10.9118L41.8218 14.6522C42.3593 15.3264 42.7864 16.5242 42.7864 18.4705H48.7864ZM46.5139 10.9127C44.6932 8.62731 42.06 7.62628 39.2568 7.62628V13.6263C40.5932 13.6263 41.3458 14.0547 41.8211 14.6513L46.5139 10.9127ZM40.8779 18.4705V30.3012H46.8779V18.4705H40.8779ZM48.7864 30.3012V18.4705H42.7864V30.3012H48.7864ZM40.8779 30.3012C40.8779 32.0404 40.4937 32.7629 40.3236 32.9774L45.0245 36.7059C46.3545 35.029 46.8779 32.7723 46.8779 30.3012H40.8779ZM40.3242 32.9766C40.259 33.0589 40.195 33.1097 40.0939 33.1539C39.978 33.2045 39.7267 33.2822 39.2568 33.2822V39.2822C41.5985 39.2822 43.6328 38.4594 45.0239 36.7067L40.3242 32.9766ZM39.2568 41.1907C42.0618 41.1907 44.6979 40.1881 46.5191 37.8924L41.8187 34.1633C41.343 34.763 40.5924 35.1907 39.2568 35.1907V41.1907ZM46.519 37.8925C48.22 35.7488 48.7864 33.0023 48.7864 30.3012H42.7864C42.7864 32.2742 42.3576 33.4842 41.8188 34.1632L46.519 37.8925ZM69.0494 37.6777L68.2234 38.1563L71.2316 43.3478L72.0575 42.8692L69.0494 37.6777ZM67.1321 42.2567L67.4079 42.7324L72.5987 39.7231L72.3229 39.2474L67.1321 42.2567ZM70.0033 44.2277H70.5534V38.2277H70.0033V44.2277ZM73.5534 41.2277V40.2735H67.5534V41.2277H73.5534ZM71.769 40.2735V41.2277H77.769V40.2735H71.769ZM74.769 44.2277H76.448V38.2277H74.769V44.2277ZM79.0253 39.6923L78.166 38.2499L73.0114 41.3208L73.8707 42.7632L79.0253 39.6923ZM74.0538 37.2077L73.2341 37.6958L76.3039 42.8511L77.1236 42.363L74.0538 37.2077ZM70.3114 27.1237L70.0504 26.2057L64.2791 27.8465L64.5401 28.7645L70.3114 27.1237ZM66.345 24.1403L65.1507 24.4795L66.7903 30.2512L67.9845 29.9119L66.345 24.1403ZM63.3931 28.9007L64.0287 29.9676L69.1834 26.8969L68.5478 25.83L63.3931 28.9007ZM68.1409 31.0099L68.9606 30.5218L65.8909 25.3665L65.0712 25.8546L68.1409 31.0099ZM59.6829 8.54355V7.58927H53.6829V8.54355H59.6829ZM56.6829 4.58927H55.7286V10.5893H56.6829V4.58927ZM52.7286 7.58927V8.54355H58.7286V7.58927H52.7286ZM55.7286 11.5436H56.6829V5.54355H55.7286V11.5436ZM56.6829 37.2735H55.7286V43.2735H56.6829V37.2735ZM52.7286 40.2735V41.2277H58.7286V40.2735H52.7286ZM55.7286 44.2277H56.6829V38.2277H55.7286V44.2277ZM59.6829 41.2277V40.2735H53.6829V41.2277H59.6829ZM57.3999 40.2735V41.2277H63.3999V40.2735H57.3999ZM60.3999 44.2277H61.3541V38.2277H60.3999V44.2277ZM64.3541 41.2277V40.2735H58.3541V41.2277H64.3541ZM61.3541 37.2735H60.3999V43.2735H61.3541V37.2735ZM63.3999 28.3068V27.3525H57.3999V28.3068H63.3999ZM60.3999 24.3525H59.4456V30.3525H60.3999V24.3525ZM56.4456 27.3525V28.3068H62.4456V27.3525H56.4456ZM59.4456 31.3068H60.3999V25.3068H59.4456V31.3068ZM65.1229 30.9021L65.9483 30.4235L62.9389 25.2328L62.1135 25.7114L65.1229 30.9021ZM67.039 26.3235L66.7632 25.8478L61.5724 28.8571L61.8482 29.3328L67.039 26.3235ZM64.1678 24.3525H63.6182V30.3525H64.1678V24.3525ZM60.6182 27.3525V28.3068H66.6182V27.3525H60.6182ZM63.3999 12.0338V11.0796H57.3999V12.0338H63.3999ZM60.3999 8.07956H59.4456V14.0796H60.3999V8.07956ZM56.4456 11.0796V12.0338H62.4456V11.0796H56.4456ZM59.4456 15.0338H60.3999V9.03384H59.4456V15.0338ZM60.3999 21.8165H59.4456V27.8165H60.3999V21.8165ZM56.4456 24.8165V25.7707H62.4456V24.8165H56.4456ZM59.4456 28.7707H60.3999V22.7707H59.4456V28.7707ZM63.3999 25.7707V24.8165H57.3999V25.7707H63.3999ZM70.5534 44.2277H74.769V38.2277H70.5534V44.2277ZM77.769 41.2277V39.3192H71.769V41.2277H77.769ZM74.769 36.3192H70.5534V42.3192H74.769V36.3192ZM67.5534 39.3192V41.2277H73.5534V39.3192H67.5534ZM78.1662 38.2502L70.823 25.9209L65.668 28.9911L73.0112 41.3205L78.1662 38.2502ZM66.7106 24.8784L65.0712 25.8546L68.1409 31.0099L69.7804 30.0336L66.7106 24.8784ZM64.0286 29.9674L71.3718 42.2967L76.5267 39.2265L69.1835 26.8971L64.0286 29.9674ZM75.4841 43.3392L77.1236 42.363L74.0538 37.2077L72.4144 38.1839L75.4841 43.3392ZM68.5059 31.748C71.3757 30.933 73.7637 29.2284 75.3862 26.7354L70.3575 23.4625C69.5628 24.6835 68.4086 25.5384 66.8667 25.9763L68.5059 31.748ZM75.3865 26.735C76.9771 24.2903 77.6807 21.3262 77.6807 18.1532H71.6807C71.6807 20.4663 71.1676 22.2173 70.3573 23.4628L75.3865 26.735ZM69.7721 18.1532C69.7721 20.1923 69.32 21.5573 68.7576 22.4214L73.7864 25.6942C75.1288 23.6315 75.7721 21.0535 75.7721 18.1532H69.7721ZM68.7572 22.422C68.2266 23.2378 67.4648 23.8221 66.3449 24.1403L67.9846 29.9119C70.4318 29.2166 72.4279 27.7827 73.7868 25.6936L68.7572 22.422ZM64.2789 27.8458L64.8005 29.6819L70.5721 28.0424L70.0506 26.2064L64.2789 27.8458ZM77.6807 18.1532C77.6807 14.4245 76.6578 10.9207 74.1789 8.33431L69.8471 12.486C70.9544 13.6413 71.6807 15.4738 71.6807 18.1532H77.6807ZM74.1785 8.33388C71.6747 5.72256 68.2075 4.58927 64.4341 4.58927V10.5893C67.0219 10.5893 68.7527 11.3445 69.8476 12.4864L74.1785 8.33388ZM64.4341 12.4978C66.6413 12.4978 67.8212 13.1308 68.4695 13.807L72.8006 9.65473C70.7463 7.51196 67.8323 6.49784 64.4341 6.49784V12.4978ZM68.4693 13.8068C69.1417 14.5083 69.7721 15.8104 69.7721 18.1532H75.7721C75.7721 14.756 74.8423 11.7848 72.8008 9.6549L68.4693 13.8068ZM64.4341 4.58927H56.6829V10.5893H64.4341V4.58927ZM53.6829 7.58927V9.49784H59.6829V7.58927H53.6829ZM56.6829 12.4978H64.4341V6.49784H56.6829V12.4978ZM52.7286 8.54355V40.2735H58.7286V8.54355H52.7286ZM55.7286 43.2735H57.6372V37.2735H55.7286V43.2735ZM60.6372 40.2735V8.54355H54.6372V40.2735H60.6372ZM57.6372 5.54355H55.7286V11.5436H57.6372V5.54355ZM56.6829 44.2277H60.3999V38.2277H56.6829V44.2277ZM63.3999 41.2277V39.3192H57.3999V41.2277H63.3999ZM60.3999 36.3192H56.6829V42.3192H60.3999V36.3192ZM53.6829 39.3192V41.2277H59.6829V39.3192H53.6829ZM64.3541 40.2735V28.3068H58.3541V40.2735H64.3541ZM61.3541 25.3068H59.4456V31.3068H61.3541V25.3068ZM56.4456 28.3068V40.2735H62.4456V28.3068H56.4456ZM59.4456 43.2735H61.3541V37.2735H59.4456V43.2735ZM60.3999 32.261H63.6182V26.261H60.3999V32.261ZM66.6182 29.261V27.3525H60.6182V29.261H66.6182ZM63.6182 24.3525H60.3999V30.3525H63.6182V24.3525ZM57.3999 27.3525V29.261H63.3999V27.3525H57.3999ZM60.1966 30.2896L67.1319 42.2563L72.3231 39.2478L65.3878 27.2811L60.1966 30.2896ZM71.2319 43.3476L72.8833 42.3904L69.8745 37.1993L68.2231 38.1565L71.2319 43.3476ZM73.9745 38.2906L67.0392 26.3239L61.848 29.3325L68.7833 41.2992L73.9745 38.2906ZM62.9393 25.2326L61.2879 26.1898L64.2966 31.3809L65.948 30.4237L62.9393 25.2326ZM60.3999 15.9881H64.4341V9.98813H60.3999V15.9881ZM64.4341 8.07956H60.3999V14.0796H64.4341V8.07956ZM57.3999 11.0796V12.9881H63.3999V11.0796H57.3999ZM64.4341 15.9881C64.9617 15.9881 65.261 16.0652 65.409 16.1221C65.5397 16.1724 65.5807 16.2163 65.5996 16.2376L70.0899 12.258C68.6699 10.6558 66.6576 9.98813 64.4341 9.98813V15.9881ZM65.6001 16.2382C65.6521 16.2968 66.0099 16.7656 66.0099 18.2892H72.0099C72.0099 15.9469 71.4726 13.8172 70.0893 12.2573L65.6001 16.2382ZM73.9184 18.2892C73.9184 15.6908 73.3257 13.0307 71.5176 10.9912L67.028 14.9716C67.5025 15.5068 67.9184 16.5035 67.9184 18.2892H73.9184ZM71.5177 10.9914C69.6344 8.86696 67.0299 8.07956 64.4341 8.07956V14.0796C65.8434 14.0796 66.5932 14.4812 67.0279 14.9715L71.5177 10.9914ZM66.0099 18.2892C66.0099 19.8744 65.6434 20.4506 65.5346 20.5792L70.1147 24.4551C71.4764 22.8459 72.0099 20.6681 72.0099 18.2892H66.0099ZM65.5342 20.5796C65.4928 20.6286 65.4385 20.6778 65.3168 20.7274C65.1789 20.7836 64.8959 20.8622 64.3888 20.8622V26.8622C66.6779 26.8622 68.7049 26.1217 70.1151 24.4546L65.5342 20.5796ZM64.3888 28.7707C67.0917 28.7707 69.7135 27.8842 71.572 25.6879L66.9917 21.8122C66.5351 22.3519 65.7768 22.7707 64.3888 22.7707V28.7707ZM71.5723 25.6875C73.3337 23.6053 73.9184 20.9169 73.9184 18.2892H67.9184C67.9184 20.1284 67.4984 21.2132 66.9914 21.8126L71.5723 25.6875ZM64.3888 20.8622H60.3999V26.8622H64.3888V20.8622ZM57.3999 23.8622V25.7707H63.3999V23.8622H57.3999ZM60.3999 28.7707H64.3888V22.7707H60.3999V28.7707ZM64.3541 24.8165V12.0338H58.3541V24.8165H64.3541ZM61.3541 9.03384H59.4456V15.0338H61.3541V9.03384ZM56.4456 12.0338V24.8165H62.4456V12.0338H56.4456ZM59.4456 27.8165H61.3541V21.8165H59.4456V27.8165ZM94.1914 37.3586L93.2643 37.5843L94.6835 43.414L95.6106 43.1883L94.1914 37.3586ZM91.0592 41.2093L91.2367 41.9379L97.0662 40.5176L96.8887 39.789L91.0592 41.2093ZM94.1514 44.2277H94.901V38.2277H94.1514V44.2277ZM97.901 41.2277V40.2735H91.901V41.2277H97.901ZM95.7993 40.2735V41.2277H101.799V40.2735H95.7993ZM98.7993 44.2277H100.03V38.2277H98.7993V44.2277ZM102.936 40.48L102.629 39.2881L96.8182 40.7836L97.125 41.9755L102.936 40.48ZM98.9765 37.1303L98.0523 37.368L99.5463 43.179L100.47 42.9414L98.9765 37.1303ZM91.3871 11.4491L92.3114 11.2114L90.8174 5.40042L89.8931 5.63804L91.3871 11.4491ZM94.4699 7.55924L94.2858 6.84257L88.4746 8.33597L88.6588 9.05263L94.4699 7.55924ZM91.3802 4.58927H90.6401V10.5893H91.3802V4.58927ZM87.6401 7.58927V8.54355H93.6401V7.58927H87.6401ZM89.6059 8.54355V7.58927H83.6059V8.54355H89.6059ZM86.6059 4.58927H85.8659V10.5893H86.6059V4.58927ZM82.9603 6.8426L82.7761 7.55927L88.5873 9.0526L88.7714 8.33594L82.9603 6.8426ZM84.9347 11.2114L85.8589 11.4491L87.3529 5.63804L86.4287 5.40043L84.9347 11.2114ZM79.1938 37.368L78.2695 37.1303L76.7755 42.9414L77.6998 43.179L79.1938 37.368ZM74.617 39.2891L74.3107 40.481L80.1218 41.9744L80.4281 40.7826L74.617 39.2891ZM77.2162 44.2277H78.4468V38.2277H77.2162V44.2277ZM81.4468 41.2277V40.2735H75.4468V41.2277H81.4468ZM79.345 40.2735V41.2277H85.345V40.2735H79.345ZM82.345 44.2277H83.0951V38.2277H82.345V44.2277ZM86.0103 41.9361L86.1873 41.2075L80.3569 39.7908L80.1799 40.5194L86.0103 41.9361ZM83.9817 37.5843L83.0546 37.3586L81.6354 43.1883L82.5625 43.414L83.9817 37.5843ZM87.0222 33.3835V32.4293H81.0222V33.3835H87.0222ZM84.0222 29.4293H83.2726V35.4293H84.0222V29.4293ZM80.3578 31.7192L80.1803 32.4478L86.0098 33.8679L86.1873 33.1393L80.3578 31.7192ZM82.3855 36.0727L83.3126 36.2984L84.7318 30.4687L83.8047 30.243L82.3855 36.0727ZM93.9334 36.2984L94.8605 36.0727L93.4414 30.243L92.5143 30.4687L93.9334 36.2984ZM97.0661 32.4495L96.8891 31.7209L91.0587 33.1376L91.2358 33.8662L97.0661 32.4495ZM93.9739 29.4293H93.2239V35.4293H93.9739V29.4293ZM90.2239 32.4293V33.3835H96.2239V32.4293H90.2239ZM85.5402 27.0219L84.6127 26.7986L83.2084 32.6319L84.1359 32.8552L85.5402 27.0219ZM80.9938 29.0133L80.7104 30.1909L86.5438 31.5948L86.8272 30.4173L80.9938 29.0133ZM83.6271 33.8929H84.8381V27.8929H83.6271V33.8929ZM87.8381 30.8929V29.9386H81.8381V30.8929H87.8381ZM88.1342 16.2816L87.2071 16.0549L85.7823 21.8833L86.7094 22.1099L88.1342 16.2816ZM83.5235 18.5544L83.5231 18.5577L89.4654 19.3872L89.4659 19.3838L83.5235 18.5544ZM85.7921 21.8891L86.7196 22.1124L88.124 16.2791L87.1964 16.0558L85.7921 21.8891ZM91.555 13.2577V12.3034H85.555V13.2577H91.555ZM88.555 9.30343H87.732V15.3034H88.555V9.30343ZM84.7644 11.8636L84.6437 12.6781L90.5788 13.5577L90.6995 12.7432L84.7644 11.8636ZM87.1716 16.0855L88.1154 16.2253L88.9946 10.2901L88.0508 10.1503L87.1716 16.0855ZM89.1304 16.2254L90.0747 16.0856L89.1959 10.1503L88.2516 10.2901L89.1304 16.2254ZM92.6029 12.6781L92.4822 11.8636L86.547 12.7432L86.6677 13.5577L92.6029 12.6781ZM89.5146 9.30343H88.691V15.3034H89.5146V9.30343ZM85.691 12.3034V13.2577H91.691V12.3034H85.691ZM90.526 22.1125L91.4541 21.8892L90.0505 16.0557L89.1224 16.279L90.526 22.1125ZM93.6348 18.1413L93.6339 18.138L87.8687 19.8002L87.8697 19.8036L93.6348 18.1413ZM90.0389 16.0549L89.1118 16.2816L90.5366 22.1099L91.4637 21.8833L90.0389 16.0549ZM89.4079 29.9386V30.8929H95.4079V29.9386H89.4079ZM92.4079 33.8929H93.6189V27.8929H92.4079V33.8929ZM96.5359 30.192L96.253 29.0144L90.419 30.4162L90.702 31.5938L96.5359 30.192ZM92.6342 26.7985L91.7061 27.0218L93.1098 32.8553L94.0378 32.632L92.6342 26.7985ZM94.901 44.2277H98.7993V38.2277H94.901V44.2277ZM101.799 41.2277V39.3192H95.7993V41.2277H101.799ZM98.7993 36.3192H94.901V42.3192H98.7993V36.3192ZM91.901 39.3192V41.2277H97.901V39.3192H91.901ZM102.629 39.2887L94.4698 7.55881L88.6589 9.05306L96.818 40.783L102.629 39.2887ZM90.8173 5.40043L88.9689 5.87566L90.4629 11.6867L92.3114 11.2114L90.8173 5.40043ZM86.8104 9.52829L94.9696 41.2582L100.781 39.764L92.6214 8.03405L86.8104 9.52829ZM98.622 43.4166L100.47 42.9414L98.9765 37.1303L97.128 37.6056L98.622 43.4166ZM90.6401 4.58927H86.6059V10.5893H90.6401V4.58927ZM83.6059 7.58927V9.49784H89.6059V7.58927H83.6059ZM86.6059 12.4978H90.6401V6.49784H86.6059V12.4978ZM93.6401 9.49784V7.58927H87.6401V9.49784H93.6401ZM82.7762 7.55881L74.6171 39.2887L80.428 40.783L88.5872 9.05306L82.7762 7.55881ZM76.7755 42.9414L78.624 43.4166L80.118 37.6056L78.2695 37.1303L76.7755 42.9414ZM82.2765 41.2582L90.4356 9.52829L84.6246 8.03405L76.4655 39.764L82.2765 41.2582ZM88.2771 5.87566L86.4287 5.40043L84.9347 11.2114L86.7831 11.6867L88.2771 5.87566ZM78.4468 44.2277H82.345V38.2277H78.4468V44.2277ZM85.345 41.2277V39.3192H79.345V41.2277H85.345ZM82.345 36.3192H78.4468V42.3192H82.345V36.3192ZM75.4468 39.3192V41.2277H81.4468V39.3192H75.4468ZM86.187 41.2087L87.8641 34.3188L82.0344 32.8997L80.3572 39.7896L86.187 41.2087ZM85.6589 30.6944L83.8047 30.243L82.3855 36.0727L84.2397 36.5241L85.6589 30.6944ZM80.1802 32.4483L78.503 39.3382L84.3328 40.7573L86.01 33.8674L80.1802 32.4483ZM80.7083 42.9626L82.5625 43.414L83.9817 37.5843L82.1275 37.1329L80.7083 42.9626ZM84.0222 37.3378H93.2239V31.3378H84.0222V37.3378ZM96.2239 34.3378V32.4293H90.2239V34.3378H96.2239ZM93.2239 29.4293H84.0222V35.4293H93.2239V29.4293ZM81.0222 32.4293V34.3378H87.0222V32.4293H81.0222ZM89.3819 34.3188L91.059 41.2087L96.8888 39.7896L95.2117 32.8997L89.3819 34.3188ZM94.6835 43.414L96.5377 42.9626L95.1185 37.1329L93.2643 37.5843L94.6835 43.414ZM98.743 39.3382L97.0658 32.4483L91.2361 33.8674L92.9132 40.7573L98.743 39.3382ZM93.4414 30.243L91.5872 30.6944L93.0064 36.5241L94.8605 36.0727L93.4414 30.243ZM88.683 30.8634L91.2667 20.1206L85.433 18.7175L82.8493 29.4604L88.683 30.8634ZM89.0518 16.5023L87.1963 16.0557L85.7923 21.8891L87.6478 22.3357L89.0518 16.5023ZM83.5774 18.2709L80.9937 29.0138L86.8273 30.4168L89.4111 19.674L83.5774 18.2709ZM83.2085 32.632L85.0641 33.0786L86.4681 27.2452L84.6125 26.7986L83.2085 32.632ZM91.2631 20.1347C91.8032 17.9253 92.277 15.116 92.4668 13.8381L86.5318 12.9569C86.3541 14.1535 85.9119 16.7578 85.4347 18.71L91.2631 20.1347ZM89.9388 10.4299L88.0507 10.1503L87.1718 16.0855L89.0598 16.3651L89.9388 10.4299ZM84.6437 12.6781C84.4705 13.8468 84.0378 16.3863 83.5805 18.2567L89.4089 19.6815C89.9289 17.5544 90.3932 14.8101 90.5788 13.5577L84.6437 12.6781ZM85.7823 21.8833L87.6365 22.3366L89.0613 16.5082L87.2071 16.0549L85.7823 21.8833ZM88.555 17.212H88.691V11.212H88.555V17.212ZM91.691 14.212V12.3034H85.691V14.212H91.691ZM88.691 9.30343H88.555V15.3034H88.691V9.30343ZM85.555 12.3034V14.212H91.555V12.3034H85.555ZM84.7796 13.837C84.969 15.1159 85.4429 17.9253 85.9829 20.1347L91.8113 18.71C91.3341 16.7578 90.8919 14.1536 90.7149 12.958L84.7796 13.837ZM89.6096 22.3366L91.4637 21.8833L90.0389 16.0549L88.1847 16.5082L89.6096 22.3366ZM93.6655 18.2567C93.2083 16.3863 92.7756 13.8468 92.603 12.6792L86.6675 13.5566C86.8528 14.81 87.3172 17.5544 87.8371 19.6815L93.6655 18.2567ZM89.1958 10.1503L87.3077 10.4299L88.1867 16.3652L90.0748 16.0855L89.1958 10.1503ZM85.9798 20.1206L88.5636 30.8634L94.3972 29.4604L91.8135 18.7175L85.9798 20.1206ZM92.1824 33.0786L94.038 32.632L92.634 26.7986L90.7784 27.2452L92.1824 33.0786ZM96.2528 29.0138L93.6691 18.2709L87.8354 19.6739L90.4192 30.4168L96.2528 29.0138ZM90.0503 16.0557L88.1947 16.5023L89.5986 22.3358L91.4543 21.8891L90.0503 16.0557ZM92.4079 25.9843H84.8381V31.9843H92.4079V25.9843ZM81.8381 28.9843V30.8929H87.8381V28.9843H81.8381ZM84.8381 33.8929H92.4079V27.8929H84.8381V33.8929ZM95.4079 30.8929V28.9843H89.4079V30.8929H95.4079ZM104.774 37.2735H103.819V43.2735H104.774V37.2735ZM100.819 40.2735V41.2277H106.819V40.2735H100.819ZM103.819 44.2277H104.774V38.2277H103.819V44.2277ZM107.774 41.2277V40.2735H101.774V41.2277H107.774ZM107.774 8.54355V7.58927H101.774V8.54355H107.774ZM104.774 4.58927H103.819V10.5893H104.774V4.58927ZM100.819 7.58927V8.54355H106.819V7.58927H100.819ZM103.819 11.5436H104.774V5.54355H103.819V11.5436ZM108.49 33.7378H107.536V39.7378H108.49V33.7378ZM104.536 36.7378V37.6921H110.536V36.7378H104.536ZM107.536 40.6921H108.49V34.6921H107.536V40.6921ZM111.49 37.6921V36.7378H105.49V37.6921H111.49ZM111.49 12.0792V11.1249H105.49V12.0792H111.49ZM108.49 8.12489H107.536V14.1249H108.49V8.12489ZM104.536 11.1249V12.0792H110.536V11.1249H104.536ZM107.536 15.0792H108.49V9.07917H107.536V15.0792ZM104.774 44.2277H112.343V38.2277H104.774V44.2277ZM112.343 36.3192H104.774V42.3192H112.343V36.3192ZM101.774 39.3192V41.2277H107.774V39.3192H101.774ZM112.343 44.2277C116.111 44.2277 119.608 43.1002 122.165 40.5425L117.923 36.2999C116.753 37.4697 114.934 38.2277 112.343 38.2277V44.2277ZM122.165 40.5425C124.723 37.9844 125.862 34.4755 125.862 30.6638H119.862C119.862 33.3003 119.092 35.1306 117.923 36.2999L122.165 40.5425ZM117.953 30.6638C117.953 32.9238 117.303 34.2209 116.573 34.9509L120.816 39.1928C122.931 37.0771 123.953 34.1038 123.953 30.6638H117.953ZM116.574 34.9502C115.843 35.6803 114.557 36.3192 112.343 36.3192V42.3192C115.738 42.3192 118.7 41.3081 120.816 39.1935L116.574 34.9502ZM125.862 30.6638V18.1532H119.862V30.6638H125.862ZM117.953 18.1532V30.6638H123.953V18.1532H117.953ZM125.862 18.1532C125.862 14.3547 124.743 10.8403 122.177 8.2745L117.934 12.5171C119.1 13.6826 119.862 15.5093 119.862 18.1532H125.862ZM122.177 8.2745C119.611 5.70865 116.096 4.58927 112.298 4.58927V10.5893C114.942 10.5893 116.769 11.3517 117.934 12.5171L122.177 8.2745ZM112.298 12.4978C114.571 12.4978 115.863 13.1449 116.584 13.8665L120.827 9.62386C118.708 7.50451 115.731 6.49784 112.298 6.49784V12.4978ZM116.584 13.8665C117.306 14.5886 117.953 15.8801 117.953 18.1532H123.953C123.953 14.7206 122.947 11.7436 120.827 9.62386L116.584 13.8665ZM112.298 4.58927H104.774V10.5893H112.298V4.58927ZM101.774 7.58927V9.49784H107.774V7.58927H101.774ZM104.774 12.4978H112.298V6.49784H104.774V12.4978ZM100.819 8.54355V40.2735H106.819V8.54355H100.819ZM103.819 43.2735H105.728V37.2735H103.819V43.2735ZM108.728 40.2735V8.54355H102.728V40.2735H108.728ZM105.728 5.54355H103.819V11.5436H105.728V5.54355ZM112.445 36.7378V12.0792H106.445V36.7378H112.445ZM109.445 9.07917H107.536V15.0792H109.445V9.07917ZM104.536 12.0792V36.7378H110.536V12.0792H104.536ZM107.536 39.7378H109.445V33.7378H107.536V39.7378ZM108.49 16.0335H112.343V10.0335H108.49V16.0335ZM112.343 8.12489H108.49V14.1249H112.343V8.12489ZM105.49 11.1249V13.0335H111.49V11.1249H105.49ZM112.343 16.0335C113.507 16.0335 113.798 16.3413 113.827 16.3722L118.153 12.214C116.664 10.6656 114.597 10.0335 112.343 10.0335V16.0335ZM113.828 16.3725C113.881 16.4281 114.236 16.8382 114.236 18.2438H120.236C120.236 15.8753 119.629 13.7489 118.153 12.2137L113.828 16.3725ZM122.145 18.2438C122.145 15.5736 121.46 12.8997 119.528 10.8911L115.203 15.0498C115.708 15.5749 116.145 16.5291 116.145 18.2438H122.145ZM119.528 10.8913C117.573 8.85702 114.937 8.12489 112.343 8.12489V14.1249C113.857 14.1249 114.711 14.5379 115.203 15.0496L119.528 10.8913ZM114.236 18.2438V30.5278H120.236V18.2438H114.236ZM122.145 30.5278V18.2438H116.145V30.5278H122.145ZM114.236 30.5278C114.236 31.9453 113.875 32.3715 113.811 32.4384L118.135 36.598C119.615 35.0598 120.236 32.9247 120.236 30.5278H114.236ZM113.811 32.4387C113.769 32.4822 113.472 32.7836 112.343 32.7836V38.7836C114.581 38.7836 116.645 38.1478 118.135 36.5977L113.811 32.4387ZM112.343 40.6921C114.926 40.6921 117.556 39.9537 119.511 37.921L115.186 33.7616C114.685 34.2826 113.828 34.6921 112.343 34.6921V40.6921ZM119.511 37.9208C121.443 35.9117 122.145 33.2315 122.145 30.5278H116.145C116.145 32.2597 115.7 33.2277 115.186 33.7618L119.511 37.9208ZM112.343 32.7836H108.49V38.7836H112.343V32.7836ZM105.49 35.7836V37.6921H111.49V35.7836H105.49ZM108.49 40.6921H112.343V34.6921H108.49V40.6921ZM138.493 44.817C142.392 44.817 145.887 43.4486 148.36 40.6447L143.859 36.6767C142.697 37.9944 140.946 38.817 138.493 38.817V44.817ZM148.359 40.6454C150.775 37.9062 151.83 34.2364 151.83 30.3012H145.83C145.83 33.2178 145.051 35.3252 143.86 36.6761L148.359 40.6454ZM143.921 30.3012C143.921 32.8913 143.232 34.5033 142.428 35.4148L146.929 39.3826C148.954 37.0858 149.921 33.9139 149.921 30.3012H143.921ZM142.429 35.414C141.681 36.2615 140.484 36.9085 138.493 36.9085V42.9085C141.933 42.9085 144.873 41.7127 146.928 39.3834L142.429 35.414ZM151.83 30.3012V18.4705H145.83V30.3012H151.83ZM143.921 18.4705V30.3012H149.921V18.4705H143.921ZM151.83 18.4705C151.83 14.5512 150.772 10.8929 148.355 8.16137L143.861 12.1369C145.053 13.4839 145.83 15.58 145.83 18.4705H151.83ZM148.355 8.16123C145.884 5.36812 142.391 4 138.493 4V10C140.947 10 142.699 10.8229 143.861 12.137L148.355 8.16123ZM138.493 11.9086C140.484 11.9086 141.684 12.5563 142.433 13.4021L146.926 9.42595C144.872 7.10453 141.934 5.90857 138.493 5.90857V11.9086ZM142.432 13.402C143.235 14.3088 143.921 15.9091 143.921 18.4705H149.921C149.921 14.8777 148.952 11.7161 146.926 9.42612L142.432 13.402ZM138.493 4C134.596 4 131.098 5.36632 128.616 8.15081L133.096 12.1427C134.271 10.8238 136.038 10 138.493 10V4ZM128.616 8.15141C126.186 10.8792 125.11 14.539 125.11 18.4705H131.11C131.11 15.5865 131.895 13.491 133.096 12.1421L128.616 8.15141ZM133.019 18.4705C133.019 15.9213 133.71 14.3228 134.521 13.4123L130.041 9.42055C128.002 11.7088 127.019 14.8712 127.019 18.4705H133.019ZM134.521 13.4122C135.282 12.5582 136.499 11.9086 138.493 11.9086V5.90857C135.053 5.90857 132.106 7.10354 130.041 9.42061L134.521 13.4122ZM125.11 18.4705V30.3012H131.11V18.4705H125.11ZM133.019 30.3012V18.4705H127.019V30.3012H133.019ZM125.11 30.3012C125.11 34.2487 126.183 37.9198 128.612 40.6555L133.098 36.6716C131.897 35.3183 131.11 33.2112 131.11 30.3012H125.11ZM128.612 40.6559C131.094 43.4504 134.595 44.817 138.493 44.817V38.817C136.038 38.817 134.273 37.9936 133.098 36.6713L128.612 40.6559ZM138.493 36.9085C136.499 36.9085 135.285 36.2597 134.525 35.4037L130.039 39.3879C132.105 41.7136 135.052 42.9085 138.493 42.9085V36.9085ZM134.525 35.4036C133.713 34.4893 133.019 32.8793 133.019 30.3012H127.019C127.019 33.9202 128.001 37.0931 130.039 39.388L134.525 35.4036ZM138.493 33.2822C138.005 33.2822 137.741 33.2024 137.617 33.1488C137.509 33.1019 137.444 33.0489 137.379 32.9682L132.689 36.7104C134.09 38.4654 136.136 39.2822 138.493 39.2822V33.2822ZM137.379 32.9674C137.211 32.7569 136.826 32.0412 136.826 30.3012H130.826C130.826 32.7716 131.349 35.0322 132.69 36.7112L137.379 32.9674ZM128.918 30.3012C128.918 33.0016 129.484 35.7543 131.198 37.9013L135.887 34.1582C135.347 33.4815 134.918 32.2749 134.918 30.3012H128.918ZM131.198 37.9011C133.032 40.1993 135.681 41.1907 138.493 41.1907V35.1907C137.126 35.1907 136.365 34.7575 135.887 34.1584L131.198 37.9011ZM136.826 30.3012V18.4705H130.826V30.3012H136.826ZM128.918 18.4705V30.3012H134.918V18.4705H128.918ZM136.826 18.4705C136.826 16.7613 137.207 16.0578 137.373 15.8515L132.693 12.0963C131.351 13.769 130.826 16.019 130.826 18.4705H136.826ZM137.374 15.8504C137.437 15.7708 137.504 15.7168 137.614 15.6689C137.74 15.6146 138.005 15.5348 138.493 15.5348V9.53484C136.137 9.53484 134.092 10.3512 132.692 12.0974L137.374 15.8504ZM138.493 7.62628C135.682 7.62628 133.037 8.61687 131.203 10.9027L135.884 14.6565C136.362 14.0604 137.126 13.6263 138.493 13.6263V7.62628ZM131.203 10.9029C129.488 13.0426 128.918 15.7841 128.918 18.4705H134.918C134.918 16.5238 135.345 15.3289 135.884 14.6563L131.203 10.9029ZM138.493 15.5348C138.963 15.5348 139.215 15.6125 139.333 15.6636C139.435 15.7085 139.5 15.7599 139.565 15.8414L144.257 12.1017C142.866 10.3566 140.834 9.53484 138.493 9.53484V15.5348ZM139.565 15.8414C139.733 16.0522 140.114 16.7628 140.114 18.4705H146.114C146.114 16.0175 145.588 13.7717 144.257 12.1016L139.565 15.8414ZM148.022 18.4705C148.022 15.7831 147.452 13.048 145.749 10.9123L141.057 14.6517C141.595 15.3264 142.022 16.5248 142.022 18.4705H148.022ZM145.749 10.9122C143.929 8.62756 141.296 7.62628 138.493 7.62628V13.6263C139.829 13.6263 140.581 14.0545 141.057 14.6518L145.749 10.9122ZM140.114 18.4705V30.3012H146.114V18.4705H140.114ZM148.022 30.3012V18.4705H142.022V30.3012H148.022ZM140.114 30.3012C140.114 32.0397 139.729 32.7626 139.559 32.9774L144.26 36.7059C145.59 35.0294 146.114 32.773 146.114 30.3012H140.114ZM139.56 32.9766C139.494 33.0591 139.43 33.1099 139.329 33.154C139.214 33.2045 138.963 33.2822 138.493 33.2822V39.2822C140.835 39.2822 142.868 38.4591 144.259 36.7067L139.56 32.9766ZM138.493 41.1907C141.298 41.1907 143.934 40.1881 145.755 37.8924L141.055 34.1633C140.579 34.7629 139.828 35.1907 138.493 35.1907V41.1907ZM145.755 37.892C147.455 35.7488 148.022 33.0028 148.022 30.3012H142.022C142.022 32.2737 141.593 33.4842 141.054 34.1637L145.755 37.892ZM166.828 27.2106H165.874V33.2106H166.828V27.2106ZM162.874 30.2106V31.1648H168.874V30.2106H162.874ZM165.874 34.1648H166.828V28.1648H165.874V34.1648ZM169.828 31.1648V30.2106H163.828V31.1648H169.828ZM174.843 30.2106V31.1648H180.843V30.2106H174.843ZM177.843 34.1648H178.797V28.1648H177.843V34.1648ZM181.797 31.1648V30.2106H175.797V31.1648H181.797ZM178.797 27.2106H177.843V33.2106H178.797V27.2106ZM177.843 29.9922H178.797V23.9922H177.843V29.9922ZM181.797 26.9922V26.0379H175.797V26.9922H181.797ZM178.797 23.0379H177.843V29.0379H178.797V23.0379ZM174.843 26.0379V26.9922H180.843V26.0379H174.843ZM169.828 26.9922V26.0379H163.828V26.9922H169.828ZM166.828 23.0379H165.874V29.0379H166.828V23.0379ZM162.874 26.0379V26.9922H168.874V26.0379H162.874ZM165.874 29.9922H166.828V23.9922H165.874V29.9922ZM166.828 34.1648H177.843V28.1648H166.828V34.1648ZM180.843 31.1648V29.2563H174.843V31.1648H180.843ZM177.843 26.2563H166.828V32.2563H177.843V26.2563ZM163.828 29.2563V31.1648H169.828V29.2563H163.828ZM181.797 30.2106V26.9922H175.797V30.2106H181.797ZM178.797 23.9922H176.889V29.9922H178.797V23.9922ZM173.889 26.9922V30.2106H179.889V26.9922H173.889ZM176.889 33.2106H178.797V27.2106H176.889V33.2106ZM177.843 23.0379H166.828V29.0379H177.843V23.0379ZM163.828 26.0379V27.9465H169.828V26.0379H163.828ZM166.828 30.9465H177.843V24.9465H166.828V30.9465ZM180.843 27.9465V26.0379H174.843V27.9465H180.843ZM162.874 26.9922V30.2106H168.874V26.9922H162.874ZM165.874 33.2106H167.782V27.2106H165.874V33.2106ZM170.782 30.2106V26.9922H164.782V30.2106H170.782ZM167.782 23.9922H165.874V29.9922H167.782V23.9922Z" fill="#E8E8E8" mask="url(#path-3-inside-1)"/>
</g>
<g filter="url(#filter1_d)">
<path d="M91.2694 23.1421C87.6088 25.2511 88.0487 31.1939 88.0487 31.1939C88.0487 31.1939 86.4384 30.6571 86.4384 28.2418C84.5169 29.3554 83.2177 31.4968 83.2177 33.8778C83.2177 37.4353 86.1015 40.3192 89.6591 40.3192C93.2166 40.3192 96.1005 37.4353 96.1005 33.8778C96.1005 28.644 91.2694 27.5704 91.2694 23.1421ZM90.2249 38.0995C88.9305 38.4225 87.6193 37.6348 87.2967 36.3403C86.9742 35.0458 87.762 33.7346 89.056 33.4121C92.1812 32.6329 92.573 30.8756 92.573 30.8756C92.573 30.8756 94.1313 37.1257 90.2249 38.0995Z" fill="#E8E8E8"/>
</g>
<g filter="url(#filter2_d)">
<path d="M90.0966 38.9417C88.4256 39.3401 86.7332 38.3667 86.3172 36.7669C85.9001 35.167 86.9169 33.5467 88.5879 33.1478C92.6221 32.1849 93.1279 30.0129 93.1279 30.0129C93.1279 30.0129 95.139 37.7374 90.0966 38.9417Z" fill="#E8E8E8"/>
</g>
<path d="M9.10622 54.822C9.51084 54.822 9.86392 54.6989 10.1664 54.4527C10.4685 54.206 10.6364 53.8983 10.6689 53.5285H11.7415C11.721 53.9102 11.5902 54.2738 11.3493 54.6188C11.1078 54.9637 10.7853 55.239 10.3807 55.4447C9.98034 55.6499 9.55569 55.7524 9.10622 55.7524C8.20347 55.7524 7.48442 55.4509 6.94907 54.8468C6.41801 54.2389 6.15272 53.4092 6.15272 52.3581V52.1667C6.15272 51.5178 6.27104 50.9409 6.50771 50.4357C6.74484 49.9304 7.0841 49.5381 7.52498 49.259C7.97063 48.9794 8.49548 48.8401 9.10002 48.8401C9.84341 48.8401 10.4604 49.0639 10.9509 49.5114C11.4452 49.959 11.7086 50.5401 11.7415 51.2549H10.6689C10.6364 50.8236 10.4728 50.4705 10.1788 50.1952C9.88873 49.916 9.52897 49.7762 9.10002 49.7762C8.52411 49.7762 8.07656 49.9857 7.75783 50.4046C7.44339 50.8198 7.28641 51.4214 7.28641 52.2101V52.4258C7.28641 53.1935 7.44339 53.7852 7.75783 54.1998C8.07274 54.6149 8.5222 54.822 9.10622 54.822ZM22.9533 48.9632H24.087V55.6293H22.9533V50.7682L19.8953 55.6293H18.7617V48.9632H19.8953V53.8305L22.9533 48.9632ZM34.2139 54.822C34.6185 54.822 34.9721 54.6989 35.2741 54.4527C35.5766 54.206 35.7441 53.8983 35.777 53.5285H36.8491C36.8286 53.9102 36.6979 54.2738 36.4569 54.6188C36.216 54.9637 35.8929 55.239 35.4888 55.4447C35.0885 55.6499 34.6634 55.7524 34.2139 55.7524C33.3111 55.7524 32.5921 55.4509 32.0572 54.8468C31.5261 54.2389 31.2604 53.4092 31.2604 52.3581V52.1667C31.2604 51.5178 31.3787 50.9409 31.6158 50.4357C31.853 49.9304 32.1918 49.5381 32.6331 49.259C33.0783 48.9794 33.6032 48.8401 34.2082 48.8401C34.9516 48.8401 35.5685 49.0639 36.0585 49.5114C36.5528 49.959 36.8167 50.5401 36.8491 51.2549H35.777C35.7441 50.8236 35.5809 50.4705 35.2865 50.1952C34.9964 49.916 34.6371 49.7762 34.2082 49.7762C33.6318 49.7762 33.1847 49.9857 32.866 50.4046C32.5515 50.8198 32.3941 51.4214 32.3941 52.2101V52.4258C32.3941 53.1935 32.5515 53.7852 32.866 54.1998C33.1804 54.6149 33.6299 54.822 34.2139 54.822ZM48.6985 49.8874H46.474V55.6293H45.3404V49.8874H43.1584V48.9632H48.6985V49.8874ZM57.7102 55.7524C56.8113 55.7524 56.0803 55.4566 55.5163 54.8654C54.9528 54.27 54.6708 53.475 54.6708 52.4812V52.2717C54.6708 51.6104 54.7954 51.0211 55.0444 50.5034C55.2978 49.9819 55.6495 49.5749 56.0985 49.2834C56.5522 48.988 57.0422 48.8401 57.5695 48.8401C58.4312 48.8401 59.1016 49.1254 59.5792 49.6961C60.0573 50.2672 60.2964 51.0846 60.2964 52.1486V52.6229H55.8045C55.8208 53.2799 56.0107 53.8119 56.3742 54.2184C56.7421 54.6211 57.2078 54.822 57.7718 54.822C58.1721 54.822 58.5109 54.7399 58.7891 54.5758C59.0668 54.4117 59.3096 54.1936 59.5181 53.9226L60.2105 54.4651C59.6551 55.3235 58.8215 55.7524 57.7102 55.7524ZM57.5695 49.7762C57.1119 49.7762 56.7278 49.9447 56.4172 50.2815C56.1066 50.6141 55.9148 51.0827 55.8413 51.6862H59.1627V51.5999C59.1302 51.0211 58.9747 50.5731 58.697 50.2567C58.4193 49.9366 58.0433 49.7762 57.5695 49.7762ZM71.0793 54.1197L73.3342 48.9632H74.7499V55.6293H73.6162V50.7806L71.4715 55.6293H70.6871L68.4994 50.6757V55.6293H67.3657V48.9632H68.8362L71.0793 54.1197ZM83.4616 51.2611H85.1836C85.9355 51.2692 86.5296 51.4668 86.9671 51.8528C87.4042 52.2388 87.6227 52.7622 87.6227 53.4235C87.6227 54.0891 87.398 54.623 86.9485 55.0258C86.499 55.428 85.8945 55.6293 85.1344 55.6293H82.3279V48.9632H83.4616V51.2611ZM89.9879 55.6293H88.848V48.9632H89.9879V55.6293ZM83.4616 52.1915V54.6989H85.1468C85.572 54.6989 85.9007 54.5901 86.1335 54.3725C86.3664 54.1507 86.4828 53.8486 86.4828 53.4669C86.4828 53.0971 86.3683 52.7951 86.1397 52.5613C85.915 52.3227 85.5982 52.1996 85.1898 52.1915H83.4616ZM106.075 52.2345C106.075 51.5817 106.202 50.9944 106.455 50.4724C106.713 49.9509 107.068 49.5486 107.521 49.2652C107.979 48.9818 108.501 48.8401 109.084 48.8401C109.987 48.8401 110.716 49.154 111.272 49.7824C111.831 50.4108 112.111 51.2468 112.111 52.2903V52.37C112.111 53.0189 111.987 53.6024 111.737 54.1197C111.493 54.6331 111.14 55.0339 110.678 55.3211C110.22 55.6088 109.692 55.7524 109.096 55.7524C108.198 55.7524 107.468 55.4385 106.909 54.8101C106.353 54.1817 106.075 53.3496 106.075 52.3146V52.2345ZM107.215 52.37C107.215 53.1096 107.385 53.7031 107.724 54.1507C108.067 54.5982 108.524 54.822 109.096 54.822C109.673 54.822 110.13 54.5963 110.469 54.1445C110.808 53.6888 110.978 53.0518 110.978 52.2345C110.978 51.5035 110.804 50.9118 110.457 50.4605C110.114 50.0043 109.656 49.7762 109.084 49.7762C108.524 49.7762 108.073 50 107.73 50.4481C107.387 50.8956 107.215 51.5364 107.215 52.37ZM123.973 49.8874H121.749V55.6293H120.615V49.8874H118.433V48.9632H123.973V49.8874ZM130.166 52.2345C130.166 51.5817 130.293 50.9944 130.546 50.4724C130.803 49.9509 131.159 49.5486 131.612 49.2652C132.07 48.9818 132.59 48.8401 133.175 48.8401C134.078 48.8401 134.808 49.154 135.362 49.7824C135.923 50.4108 136.202 51.2468 136.202 52.2903V52.37C136.202 53.0189 136.078 53.6024 135.828 54.1197C135.583 54.6331 135.23 55.0339 134.768 55.3211C134.311 55.6088 133.784 55.7524 133.188 55.7524C132.288 55.7524 131.559 55.4385 130.999 54.8101C130.444 54.1817 130.166 53.3496 130.166 52.3146V52.2345ZM131.306 52.37C131.306 53.1096 131.475 53.7031 131.814 54.1507C132.158 54.5982 132.616 54.822 133.188 54.822C133.763 54.822 134.221 54.5963 134.56 54.1445C134.899 53.6888 135.068 53.0518 135.068 52.2345C135.068 51.5035 134.896 50.9118 134.548 50.4605C134.204 50.0043 133.747 49.7762 133.175 49.7762C132.616 49.7762 132.164 50 131.82 50.4481C131.477 50.8956 131.306 51.5364 131.306 52.37ZM148.695 55.6293H147.561V49.9055H144.51V55.6293H143.37V48.9632H148.695V55.6293ZM161.598 48.9632V55.6293H160.458V49.9055H158.203L158.068 52.401C157.995 53.5471 157.803 54.3663 157.492 54.8592C157.186 55.3521 156.698 55.6088 156.027 55.6293H155.574V54.625L155.899 54.6006C156.267 54.5596 156.53 54.3458 156.69 53.9598C156.848 53.5738 156.95 52.8591 156.996 51.8155L157.118 48.9632H161.598ZM171.817 55.7524C170.918 55.7524 170.188 55.4566 169.624 54.8654C169.06 54.27 168.777 53.475 168.777 52.4812V52.2717C168.777 51.6104 168.902 51.0211 169.151 50.5034C169.405 49.9819 169.756 49.5749 170.205 49.2834C170.659 48.988 171.15 48.8401 171.676 48.8401C172.538 48.8401 173.209 49.1254 173.687 49.6961C174.164 50.2672 174.404 51.0846 174.404 52.1486V52.6229H169.911C169.928 53.2799 170.118 53.8119 170.482 54.2184C170.849 54.6211 171.314 54.822 171.878 54.822C172.279 54.822 172.618 54.7399 172.896 54.5758C173.174 54.4117 173.417 54.1936 173.626 53.9226L174.317 54.4651C173.762 55.3235 172.929 55.7524 171.817 55.7524ZM171.676 49.7762C171.218 49.7762 170.835 49.9447 170.525 50.2815C170.214 50.6141 170.022 51.0827 169.948 51.6862H173.27V51.5999C173.237 51.0211 173.081 50.5731 172.804 50.2567C172.526 49.9366 172.15 49.7762 171.676 49.7762ZM186.785 55.6293H185.652V52.7827H182.606V55.6293H181.467V48.9632H182.606V51.8528H185.652V48.9632H186.785V55.6293ZM198.55 48.9632H199.683V55.6293H198.55V50.7682L195.492 55.6293H194.358V48.9632H195.492V53.8305L198.55 48.9632ZM212.218 48.9632V55.6293H211.078V53.0356H209.369L207.806 55.6293H206.581L208.247 52.8629C207.822 52.7068 207.496 52.4668 207.266 52.1424C207.042 51.8136 206.93 51.4314 206.93 50.9963C206.93 50.3884 207.156 49.8998 207.61 49.53C208.063 49.156 208.67 48.967 209.43 48.9632H212.218ZM208.069 51.0087C208.069 51.3332 208.18 51.5961 208.401 51.7974C208.621 51.9945 208.913 52.0951 209.277 52.099H211.078V49.8874H209.448C209.028 49.8874 208.693 49.9919 208.444 50.2014C208.194 50.407 208.069 50.6757 208.069 51.0087Z" fill="#969696"/>
<defs>
<filter id="filter0_d" x="0" y="0" width="224" height="48.817" filterUnits="userSpaceOnUse" color-interpolation-filters="sRGB">
<feFlood flood-opacity="0" result="BackgroundImageFix"/>
<feColorMatrix in="SourceAlpha" type="matrix" values="0 0 0 0 0 0 0 0 0 0 0 0 0 0 0 0 0 0 127 0"/>
<feOffset dx="1"/>
<feGaussianBlur stdDeviation="3.5"/>
<feColorMatrix type="matrix" values="0 0 0 0 0 0 0 0 0 0 0 0 0 0 0 0 0 0 0.15 0"/>
<feBlend mode="normal" in2="BackgroundImageFix" result="effect1_dropShadow"/>
<feBlend mode="normal" in="SourceGraphic" in2="effect1_dropShadow" result="shape"/>
</filter>
<filter id="filter1_d" x="77.2177" y="16.1421" width="26.8828" height="31.1771" filterUnits="userSpaceOnUse" color-interpolation-filters="sRGB">
<feFlood flood-opacity="0" result="BackgroundImageFix"/>
<feColorMatrix in="SourceAlpha" type="matrix" values="0 0 0 0 0 0 0 0 0 0 0 0 0 0 0 0 0 0 127 0"/>
<feOffset dx="1"/>
<feGaussianBlur stdDeviation="3.5"/>
<feColorMatrix type="matrix" values="0 0 0 0 0.129412 0 0 0 0 0.133333 0 0 0 0 0.184314 0 0 0 1 0"/>
<feBlend mode="normal" in2="BackgroundImageFix" result="effect1_dropShadow"/>
<feBlend mode="normal" in="SourceGraphic" in2="effect1_dropShadow" result="shape"/>
</filter>
<filter id="filter2_d" x="81.2236" y="24.0129" width="19.3002" height="21.018" filterUnits="userSpaceOnUse" color-interpolation-filters="sRGB">
<feFlood flood-opacity="0" result="BackgroundImageFix"/>
<feColorMatrix in="SourceAlpha" type="matrix" values="0 0 0 0 0 0 0 0 0 0 0 0 0 0 0 0 0 0 127 0"/>
<feOffset dx="1"/>
<feGaussianBlur stdDeviation="3"/>
<feColorMatrix type="matrix" values="0 0 0 0 0.129412 0 0 0 0 0.133333 0 0 0 0 0.184314 0 0 0 1 0"/>
<feBlend mode="normal" in2="BackgroundImageFix" result="effect1_dropShadow"/>
<feBlend mode="normal" in="SourceGraphic" in2="effect1_dropShadow" result="shape"/>
</filter>
</defs>
</svg>
