<svg width="28" height="36" viewBox="0 0 28 36" fill="none" xmlns="http://www.w3.org/2000/svg">
<path d="M1.94191 33.0085H5.10647V34.0581C5.10705 34.5729 5.31182 35.0665 5.67588 35.4306C6.03993 35.7947 6.53353 35.9994 7.04838 36H23.3241C23.3355 36 23.3465 35.999 23.3579 35.9984C23.3685 35.9992 23.3791 36 23.3898 36H23.393C23.455 35.9995 23.5163 35.9861 23.5729 35.9607C23.6295 35.9352 23.6801 35.8982 23.7216 35.852C23.7305 35.8446 23.7395 35.8371 23.748 35.8291L27.5959 32.1204C27.6043 32.1124 27.6119 32.1035 27.6198 32.095C27.6735 32.0513 27.7162 31.9957 27.7448 31.9327C27.7733 31.8697 27.7868 31.8009 27.7842 31.7318C27.7842 31.7262 27.7831 31.7207 27.7827 31.7152C27.7834 31.7035 27.7845 31.6919 27.7845 31.6801V5.81938C27.7839 5.30453 27.5792 4.81095 27.2151 4.4469C26.8511 4.08285 26.3575 3.87806 25.8426 3.87747H22.6778V1.94191C22.6772 1.42706 22.4724 0.933477 22.1083 0.569427C21.7443 0.205377 21.2507 0.000593025 20.7359 0H1.94191C1.42706 0.000593025 0.933477 0.205377 0.569427 0.569427C0.205377 0.933477 0.000593025 1.42706 0 1.94191V31.0666C0.000593025 31.5814 0.205377 32.075 0.569427 32.4391C0.933477 32.8031 1.42706 33.0079 1.94191 33.0085ZM23.8162 32.3337L26.1783 32.2423L23.831 34.5047L23.8162 32.3337ZM26.888 5.81938V31.3181L23.5404 31.4476C23.4553 31.4458 23.3707 31.4619 23.2921 31.4947C23.2135 31.5275 23.1426 31.5764 23.0841 31.6382C23.0255 31.7001 22.9805 31.7735 22.952 31.8537C22.9234 31.934 22.912 32.0193 22.9184 32.1042L22.9387 35.1037H7.04838C6.77116 35.1034 6.50538 34.9932 6.30935 34.7971C6.11332 34.6011 6.00305 34.3353 6.00274 34.0581V5.81938C6.00307 5.54216 6.11335 5.27639 6.30937 5.08037C6.5054 4.88434 6.77116 4.77407 7.04838 4.77373H25.8423C26.1195 4.77405 26.3853 4.88432 26.5814 5.08035C26.7774 5.27637 26.8877 5.54215 26.888 5.81938ZM0.896266 1.94191C0.896562 1.66468 1.00682 1.39889 1.20285 1.20285C1.39889 1.00682 1.66468 0.896562 1.94191 0.896266H20.7359C21.0131 0.896582 21.2789 1.00685 21.4749 1.20288C21.6709 1.3989 21.7812 1.66468 21.7815 1.94191V3.87747H7.04838C6.53354 3.87806 6.03995 4.08285 5.6759 4.4469C5.31185 4.81095 5.10707 5.30453 5.10647 5.81938V32.1122H1.94191C1.66468 32.1119 1.39889 32.0017 1.20285 31.8056C1.00682 31.6096 0.896562 31.3438 0.896266 31.0666V1.94191Z" fill="#21222F"/>
<path d="M8.60048 19.9732H24.8097C24.9286 19.9732 25.0426 19.926 25.1266 19.8419C25.2107 19.7579 25.2579 19.6439 25.2579 19.525C25.2579 19.4062 25.2107 19.2922 25.1266 19.2082C25.0426 19.1241 24.9286 19.0769 24.8097 19.0769H8.60048C8.48162 19.0769 8.36764 19.1241 8.2836 19.2082C8.19956 19.2922 8.15234 19.4062 8.15234 19.525C8.15234 19.6439 8.19956 19.7579 8.2836 19.8419C8.36764 19.926 8.48162 19.9732 8.60048 19.9732Z" fill="#21222F"/>
<path d="M8.60048 25.0076H24.8097C24.9286 25.0076 25.0426 24.9604 25.1266 24.8763C25.2107 24.7923 25.2579 24.6783 25.2579 24.5595C25.2579 24.4406 25.2107 24.3266 25.1266 24.2426C25.0426 24.1585 24.9286 24.1113 24.8097 24.1113H8.60048C8.48162 24.1113 8.36764 24.1585 8.2836 24.2426C8.19956 24.3266 8.15234 24.4406 8.15234 24.5595C8.15234 24.6783 8.19956 24.7923 8.2836 24.8763C8.36764 24.9604 8.48162 25.0076 8.60048 25.0076Z" fill="#21222F"/>
<path d="M8.60048 30.0423H24.8097C24.9286 30.0423 25.0426 29.995 25.1266 29.911C25.2107 29.827 25.2579 29.713 25.2579 29.5941C25.2579 29.4753 25.2107 29.3613 25.1266 29.2773C25.0426 29.1932 24.9286 29.146 24.8097 29.146H8.60048C8.48162 29.146 8.36764 29.1932 8.2836 29.2773C8.19956 29.3613 8.15234 29.4753 8.15234 29.5941C8.15234 29.713 8.19956 29.827 8.2836 29.911C8.36764 29.995 8.48162 30.0423 8.60048 30.0423Z" fill="#21222F"/>
<path d="M8.74985 15.4885H14.7399C14.8983 15.4884 15.0502 15.4253 15.1622 15.3133C15.2742 15.2013 15.3372 15.0494 15.3374 14.891V8.90098C15.3372 8.74256 15.2742 8.59069 15.1622 8.47867C15.0502 8.36665 14.8983 8.30364 14.7399 8.30347H8.74985C8.59144 8.30364 8.43956 8.36665 8.32755 8.47867C8.21553 8.59069 8.15252 8.74256 8.15234 8.90098V14.891C8.15252 15.0494 8.21553 15.2013 8.32755 15.3133C8.43956 15.4253 8.59144 15.4884 8.74985 15.4885ZM9.04861 9.19973H14.4411V14.5923H9.04861V9.19973Z" fill="#21222F"/>
<path d="M17.4677 9.90359H24.806C24.9248 9.90359 25.0388 9.85638 25.1229 9.77233C25.2069 9.68829 25.2541 9.57431 25.2541 9.45546C25.2541 9.3366 25.2069 9.22262 25.1229 9.13858C25.0388 9.05454 24.9248 9.00732 24.806 9.00732H17.4677C17.3488 9.00732 17.2348 9.05454 17.1508 9.13858C17.0667 9.22262 17.0195 9.3366 17.0195 9.45546C17.0195 9.57431 17.0667 9.68829 17.1508 9.77233C17.2348 9.85638 17.3488 9.90359 17.4677 9.90359Z" fill="#21222F"/>
<path d="M17.4677 14.9387H24.806C24.9248 14.9387 25.0388 14.8915 25.1229 14.8075C25.2069 14.7235 25.2541 14.6095 25.2541 14.4906C25.2541 14.3718 25.2069 14.2578 25.1229 14.1737C25.0388 14.0897 24.9248 14.0425 24.806 14.0425H17.4677C17.3488 14.0425 17.2348 14.0897 17.1508 14.1737C17.0667 14.2578 17.0195 14.3718 17.0195 14.4906C17.0195 14.6095 17.0667 14.7235 17.1508 14.8075C17.2348 14.8915 17.3488 14.9387 17.4677 14.9387Z" fill="#21222F"/>
</svg>
