<svg width="32" height="30" viewBox="0 0 32 30" fill="none" xmlns="http://www.w3.org/2000/svg">
<path d="M16 29.2197C15.5444 29.2197 15.1052 29.0547 14.7629 28.7549C13.4702 27.6245 12.2239 26.5623 11.1243 25.6252L11.1187 25.6204C7.89478 22.873 5.11084 20.5005 3.17383 18.1633C1.00854 15.5505 0 13.0732 0 10.3669C0 7.73755 0.901611 5.31177 2.53857 3.53613C4.19507 1.7395 6.46802 0.75 8.93945 0.75C10.7866 0.75 12.4783 1.33398 13.9673 2.4856C14.7188 3.06689 15.3999 3.77832 16 4.60815C16.6003 3.77832 17.2812 3.06689 18.033 2.4856C19.522 1.33398 21.2136 0.75 23.0608 0.75C25.532 0.75 27.8052 1.7395 29.4617 3.53613C31.0986 5.31177 32 7.73755 32 10.3669C32 13.0732 30.9917 15.5505 28.8264 18.1631C26.8894 20.5005 24.1057 22.8728 20.8823 25.6199C19.7808 26.5583 18.5325 27.6223 17.2368 28.7554C16.8948 29.0547 16.4553 29.2197 16 29.2197ZM8.93945 2.62451C6.9978 2.62451 5.21411 3.39941 3.9165 4.80664C2.59961 6.23511 1.87427 8.20972 1.87427 10.3669C1.87427 12.6431 2.72021 14.6787 4.61694 16.9673C6.4502 19.1794 9.177 21.5032 12.3342 24.1938L12.3401 24.1987C13.4438 25.1394 14.6951 26.2058 15.9973 27.3445C17.3074 26.2036 18.5605 25.1355 19.6665 24.1934C22.8235 21.5027 25.55 19.1794 27.3833 16.9673C29.2798 14.6787 30.1257 12.6431 30.1257 10.3669C30.1257 8.20972 29.4004 6.23511 28.0835 4.80664C26.7861 3.39941 25.0022 2.62451 23.0608 2.62451C21.6384 2.62451 20.3325 3.07666 19.1794 3.96826C18.1519 4.76318 17.436 5.76807 17.0164 6.47119C16.8005 6.83276 16.4207 7.04858 16 7.04858C15.5793 7.04858 15.1995 6.83276 14.9836 6.47119C14.5642 5.76807 13.8484 4.76318 12.8206 3.96826C11.6675 3.07666 10.3616 2.62451 8.93945 2.62451Z" fill="#969696"/>
</svg>
