<svg width="45" height="45" viewBox="0 0 45 45" fill="none" xmlns="http://www.w3.org/2000/svg">
<path d="M42.3633 38.4746V37.0898H43.0225C43.3866 37.0898 43.6816 36.7948 43.6816 36.4307V1.97754C43.6816 0.887168 42.7945 0 41.7041 0C40.6137 0 39.7266 0.887168 39.7266 1.97754V2.63672H5.27344V1.97754C5.27344 0.887168 4.38636 0 3.2959 0C2.20544 0 1.31836 0.887168 1.31836 1.97754V36.4307C1.31836 36.7948 1.6135 37.0898 1.97754 37.0898H2.63672V38.4746C1.13414 38.7808 0 40.1124 0 41.7041C0 43.5215 1.4785 45 3.2959 45C5.1133 45 6.5918 43.5215 6.5918 41.7041C6.5918 40.1124 5.45766 38.7808 3.95508 38.4746V37.0898H4.61426C4.9783 37.0898 5.27344 36.7948 5.27344 36.4307V32.959H9.22852V41.7041C9.22852 42.0682 9.52365 42.3633 9.8877 42.3633H35.1123C35.4764 42.3633 35.7715 42.0682 35.7715 41.7041V32.959H39.7266V36.4307C39.7266 36.7948 40.0216 37.0898 40.3857 37.0898H41.0449V38.4746C39.5423 38.7808 38.4082 40.1124 38.4082 41.7041C38.4082 43.5215 39.8867 45 41.7041 45C43.5215 45 45 43.5215 45 41.7041C45 40.1124 43.8659 38.7808 42.3633 38.4746ZM5.27344 41.7041C5.27344 42.7945 4.38636 43.6816 3.2959 43.6816C2.20544 43.6816 1.31836 42.7945 1.31836 41.7041C1.31836 40.6137 2.20544 39.7266 3.2959 39.7266C4.38636 39.7266 5.27344 40.6137 5.27344 41.7041ZM3.95508 35.7715H2.63672V1.97754C2.63672 1.61402 2.93238 1.31836 3.2959 1.31836C3.65941 1.31836 3.95508 1.61402 3.95508 1.97754V35.7715ZM9.22852 31.6406H5.27344V30.3223H9.22852V31.6406ZM9.22852 29.0039H5.27344V26.3672H9.22852V29.0039ZM9.22852 25.0488H5.27344V23.7305H9.22852V25.0488ZM9.22852 22.4121H5.27344V19.7754H9.22852V22.4121ZM9.22852 18.457H5.27344V17.1387H9.22852V18.457ZM9.22852 15.8203H5.27344V13.1836H9.22852V15.8203ZM9.22852 11.8652H5.27344V10.5469H9.22852V11.8652ZM34.4531 41.0449H10.5469V9.22852H34.4531V41.0449ZM39.7266 31.6406H35.7715V30.3223H39.7266V31.6406ZM39.7266 29.0039H35.7715V26.3672H39.7266V29.0039ZM39.7266 25.0488H35.7715V23.7305H39.7266V25.0488ZM39.7266 22.4121H35.7715V19.7754H39.7266V22.4121ZM39.7266 18.457H35.7715V17.1387H39.7266V18.457ZM39.7266 15.8203H35.7715V13.1836H39.7266V15.8203ZM39.7266 11.8652H35.7715V10.5469H39.7266V11.8652ZM39.7266 9.22852H35.7715V8.56934C35.7715 8.2052 35.4764 7.91016 35.1123 7.91016H9.8877C9.52365 7.91016 9.22852 8.2052 9.22852 8.56934V9.22852H5.27344V6.5918H39.7266V9.22852ZM39.7266 5.27344H5.27344V3.95508H39.7266V5.27344ZM41.0449 1.97754C41.0449 1.61402 41.3406 1.31836 41.7041 1.31836C42.0676 1.31836 42.3633 1.61402 42.3633 1.97754V35.7715H41.0449V1.97754ZM41.7041 43.6816C40.6137 43.6816 39.7266 42.7945 39.7266 41.7041C39.7266 40.6137 40.6137 39.7266 41.7041 39.7266C42.7945 39.7266 43.6816 40.6137 43.6816 41.7041C43.6816 42.7945 42.7945 43.6816 41.7041 43.6816Z" fill="#21222F"/>
<path d="M32.4756 10.5469C32.1115 10.5469 31.8164 10.8419 31.8164 11.2061V38.4082H13.1836V34.9365C13.1836 34.5724 12.8885 34.2773 12.5244 34.2773C12.1604 34.2773 11.8652 34.5724 11.8652 34.9365V39.0674C11.8652 39.4315 12.1604 39.7266 12.5244 39.7266H32.4756C32.8397 39.7266 33.1348 39.4315 33.1348 39.0674V11.2061C33.1348 10.8419 32.8397 10.5469 32.4756 10.5469Z" fill="#21222F"/>
<path d="M12.5244 10.5469C12.1604 10.5469 11.8652 10.8419 11.8652 11.2061V32.2998C11.8652 32.6639 12.1604 32.959 12.5244 32.959C12.8885 32.959 13.1836 32.6639 13.1836 32.2998V11.2061C13.1836 10.8419 12.8885 10.5469 12.5244 10.5469Z" fill="#21222F"/>
</svg>
