<svg width="50" height="50" viewBox="0 0 50 50" fill="none" xmlns="http://www.w3.org/2000/svg">
<path d="M49.6948 46.7489L35.1702 32.2243C37.9251 28.8232 39.5834 24.4994 39.5834 19.7917C39.5834 8.87863 30.7047 0 19.7916 0C8.87853 0 0 8.87863 0 19.7917C0 30.7048 8.87863 39.5835 19.7917 39.5835C24.4994 39.5835 28.8232 37.9251 32.2243 35.1703L46.7489 49.6949C47.1559 50.1017 47.8152 50.1017 48.2222 49.6949L49.6949 48.2221C50.1017 47.8152 50.1017 47.1557 49.6948 46.7489ZM19.7917 35.4168C11.1756 35.4168 4.16671 28.4079 4.16671 19.7917C4.16671 11.1756 11.1756 4.16671 19.7917 4.16671C28.4079 4.16671 35.4168 11.1756 35.4168 19.7917C35.4168 28.4079 28.4079 35.4168 19.7917 35.4168Z" fill="white"/>
<path d="M21.3111 19.6889V14H19.6889V19.6889H14V21.3111H19.6889V27H21.3111V21.3111H27V19.6889H21.3111Z" fill="white"/>
</svg>
