<svg width="49" height="47" viewBox="0 0 49 47" fill="none" xmlns="http://www.w3.org/2000/svg">
<path fill-rule="evenodd" clip-rule="evenodd" d="M22.8866 7.13605C23.1772 6.84191 23.3169 6.68486 23.3169 6.33061C23.3169 5.97628 23.1772 5.81916 22.8866 5.52503L22.8865 5.52492C22.5702 5.20468 22.137 4.76611 22.137 3.94187C22.137 3.1176 22.5702 2.6791 22.8865 2.35894L22.8866 2.35886C23.1771 2.06457 23.3169 1.90745 23.3169 1.55312C23.3169 1.2476 23.5646 1 23.87 1C24.1755 1 24.4231 1.2476 24.4231 1.55312C24.4231 2.37736 23.9899 2.81594 23.6737 3.13618L23.6736 3.13628C23.383 3.43042 23.2432 3.58754 23.2432 3.94187C23.2432 4.29619 23.3829 4.45332 23.6736 4.7476L23.6736 4.74768C23.9899 5.06784 24.4231 5.50634 24.4231 6.33061C24.4231 7.1548 23.9899 7.5933 23.6736 7.91346L23.6736 7.91347L23.6736 7.91354C23.383 8.20768 23.2432 8.3648 23.2432 8.71905C23.2432 9.02457 22.9956 9.27218 22.6901 9.27218C22.3846 9.27218 22.137 9.02457 22.137 8.71905C22.137 7.89479 22.5702 7.45629 22.8865 7.13613L22.8866 7.13605ZM31.0658 13.0168C31.0632 12.7097 31.0624 12.3316 31.0623 11.8363L4.70702 12.2287L4.67752 12.2292L4.64812 12.2267C4.07255 12.1786 3.78049 12.2014 3.60321 12.2657C3.48027 12.3104 3.36788 12.39 3.22875 12.6567C3.03275 13.1294 2.84229 13.7834 2.67779 14.4367H7.58421C15.4342 13.2839 23.1718 13.3686 31.1133 14.3482C31.1037 14.2189 31.0959 14.0972 31.0896 13.9718C31.0714 13.7411 31.0621 13.5079 31.0621 13.2726C31.0621 13.187 31.0634 13.1018 31.0658 13.0168ZM32.7133 18.3995C32.074 17.5575 31.6187 16.655 31.3507 15.7908C24.0448 17.9132 15.1544 17.6987 7.54796 15.6367H2.40032C2.3502 15.8717 2.30774 16.0813 2.27437 16.2507C2.24726 16.3882 2.22621 16.4991 2.212 16.5752L2.2 16.6401V39.8637C2.19999 40.5449 2.35182 41.0931 2.61504 41.4981C2.87279 41.8947 3.2594 42.1896 3.80595 42.3413C11.1767 44.3875 16.104 45.3977 21.0109 45.4C25.9175 45.4023 30.8441 44.3968 38.2128 42.3415C38.9333 42.1405 39.2849 41.7539 39.4776 41.3433C39.6845 40.9022 39.7261 40.3918 39.7261 39.9445V22.0536C36.838 22.0156 34.2864 20.5835 32.7133 18.3995ZM40.9261 21.9884V39.9445C40.9261 40.4392 40.8859 41.1668 40.5639 41.853C40.2277 42.5696 39.6032 43.1995 38.5352 43.4974C31.1445 45.5588 26.0878 46.6024 21.0104 46.6C15.9333 46.5976 10.8761 45.5495 3.48495 43.4976C2.66945 43.2712 2.03332 42.8052 1.60884 42.152C1.18985 41.5073 0.999983 40.7167 1 39.8637V16.5857V16.5326L1.00933 16.4803L1.6 16.5857C1.00933 16.4803 1.00934 16.4803 1.00934 16.4803L1.00935 16.4802L1.00938 16.4801L1.00947 16.4796L1.00979 16.4778L1.01096 16.4713L1.01539 16.4469L1.0324 16.3548C1.04726 16.2753 1.06905 16.1606 1.09699 16.0187C1.15284 15.7352 1.23348 15.3423 1.33269 14.9042C1.5308 14.0294 1.81299 12.9288 2.13111 12.1711L2.13969 12.1506L2.14975 12.1309C2.38387 11.6715 2.69672 11.3182 3.19369 11.1378C3.63161 10.9788 4.14721 10.982 4.71831 11.0284L31.4667 10.6301C32.5882 7.07133 35.9147 4.49078 39.8439 4.49078C44.694 4.49078 48.6258 8.42253 48.6258 13.2726C48.6258 13.604 48.3571 13.8726 48.0258 13.8726C47.6944 13.8726 47.4258 13.604 47.4258 13.2726C47.4258 9.08527 44.0313 5.69078 39.8439 5.69078C35.7378 5.69078 32.394 8.95495 32.2659 13.03C32.2692 13.3956 32.2754 13.6531 32.287 13.8905C32.4022 15.3187 32.9132 16.6352 33.7102 17.7301C34.9889 19.3822 37.1113 20.7742 40.0675 20.8512C43.4305 20.7538 46.2459 18.4659 47.1339 15.3634C47.2251 15.0449 47.5573 14.8605 47.8759 14.9517C48.1945 15.0429 48.3788 15.3751 48.2876 15.6937C47.3325 19.0304 44.4533 21.555 40.9261 21.9884ZM11.0357 15.2142C16.8384 14.614 22.6116 14.677 28.4937 15.2632C22.9897 16.4053 16.7807 16.3297 11.0357 15.2142ZM40.793 14.4565C40.2106 14.6097 39.8705 14.4784 39.6784 14.3154C39.4672 14.1361 39.3383 13.8368 39.3383 13.507C39.3383 13.1764 39.467 12.8964 39.6639 12.7396C39.841 12.5987 40.1732 12.4788 40.765 12.6657C41.081 12.7655 41.4181 12.5902 41.5179 12.2742C41.6177 11.9582 41.4424 11.6212 41.1264 11.5214C40.2467 11.2436 39.4752 11.356 38.9165 11.8008C38.3776 12.2298 38.1383 12.8889 38.1383 13.507C38.1383 14.126 38.3774 14.7852 38.9019 15.2303C39.4457 15.6918 40.2093 15.8509 41.0984 15.6169C41.4189 15.5326 41.6103 15.2045 41.526 14.884C41.4416 14.5635 41.1135 14.3721 40.793 14.4565ZM34.6562 11.4935H34.0562V12.0935V13.5651V15.0367V15.6367H34.6562H36.67C37.0014 15.6367 37.27 15.3681 37.27 15.0367C37.27 14.7053 37.0014 14.4367 36.67 14.4367H35.2562V14.1651H36.67C37.0014 14.1651 37.27 13.8965 37.27 13.5651C37.27 13.2337 37.0014 12.9651 36.67 12.9651H35.2562V12.6935H36.67C37.0014 12.6935 37.27 12.4249 37.27 12.0935C37.27 11.7621 37.0014 11.4935 36.67 11.4935H34.6562ZM44.1313 14.4367C43.7587 14.4403 43.5387 14.3159 43.4095 14.1769C43.2716 14.0286 43.1929 13.8153 43.1962 13.581C43.1994 13.3464 43.2847 13.1235 43.4323 12.9649C43.5713 12.8154 43.792 12.6935 44.1371 12.6935C44.485 12.6935 44.7062 12.8149 44.8443 12.9617C44.9905 13.1171 45.0748 13.3352 45.078 13.5659C45.0812 13.796 45.0035 14.0095 44.8633 14.1614C44.7309 14.3048 44.5065 14.4331 44.1313 14.4367ZM44.1371 11.4935C43.4754 11.4935 42.9307 11.7421 42.5536 12.1476C42.1849 12.544 42.0032 13.0607 41.9963 13.5644C41.9893 14.0685 42.1573 14.5922 42.5305 14.9938C42.9124 15.4048 43.4679 15.6432 44.1429 15.6367C44.8153 15.6302 45.3664 15.3855 45.7451 14.9752C46.1161 14.5733 46.2849 14.0523 46.2779 13.5492C46.271 13.0465 46.0883 12.5327 45.7183 12.1394C45.3402 11.7375 44.7961 11.4935 44.1371 11.4935ZM31.6784 19.7771C31.6784 19.4458 31.4098 19.1771 31.0784 19.1771C30.747 19.1771 30.4784 19.4458 30.4784 19.7771H31.0784C30.4784 19.7771 30.4784 19.7772 30.4784 19.7773V19.7777V19.7784V19.7794V19.7808V19.7823V19.7842V19.7864V19.7888V19.7915V19.7945V19.7978V19.8014V19.8053V19.8094V19.8138V19.8185V19.8235V19.8287V19.8342V19.84V19.8461V19.8525V19.8591V19.866V19.8732V19.8806V19.8883V19.8963V19.9046V19.9131V19.9219V19.9309V19.9403V19.9498V19.9597V19.9698V19.9802V19.9909V20.0018V20.0129V20.0244V20.0361V20.048V20.0602V20.0727V20.0854V20.0984V20.1117V20.1252V20.1389V20.1529V20.1672V20.1817V20.1964V20.2115V20.2267V20.2422V20.258V20.274V20.2903V20.3068V20.3235V20.3405V20.3578V20.3752V20.393V20.4109V20.4292V20.4476V20.4663V20.4852V20.5044V20.5238V20.5435V20.5634V20.5835V20.6039V20.6244V20.6453V20.6663V20.6876V20.7092V20.7309V20.7529V20.7751V20.7976V20.8202V20.8431V20.8663V20.8896V20.9132V20.937V20.961V20.9853V21.0098V21.0345V21.0594V21.0845V21.1099V21.1354V21.1612V21.1873V21.2135V21.2399V21.2666V21.2935V21.3206V21.3479V21.3754V21.4031V21.431V21.4592V21.4876V21.5161V21.5449V21.5739V21.6031V21.6325V21.6621V21.6919V21.7219V21.7521V21.7825V21.8132V21.844V21.875V21.9062V21.9377V21.9693V22.0011V22.0331V22.0653V22.0977V22.1303V22.1631V22.1961V22.2293V22.2627V22.2962V22.33V22.3639V22.3981V22.4324V22.4669V22.5016V22.5365V22.5716V22.6068V22.6423V22.6779V22.7137V22.7497V22.7859V22.8222V22.8587V22.8954V22.9323V22.9694V23.0066V23.0441V23.0817V23.1194V23.1574V23.1955V23.2338V23.2722V23.3109V23.3497V23.3886V23.4278V23.4671V23.5066V23.5462V23.586V23.626V23.6662V23.7065V23.7469V23.7876V23.8284V23.8693V23.9104V23.9517V23.9932V24.0348V24.0765V24.1184V24.1605V24.2027V24.2451V24.2876V24.3303V24.3732V24.4161V24.4593V24.5026V24.546V24.5896V24.6334V24.6772V24.7213V24.7655V24.8098V24.8543V24.8989V24.9436V24.9885V25.0336V25.0788V25.1241V25.1696V25.2152V25.2609V25.3068V25.3528V25.399V25.4453V25.4917V25.5383V25.585V25.6318V25.6788V25.7259V25.7731V25.8204V25.8679V25.9155V25.9633V26.0112V26.0591V26.1073V26.1555V26.2039V26.2524V26.301V26.3497V26.3986V26.4476V26.4967V26.5459V26.5952V26.6447V26.6943V26.7439V26.7938V26.8437V26.8937V26.9439V26.9941V27.0445V27.095V27.1456V27.1963V27.2471V27.298V27.3491V27.4002V27.4515V27.5028V27.5543V27.6058V27.6575V27.7093V27.7611V27.8131V27.8652V27.9174V27.9696V28.022V28.0745V28.127V28.1797V28.2325V28.2853V28.3383V28.3913V28.4445V28.4977V28.551V28.6044V28.6579V28.7115V28.7652V28.819V28.8728V28.9268V28.9808V29.0349V29.0891V29.1434V29.1977V29.2522V29.3067V29.3613V29.416V29.4708V29.5256V29.5806V29.6356V29.6907V29.7458V29.801V29.8563V29.9117V29.9672V30.0227V30.0783V30.134V30.1897V30.2455V30.3014V30.3573V30.4134V30.4694V30.5256V30.5818V30.6381V30.6944V30.7508V30.8073V30.8638V30.9204V30.977V31.0337V31.0905V31.1473V31.2042V31.2611V31.3181V31.3752V31.4323V31.4894V31.5467V31.6039V31.6612V31.7186V31.776V31.8335V31.891V31.9486V32.0062V32.0638V32.1215V32.1793V32.2371V32.2949V32.3528V32.4107V32.4687V32.5267V32.5847V32.6428V32.701V32.7591V32.8173V32.8756V32.9338V32.9921V33.0505V33.1089V33.1673V33.2257V33.2842V33.3427V33.4012V33.4598V33.5184V33.577V33.6357V33.6943V33.753V33.8118V33.8705V33.9293V33.9881V34.0469V34.1058V34.1646V34.2235V34.2824V34.3414V34.4003V34.4593V34.5183V34.5772V34.6363V34.6953V34.7543V34.8134V34.8724V34.9315V34.9906V35.0497V35.1088V35.1679V35.2271V35.2862V35.3453V35.4045V35.4636V35.5228V35.5819V35.6411V35.7003V35.7594V35.8186V35.8778V35.9369V35.9961V36.0553V36.1144V36.1736V36.2328V36.2919V36.3511V36.4102V36.4693V36.5285V36.5876V36.6467V36.7058V36.7649V36.824V36.883V36.9421V37.0012V37.0602V37.1192V37.1782V37.2372V37.2962V37.3551V37.414V37.4729V37.5318V37.5907V37.6496V37.7084V37.7672V37.826V37.8848V37.9435V38.0022V38.0609V38.1196V38.1782V38.2368V38.2954V38.3539V38.4124V38.4709V38.5294V38.5878V38.6462V38.7045V38.7629V38.8211V38.8794V38.9376V38.9958V39.0539V39.112V39.1701V39.2281V39.2861V39.344V39.4019V39.4598V39.5176V39.5753V39.6331V39.6907V39.7484V39.806V39.8635V39.921V39.9784V40.0358V40.0931V40.1504V40.2076V40.2648V40.3219V40.379V40.436V40.493V40.5499V40.6067V40.6635V40.7202V40.7769V40.8335V40.89V40.9465V41.003V41.0593V41.1156V41.1719V41.228V41.2841V41.3402V41.3961V41.452V41.5079V41.5636V41.6193V41.6749V41.7305V41.786V41.8414V41.8967C30.4784 42.2281 30.747 42.4967 31.0784 42.4967C31.4098 42.4967 31.6784 42.2281 31.6784 41.8967V41.8414V41.786V41.7305V41.6749V41.6193V41.5636V41.5079V41.452V41.3961V41.3402V41.2841V41.228V41.1719V41.1156V41.0593V41.003V40.9465V40.89V40.8335V40.7769V40.7202V40.6635V40.6067V40.5499V40.493V40.436V40.379V40.3219V40.2648V40.2076V40.1504V40.0931V40.0358V39.9784V39.921V39.8635V39.806V39.7484V39.6907V39.6331V39.5753V39.5176V39.4598V39.4019V39.344V39.2861V39.2281V39.1701V39.112V39.0539V38.9958V38.9376V38.8794V38.8211V38.7629V38.7045V38.6462V38.5878V38.5294V38.4709V38.4124V38.3539V38.2954V38.2368V38.1782V38.1196V38.0609V38.0022V37.9435V37.8848V37.826V37.7672V37.7084V37.6496V37.5907V37.5318V37.4729V37.414V37.3551V37.2962V37.2372V37.1782V37.1192V37.0602V37.0012V36.9421V36.883V36.824V36.7649V36.7058V36.6467V36.5876V36.5285V36.4693V36.4102V36.3511V36.2919V36.2328V36.1736V36.1144V36.0553V35.9961V35.9369V35.8778V35.8186V35.7594V35.7003V35.6411V35.5819V35.5228V35.4636V35.4045V35.3453V35.2862V35.2271V35.1679V35.1088V35.0497V34.9906V34.9315V34.8724V34.8134V34.7543V34.6953V34.6363V34.5772V34.5183V34.4593V34.4003V34.3414V34.2824V34.2235V34.1646V34.1058V34.0469V33.9881V33.9293V33.8705V33.8118V33.753V33.6943V33.6357V33.577V33.5184V33.4598V33.4012V33.3427V33.2842V33.2257V33.1673V33.1089V33.0505V32.9921V32.9338V32.8756V32.8173V32.7591V32.701V32.6428V32.5847V32.5267V32.4687V32.4107V32.3528V32.2949V32.2371V32.1793V32.1215V32.0638V32.0062V31.9486V31.891V31.8335V31.776V31.7186V31.6612V31.6039V31.5467V31.4894V31.4323V31.3752V31.3181V31.2611V31.2042V31.1473V31.0905V31.0337V30.977V30.9204V30.8638V30.8073V30.7508V30.6944V30.6381V30.5818V30.5256V30.4694V30.4134V30.3573V30.3014V30.2455V30.1897V30.134V30.0783V30.0227V29.9672V29.9117V29.8563V29.801V29.7458V29.6907V29.6356V29.5806V29.5256V29.4708V29.416V29.3613V29.3067V29.2522V29.1977V29.1434V29.0891V29.0349V28.9808V28.9268V28.8728V28.819V28.7652V28.7115V28.6579V28.6044V28.551V28.4977V28.4445V28.3913V28.3383V28.2853V28.2325V28.1797V28.127V28.0745V28.022V27.9696V27.9174V27.8652V27.8131V27.7611V27.7093V27.6575V27.6058V27.5543V27.5028V27.4515V27.4002V27.3491V27.298V27.2471V27.1963V27.1456V27.095V27.0445V26.9941V26.9439V26.8937V26.8437V26.7938V26.7439V26.6943V26.6447V26.5952V26.5459V26.4967V26.4476V26.3986V26.3497V26.301V26.2524V26.2039V26.1555V26.1073V26.0591V26.0112V25.9633V25.9155V25.8679V25.8204V25.7731V25.7259V25.6788V25.6318V25.585V25.5383V25.4917V25.4453V25.399V25.3528V25.3068V25.2609V25.2152V25.1696V25.1241V25.0788V25.0336V24.9885V24.9436V24.8989V24.8543V24.8098V24.7655V24.7213V24.6772V24.6334V24.5896V24.546V24.5026V24.4593V24.4161V24.3732V24.3303V24.2876V24.2451V24.2027V24.1605V24.1184V24.0765V24.0348V23.9932V23.9517V23.9104V23.8693V23.8284V23.7876V23.7469V23.7065V23.6662V23.626V23.586V23.5462V23.5066V23.4671V23.4278V23.3886V23.3497V23.3109V23.2722V23.2338V23.1955V23.1574V23.1194V23.0817V23.0441V23.0066V22.9694V22.9323V22.8954V22.8587V22.8222V22.7859V22.7497V22.7137V22.6779V22.6423V22.6068V22.5716V22.5365V22.5016V22.4669V22.4324V22.3981V22.3639V22.33V22.2962V22.2627V22.2293V22.1961V22.1631V22.1303V22.0977V22.0653V22.0331V22.0011V21.9693V21.9377V21.9062V21.875V21.844V21.8132V21.7825V21.7521V21.7219V21.6919V21.6621V21.6325V21.6031V21.5739V21.5449V21.5161V21.4876V21.4592V21.431V21.4031V21.3754V21.3479V21.3206V21.2935V21.2666V21.2399V21.2135V21.1873V21.1612V21.1354V21.1099V21.0845V21.0594V21.0345V21.0098V20.9853V20.961V20.937V20.9132V20.8896V20.8663V20.8431V20.8202V20.7976V20.7751V20.7529V20.7309V20.7092V20.6876V20.6663V20.6453V20.6244V20.6039V20.5835V20.5634V20.5435V20.5238V20.5044V20.4852V20.4663V20.4476V20.4292V20.4109V20.393V20.3752V20.3578V20.3405V20.3235V20.3068V20.2903V20.274V20.258V20.2422V20.2267V20.2115V20.1964V20.1817V20.1672V20.1529V20.1389V20.1252V20.1117V20.0984V20.0854V20.0727V20.0602V20.048V20.0361V20.0244V20.0129V20.0018V19.9909V19.9802V19.9698V19.9597V19.9498V19.9403V19.9309V19.9219V19.9131V19.9046V19.8963V19.8883V19.8806V19.8732V19.866V19.8591V19.8525V19.8461V19.84V19.8342V19.8287V19.8235V19.8185V19.8138V19.8094V19.8053V19.8014V19.7978V19.7945V19.7915V19.7888V19.7864V19.7842V19.7823V19.7808V19.7794V19.7784V19.7777V19.7773C31.6784 19.7772 31.6784 19.7771 31.0784 19.7771H31.6784ZM16.4099 20.8C16.4099 20.4686 16.1413 20.2 15.8099 20.2C15.4786 20.2 15.2099 20.4686 15.2099 20.8V42.9195C15.2099 43.2509 15.4786 43.5196 15.8099 43.5196C16.1413 43.5196 16.4099 43.2509 16.4099 42.9195V20.8ZM21.5236 20.8C21.5236 20.4686 21.2549 20.2 20.9236 20.2C20.5922 20.2 20.3236 20.4686 20.3236 20.8V42.9195C20.3236 43.2509 20.5922 43.5196 20.9236 43.5196C21.2549 43.5196 21.5236 43.2509 21.5236 42.9195V20.8ZM26.6372 20.8C26.6372 20.4686 26.3686 20.2 26.0372 20.2C25.7058 20.2 25.4372 20.4686 25.4372 20.8V42.9195C25.4372 43.2509 25.7058 43.5196 26.0372 43.5196C26.3686 43.5196 26.6372 43.2509 26.6372 42.9195V20.8ZM16.4785 6.33061C16.4785 6.68486 16.3388 6.84191 16.0482 7.13605L16.0481 7.13613C15.7318 7.45629 15.2986 7.89479 15.2986 8.71905C15.2986 9.02457 15.5462 9.27218 15.8517 9.27218C16.1573 9.27218 16.4049 9.02457 16.4049 8.71905C16.4049 8.3648 16.5446 8.20768 16.8352 7.91354L16.8352 7.91347C17.1515 7.59331 17.5847 7.1548 17.5847 6.33061C17.5847 5.50635 17.1515 5.06785 16.8353 4.74768L16.8352 4.7476C16.5445 4.45332 16.4049 4.29619 16.4049 3.94187C16.4049 3.58754 16.5446 3.43042 16.8352 3.13628L16.8353 3.13618C17.1516 2.81594 17.5847 2.37736 17.5847 1.55312C17.5847 1.2476 17.3371 1 17.0316 1C16.7262 1 16.4785 1.2476 16.4785 1.55312C16.4785 1.90745 16.3388 2.06457 16.0482 2.35886L16.0481 2.35894C15.7318 2.6791 15.2986 3.1176 15.2986 3.94187C15.2986 4.76611 15.7318 5.20468 16.0481 5.52492L16.0482 5.52503C16.3388 5.81916 16.4785 5.97628 16.4785 6.33061ZM11.2 20C11.2 19.6686 10.9314 19.4 10.6 19.4C10.2686 19.4 10 19.6686 10 20V24C10 24.3313 10.2686 24.6 10.6 24.6C10.9314 24.6 11.2 24.3313 11.2 24V20ZM10.6 25.4C10.9314 25.4 11.2 25.6686 11.2 26V42C11.2 42.3313 10.9314 42.6 10.6 42.6C10.2686 42.6 10 42.3313 10 42V26C10 25.6686 10.2686 25.4 10.6 25.4Z" fill="#21222F"/>
<path d="M22.8866 7.13605L22.7799 7.03061L22.7795 7.03096L22.8866 7.13605ZM22.8866 5.52503L22.9933 5.41959L22.9926 5.41896L22.8866 5.52503ZM22.8865 5.52492L22.7797 5.63033L22.7804 5.63098L22.8865 5.52492ZM22.137 3.94187L21.987 3.94187V3.94187H22.137ZM22.8865 2.35894L22.7807 2.25262L22.7798 2.25352L22.8865 2.35894ZM22.8866 2.35886L22.9924 2.46518L22.9933 2.46425L22.8866 2.35886ZM23.6737 3.13618L23.7801 3.24189L23.7804 3.24158L23.6737 3.13618ZM23.6736 3.13628L23.5671 3.03058L23.5668 3.03087L23.6736 3.13628ZM23.6736 4.7476L23.7806 4.64255L23.7803 4.6422L23.6736 4.7476ZM23.6736 4.74768L23.5666 4.85273L23.5669 4.8531L23.6736 4.74768ZM23.6736 7.91346L23.7636 8.03346L23.7725 8.02679L23.7803 8.01888L23.6736 7.91346ZM23.6736 7.91347L23.5836 7.79347L23.5751 7.79986L23.5676 7.8074L23.6736 7.91347ZM23.6736 7.91354L23.5675 7.80748L23.5668 7.80813L23.6736 7.91354ZM22.8865 7.13613L22.9932 7.24154L22.9935 7.24121L22.8865 7.13613ZM31.0658 13.0168L31.2158 13.0211L31.2158 13.0156L31.0658 13.0168ZM31.0623 11.8363L31.2123 11.8362L31.2122 11.684L31.06 11.6863L31.0623 11.8363ZM4.70702 12.2287L4.70479 12.0788L4.70479 12.0788L4.70702 12.2287ZM4.67752 12.2292L4.66503 12.3787L4.67238 12.3793L4.67976 12.3792L4.67752 12.2292ZM4.64812 12.2267L4.63563 12.3762L4.63563 12.3762L4.64812 12.2267ZM3.60321 12.2657L3.6544 12.4067L3.6544 12.4067L3.60321 12.2657ZM3.22875 12.6567L3.09525 12.587L3.09019 12.5992L3.22875 12.6567ZM2.67779 14.4367L2.53233 14.4001L2.48534 14.5867H2.67779V14.4367ZM7.58421 14.4367V14.5867H7.59517L7.60601 14.5851L7.58421 14.4367ZM31.1133 14.3482L31.095 14.4971L31.2765 14.5195L31.2629 14.3371L31.1133 14.3482ZM31.0896 13.9718L31.2394 13.9642L31.2391 13.96L31.0896 13.9718ZM32.7133 18.3995L32.835 18.3118L32.8328 18.3088L32.7133 18.3995ZM31.3507 15.7908L31.494 15.7463L31.4504 15.6056L31.3089 15.6467L31.3507 15.7908ZM7.54796 15.6367L7.5872 15.4919L7.56793 15.4867H7.54796V15.6367ZM2.40032 15.6367V15.4867H2.27894L2.25362 15.6054L2.40032 15.6367ZM2.27437 16.2507L2.12719 16.2217L2.12719 16.2217L2.27437 16.2507ZM2.212 16.5752L2.06455 16.5476L2.06449 16.5479L2.212 16.5752ZM2.2 16.6401L2.0525 16.6128L2.05 16.6263V16.6401H2.2ZM2.2 39.8637L2.35 39.8637V39.8637H2.2ZM2.61504 41.4981L2.74082 41.4164L2.74081 41.4164L2.61504 41.4981ZM3.80595 42.3413L3.76583 42.4858L3.76583 42.4858L3.80595 42.3413ZM21.0109 45.4L21.0109 45.55L21.0109 45.55L21.0109 45.4ZM38.2128 42.3415L38.1725 42.197L38.1725 42.197L38.2128 42.3415ZM39.4776 41.3433L39.6134 41.407L39.6134 41.407L39.4776 41.3433ZM39.7261 22.0536H39.8761V21.9056L39.7281 21.9036L39.7261 22.0536ZM40.9261 21.9884L40.9078 21.8395L40.7761 21.8557V21.9884H40.9261ZM40.5639 41.853L40.6997 41.9167L40.6997 41.9167L40.5639 41.853ZM38.5352 43.4974L38.4949 43.3529L38.4949 43.3529L38.5352 43.4974ZM21.0104 46.6L21.0103 46.75L21.0103 46.75L21.0104 46.6ZM3.48495 43.4976L3.44483 43.6421L3.44483 43.6421L3.48495 43.4976ZM1.60884 42.152L1.48307 42.2338L1.48307 42.2338L1.60884 42.152ZM1 39.8637L1.15 39.8637V39.8637H1ZM1 16.5326L0.852334 16.5063L0.85 16.5193V16.5326H1ZM1.00933 16.4803L1.03569 16.3327L0.888025 16.3063L0.861668 16.454L1.00933 16.4803ZM1.00934 16.4803L1.15609 16.5122L1.1573 16.5049L1.00934 16.4803ZM1.00935 16.4802L0.861768 16.4533L0.861393 16.4556L1.00935 16.4802ZM1.00938 16.4801L1.15695 16.507L1.15708 16.5062L1.00938 16.4801ZM1.00947 16.4796L0.861832 16.4531L0.861774 16.4534L1.00947 16.4796ZM1.00979 16.4778L0.86216 16.4512L0.862149 16.4513L1.00979 16.4778ZM1.01096 16.4713L0.863368 16.4445L0.863326 16.4447L1.01096 16.4713ZM1.01539 16.4469L0.867885 16.4196L0.8678 16.4201L1.01539 16.4469ZM1.0324 16.3548L0.884948 16.3273L0.884896 16.3276L1.0324 16.3548ZM1.09699 16.0187L1.24417 16.0477L1.24417 16.0477L1.09699 16.0187ZM1.33269 14.9042L1.1864 14.871L1.1864 14.871L1.33269 14.9042ZM2.13111 12.1711L2.26942 12.2291L2.26942 12.2291L2.13111 12.1711ZM2.13969 12.1506L2.00568 12.0823L2.00138 12.0926L2.13969 12.1506ZM2.14975 12.1309L2.28339 12.199L2.28339 12.199L2.14975 12.1309ZM3.19369 11.1378L3.1425 10.9968L3.1425 10.9968L3.19369 11.1378ZM4.71831 11.0284L4.70616 11.1779L4.71334 11.1785L4.72055 11.1784L4.71831 11.0284ZM31.4667 10.6301L31.4689 10.7801L31.5772 10.7785L31.6097 10.6752L31.4667 10.6301ZM32.2659 13.03L32.1159 13.0253L32.1159 13.0313L32.2659 13.03ZM32.287 13.8905L32.1371 13.8978L32.1374 13.9026L32.287 13.8905ZM33.7102 17.7301L33.5889 17.8184L33.5916 17.8219L33.7102 17.7301ZM40.0675 20.8512L40.0636 21.0013L40.0718 21.0011L40.0675 20.8512ZM47.1339 15.3634L47.2782 15.4047L47.2782 15.4047L47.1339 15.3634ZM47.8759 14.9517L47.8346 15.0959L47.8346 15.0959L47.8759 14.9517ZM48.2876 15.6937L48.4318 15.7349L48.4318 15.7349L48.2876 15.6937ZM11.0357 15.2142L11.0203 15.065L11.0071 15.3614L11.0357 15.2142ZM28.4937 15.2632L28.5241 15.41L28.5085 15.1139L28.4937 15.2632ZM39.6784 14.3154L39.7755 14.2011L39.7755 14.2011L39.6784 14.3154ZM40.793 14.4565L40.7549 14.3114L40.7549 14.3114L40.793 14.4565ZM39.6639 12.7396L39.5704 12.6223L39.5704 12.6223L39.6639 12.7396ZM40.765 12.6657L40.8102 12.5226L40.8102 12.5226L40.765 12.6657ZM41.5179 12.2742L41.3748 12.229L41.3748 12.229L41.5179 12.2742ZM41.1264 11.5214L41.1716 11.3783L41.1716 11.3783L41.1264 11.5214ZM38.9165 11.8008L38.8231 11.6834L38.8231 11.6834L38.9165 11.8008ZM38.9019 15.2303L38.999 15.116L38.999 15.116L38.9019 15.2303ZM41.0984 15.6169L41.0602 15.4719L41.0602 15.4719L41.0984 15.6169ZM41.526 14.884L41.3809 14.9222L41.3809 14.9222L41.526 14.884ZM34.0562 11.4935V11.3435H33.9062V11.4935H34.0562ZM34.0562 15.6367H33.9062V15.7867H34.0562V15.6367ZM35.2562 14.4367H35.1062V14.5867H35.2562V14.4367ZM35.2562 14.1651V14.0151H35.1062V14.1651H35.2562ZM35.2562 12.9651H35.1062V13.1151H35.2562V12.9651ZM35.2562 12.6935V12.5435H35.1062V12.6935H35.2562ZM43.4095 14.1769L43.2996 14.279L43.2996 14.279L43.4095 14.1769ZM44.1313 14.4367L44.1299 14.2867L44.1299 14.2867L44.1313 14.4367ZM43.1962 13.581L43.0462 13.5789L43.0462 13.5789L43.1962 13.581ZM43.4323 12.9649L43.3224 12.8627L43.3224 12.8627L43.4323 12.9649ZM44.8443 12.9617L44.9536 12.8589L44.9536 12.8589L44.8443 12.9617ZM45.078 13.5659L45.228 13.5638L45.228 13.5638L45.078 13.5659ZM44.8633 14.1614L44.7531 14.0596L44.7531 14.0596L44.8633 14.1614ZM42.5536 12.1476L42.6634 12.2498L42.6634 12.2498L42.5536 12.1476ZM41.9963 13.5644L42.1463 13.5665L42.1463 13.5665L41.9963 13.5644ZM42.5305 14.9938L42.4206 15.0959L42.4206 15.0959L42.5305 14.9938ZM44.1429 15.6367L44.1415 15.4867L44.1415 15.4867L44.1429 15.6367ZM45.7451 14.9752L45.6349 14.8735L45.6349 14.8735L45.7451 14.9752ZM46.2779 13.5492L46.1279 13.5513L46.1279 13.5513L46.2779 13.5492ZM45.7183 12.1394L45.6091 12.2422L45.6091 12.2422L45.7183 12.1394ZM31.6784 19.7771V19.9271H31.8284V19.7771H31.6784ZM30.4784 19.7771H30.3284V19.9271H30.4784V19.7771ZM16.0482 7.13605L15.9415 7.03061L15.9412 7.03096L16.0482 7.13605ZM16.4785 6.33061L16.6285 6.33061V6.33061H16.4785ZM16.0481 7.13613L16.1548 7.24154L16.1551 7.24121L16.0481 7.13613ZM16.8352 7.91354L16.9419 8.01896L16.9422 8.0186L16.8352 7.91354ZM16.8352 7.91347L16.7285 7.80805L16.7282 7.80842L16.8352 7.91347ZM17.5847 6.33061L17.7347 6.33061V6.33061H17.5847ZM16.8353 4.74768L16.942 4.64226L16.9418 4.64211L16.8353 4.74768ZM16.8352 4.7476L16.7285 4.85301L16.7286 4.85318L16.8352 4.7476ZM16.8352 3.13628L16.9419 3.2417L16.942 3.24163L16.8352 3.13628ZM16.8353 3.13618L16.7286 3.03077L16.7285 3.03084L16.8353 3.13618ZM16.0482 2.35886L15.9414 2.25347L15.9414 2.25351L16.0482 2.35886ZM16.0481 2.35894L16.1548 2.46436L16.1549 2.46428L16.0481 2.35894ZM16.0481 5.52492L16.1548 5.41954L16.1548 5.41951L16.0481 5.52492ZM16.0482 5.52503L15.9414 5.63041L15.9415 5.63046L16.0482 5.52503ZM23.1669 6.33061C23.1669 6.48461 23.1374 6.58531 23.0816 6.67944C23.0214 6.78115 22.9276 6.8811 22.7799 7.03062L22.9933 7.24148C23.1362 7.09686 23.2575 6.97121 23.3398 6.83231C23.4265 6.68582 23.4669 6.53087 23.4669 6.33061H23.1669ZM22.7799 5.63046C22.9276 5.77997 23.0214 5.87993 23.0816 5.98167C23.1374 6.07583 23.1669 6.17657 23.1669 6.33061H23.4669C23.4669 6.13032 23.4265 5.97534 23.3398 5.82883C23.2575 5.68989 23.1362 5.56422 22.9933 5.4196L22.7799 5.63046ZM22.7804 5.63098L22.7805 5.63109L22.9926 5.41896L22.9925 5.41885L22.7804 5.63098ZM21.987 3.94187C21.987 4.83054 22.4605 5.30708 22.7797 5.63032L22.9932 5.41951C22.6799 5.10228 22.287 4.70167 22.287 3.94187H21.987ZM22.7798 2.25352C22.4605 2.57669 21.987 3.05315 21.987 3.94187L22.287 3.94187C22.287 3.18204 22.6799 2.78151 22.9932 2.46436L22.7798 2.25352ZM22.7807 2.25255L22.7807 2.25262L22.9923 2.46525L22.9924 2.46517L22.7807 2.25255ZM23.1669 1.55312C23.1669 1.70714 23.1374 1.80789 23.0816 1.90209C23.0214 2.00387 22.9275 2.10387 22.7798 2.25347L22.9933 2.46425C23.1362 2.31957 23.2575 2.19386 23.3398 2.05492C23.4265 1.9084 23.4669 1.75343 23.4669 1.55312H23.1669ZM23.87 0.85C23.4817 0.85 23.1669 1.16475 23.1669 1.55312H23.4669C23.4669 1.33046 23.6474 1.15 23.87 1.15V0.85ZM24.5731 1.55312C24.5731 1.16476 24.2584 0.85 23.87 0.85V1.15C24.0927 1.15 24.2731 1.33045 24.2731 1.55312H24.5731ZM23.7804 3.24158C24.0996 2.91834 24.5731 2.4418 24.5731 1.55312H24.2731C24.2731 2.31293 23.8803 2.71354 23.5669 3.03077L23.7804 3.24158ZM23.78 3.24199L23.7801 3.24189L23.5672 3.03047L23.5671 3.03058L23.78 3.24199ZM23.3932 3.94187C23.3932 3.78784 23.4227 3.6871 23.4785 3.59293C23.5388 3.49118 23.6326 3.39122 23.7803 3.2417L23.5668 3.03087C23.424 3.17548 23.3026 3.30115 23.2204 3.44008C23.1336 3.58658 23.0932 3.74156 23.0932 3.94187H23.3932ZM23.7803 4.6422C23.6325 4.49261 23.5387 4.39261 23.4785 4.29084C23.4227 4.19665 23.3932 4.0959 23.3932 3.94187H23.0932C23.0932 4.14216 23.1336 4.29714 23.2203 4.44366C23.3026 4.58261 23.4239 4.70832 23.5668 4.85301L23.7803 4.6422ZM23.7807 4.64263L23.7806 4.64255L23.5665 4.85266L23.5666 4.85273L23.7807 4.64263ZM24.5731 6.33061C24.5731 5.4419 24.0996 4.96543 23.7803 4.64226L23.5669 4.8531C23.8802 5.17026 24.2731 5.57079 24.2731 6.33061H24.5731ZM23.7803 8.01888C24.0996 7.69572 24.5731 7.21925 24.5731 6.33061H24.2731C24.2731 7.09035 23.8802 7.49089 23.5669 7.80804L23.7803 8.01888ZM23.7636 8.03347L23.7636 8.03346L23.5836 7.79346L23.5836 7.79347L23.7636 8.03347ZM23.7796 8.01961L23.7797 8.01953L23.5676 7.8074L23.5675 7.80748L23.7796 8.01961ZM23.3932 8.71905C23.3932 8.56507 23.4227 8.46435 23.4785 8.37019C23.5388 8.26845 23.6326 8.16848 23.7803 8.01896L23.5668 7.80813C23.424 7.95274 23.3026 8.07841 23.2204 8.21732C23.1336 8.36382 23.0932 8.51878 23.0932 8.71905H23.3932ZM22.6901 9.42218C23.0784 9.42218 23.3932 9.10743 23.3932 8.71905H23.0932C23.0932 8.94172 22.9127 9.12218 22.6901 9.12218V9.42218ZM21.987 8.71905C21.987 9.10741 22.3018 9.42218 22.6901 9.42218V9.12218C22.4674 9.12218 22.287 8.94173 22.287 8.71905H21.987ZM22.7798 7.03071C22.4605 7.35388 21.987 7.83034 21.987 8.71905H22.287C22.287 7.95923 22.6799 7.5587 22.9932 7.24154L22.7798 7.03071ZM22.7795 7.03096L22.7795 7.03104L22.9935 7.24121L22.9936 7.24113L22.7795 7.03096ZM31.2158 13.0156C31.2132 12.7091 31.2124 12.3316 31.2123 11.8362L30.9123 11.8363C30.9124 12.3317 30.9132 12.7103 30.9158 13.0181L31.2158 13.0156ZM31.06 11.6863L4.70479 12.0788L4.70926 12.3787L31.0645 11.9862L31.06 11.6863ZM4.70479 12.0788L4.67529 12.0792L4.67976 12.3792L4.70926 12.3787L4.70479 12.0788ZM4.69001 12.0797L4.66061 12.0772L4.63563 12.3762L4.66503 12.3787L4.69001 12.0797ZM4.66061 12.0772C4.08451 12.0291 3.76299 12.0481 3.55202 12.1247L3.6544 12.4067C3.79799 12.3546 4.0606 12.3281 4.63563 12.3762L4.66061 12.0772ZM3.55202 12.1247C3.47477 12.1528 3.39663 12.1939 3.3178 12.2701C3.24139 12.344 3.1697 12.4456 3.09577 12.5873L3.36174 12.7261C3.42693 12.6011 3.481 12.5296 3.52631 12.4858C3.56919 12.4443 3.60872 12.4233 3.6544 12.4067L3.55202 12.1247ZM3.09019 12.5992C2.88983 13.0824 2.69724 13.7452 2.53233 14.4001L2.82325 14.4733C2.98734 13.8217 3.17566 13.1763 3.36732 12.7141L3.09019 12.5992ZM2.67779 14.5867H7.58421V14.2867H2.67779V14.5867ZM7.60601 14.5851C15.4405 13.4346 23.1644 13.5189 31.095 14.4971L31.1317 14.1993C23.1792 13.2184 15.4279 13.1332 7.56242 14.2883L7.60601 14.5851ZM31.2629 14.3371C31.2534 14.2087 31.2456 14.0882 31.2394 13.9642L30.9398 13.9794C30.9462 14.1061 30.9541 14.229 30.9638 14.3593L31.2629 14.3371ZM31.2391 13.96C31.2212 13.7333 31.2121 13.504 31.2121 13.2726H30.9121C30.9121 13.5119 30.9215 13.749 30.94 13.9836L31.2391 13.96ZM31.2121 13.2726C31.2121 13.1885 31.2133 13.1047 31.2157 13.0211L30.9158 13.0126C30.9134 13.0989 30.9121 13.1856 30.9121 13.2726H31.2121ZM32.8328 18.3088C32.2037 17.4803 31.7567 16.5934 31.494 15.7463L31.2075 15.8352C31.4808 16.7167 31.9443 17.6347 32.5938 18.4902L32.8328 18.3088ZM31.3089 15.6467C24.0334 17.7604 15.1713 17.5478 7.5872 15.4919L7.50871 15.7815C15.1376 17.8495 24.0563 18.0661 31.3926 15.9348L31.3089 15.6467ZM7.54796 15.4867H2.40032V15.7867H7.54796V15.4867ZM2.25362 15.6054C2.20332 15.8413 2.16069 16.0516 2.12719 16.2217L2.42154 16.2796C2.45478 16.1109 2.49709 15.9021 2.54703 15.668L2.25362 15.6054ZM2.12719 16.2217C2.09999 16.3598 2.07884 16.4711 2.06455 16.5476L2.35945 16.6027C2.37358 16.527 2.39454 16.4167 2.42154 16.2796L2.12719 16.2217ZM2.06449 16.5479L2.0525 16.6128L2.3475 16.6673L2.3595 16.6024L2.06449 16.5479ZM2.05 16.6401V39.8637H2.35V16.6401H2.05ZM2.05 39.8637C2.04999 40.5664 2.20659 41.1449 2.48927 41.5799L2.74081 41.4164C2.49705 41.0413 2.34999 40.5234 2.35 39.8637L2.05 39.8637ZM2.48927 41.5799C2.76784 42.0085 3.18563 42.3248 3.76583 42.4858L3.84608 42.1968C3.33317 42.0544 2.97773 41.781 2.74082 41.4164L2.48927 41.5799ZM3.76583 42.4858C11.1391 44.5328 16.0827 45.5477 21.0109 45.55L21.011 45.25C16.1254 45.2477 11.2143 44.2423 3.84608 42.1968L3.76583 42.4858ZM21.0109 45.55C25.9388 45.5523 30.8816 44.542 38.2531 42.486L38.1725 42.197C30.8065 44.2515 25.8962 45.2523 21.011 45.25L21.0109 45.55ZM38.2531 42.486C39.017 42.2729 39.4027 41.8559 39.6134 41.407L39.3418 41.2795C39.167 41.6519 38.8496 42.0081 38.1725 42.197L38.2531 42.486ZM39.6134 41.407C39.8347 40.9352 39.8761 40.3976 39.8761 39.9445H39.5761C39.5761 40.3859 39.5343 40.8692 39.3418 41.2795L39.6134 41.407ZM39.8761 39.9445V22.0536H39.5761V39.9445H39.8761ZM39.7281 21.9036C36.8895 21.8663 34.3815 20.4589 32.835 18.3119L32.5916 18.4872C34.1913 20.7081 36.7866 22.165 39.7241 22.2036L39.7281 21.9036ZM40.7761 21.9884V39.9445H41.0761V21.9884H40.7761ZM40.7761 39.9445C40.7761 40.4332 40.7357 41.1337 40.4281 41.7893L40.6997 41.9167C41.036 41.1999 41.0761 40.4453 41.0761 39.9445H40.7761ZM40.4281 41.7893C40.1098 42.4676 39.5194 43.0671 38.4949 43.3529L38.5755 43.6419C39.687 43.3318 40.3455 42.6715 40.6997 41.9167L40.4281 41.7893ZM38.4949 43.3529C31.107 45.4135 26.0665 46.4524 21.0104 46.45L21.0103 46.75C26.109 46.7524 31.1821 45.704 38.5755 43.6419L38.4949 43.3529ZM21.0104 46.45C15.9546 46.4477 10.9136 45.4042 3.52508 43.353L3.44483 43.6421C10.8385 45.6947 15.912 46.7476 21.0103 46.75L21.0104 46.45ZM3.52508 43.353C2.74317 43.136 2.13824 42.6914 1.73462 42.0703L1.48307 42.2338C1.92839 42.919 2.59572 43.4064 3.44483 43.6421L3.52508 43.353ZM1.73462 42.0703C1.33511 41.4555 1.14998 40.6952 1.15 39.8637L0.85 39.8637C0.849982 40.7381 1.04459 41.559 1.48307 42.2338L1.73462 42.0703ZM1.15 39.8637V16.5857H0.85V39.8637H1.15ZM1.15 16.5857V16.5326H0.85V16.5857H1.15ZM1.14767 16.559L1.157 16.5067L0.861668 16.454L0.852334 16.5063L1.14767 16.559ZM0.982979 16.628L1.57365 16.7334L1.62636 16.4381L1.03569 16.3327L0.982979 16.628ZM1.62636 16.4381C1.33102 16.3854 1.18336 16.359 1.10954 16.3458C1.07262 16.3392 1.05419 16.3359 1.045 16.3343C1.04037 16.3335 1.03819 16.3331 1.03719 16.3329C1.03654 16.3328 1.03677 16.3328 1.03723 16.3329C1.03739 16.3329 1.03776 16.333 1.03824 16.3331C1.03855 16.3332 1.03976 16.3334 1.04131 16.3337C1.04208 16.3339 1.04366 16.3342 1.04564 16.3347C1.04698 16.3351 1.05179 16.3363 1.05779 16.3383C1.0608 16.3394 1.0667 16.3415 1.07381 16.3448C1.07972 16.3477 1.0945 16.355 1.10999 16.3691C1.12801 16.3854 1.14965 16.4133 1.15694 16.4536C1.15881 16.4677 1.15906 16.4895 1.15841 16.497C1.15736 16.5046 1.15592 16.5121 1.15592 16.5122L0.862766 16.4484C0.862764 16.4484 0.861328 16.456 0.860279 16.4635C0.859625 16.4711 0.859871 16.4929 0.861741 16.507C0.869035 16.5473 0.890675 16.5752 0.908691 16.5915C0.924187 16.6055 0.938964 16.6129 0.944871 16.6157C0.95199 16.6191 0.957885 16.6212 0.960895 16.6222C0.966901 16.6243 0.971714 16.6255 0.973055 16.6258C0.975048 16.6263 0.976634 16.6267 0.977407 16.6268C0.978975 16.6272 0.980213 16.6274 0.980565 16.6275C0.981087 16.6276 0.981511 16.6277 0.98174 16.6277C0.98249 16.6279 0.983292 16.628 0.983799 16.6281C0.985102 16.6283 0.987537 16.6288 0.992133 16.6296C1.0014 16.6313 1.01989 16.6346 1.0568 16.6412C1.13064 16.6543 1.27831 16.6807 1.57365 16.7334L1.62636 16.4381ZM1.1573 16.5049L1.15731 16.5049L0.861393 16.4556L0.861383 16.4556L1.1573 16.5049ZM1.15692 16.5071L1.15695 16.507L0.861815 16.4532L0.861785 16.4533L1.15692 16.5071ZM1.15708 16.5062L1.15717 16.5057L0.861774 16.4534L0.861683 16.4539L1.15708 16.5062ZM1.15711 16.5061L1.15743 16.5043L0.862149 16.4513L0.861832 16.4531L1.15711 16.5061ZM1.15742 16.5043L1.15859 16.4979L0.863326 16.4447L0.86216 16.4512L1.15742 16.5043ZM1.15854 16.4981L1.16298 16.4737L0.8678 16.4201L0.863368 16.4445L1.15854 16.4981ZM1.16289 16.4741L1.1799 16.3821L0.884896 16.3276L0.867886 16.4196L1.16289 16.4741ZM1.17985 16.3824C1.19463 16.3033 1.21633 16.189 1.24417 16.0477L0.949823 15.9897C0.921773 16.1321 0.89989 16.2473 0.884948 16.3273L1.17985 16.3824ZM1.24417 16.0477C1.29981 15.7652 1.38016 15.3737 1.47899 14.9373L1.1864 14.871C1.0868 15.3108 1.00587 15.7052 0.949823 15.9897L1.24417 16.0477ZM1.47899 14.9373C1.67705 14.0628 1.95687 12.9736 2.26942 12.2291L1.99281 12.113C1.66911 12.884 1.38455 13.9961 1.1864 14.871L1.47899 14.9373ZM2.26942 12.2291L2.27799 12.2087L2.00138 12.0926L1.99281 12.113L2.26942 12.2291ZM2.27333 12.2187L2.28339 12.199L2.0161 12.0628L2.00604 12.0825L2.27333 12.2187ZM2.28339 12.199C2.5063 11.7616 2.79444 11.4423 3.24488 11.2788L3.1425 10.9968C2.599 11.1941 2.26145 11.5813 2.0161 12.0628L2.28339 12.199ZM3.24488 11.2788C3.6498 11.1317 4.13679 11.1317 4.70616 11.1779L4.73047 10.8789C4.15764 10.8324 3.61343 10.8258 3.1425 10.9968L3.24488 11.2788ZM4.72055 11.1784L31.4689 10.7801L31.4644 10.4801L4.71608 10.8785L4.72055 11.1784ZM31.6097 10.6752C32.7121 7.17707 35.982 4.64078 39.8439 4.64078V4.34078C35.8473 4.34078 32.4642 6.9656 31.3236 10.585L31.6097 10.6752ZM39.8439 4.64078C44.6112 4.64078 48.4758 8.50537 48.4758 13.2726H48.7758C48.7758 8.33969 44.7768 4.34078 39.8439 4.34078V4.64078ZM48.4758 13.2726C48.4758 13.5211 48.2743 13.7226 48.0258 13.7226V14.0226C48.44 14.0226 48.7758 13.6868 48.7758 13.2726H48.4758ZM48.0258 13.7226C47.7772 13.7226 47.5758 13.5211 47.5758 13.2726H47.2758C47.2758 13.6868 47.6115 14.0226 48.0258 14.0226V13.7226ZM47.5758 13.2726C47.5758 9.00243 44.1141 5.54078 39.8439 5.54078V5.84078C43.9484 5.84078 47.2758 9.16812 47.2758 13.2726H47.5758ZM39.8439 5.54078C35.6565 5.54078 32.2466 8.86952 32.116 13.0253L32.4159 13.0347C32.5414 9.04037 35.8191 5.84078 39.8439 5.84078V5.54078ZM32.1159 13.0313C32.1192 13.398 32.1254 13.6576 32.1371 13.8978L32.4368 13.8832C32.4254 13.6486 32.4192 13.3933 32.4159 13.0286L32.1159 13.0313ZM32.1374 13.9026C32.2549 15.3592 32.7761 16.7018 33.5889 17.8183L33.8315 17.6418C33.0502 16.5686 32.5494 15.2783 32.4365 13.8785L32.1374 13.9026ZM33.5916 17.8219C34.8951 19.506 37.058 20.9229 40.0636 21.0011L40.0714 20.7012C37.1646 20.6255 35.0828 19.2583 33.8288 17.6383L33.5916 17.8219ZM40.0718 21.0011C43.5017 20.9018 46.3726 18.5685 47.2782 15.4047L46.9897 15.3222C46.1193 18.3633 43.3594 20.6058 40.0632 20.7012L40.0718 21.0011ZM47.2782 15.4047C47.3465 15.1658 47.5957 15.0275 47.8346 15.0959L47.9172 14.8075C47.519 14.6935 47.1037 14.9239 46.9897 15.3222L47.2782 15.4047ZM47.8346 15.0959C48.0736 15.1643 48.2118 15.4134 48.1434 15.6524L48.4318 15.7349C48.5458 15.3367 48.3154 14.9215 47.9172 14.8075L47.8346 15.0959ZM48.1434 15.6524C47.2046 18.9321 44.3744 21.4136 40.9078 21.8395L40.9444 22.1373C44.5323 21.6964 47.4604 19.1286 48.4318 15.7349L48.1434 15.6524ZM11.0512 15.3634C16.8425 14.7644 22.6054 14.8272 28.4788 15.4124L28.5085 15.1139C22.6177 14.5269 16.8343 14.4637 11.0203 15.065L11.0512 15.3634ZM28.4632 15.1163C22.9809 16.2539 16.7922 16.1791 11.0643 15.0669L11.0071 15.3614C16.7692 16.4803 22.9984 16.5567 28.5241 15.41L28.4632 15.1163ZM39.5814 14.4298C39.8171 14.6298 40.21 14.765 40.8312 14.6015L40.7549 14.3114C40.2112 14.4545 39.9238 14.327 39.7755 14.2011L39.5814 14.4298ZM39.1883 13.507C39.1883 13.8733 39.3312 14.2175 39.5814 14.4298L39.7755 14.2011C39.6032 14.0548 39.4883 13.8003 39.4883 13.507H39.1883ZM39.5704 12.6223C39.3311 12.8128 39.1883 13.14 39.1883 13.507H39.4883C39.4883 13.2128 39.6028 12.98 39.7573 12.857L39.5704 12.6223ZM40.8102 12.5226C40.1817 12.3242 39.7948 12.4437 39.5704 12.6223L39.7573 12.857C39.8871 12.7537 40.1646 12.6333 40.7199 12.8087L40.8102 12.5226ZM41.3748 12.229C41.3 12.466 41.0472 12.5975 40.8102 12.5226L40.7199 12.8087C41.1149 12.9334 41.5362 12.7144 41.6609 12.3194L41.3748 12.229ZM41.0812 11.6644C41.3182 11.7392 41.4497 11.992 41.3748 12.229L41.6609 12.3194C41.7856 11.9244 41.5666 11.5031 41.1716 11.3783L41.0812 11.6644ZM39.0099 11.9181C39.5207 11.5115 40.2372 11.3979 41.0812 11.6644L41.1716 11.3783C40.2562 11.0893 39.4297 11.2005 38.8231 11.6834L39.0099 11.9181ZM38.2883 13.507C38.2883 12.9246 38.5139 12.313 39.0099 11.9181L38.8231 11.6834C38.2413 12.1465 37.9883 12.8532 37.9883 13.507H38.2883ZM38.999 15.116C38.5137 14.7041 38.2883 14.09 38.2883 13.507H37.9883C37.9883 14.162 38.2411 14.8662 38.8049 15.3447L38.999 15.116ZM41.0602 15.4719C40.2092 15.6958 39.4987 15.54 38.999 15.116L38.8049 15.3447C39.3928 15.8436 40.2093 16.006 41.1366 15.762L41.0602 15.4719ZM41.3809 14.9222C41.4442 15.1625 41.3006 15.4086 41.0602 15.4719L41.1366 15.762C41.5372 15.6566 41.7764 15.2464 41.671 14.8458L41.3809 14.9222ZM40.8312 14.6015C41.0715 14.5383 41.3177 14.6818 41.3809 14.9222L41.671 14.8458C41.5656 14.4453 41.1554 14.206 40.7549 14.3114L40.8312 14.6015ZM34.0562 11.6435H34.6562V11.3435H34.0562V11.6435ZM34.2062 12.0935V11.4935H33.9062V12.0935H34.2062ZM34.2062 13.5651V12.0935H33.9062V13.5651H34.2062ZM34.2062 15.0367V13.5651H33.9062V15.0367H34.2062ZM34.2062 15.6367V15.0367H33.9062V15.6367H34.2062ZM34.6562 15.4867H34.0562V15.7867H34.6562V15.4867ZM36.67 15.4867H34.6562V15.7867H36.67V15.4867ZM37.12 15.0367C37.12 15.2852 36.9185 15.4867 36.67 15.4867V15.7867C37.0842 15.7867 37.42 15.4509 37.42 15.0367H37.12ZM36.67 14.5867C36.9185 14.5867 37.12 14.7882 37.12 15.0367H37.42C37.42 14.6225 37.0842 14.2867 36.67 14.2867V14.5867ZM35.2562 14.5867H36.67V14.2867H35.2562V14.5867ZM35.1062 14.1651V14.4367H35.4062V14.1651H35.1062ZM36.67 14.0151H35.2562V14.3151H36.67V14.0151ZM37.12 13.5651C37.12 13.8136 36.9185 14.0151 36.67 14.0151V14.3151C37.0842 14.3151 37.42 13.9793 37.42 13.5651H37.12ZM36.67 13.1151C36.9185 13.1151 37.12 13.3166 37.12 13.5651H37.42C37.42 13.1509 37.0842 12.8151 36.67 12.8151V13.1151ZM35.2562 13.1151H36.67V12.8151H35.2562V13.1151ZM35.1062 12.6935V12.9651H35.4062V12.6935H35.1062ZM36.67 12.5435H35.2562V12.8435H36.67V12.5435ZM37.12 12.0935C37.12 12.342 36.9185 12.5435 36.67 12.5435V12.8435C37.0842 12.8435 37.42 12.5077 37.42 12.0935H37.12ZM36.67 11.6435C36.9185 11.6435 37.12 11.845 37.12 12.0935H37.42C37.42 11.6793 37.0842 11.3435 36.67 11.3435V11.6435ZM34.6562 11.6435H36.67V11.3435H34.6562V11.6435ZM43.2996 14.279C43.4603 14.4519 43.7221 14.5907 44.1328 14.5867L44.1299 14.2867C43.7952 14.29 43.6171 14.18 43.5194 14.0748L43.2996 14.279ZM43.0462 13.5789C43.0425 13.8471 43.1325 14.0992 43.2996 14.279L43.5194 14.0748C43.4108 13.958 43.3434 13.7834 43.3462 13.583L43.0462 13.5789ZM43.3224 12.8627C43.1473 13.051 43.0499 13.3106 43.0462 13.5789L43.3462 13.5831C43.3489 13.3822 43.4221 13.196 43.5421 13.067L43.3224 12.8627ZM44.1371 12.5435C43.7523 12.5435 43.4911 12.6813 43.3224 12.8627L43.5421 13.067C43.6514 12.9495 43.8316 12.8435 44.1371 12.8435V12.5435ZM44.9536 12.8589C44.7855 12.6803 44.524 12.5435 44.1371 12.5435V12.8435C44.446 12.8435 44.6269 12.9495 44.735 13.0644L44.9536 12.8589ZM45.228 13.5638C45.2244 13.299 45.1277 13.044 44.9536 12.8589L44.735 13.0644C44.8534 13.1902 44.9253 13.3714 44.9281 13.5679L45.228 13.5638ZM44.9735 14.2631C45.1424 14.0801 45.2317 13.8282 45.228 13.5638L44.9281 13.5679C44.9308 13.7638 44.8645 13.9389 44.7531 14.0596L44.9735 14.2631ZM44.1328 14.5867C44.5453 14.5827 44.8105 14.4398 44.9735 14.2631L44.7531 14.0596C44.6514 14.1698 44.4678 14.2835 44.1299 14.2867L44.1328 14.5867ZM42.6634 12.2498C43.0108 11.8763 43.5149 11.6435 44.1371 11.6435V11.3435C43.4358 11.3435 42.8507 11.6079 42.4437 12.0455L42.6634 12.2498ZM42.1463 13.5665C42.1528 13.0964 42.3224 12.6164 42.6634 12.2498L42.4437 12.0455C42.0474 12.4716 41.8537 13.025 41.8463 13.5624L42.1463 13.5665ZM42.6404 14.8917C42.2966 14.5218 42.1398 14.0369 42.1463 13.5665L41.8463 13.5624C41.8389 14.1 42.0179 14.6626 42.4206 15.0959L42.6404 14.8917ZM44.1415 15.4867C43.5042 15.4928 42.9906 15.2686 42.6404 14.8917L42.4206 15.0959C42.8341 15.5409 43.4317 15.7936 44.1444 15.7867L44.1415 15.4867ZM45.6349 14.8735C45.2871 15.2504 44.7768 15.4805 44.1415 15.4867L44.1444 15.7867C44.8538 15.7798 45.4458 15.5207 45.8554 15.077L45.6349 14.8735ZM46.1279 13.5513C46.1345 14.0203 45.9769 14.5029 45.6349 14.8735L45.8554 15.077C46.2552 14.6438 46.4354 14.0842 46.4279 13.5471L46.1279 13.5513ZM45.6091 12.2422C45.951 12.6057 46.1214 13.0826 46.1279 13.5513L46.4279 13.5471C46.4205 13.0105 46.2255 12.4597 45.8276 12.0366L45.6091 12.2422ZM44.1371 11.6435C44.7573 11.6435 45.261 11.8722 45.6091 12.2422L45.8276 12.0366C45.4195 11.6028 44.835 11.3435 44.1371 11.3435V11.6435ZM31.0784 19.3271C31.3269 19.3271 31.5284 19.5286 31.5284 19.7771H31.8284C31.8284 19.3629 31.4926 19.0271 31.0784 19.0271V19.3271ZM30.6284 19.7771C30.6284 19.5286 30.8299 19.3271 31.0784 19.3271V19.0271C30.6642 19.0271 30.3284 19.3629 30.3284 19.7771H30.6284ZM31.0784 19.6271H30.4784V19.9271H31.0784V19.6271ZM30.6284 19.7773C30.6284 19.7736 30.6299 19.8009 30.6186 19.8305C30.6051 19.866 30.5812 19.8893 30.5604 19.9028C30.5427 19.9144 30.5267 19.9195 30.5199 19.9214C30.512 19.9237 30.5055 19.9248 30.5022 19.9254C30.4956 19.9264 30.4904 19.9268 30.489 19.9269C30.4868 19.927 30.4851 19.9271 30.4844 19.9272C30.4819 19.9272 30.48 19.9272 30.4809 19.9272C30.4815 19.9272 30.4833 19.9272 30.4881 19.9272C30.4973 19.9272 30.5159 19.9272 30.5534 19.9272C30.6284 19.9271 30.7784 19.9271 31.0784 19.9271V19.6271C30.7784 19.6271 30.6284 19.6271 30.5533 19.6272C30.5159 19.6272 30.497 19.6272 30.4875 19.6272C30.4829 19.6272 30.48 19.6272 30.4782 19.6273C30.4779 19.6273 30.4754 19.6273 30.4727 19.6274C30.4718 19.6274 30.4701 19.6275 30.4679 19.6276C30.4665 19.6277 30.4612 19.6281 30.4546 19.6292C30.4513 19.6297 30.4448 19.6309 30.4369 19.6331C30.4301 19.6351 30.4141 19.6401 30.3963 19.6517C30.3756 19.6653 30.3516 19.6885 30.3381 19.7241C30.3321 19.7399 30.3299 19.7538 30.3291 19.7632C30.3288 19.7667 30.3285 19.772 30.3284 19.7737C30.3284 19.7755 30.3284 19.7773 30.3284 19.7773H30.6284ZM30.6284 19.7777V19.7773H30.3284V19.7777H30.6284ZM30.6284 19.7784V19.7777H30.3284V19.7784H30.6284ZM30.6284 19.7794V19.7784H30.3284V19.7794H30.6284ZM30.6284 19.7808V19.7794H30.3284V19.7808H30.6284ZM30.6284 19.7823V19.7808H30.3284V19.7823H30.6284ZM30.6284 19.7842V19.7823H30.3284V19.7842H30.6284ZM30.6284 19.7864V19.7842H30.3284V19.7864H30.6284ZM30.6284 19.7888V19.7864H30.3284V19.7888H30.6284ZM30.6284 19.7915V19.7888H30.3284V19.7915H30.6284ZM30.6284 19.7945V19.7915H30.3284V19.7945H30.6284ZM30.6284 19.7978V19.7945H30.3284V19.7978H30.6284ZM30.6284 19.8014V19.7978H30.3284V19.8014H30.6284ZM30.6284 19.8053V19.8014H30.3284V19.8053H30.6284ZM30.6284 19.8094V19.8053H30.3284V19.8094H30.6284ZM30.6284 19.8138V19.8094H30.3284V19.8138H30.6284ZM30.6284 19.8185V19.8138H30.3284V19.8185H30.6284ZM30.6284 19.8235V19.8185H30.3284V19.8235H30.6284ZM30.6284 19.8287V19.8235H30.3284V19.8287H30.6284ZM30.6284 19.8342V19.8287H30.3284V19.8342H30.6284ZM30.6284 19.84V19.8342H30.3284V19.84H30.6284ZM30.6284 19.8461V19.84H30.3284V19.8461H30.6284ZM30.6284 19.8525V19.8461H30.3284V19.8525H30.6284ZM30.6284 19.8591V19.8525H30.3284V19.8591H30.6284ZM30.6284 19.866V19.8591H30.3284V19.866H30.6284ZM30.6284 19.8732V19.866H30.3284V19.8732H30.6284ZM30.6284 19.8806V19.8732H30.3284V19.8806H30.6284ZM30.6284 19.8883V19.8806H30.3284V19.8883H30.6284ZM30.6284 19.8963V19.8883H30.3284V19.8963H30.6284ZM30.6284 19.9046V19.8963H30.3284V19.9046H30.6284ZM30.6284 19.9131V19.9046H30.3284V19.9131H30.6284ZM30.6284 19.9219V19.9131H30.3284V19.9219H30.6284ZM30.6284 19.9309V19.9219H30.3284V19.9309H30.6284ZM30.6284 19.9403V19.9309H30.3284V19.9403H30.6284ZM30.6284 19.9498V19.9403H30.3284V19.9498H30.6284ZM30.6284 19.9597V19.9498H30.3284V19.9597H30.6284ZM30.6284 19.9698V19.9597H30.3284V19.9698H30.6284ZM30.6284 19.9802V19.9698H30.3284V19.9802H30.6284ZM30.6284 19.9909V19.9802H30.3284V19.9909H30.6284ZM30.6284 20.0018V19.9909H30.3284V20.0018H30.6284ZM30.6284 20.0129V20.0018H30.3284V20.0129H30.6284ZM30.6284 20.0244V20.0129H30.3284V20.0244H30.6284ZM30.6284 20.0361V20.0244H30.3284V20.0361H30.6284ZM30.6284 20.048V20.0361H30.3284V20.048H30.6284ZM30.6284 20.0602V20.048H30.3284V20.0602H30.6284ZM30.6284 20.0727V20.0602H30.3284V20.0727H30.6284ZM30.6284 20.0854V20.0727H30.3284V20.0854H30.6284ZM30.6284 20.0984V20.0854H30.3284V20.0984H30.6284ZM30.6284 20.1117V20.0984H30.3284V20.1117H30.6284ZM30.6284 20.1252V20.1117H30.3284V20.1252H30.6284ZM30.6284 20.1389V20.1252H30.3284V20.1389H30.6284ZM30.6284 20.1529V20.1389H30.3284V20.1529H30.6284ZM30.6284 20.1672V20.1529H30.3284V20.1672H30.6284ZM30.6284 20.1817V20.1672H30.3284V20.1817H30.6284ZM30.6284 20.1964V20.1817H30.3284V20.1964H30.6284ZM30.6284 20.2115V20.1964H30.3284V20.2115H30.6284ZM30.6284 20.2267V20.2115H30.3284V20.2267H30.6284ZM30.6284 20.2422V20.2267H30.3284V20.2422H30.6284ZM30.6284 20.258V20.2422H30.3284V20.258H30.6284ZM30.6284 20.274V20.258H30.3284V20.274H30.6284ZM30.6284 20.2903V20.274H30.3284V20.2903H30.6284ZM30.6284 20.3068V20.2903H30.3284V20.3068H30.6284ZM30.6284 20.3235V20.3068H30.3284V20.3235H30.6284ZM30.6284 20.3405V20.3235H30.3284V20.3405H30.6284ZM30.6284 20.3578V20.3405H30.3284V20.3578H30.6284ZM30.6284 20.3752V20.3578H30.3284V20.3752H30.6284ZM30.6284 20.393V20.3752H30.3284V20.393H30.6284ZM30.6284 20.4109V20.393H30.3284V20.4109H30.6284ZM30.6284 20.4292V20.4109H30.3284V20.4292H30.6284ZM30.6284 20.4476V20.4292H30.3284V20.4476H30.6284ZM30.6284 20.4663V20.4476H30.3284V20.4663H30.6284ZM30.6284 20.4852V20.4663H30.3284V20.4852H30.6284ZM30.6284 20.5044V20.4852H30.3284V20.5044H30.6284ZM30.6284 20.5238V20.5044H30.3284V20.5238H30.6284ZM30.6284 20.5435V20.5238H30.3284V20.5435H30.6284ZM30.6284 20.5634V20.5435H30.3284V20.5634H30.6284ZM30.6284 20.5835V20.5634H30.3284V20.5835H30.6284ZM30.6284 20.6039V20.5835H30.3284V20.6039H30.6284ZM30.6284 20.6244V20.6039H30.3284V20.6244H30.6284ZM30.6284 20.6453V20.6244H30.3284V20.6453H30.6284ZM30.6284 20.6663V20.6453H30.3284V20.6663H30.6284ZM30.6284 20.6876V20.6663H30.3284V20.6876H30.6284ZM30.6284 20.7092V20.6876H30.3284V20.7092H30.6284ZM30.6284 20.7309V20.7092H30.3284V20.7309H30.6284ZM30.6284 20.7529V20.7309H30.3284V20.7529H30.6284ZM30.6284 20.7751V20.7529H30.3284V20.7751H30.6284ZM30.6284 20.7976V20.7751H30.3284V20.7976H30.6284ZM30.6284 20.8202V20.7976H30.3284V20.8202H30.6284ZM30.6284 20.8431V20.8202H30.3284V20.8431H30.6284ZM30.6284 20.8663V20.8431H30.3284V20.8663H30.6284ZM30.6284 20.8896V20.8663H30.3284V20.8896H30.6284ZM30.6284 20.9132V20.8896H30.3284V20.9132H30.6284ZM30.6284 20.937V20.9132H30.3284V20.937H30.6284ZM30.6284 20.961V20.937H30.3284V20.961H30.6284ZM30.6284 20.9853V20.961H30.3284V20.9853H30.6284ZM30.6284 21.0098V20.9853H30.3284V21.0098H30.6284ZM30.6284 21.0345V21.0098H30.3284V21.0345H30.6284ZM30.6284 21.0594V21.0345H30.3284V21.0594H30.6284ZM30.6284 21.0845V21.0594H30.3284V21.0845H30.6284ZM30.6284 21.1099V21.0845H30.3284V21.1099H30.6284ZM30.6284 21.1354V21.1099H30.3284V21.1354H30.6284ZM30.6284 21.1612V21.1354H30.3284V21.1612H30.6284ZM30.6284 21.1873V21.1612H30.3284V21.1873H30.6284ZM30.6284 21.2135V21.1873H30.3284V21.2135H30.6284ZM30.6284 21.2399V21.2135H30.3284V21.2399H30.6284ZM30.6284 21.2666V21.2399H30.3284V21.2666H30.6284ZM30.6284 21.2935V21.2666H30.3284V21.2935H30.6284ZM30.6284 21.3206V21.2935H30.3284V21.3206H30.6284ZM30.6284 21.3479V21.3206H30.3284V21.3479H30.6284ZM30.6284 21.3754V21.3479H30.3284V21.3754H30.6284ZM30.6284 21.4031V21.3754H30.3284V21.4031H30.6284ZM30.6284 21.431V21.4031H30.3284V21.431H30.6284ZM30.6284 21.4592V21.431H30.3284V21.4592H30.6284ZM30.6284 21.4876V21.4592H30.3284V21.4876H30.6284ZM30.6284 21.5161V21.4876H30.3284V21.5161H30.6284ZM30.6284 21.5449V21.5161H30.3284V21.5449H30.6284ZM30.6284 21.5739V21.5449H30.3284V21.5739H30.6284ZM30.6284 21.6031V21.5739H30.3284V21.6031H30.6284ZM30.6284 21.6325V21.6031H30.3284V21.6325H30.6284ZM30.6284 21.6621V21.6325H30.3284V21.6621H30.6284ZM30.6284 21.6919V21.6621H30.3284V21.6919H30.6284ZM30.6284 21.7219V21.6919H30.3284V21.7219H30.6284ZM30.6284 21.7521V21.7219H30.3284V21.7521H30.6284ZM30.6284 21.7825V21.7521H30.3284V21.7825H30.6284ZM30.6284 21.8132V21.7825H30.3284V21.8132H30.6284ZM30.6284 21.844V21.8132H30.3284V21.844H30.6284ZM30.6284 21.875V21.844H30.3284V21.875H30.6284ZM30.6284 21.9062V21.875H30.3284V21.9062H30.6284ZM30.6284 21.9377V21.9062H30.3284V21.9377H30.6284ZM30.6284 21.9693V21.9377H30.3284V21.9693H30.6284ZM30.6284 22.0011V21.9693H30.3284V22.0011H30.6284ZM30.6284 22.0331V22.0011H30.3284V22.0331H30.6284ZM30.6284 22.0653V22.0331H30.3284V22.0653H30.6284ZM30.6284 22.0977V22.0653H30.3284V22.0977H30.6284ZM30.6284 22.1303V22.0977H30.3284V22.1303H30.6284ZM30.6284 22.1631V22.1303H30.3284V22.1631H30.6284ZM30.6284 22.1961V22.1631H30.3284V22.1961H30.6284ZM30.6284 22.2293V22.1961H30.3284V22.2293H30.6284ZM30.6284 22.2627V22.2293H30.3284V22.2627H30.6284ZM30.6284 22.2962V22.2627H30.3284V22.2962H30.6284ZM30.6284 22.33V22.2962H30.3284V22.33H30.6284ZM30.6284 22.3639V22.33H30.3284V22.3639H30.6284ZM30.6284 22.3981V22.3639H30.3284V22.3981H30.6284ZM30.6284 22.4324V22.3981H30.3284V22.4324H30.6284ZM30.6284 22.4669V22.4324H30.3284V22.4669H30.6284ZM30.6284 22.5016V22.4669H30.3284V22.5016H30.6284ZM30.6284 22.5365V22.5016H30.3284V22.5365H30.6284ZM30.6284 22.5716V22.5365H30.3284V22.5716H30.6284ZM30.6284 22.6068V22.5716H30.3284V22.6068H30.6284ZM30.6284 22.6423V22.6068H30.3284V22.6423H30.6284ZM30.6284 22.6779V22.6423H30.3284V22.6779H30.6284ZM30.6284 22.7137V22.6779H30.3284V22.7137H30.6284ZM30.6284 22.7497V22.7137H30.3284V22.7497H30.6284ZM30.6284 22.7859V22.7497H30.3284V22.7859H30.6284ZM30.6284 22.8222V22.7859H30.3284V22.8222H30.6284ZM30.6284 22.8587V22.8222H30.3284V22.8587H30.6284ZM30.6284 22.8954V22.8587H30.3284V22.8954H30.6284ZM30.6284 22.9323V22.8954H30.3284V22.9323H30.6284ZM30.6284 22.9694V22.9323H30.3284V22.9694H30.6284ZM30.6284 23.0066V22.9694H30.3284V23.0066H30.6284ZM30.6284 23.0441V23.0066H30.3284V23.0441H30.6284ZM30.6284 23.0817V23.0441H30.3284V23.0817H30.6284ZM30.6284 23.1194V23.0817H30.3284V23.1194H30.6284ZM30.6284 23.1574V23.1194H30.3284V23.1574H30.6284ZM30.6284 23.1955V23.1574H30.3284V23.1955H30.6284ZM30.6284 23.2338V23.1955H30.3284V23.2338H30.6284ZM30.6284 23.2722V23.2338H30.3284V23.2722H30.6284ZM30.6284 23.3109V23.2722H30.3284V23.3109H30.6284ZM30.6284 23.3497V23.3109H30.3284V23.3497H30.6284ZM30.6284 23.3886V23.3497H30.3284V23.3886H30.6284ZM30.6284 23.4278V23.3886H30.3284V23.4278H30.6284ZM30.6284 23.4671V23.4278H30.3284V23.4671H30.6284ZM30.6284 23.5066V23.4671H30.3284V23.5066H30.6284ZM30.6284 23.5462V23.5066H30.3284V23.5462H30.6284ZM30.6284 23.586V23.5462H30.3284V23.586H30.6284ZM30.6284 23.626V23.586H30.3284V23.626H30.6284ZM30.6284 23.6662V23.626H30.3284V23.6662H30.6284ZM30.6284 23.7065V23.6662H30.3284V23.7065H30.6284ZM30.6284 23.7469V23.7065H30.3284V23.7469H30.6284ZM30.6284 23.7876V23.7469H30.3284V23.7876H30.6284ZM30.6284 23.8284V23.7876H30.3284V23.8284H30.6284ZM30.6284 23.8693V23.8284H30.3284V23.8693H30.6284ZM30.6284 23.9104V23.8693H30.3284V23.9104H30.6284ZM30.6284 23.9517V23.9104H30.3284V23.9517H30.6284ZM30.6284 23.9932V23.9517H30.3284V23.9932H30.6284ZM30.6284 24.0348V23.9932H30.3284V24.0348H30.6284ZM30.6284 24.0765V24.0348H30.3284V24.0765H30.6284ZM30.6284 24.1184V24.0765H30.3284V24.1184H30.6284ZM30.6284 24.1605V24.1184H30.3284V24.1605H30.6284ZM30.6284 24.2027V24.1605H30.3284V24.2027H30.6284ZM30.6284 24.2451V24.2027H30.3284V24.2451H30.6284ZM30.6284 24.2876V24.2451H30.3284V24.2876H30.6284ZM30.6284 24.3303V24.2876H30.3284V24.3303H30.6284ZM30.6284 24.3732V24.3303H30.3284V24.3732H30.6284ZM30.6284 24.4161V24.3732H30.3284V24.4161H30.6284ZM30.6284 24.4593V24.4161H30.3284V24.4593H30.6284ZM30.6284 24.5026V24.4593H30.3284V24.5026H30.6284ZM30.6284 24.546V24.5026H30.3284V24.546H30.6284ZM30.6284 24.5896V24.546H30.3284V24.5896H30.6284ZM30.6284 24.6334V24.5896H30.3284V24.6334H30.6284ZM30.6284 24.6772V24.6334H30.3284V24.6772H30.6284ZM30.6284 24.7213V24.6772H30.3284V24.7213H30.6284ZM30.6284 24.7655V24.7213H30.3284V24.7655H30.6284ZM30.6284 24.8098V24.7655H30.3284V24.8098H30.6284ZM30.6284 24.8543V24.8098H30.3284V24.8543H30.6284ZM30.6284 24.8989V24.8543H30.3284V24.8989H30.6284ZM30.6284 24.9436V24.8989H30.3284V24.9436H30.6284ZM30.6284 24.9885V24.9436H30.3284V24.9885H30.6284ZM30.6284 25.0336V24.9885H30.3284V25.0336H30.6284ZM30.6284 25.0788V25.0336H30.3284V25.0788H30.6284ZM30.6284 25.1241V25.0788H30.3284V25.1241H30.6284ZM30.6284 25.1696V25.1241H30.3284V25.1696H30.6284ZM30.6284 25.2152V25.1696H30.3284V25.2152H30.6284ZM30.6284 25.2609V25.2152H30.3284V25.2609H30.6284ZM30.6284 25.3068V25.2609H30.3284V25.3068H30.6284ZM30.6284 25.3528V25.3068H30.3284V25.3528H30.6284ZM30.6284 25.399V25.3528H30.3284V25.399H30.6284ZM30.6284 25.4453V25.399H30.3284V25.4453H30.6284ZM30.6284 25.4917V25.4453H30.3284V25.4917H30.6284ZM30.6284 25.5383V25.4917H30.3284V25.5383H30.6284ZM30.6284 25.585V25.5383H30.3284V25.585H30.6284ZM30.6284 25.6318V25.585H30.3284V25.6318H30.6284ZM30.6284 25.6788V25.6318H30.3284V25.6788H30.6284ZM30.6284 25.7259V25.6788H30.3284V25.7259H30.6284ZM30.6284 25.7731V25.7259H30.3284V25.7731H30.6284ZM30.6284 25.8204V25.7731H30.3284V25.8204H30.6284ZM30.6284 25.8679V25.8204H30.3284V25.8679H30.6284ZM30.6284 25.9155V25.8679H30.3284V25.9155H30.6284ZM30.6284 25.9633V25.9155H30.3284V25.9633H30.6284ZM30.6284 26.0112V25.9633H30.3284V26.0112H30.6284ZM30.6284 26.0591V26.0112H30.3284V26.0591H30.6284ZM30.6284 26.1073V26.0591H30.3284V26.1073H30.6284ZM30.6284 26.1555V26.1073H30.3284V26.1555H30.6284ZM30.6284 26.2039V26.1555H30.3284V26.2039H30.6284ZM30.6284 26.2524V26.2039H30.3284V26.2524H30.6284ZM30.6284 26.301V26.2524H30.3284V26.301H30.6284ZM30.6284 26.3497V26.301H30.3284V26.3497H30.6284ZM30.6284 26.3986V26.3497H30.3284V26.3986H30.6284ZM30.6284 26.4476V26.3986H30.3284V26.4476H30.6284ZM30.6284 26.4967V26.4476H30.3284V26.4967H30.6284ZM30.6284 26.5459V26.4967H30.3284V26.5459H30.6284ZM30.6284 26.5952V26.5459H30.3284V26.5952H30.6284ZM30.6284 26.6447V26.5952H30.3284V26.6447H30.6284ZM30.6284 26.6943V26.6447H30.3284V26.6943H30.6284ZM30.6284 26.7439V26.6943H30.3284V26.7439H30.6284ZM30.6284 26.7938V26.7439H30.3284V26.7938H30.6284ZM30.6284 26.8437V26.7938H30.3284V26.8437H30.6284ZM30.6284 26.8937V26.8437H30.3284V26.8937H30.6284ZM30.6284 26.9439V26.8937H30.3284V26.9439H30.6284ZM30.6284 26.9941V26.9439H30.3284V26.9941H30.6284ZM30.6284 27.0445V26.9941H30.3284V27.0445H30.6284ZM30.6284 27.095V27.0445H30.3284V27.095H30.6284ZM30.6284 27.1456V27.095H30.3284V27.1456H30.6284ZM30.6284 27.1963V27.1456H30.3284V27.1963H30.6284ZM30.6284 27.2471V27.1963H30.3284V27.2471H30.6284ZM30.6284 27.298V27.2471H30.3284V27.298H30.6284ZM30.6284 27.3491V27.298H30.3284V27.3491H30.6284ZM30.6284 27.4002V27.3491H30.3284V27.4002H30.6284ZM30.6284 27.4515V27.4002H30.3284V27.4515H30.6284ZM30.6284 27.5028V27.4515H30.3284V27.5028H30.6284ZM30.6284 27.5543V27.5028H30.3284V27.5543H30.6284ZM30.6284 27.6058V27.5543H30.3284V27.6058H30.6284ZM30.6284 27.6575V27.6058H30.3284V27.6575H30.6284ZM30.6284 27.7093V27.6575H30.3284V27.7093H30.6284ZM30.6284 27.7611V27.7093H30.3284V27.7611H30.6284ZM30.6284 27.8131V27.7611H30.3284V27.8131H30.6284ZM30.6284 27.8652V27.8131H30.3284V27.8652H30.6284ZM30.6284 27.9174V27.8652H30.3284V27.9174H30.6284ZM30.6284 27.9696V27.9174H30.3284V27.9696H30.6284ZM30.6284 28.022V27.9696H30.3284V28.022H30.6284ZM30.6284 28.0745V28.022H30.3284V28.0745H30.6284ZM30.6284 28.127V28.0745H30.3284V28.127H30.6284ZM30.6284 28.1797V28.127H30.3284V28.1797H30.6284ZM30.6284 28.2325V28.1797H30.3284V28.2325H30.6284ZM30.6284 28.2853V28.2325H30.3284V28.2853H30.6284ZM30.6284 28.3383V28.2853H30.3284V28.3383H30.6284ZM30.6284 28.3913V28.3383H30.3284V28.3913H30.6284ZM30.6284 28.4445V28.3913H30.3284V28.4445H30.6284ZM30.6284 28.4977V28.4445H30.3284V28.4977H30.6284ZM30.6284 28.551V28.4977H30.3284V28.551H30.6284ZM30.6284 28.6044V28.551H30.3284V28.6044H30.6284ZM30.6284 28.6579V28.6044H30.3284V28.6579H30.6284ZM30.6284 28.7115V28.6579H30.3284V28.7115H30.6284ZM30.6284 28.7652V28.7115H30.3284V28.7652H30.6284ZM30.6284 28.819V28.7652H30.3284V28.819H30.6284ZM30.6284 28.8728V28.819H30.3284V28.8728H30.6284ZM30.6284 28.9268V28.8728H30.3284V28.9268H30.6284ZM30.6284 28.9808V28.9268H30.3284V28.9808H30.6284ZM30.6284 29.0349V28.9808H30.3284V29.0349H30.6284ZM30.6284 29.0891V29.0349H30.3284V29.0891H30.6284ZM30.6284 29.1434V29.0891H30.3284V29.1434H30.6284ZM30.6284 29.1977V29.1434H30.3284V29.1977H30.6284ZM30.6284 29.2522V29.1977H30.3284V29.2522H30.6284ZM30.6284 29.3067V29.2522H30.3284V29.3067H30.6284ZM30.6284 29.3613V29.3067H30.3284V29.3613H30.6284ZM30.6284 29.416V29.3613H30.3284V29.416H30.6284ZM30.6284 29.4708V29.416H30.3284V29.4708H30.6284ZM30.6284 29.5256V29.4708H30.3284V29.5256H30.6284ZM30.6284 29.5806V29.5256H30.3284V29.5806H30.6284ZM30.6284 29.6356V29.5806H30.3284V29.6356H30.6284ZM30.6284 29.6907V29.6356H30.3284V29.6907H30.6284ZM30.6284 29.7458V29.6907H30.3284V29.7458H30.6284ZM30.6284 29.801V29.7458H30.3284V29.801H30.6284ZM30.6284 29.8563V29.801H30.3284V29.8563H30.6284ZM30.6284 29.9117V29.8563H30.3284V29.9117H30.6284ZM30.6284 29.9672V29.9117H30.3284V29.9672H30.6284ZM30.6284 30.0227V29.9672H30.3284V30.0227H30.6284ZM30.6284 30.0783V30.0227H30.3284V30.0783H30.6284ZM30.6284 30.134V30.0783H30.3284V30.134H30.6284ZM30.6284 30.1897V30.134H30.3284V30.1897H30.6284ZM30.6284 30.2455V30.1897H30.3284V30.2455H30.6284ZM30.6284 30.3014V30.2455H30.3284V30.3014H30.6284ZM30.6284 30.3573V30.3014H30.3284V30.3573H30.6284ZM30.6284 30.4134V30.3573H30.3284V30.4134H30.6284ZM30.6284 30.4694V30.4134H30.3284V30.4694H30.6284ZM30.6284 30.5256V30.4694H30.3284V30.5256H30.6284ZM30.6284 30.5818V30.5256H30.3284V30.5818H30.6284ZM30.6284 30.6381V30.5818H30.3284V30.6381H30.6284ZM30.6284 30.6944V30.6381H30.3284V30.6944H30.6284ZM30.6284 30.7508V30.6944H30.3284V30.7508H30.6284ZM30.6284 30.8073V30.7508H30.3284V30.8073H30.6284ZM30.6284 30.8638V30.8073H30.3284V30.8638H30.6284ZM30.6284 30.9204V30.8638H30.3284V30.9204H30.6284ZM30.6284 30.977V30.9204H30.3284V30.977H30.6284ZM30.6284 31.0337V30.977H30.3284V31.0337H30.6284ZM30.6284 31.0905V31.0337H30.3284V31.0905H30.6284ZM30.6284 31.1473V31.0905H30.3284V31.1473H30.6284ZM30.6284 31.2042V31.1473H30.3284V31.2042H30.6284ZM30.6284 31.2611V31.2042H30.3284V31.2611H30.6284ZM30.6284 31.3181V31.2611H30.3284V31.3181H30.6284ZM30.6284 31.3752V31.3181H30.3284V31.3752H30.6284ZM30.6284 31.4323V31.3752H30.3284V31.4323H30.6284ZM30.6284 31.4894V31.4323H30.3284V31.4894H30.6284ZM30.6284 31.5467V31.4894H30.3284V31.5467H30.6284ZM30.6284 31.6039V31.5467H30.3284V31.6039H30.6284ZM30.6284 31.6612V31.6039H30.3284V31.6612H30.6284ZM30.6284 31.7186V31.6612H30.3284V31.7186H30.6284ZM30.6284 31.776V31.7186H30.3284V31.776H30.6284ZM30.6284 31.8335V31.776H30.3284V31.8335H30.6284ZM30.6284 31.891V31.8335H30.3284V31.891H30.6284ZM30.6284 31.9486V31.891H30.3284V31.9486H30.6284ZM30.6284 32.0062V31.9486H30.3284V32.0062H30.6284ZM30.6284 32.0638V32.0062H30.3284V32.0638H30.6284ZM30.6284 32.1215V32.0638H30.3284V32.1215H30.6284ZM30.6284 32.1793V32.1215H30.3284V32.1793H30.6284ZM30.6284 32.2371V32.1793H30.3284V32.2371H30.6284ZM30.6284 32.2949V32.2371H30.3284V32.2949H30.6284ZM30.6284 32.3528V32.2949H30.3284V32.3528H30.6284ZM30.6284 32.4107V32.3528H30.3284V32.4107H30.6284ZM30.6284 32.4687V32.4107H30.3284V32.4687H30.6284ZM30.6284 32.5267V32.4687H30.3284V32.5267H30.6284ZM30.6284 32.5847V32.5267H30.3284V32.5847H30.6284ZM30.6284 32.6428V32.5847H30.3284V32.6428H30.6284ZM30.6284 32.701V32.6428H30.3284V32.701H30.6284ZM30.6284 32.7591V32.701H30.3284V32.7591H30.6284ZM30.6284 32.8173V32.7591H30.3284V32.8173H30.6284ZM30.6284 32.8756V32.8173H30.3284V32.8756H30.6284ZM30.6284 32.9338V32.8756H30.3284V32.9338H30.6284ZM30.6284 32.9921V32.9338H30.3284V32.9921H30.6284ZM30.6284 33.0505V32.9921H30.3284V33.0505H30.6284ZM30.6284 33.1089V33.0505H30.3284V33.1089H30.6284ZM30.6284 33.1673V33.1089H30.3284V33.1673H30.6284ZM30.6284 33.2257V33.1673H30.3284V33.2257H30.6284ZM30.6284 33.2842V33.2257H30.3284V33.2842H30.6284ZM30.6284 33.3427V33.2842H30.3284V33.3427H30.6284ZM30.6284 33.4012V33.3427H30.3284V33.4012H30.6284ZM30.6284 33.4598V33.4012H30.3284V33.4598H30.6284ZM30.6284 33.5184V33.4598H30.3284V33.5184H30.6284ZM30.6284 33.577V33.5184H30.3284V33.577H30.6284ZM30.6284 33.6357V33.577H30.3284V33.6357H30.6284ZM30.6284 33.6943V33.6357H30.3284V33.6943H30.6284ZM30.6284 33.753V33.6943H30.3284V33.753H30.6284ZM30.6284 33.8118V33.753H30.3284V33.8118H30.6284ZM30.6284 33.8705V33.8118H30.3284V33.8705H30.6284ZM30.6284 33.9293V33.8705H30.3284V33.9293H30.6284ZM30.6284 33.9881V33.9293H30.3284V33.9881H30.6284ZM30.6284 34.0469V33.9881H30.3284V34.0469H30.6284ZM30.6284 34.1058V34.0469H30.3284V34.1058H30.6284ZM30.6284 34.1646V34.1058H30.3284V34.1646H30.6284ZM30.6284 34.2235V34.1646H30.3284V34.2235H30.6284ZM30.6284 34.2824V34.2235H30.3284V34.2824H30.6284ZM30.6284 34.3414V34.2824H30.3284V34.3414H30.6284ZM30.6284 34.4003V34.3414H30.3284V34.4003H30.6284ZM30.6284 34.4593V34.4003H30.3284V34.4593H30.6284ZM30.6284 34.5183V34.4593H30.3284V34.5183H30.6284ZM30.6284 34.5772V34.5183H30.3284V34.5772H30.6284ZM30.6284 34.6363V34.5772H30.3284V34.6363H30.6284ZM30.6284 34.6953V34.6363H30.3284V34.6953H30.6284ZM30.6284 34.7543V34.6953H30.3284V34.7543H30.6284ZM30.6284 34.8134V34.7543H30.3284V34.8134H30.6284ZM30.6284 34.8724V34.8134H30.3284V34.8724H30.6284ZM30.6284 34.9315V34.8724H30.3284V34.9315H30.6284ZM30.6284 34.9906V34.9315H30.3284V34.9906H30.6284ZM30.6284 35.0497V34.9906H30.3284V35.0497H30.6284ZM30.6284 35.1088V35.0497H30.3284V35.1088H30.6284ZM30.6284 35.1679V35.1088H30.3284V35.1679H30.6284ZM30.6284 35.2271V35.1679H30.3284V35.2271H30.6284ZM30.6284 35.2862V35.2271H30.3284V35.2862H30.6284ZM30.6284 35.3453V35.2862H30.3284V35.3453H30.6284ZM30.6284 35.4045V35.3453H30.3284V35.4045H30.6284ZM30.6284 35.4636V35.4045H30.3284V35.4636H30.6284ZM30.6284 35.5228V35.4636H30.3284V35.5228H30.6284ZM30.6284 35.5819V35.5228H30.3284V35.5819H30.6284ZM30.6284 35.6411V35.5819H30.3284V35.6411H30.6284ZM30.6284 35.7003V35.6411H30.3284V35.7003H30.6284ZM30.6284 35.7594V35.7003H30.3284V35.7594H30.6284ZM30.6284 35.8186V35.7594H30.3284V35.8186H30.6284ZM30.6284 35.8778V35.8186H30.3284V35.8778H30.6284ZM30.6284 35.9369V35.8778H30.3284V35.9369H30.6284ZM30.6284 35.9961V35.9369H30.3284V35.9961H30.6284ZM30.6284 36.0553V35.9961H30.3284V36.0553H30.6284ZM30.6284 36.1144V36.0553H30.3284V36.1144H30.6284ZM30.6284 36.1736V36.1144H30.3284V36.1736H30.6284ZM30.6284 36.2328V36.1736H30.3284V36.2328H30.6284ZM30.6284 36.2919V36.2328H30.3284V36.2919H30.6284ZM30.6284 36.3511V36.2919H30.3284V36.3511H30.6284ZM30.6284 36.4102V36.3511H30.3284V36.4102H30.6284ZM30.6284 36.4693V36.4102H30.3284V36.4693H30.6284ZM30.6284 36.5285V36.4693H30.3284V36.5285H30.6284ZM30.6284 36.5876V36.5285H30.3284V36.5876H30.6284ZM30.6284 36.6467V36.5876H30.3284V36.6467H30.6284ZM30.6284 36.7058V36.6467H30.3284V36.7058H30.6284ZM30.6284 36.7649V36.7058H30.3284V36.7649H30.6284ZM30.6284 36.824V36.7649H30.3284V36.824H30.6284ZM30.6284 36.883V36.824H30.3284V36.883H30.6284ZM30.6284 36.9421V36.883H30.3284V36.9421H30.6284ZM30.6284 37.0012V36.9421H30.3284V37.0012H30.6284ZM30.6284 37.0602V37.0012H30.3284V37.0602H30.6284ZM30.6284 37.1192V37.0602H30.3284V37.1192H30.6284ZM30.6284 37.1782V37.1192H30.3284V37.1782H30.6284ZM30.6284 37.2372V37.1782H30.3284V37.2372H30.6284ZM30.6284 37.2962V37.2372H30.3284V37.2962H30.6284ZM30.6284 37.3551V37.2962H30.3284V37.3551H30.6284ZM30.6284 37.414V37.3551H30.3284V37.414H30.6284ZM30.6284 37.4729V37.414H30.3284V37.4729H30.6284ZM30.6284 37.5318V37.4729H30.3284V37.5318H30.6284ZM30.6284 37.5907V37.5318H30.3284V37.5907H30.6284ZM30.6284 37.6496V37.5907H30.3284V37.6496H30.6284ZM30.6284 37.7084V37.6496H30.3284V37.7084H30.6284ZM30.6284 37.7672V37.7084H30.3284V37.7672H30.6284ZM30.6284 37.826V37.7672H30.3284V37.826H30.6284ZM30.6284 37.8848V37.826H30.3284V37.8848H30.6284ZM30.6284 37.9435V37.8848H30.3284V37.9435H30.6284ZM30.6284 38.0022V37.9435H30.3284V38.0022H30.6284ZM30.6284 38.0609V38.0022H30.3284V38.0609H30.6284ZM30.6284 38.1196V38.0609H30.3284V38.1196H30.6284ZM30.6284 38.1782V38.1196H30.3284V38.1782H30.6284ZM30.6284 38.2368V38.1782H30.3284V38.2368H30.6284ZM30.6284 38.2954V38.2368H30.3284V38.2954H30.6284ZM30.6284 38.3539V38.2954H30.3284V38.3539H30.6284ZM30.6284 38.4124V38.3539H30.3284V38.4124H30.6284ZM30.6284 38.4709V38.4124H30.3284V38.4709H30.6284ZM30.6284 38.5294V38.4709H30.3284V38.5294H30.6284ZM30.6284 38.5878V38.5294H30.3284V38.5878H30.6284ZM30.6284 38.6462V38.5878H30.3284V38.6462H30.6284ZM30.6284 38.7045V38.6462H30.3284V38.7045H30.6284ZM30.6284 38.7629V38.7045H30.3284V38.7629H30.6284ZM30.6284 38.8211V38.7629H30.3284V38.8211H30.6284ZM30.6284 38.8794V38.8211H30.3284V38.8794H30.6284ZM30.6284 38.9376V38.8794H30.3284V38.9376H30.6284ZM30.6284 38.9958V38.9376H30.3284V38.9958H30.6284ZM30.6284 39.0539V38.9958H30.3284V39.0539H30.6284ZM30.6284 39.112V39.0539H30.3284V39.112H30.6284ZM30.6284 39.1701V39.112H30.3284V39.1701H30.6284ZM30.6284 39.2281V39.1701H30.3284V39.2281H30.6284ZM30.6284 39.2861V39.2281H30.3284V39.2861H30.6284ZM30.6284 39.344V39.2861H30.3284V39.344H30.6284ZM30.6284 39.4019V39.344H30.3284V39.4019H30.6284ZM30.6284 39.4598V39.4019H30.3284V39.4598H30.6284ZM30.6284 39.5176V39.4598H30.3284V39.5176H30.6284ZM30.6284 39.5753V39.5176H30.3284V39.5753H30.6284ZM30.6284 39.6331V39.5753H30.3284V39.6331H30.6284ZM30.6284 39.6907V39.6331H30.3284V39.6907H30.6284ZM30.6284 39.7484V39.6907H30.3284V39.7484H30.6284ZM30.6284 39.806V39.7484H30.3284V39.806H30.6284ZM30.6284 39.8635V39.806H30.3284V39.8635H30.6284ZM30.6284 39.921V39.8635H30.3284V39.921H30.6284ZM30.6284 39.9784V39.921H30.3284V39.9784H30.6284ZM30.6284 40.0358V39.9784H30.3284V40.0358H30.6284ZM30.6284 40.0931V40.0358H30.3284V40.0931H30.6284ZM30.6284 40.1504V40.0931H30.3284V40.1504H30.6284ZM30.6284 40.2076V40.1504H30.3284V40.2076H30.6284ZM30.6284 40.2648V40.2076H30.3284V40.2648H30.6284ZM30.6284 40.3219V40.2648H30.3284V40.3219H30.6284ZM30.6284 40.379V40.3219H30.3284V40.379H30.6284ZM30.6284 40.436V40.379H30.3284V40.436H30.6284ZM30.6284 40.493V40.436H30.3284V40.493H30.6284ZM30.6284 40.5499V40.493H30.3284V40.5499H30.6284ZM30.6284 40.6067V40.5499H30.3284V40.6067H30.6284ZM30.6284 40.6635V40.6067H30.3284V40.6635H30.6284ZM30.6284 40.7202V40.6635H30.3284V40.7202H30.6284ZM30.6284 40.7769V40.7202H30.3284V40.7769H30.6284ZM30.6284 40.8335V40.7769H30.3284V40.8335H30.6284ZM30.6284 40.89V40.8335H30.3284V40.89H30.6284ZM30.6284 40.9465V40.89H30.3284V40.9465H30.6284ZM30.6284 41.003V40.9465H30.3284V41.003H30.6284ZM30.6284 41.0593V41.003H30.3284V41.0593H30.6284ZM30.6284 41.1156V41.0593H30.3284V41.1156H30.6284ZM30.6284 41.1719V41.1156H30.3284V41.1719H30.6284ZM30.6284 41.228V41.1719H30.3284V41.228H30.6284ZM30.6284 41.2841V41.228H30.3284V41.2841H30.6284ZM30.6284 41.3402V41.2841H30.3284V41.3402H30.6284ZM30.6284 41.3961V41.3402H30.3284V41.3961H30.6284ZM30.6284 41.452V41.3961H30.3284V41.452H30.6284ZM30.6284 41.5079V41.452H30.3284V41.5079H30.6284ZM30.6284 41.5636V41.5079H30.3284V41.5636H30.6284ZM30.6284 41.6193V41.5636H30.3284V41.6193H30.6284ZM30.6284 41.6749V41.6193H30.3284V41.6749H30.6284ZM30.6284 41.7305V41.6749H30.3284V41.7305H30.6284ZM30.6284 41.786V41.7305H30.3284V41.786H30.6284ZM30.6284 41.8414V41.786H30.3284V41.8414H30.6284ZM30.6284 41.8967V41.8414H30.3284V41.8967H30.6284ZM31.0784 42.3467C30.8299 42.3467 30.6284 42.1452 30.6284 41.8967H30.3284C30.3284 42.3109 30.6642 42.6467 31.0784 42.6467V42.3467ZM31.5284 41.8967C31.5284 42.1452 31.3269 42.3467 31.0784 42.3467V42.6467C31.4926 42.6467 31.8284 42.3109 31.8284 41.8967H31.5284ZM31.5284 41.8414V41.8967H31.8284V41.8414H31.5284ZM31.5284 41.786V41.8414H31.8284V41.786H31.5284ZM31.5284 41.7305V41.786H31.8284V41.7305H31.5284ZM31.5284 41.6749V41.7305H31.8284V41.6749H31.5284ZM31.5284 41.6193V41.6749H31.8284V41.6193H31.5284ZM31.5284 41.5636V41.6193H31.8284V41.5636H31.5284ZM31.5284 41.5079V41.5636H31.8284V41.5079H31.5284ZM31.5284 41.452V41.5079H31.8284V41.452H31.5284ZM31.5284 41.3961V41.452H31.8284V41.3961H31.5284ZM31.5284 41.3402V41.3961H31.8284V41.3402H31.5284ZM31.5284 41.2841V41.3402H31.8284V41.2841H31.5284ZM31.5284 41.228V41.2841H31.8284V41.228H31.5284ZM31.5284 41.1719V41.228H31.8284V41.1719H31.5284ZM31.5284 41.1156V41.1719H31.8284V41.1156H31.5284ZM31.5284 41.0593V41.1156H31.8284V41.0593H31.5284ZM31.5284 41.003V41.0593H31.8284V41.003H31.5284ZM31.5284 40.9465V41.003H31.8284V40.9465H31.5284ZM31.5284 40.89V40.9465H31.8284V40.89H31.5284ZM31.5284 40.8335V40.89H31.8284V40.8335H31.5284ZM31.5284 40.7769V40.8335H31.8284V40.7769H31.5284ZM31.5284 40.7202V40.7769H31.8284V40.7202H31.5284ZM31.5284 40.6635V40.7202H31.8284V40.6635H31.5284ZM31.5284 40.6067V40.6635H31.8284V40.6067H31.5284ZM31.5284 40.5499V40.6067H31.8284V40.5499H31.5284ZM31.5284 40.493V40.5499H31.8284V40.493H31.5284ZM31.5284 40.436V40.493H31.8284V40.436H31.5284ZM31.5284 40.379V40.436H31.8284V40.379H31.5284ZM31.5284 40.3219V40.379H31.8284V40.3219H31.5284ZM31.5284 40.2648V40.3219H31.8284V40.2648H31.5284ZM31.5284 40.2076V40.2648H31.8284V40.2076H31.5284ZM31.5284 40.1504V40.2076H31.8284V40.1504H31.5284ZM31.5284 40.0931V40.1504H31.8284V40.0931H31.5284ZM31.5284 40.0358V40.0931H31.8284V40.0358H31.5284ZM31.5284 39.9784V40.0358H31.8284V39.9784H31.5284ZM31.5284 39.921V39.9784H31.8284V39.921H31.5284ZM31.5284 39.8635V39.921H31.8284V39.8635H31.5284ZM31.5284 39.806V39.8635H31.8284V39.806H31.5284ZM31.5284 39.7484V39.806H31.8284V39.7484H31.5284ZM31.5284 39.6907V39.7484H31.8284V39.6907H31.5284ZM31.5284 39.6331V39.6907H31.8284V39.6331H31.5284ZM31.5284 39.5753V39.6331H31.8284V39.5753H31.5284ZM31.5284 39.5176V39.5753H31.8284V39.5176H31.5284ZM31.5284 39.4598V39.5176H31.8284V39.4598H31.5284ZM31.5284 39.4019V39.4598H31.8284V39.4019H31.5284ZM31.5284 39.344V39.4019H31.8284V39.344H31.5284ZM31.5284 39.2861V39.344H31.8284V39.2861H31.5284ZM31.5284 39.2281V39.2861H31.8284V39.2281H31.5284ZM31.5284 39.1701V39.2281H31.8284V39.1701H31.5284ZM31.5284 39.112V39.1701H31.8284V39.112H31.5284ZM31.5284 39.0539V39.112H31.8284V39.0539H31.5284ZM31.5284 38.9958V39.0539H31.8284V38.9958H31.5284ZM31.5284 38.9376V38.9958H31.8284V38.9376H31.5284ZM31.5284 38.8794V38.9376H31.8284V38.8794H31.5284ZM31.5284 38.8211V38.8794H31.8284V38.8211H31.5284ZM31.5284 38.7629V38.8211H31.8284V38.7629H31.5284ZM31.5284 38.7045V38.7629H31.8284V38.7045H31.5284ZM31.5284 38.6462V38.7045H31.8284V38.6462H31.5284ZM31.5284 38.5878V38.6462H31.8284V38.5878H31.5284ZM31.5284 38.5294V38.5878H31.8284V38.5294H31.5284ZM31.5284 38.4709V38.5294H31.8284V38.4709H31.5284ZM31.5284 38.4124V38.4709H31.8284V38.4124H31.5284ZM31.5284 38.3539V38.4124H31.8284V38.3539H31.5284ZM31.5284 38.2954V38.3539H31.8284V38.2954H31.5284ZM31.5284 38.2368V38.2954H31.8284V38.2368H31.5284ZM31.5284 38.1782V38.2368H31.8284V38.1782H31.5284ZM31.5284 38.1196V38.1782H31.8284V38.1196H31.5284ZM31.5284 38.0609V38.1196H31.8284V38.0609H31.5284ZM31.5284 38.0022V38.0609H31.8284V38.0022H31.5284ZM31.5284 37.9435V38.0022H31.8284V37.9435H31.5284ZM31.5284 37.8848V37.9435H31.8284V37.8848H31.5284ZM31.5284 37.826V37.8848H31.8284V37.826H31.5284ZM31.5284 37.7672V37.826H31.8284V37.7672H31.5284ZM31.5284 37.7084V37.7672H31.8284V37.7084H31.5284ZM31.5284 37.6496V37.7084H31.8284V37.6496H31.5284ZM31.5284 37.5907V37.6496H31.8284V37.5907H31.5284ZM31.5284 37.5318V37.5907H31.8284V37.5318H31.5284ZM31.5284 37.4729V37.5318H31.8284V37.4729H31.5284ZM31.5284 37.414V37.4729H31.8284V37.414H31.5284ZM31.5284 37.3551V37.414H31.8284V37.3551H31.5284ZM31.5284 37.2962V37.3551H31.8284V37.2962H31.5284ZM31.5284 37.2372V37.2962H31.8284V37.2372H31.5284ZM31.5284 37.1782V37.2372H31.8284V37.1782H31.5284ZM31.5284 37.1192V37.1782H31.8284V37.1192H31.5284ZM31.5284 37.0602V37.1192H31.8284V37.0602H31.5284ZM31.5284 37.0012V37.0602H31.8284V37.0012H31.5284ZM31.5284 36.9421V37.0012H31.8284V36.9421H31.5284ZM31.5284 36.883V36.9421H31.8284V36.883H31.5284ZM31.5284 36.824V36.883H31.8284V36.824H31.5284ZM31.5284 36.7649V36.824H31.8284V36.7649H31.5284ZM31.5284 36.7058V36.7649H31.8284V36.7058H31.5284ZM31.5284 36.6467V36.7058H31.8284V36.6467H31.5284ZM31.5284 36.5876V36.6467H31.8284V36.5876H31.5284ZM31.5284 36.5285V36.5876H31.8284V36.5285H31.5284ZM31.5284 36.4693V36.5285H31.8284V36.4693H31.5284ZM31.5284 36.4102V36.4693H31.8284V36.4102H31.5284ZM31.5284 36.3511V36.4102H31.8284V36.3511H31.5284ZM31.5284 36.2919V36.3511H31.8284V36.2919H31.5284ZM31.5284 36.2328V36.2919H31.8284V36.2328H31.5284ZM31.5284 36.1736V36.2328H31.8284V36.1736H31.5284ZM31.5284 36.1144V36.1736H31.8284V36.1144H31.5284ZM31.5284 36.0553V36.1144H31.8284V36.0553H31.5284ZM31.5284 35.9961V36.0553H31.8284V35.9961H31.5284ZM31.5284 35.9369V35.9961H31.8284V35.9369H31.5284ZM31.5284 35.8778V35.9369H31.8284V35.8778H31.5284ZM31.5284 35.8186V35.8778H31.8284V35.8186H31.5284ZM31.5284 35.7594V35.8186H31.8284V35.7594H31.5284ZM31.5284 35.7003V35.7594H31.8284V35.7003H31.5284ZM31.5284 35.6411V35.7003H31.8284V35.6411H31.5284ZM31.5284 35.5819V35.6411H31.8284V35.5819H31.5284ZM31.5284 35.5228V35.5819H31.8284V35.5228H31.5284ZM31.5284 35.4636V35.5228H31.8284V35.4636H31.5284ZM31.5284 35.4045V35.4636H31.8284V35.4045H31.5284ZM31.5284 35.3453V35.4045H31.8284V35.3453H31.5284ZM31.5284 35.2862V35.3453H31.8284V35.2862H31.5284ZM31.5284 35.2271V35.2862H31.8284V35.2271H31.5284ZM31.5284 35.1679V35.2271H31.8284V35.1679H31.5284ZM31.5284 35.1088V35.1679H31.8284V35.1088H31.5284ZM31.5284 35.0497V35.1088H31.8284V35.0497H31.5284ZM31.5284 34.9906V35.0497H31.8284V34.9906H31.5284ZM31.5284 34.9315V34.9906H31.8284V34.9315H31.5284ZM31.5284 34.8724V34.9315H31.8284V34.8724H31.5284ZM31.5284 34.8134V34.8724H31.8284V34.8134H31.5284ZM31.5284 34.7543V34.8134H31.8284V34.7543H31.5284ZM31.5284 34.6953V34.7543H31.8284V34.6953H31.5284ZM31.5284 34.6363V34.6953H31.8284V34.6363H31.5284ZM31.5284 34.5772V34.6363H31.8284V34.5772H31.5284ZM31.5284 34.5183V34.5772H31.8284V34.5183H31.5284ZM31.5284 34.4593V34.5183H31.8284V34.4593H31.5284ZM31.5284 34.4003V34.4593H31.8284V34.4003H31.5284ZM31.5284 34.3414V34.4003H31.8284V34.3414H31.5284ZM31.5284 34.2824V34.3414H31.8284V34.2824H31.5284ZM31.5284 34.2235V34.2824H31.8284V34.2235H31.5284ZM31.5284 34.1646V34.2235H31.8284V34.1646H31.5284ZM31.5284 34.1058V34.1646H31.8284V34.1058H31.5284ZM31.5284 34.0469V34.1058H31.8284V34.0469H31.5284ZM31.5284 33.9881V34.0469H31.8284V33.9881H31.5284ZM31.5284 33.9293V33.9881H31.8284V33.9293H31.5284ZM31.5284 33.8705V33.9293H31.8284V33.8705H31.5284ZM31.5284 33.8118V33.8705H31.8284V33.8118H31.5284ZM31.5284 33.753V33.8118H31.8284V33.753H31.5284ZM31.5284 33.6943V33.753H31.8284V33.6943H31.5284ZM31.5284 33.6357V33.6943H31.8284V33.6357H31.5284ZM31.5284 33.577V33.6357H31.8284V33.577H31.5284ZM31.5284 33.5184V33.577H31.8284V33.5184H31.5284ZM31.5284 33.4598V33.5184H31.8284V33.4598H31.5284ZM31.5284 33.4012V33.4598H31.8284V33.4012H31.5284ZM31.5284 33.3427V33.4012H31.8284V33.3427H31.5284ZM31.5284 33.2842V33.3427H31.8284V33.2842H31.5284ZM31.5284 33.2257V33.2842H31.8284V33.2257H31.5284ZM31.5284 33.1673V33.2257H31.8284V33.1673H31.5284ZM31.5284 33.1089V33.1673H31.8284V33.1089H31.5284ZM31.5284 33.0505V33.1089H31.8284V33.0505H31.5284ZM31.5284 32.9921V33.0505H31.8284V32.9921H31.5284ZM31.5284 32.9338V32.9921H31.8284V32.9338H31.5284ZM31.5284 32.8756V32.9338H31.8284V32.8756H31.5284ZM31.5284 32.8173V32.8756H31.8284V32.8173H31.5284ZM31.5284 32.7591V32.8173H31.8284V32.7591H31.5284ZM31.5284 32.701V32.7591H31.8284V32.701H31.5284ZM31.5284 32.6428V32.701H31.8284V32.6428H31.5284ZM31.5284 32.5847V32.6428H31.8284V32.5847H31.5284ZM31.5284 32.5267V32.5847H31.8284V32.5267H31.5284ZM31.5284 32.4687V32.5267H31.8284V32.4687H31.5284ZM31.5284 32.4107V32.4687H31.8284V32.4107H31.5284ZM31.5284 32.3528V32.4107H31.8284V32.3528H31.5284ZM31.5284 32.2949V32.3528H31.8284V32.2949H31.5284ZM31.5284 32.2371V32.2949H31.8284V32.2371H31.5284ZM31.5284 32.1793V32.2371H31.8284V32.1793H31.5284ZM31.5284 32.1215V32.1793H31.8284V32.1215H31.5284ZM31.5284 32.0638V32.1215H31.8284V32.0638H31.5284ZM31.5284 32.0062V32.0638H31.8284V32.0062H31.5284ZM31.5284 31.9486V32.0062H31.8284V31.9486H31.5284ZM31.5284 31.891V31.9486H31.8284V31.891H31.5284ZM31.5284 31.8335V31.891H31.8284V31.8335H31.5284ZM31.5284 31.776V31.8335H31.8284V31.776H31.5284ZM31.5284 31.7186V31.776H31.8284V31.7186H31.5284ZM31.5284 31.6612V31.7186H31.8284V31.6612H31.5284ZM31.5284 31.6039V31.6612H31.8284V31.6039H31.5284ZM31.5284 31.5467V31.6039H31.8284V31.5467H31.5284ZM31.5284 31.4894V31.5467H31.8284V31.4894H31.5284ZM31.5284 31.4323V31.4894H31.8284V31.4323H31.5284ZM31.5284 31.3752V31.4323H31.8284V31.3752H31.5284ZM31.5284 31.3181V31.3752H31.8284V31.3181H31.5284ZM31.5284 31.2611V31.3181H31.8284V31.2611H31.5284ZM31.5284 31.2042V31.2611H31.8284V31.2042H31.5284ZM31.5284 31.1473V31.2042H31.8284V31.1473H31.5284ZM31.5284 31.0905V31.1473H31.8284V31.0905H31.5284ZM31.5284 31.0337V31.0905H31.8284V31.0337H31.5284ZM31.5284 30.977V31.0337H31.8284V30.977H31.5284ZM31.5284 30.9204V30.977H31.8284V30.9204H31.5284ZM31.5284 30.8638V30.9204H31.8284V30.8638H31.5284ZM31.5284 30.8073V30.8638H31.8284V30.8073H31.5284ZM31.5284 30.7508V30.8073H31.8284V30.7508H31.5284ZM31.5284 30.6944V30.7508H31.8284V30.6944H31.5284ZM31.5284 30.6381V30.6944H31.8284V30.6381H31.5284ZM31.5284 30.5818V30.6381H31.8284V30.5818H31.5284ZM31.5284 30.5256V30.5818H31.8284V30.5256H31.5284ZM31.5284 30.4694V30.5256H31.8284V30.4694H31.5284ZM31.5284 30.4134V30.4694H31.8284V30.4134H31.5284ZM31.5284 30.3573V30.4134H31.8284V30.3573H31.5284ZM31.5284 30.3014V30.3573H31.8284V30.3014H31.5284ZM31.5284 30.2455V30.3014H31.8284V30.2455H31.5284ZM31.5284 30.1897V30.2455H31.8284V30.1897H31.5284ZM31.5284 30.134V30.1897H31.8284V30.134H31.5284ZM31.5284 30.0783V30.134H31.8284V30.0783H31.5284ZM31.5284 30.0227V30.0783H31.8284V30.0227H31.5284ZM31.5284 29.9672V30.0227H31.8284V29.9672H31.5284ZM31.5284 29.9117V29.9672H31.8284V29.9117H31.5284ZM31.5284 29.8563V29.9117H31.8284V29.8563H31.5284ZM31.5284 29.801V29.8563H31.8284V29.801H31.5284ZM31.5284 29.7458V29.801H31.8284V29.7458H31.5284ZM31.5284 29.6907V29.7458H31.8284V29.6907H31.5284ZM31.5284 29.6356V29.6907H31.8284V29.6356H31.5284ZM31.5284 29.5806V29.6356H31.8284V29.5806H31.5284ZM31.5284 29.5256V29.5806H31.8284V29.5256H31.5284ZM31.5284 29.4708V29.5256H31.8284V29.4708H31.5284ZM31.5284 29.416V29.4708H31.8284V29.416H31.5284ZM31.5284 29.3613V29.416H31.8284V29.3613H31.5284ZM31.5284 29.3067V29.3613H31.8284V29.3067H31.5284ZM31.5284 29.2522V29.3067H31.8284V29.2522H31.5284ZM31.5284 29.1977V29.2522H31.8284V29.1977H31.5284ZM31.5284 29.1434V29.1977H31.8284V29.1434H31.5284ZM31.5284 29.0891V29.1434H31.8284V29.0891H31.5284ZM31.5284 29.0349V29.0891H31.8284V29.0349H31.5284ZM31.5284 28.9808V29.0349H31.8284V28.9808H31.5284ZM31.5284 28.9268V28.9808H31.8284V28.9268H31.5284ZM31.5284 28.8728V28.9268H31.8284V28.8728H31.5284ZM31.5284 28.819V28.8728H31.8284V28.819H31.5284ZM31.5284 28.7652V28.819H31.8284V28.7652H31.5284ZM31.5284 28.7115V28.7652H31.8284V28.7115H31.5284ZM31.5284 28.6579V28.7115H31.8284V28.6579H31.5284ZM31.5284 28.6044V28.6579H31.8284V28.6044H31.5284ZM31.5284 28.551V28.6044H31.8284V28.551H31.5284ZM31.5284 28.4977V28.551H31.8284V28.4977H31.5284ZM31.5284 28.4445V28.4977H31.8284V28.4445H31.5284ZM31.5284 28.3913V28.4445H31.8284V28.3913H31.5284ZM31.5284 28.3383V28.3913H31.8284V28.3383H31.5284ZM31.5284 28.2853V28.3383H31.8284V28.2853H31.5284ZM31.5284 28.2325V28.2853H31.8284V28.2325H31.5284ZM31.5284 28.1797V28.2325H31.8284V28.1797H31.5284ZM31.5284 28.127V28.1797H31.8284V28.127H31.5284ZM31.5284 28.0745V28.127H31.8284V28.0745H31.5284ZM31.5284 28.022V28.0745H31.8284V28.022H31.5284ZM31.5284 27.9696V28.022H31.8284V27.9696H31.5284ZM31.5284 27.9174V27.9696H31.8284V27.9174H31.5284ZM31.5284 27.8652V27.9174H31.8284V27.8652H31.5284ZM31.5284 27.8131V27.8652H31.8284V27.8131H31.5284ZM31.5284 27.7611V27.8131H31.8284V27.7611H31.5284ZM31.5284 27.7093V27.7611H31.8284V27.7093H31.5284ZM31.5284 27.6575V27.7093H31.8284V27.6575H31.5284ZM31.5284 27.6058V27.6575H31.8284V27.6058H31.5284ZM31.5284 27.5543V27.6058H31.8284V27.5543H31.5284ZM31.5284 27.5028V27.5543H31.8284V27.5028H31.5284ZM31.5284 27.4515V27.5028H31.8284V27.4515H31.5284ZM31.5284 27.4002V27.4515H31.8284V27.4002H31.5284ZM31.5284 27.3491V27.4002H31.8284V27.3491H31.5284ZM31.5284 27.298V27.3491H31.8284V27.298H31.5284ZM31.5284 27.2471V27.298H31.8284V27.2471H31.5284ZM31.5284 27.1963V27.2471H31.8284V27.1963H31.5284ZM31.5284 27.1456V27.1963H31.8284V27.1456H31.5284ZM31.5284 27.095V27.1456H31.8284V27.095H31.5284ZM31.5284 27.0445V27.095H31.8284V27.0445H31.5284ZM31.5284 26.9941V27.0445H31.8284V26.9941H31.5284ZM31.5284 26.9439V26.9941H31.8284V26.9439H31.5284ZM31.5284 26.8937V26.9439H31.8284V26.8937H31.5284ZM31.5284 26.8437V26.8937H31.8284V26.8437H31.5284ZM31.5284 26.7938V26.8437H31.8284V26.7938H31.5284ZM31.5284 26.7439V26.7938H31.8284V26.7439H31.5284ZM31.5284 26.6943V26.7439H31.8284V26.6943H31.5284ZM31.5284 26.6447V26.6943H31.8284V26.6447H31.5284ZM31.5284 26.5952V26.6447H31.8284V26.5952H31.5284ZM31.5284 26.5459V26.5952H31.8284V26.5459H31.5284ZM31.5284 26.4967V26.5459H31.8284V26.4967H31.5284ZM31.5284 26.4476V26.4967H31.8284V26.4476H31.5284ZM31.5284 26.3986V26.4476H31.8284V26.3986H31.5284ZM31.5284 26.3497V26.3986H31.8284V26.3497H31.5284ZM31.5284 26.301V26.3497H31.8284V26.301H31.5284ZM31.5284 26.2524V26.301H31.8284V26.2524H31.5284ZM31.5284 26.2039V26.2524H31.8284V26.2039H31.5284ZM31.5284 26.1555V26.2039H31.8284V26.1555H31.5284ZM31.5284 26.1073V26.1555H31.8284V26.1073H31.5284ZM31.5284 26.0591V26.1073H31.8284V26.0591H31.5284ZM31.5284 26.0112V26.0591H31.8284V26.0112H31.5284ZM31.5284 25.9633V26.0112H31.8284V25.9633H31.5284ZM31.5284 25.9155V25.9633H31.8284V25.9155H31.5284ZM31.5284 25.8679V25.9155H31.8284V25.8679H31.5284ZM31.5284 25.8204V25.8679H31.8284V25.8204H31.5284ZM31.5284 25.7731V25.8204H31.8284V25.7731H31.5284ZM31.5284 25.7259V25.7731H31.8284V25.7259H31.5284ZM31.5284 25.6788V25.7259H31.8284V25.6788H31.5284ZM31.5284 25.6318V25.6788H31.8284V25.6318H31.5284ZM31.5284 25.585V25.6318H31.8284V25.585H31.5284ZM31.5284 25.5383V25.585H31.8284V25.5383H31.5284ZM31.5284 25.4917V25.5383H31.8284V25.4917H31.5284ZM31.5284 25.4453V25.4917H31.8284V25.4453H31.5284ZM31.5284 25.399V25.4453H31.8284V25.399H31.5284ZM31.5284 25.3528V25.399H31.8284V25.3528H31.5284ZM31.5284 25.3068V25.3528H31.8284V25.3068H31.5284ZM31.5284 25.2609V25.3068H31.8284V25.2609H31.5284ZM31.5284 25.2152V25.2609H31.8284V25.2152H31.5284ZM31.5284 25.1696V25.2152H31.8284V25.1696H31.5284ZM31.5284 25.1241V25.1696H31.8284V25.1241H31.5284ZM31.5284 25.0788V25.1241H31.8284V25.0788H31.5284ZM31.5284 25.0336V25.0788H31.8284V25.0336H31.5284ZM31.5284 24.9885V25.0336H31.8284V24.9885H31.5284ZM31.5284 24.9436V24.9885H31.8284V24.9436H31.5284ZM31.5284 24.8989V24.9436H31.8284V24.8989H31.5284ZM31.5284 24.8543V24.8989H31.8284V24.8543H31.5284ZM31.5284 24.8098V24.8543H31.8284V24.8098H31.5284ZM31.5284 24.7655V24.8098H31.8284V24.7655H31.5284ZM31.5284 24.7213V24.7655H31.8284V24.7213H31.5284ZM31.5284 24.6772V24.7213H31.8284V24.6772H31.5284ZM31.5284 24.6334V24.6772H31.8284V24.6334H31.5284ZM31.5284 24.5896V24.6334H31.8284V24.5896H31.5284ZM31.5284 24.546V24.5896H31.8284V24.546H31.5284ZM31.5284 24.5026V24.546H31.8284V24.5026H31.5284ZM31.5284 24.4593V24.5026H31.8284V24.4593H31.5284ZM31.5284 24.4161V24.4593H31.8284V24.4161H31.5284ZM31.5284 24.3732V24.4161H31.8284V24.3732H31.5284ZM31.5284 24.3303V24.3732H31.8284V24.3303H31.5284ZM31.5284 24.2876V24.3303H31.8284V24.2876H31.5284ZM31.5284 24.2451V24.2876H31.8284V24.2451H31.5284ZM31.5284 24.2027V24.2451H31.8284V24.2027H31.5284ZM31.5284 24.1605V24.2027H31.8284V24.1605H31.5284ZM31.5284 24.1184V24.1605H31.8284V24.1184H31.5284ZM31.5284 24.0765V24.1184H31.8284V24.0765H31.5284ZM31.5284 24.0348V24.0765H31.8284V24.0348H31.5284ZM31.5284 23.9932V24.0348H31.8284V23.9932H31.5284ZM31.5284 23.9517V23.9932H31.8284V23.9517H31.5284ZM31.5284 23.9104V23.9517H31.8284V23.9104H31.5284ZM31.5284 23.8693V23.9104H31.8284V23.8693H31.5284ZM31.5284 23.8284V23.8693H31.8284V23.8284H31.5284ZM31.5284 23.7876V23.8284H31.8284V23.7876H31.5284ZM31.5284 23.7469V23.7876H31.8284V23.7469H31.5284ZM31.5284 23.7065V23.7469H31.8284V23.7065H31.5284ZM31.5284 23.6662V23.7065H31.8284V23.6662H31.5284ZM31.5284 23.626V23.6662H31.8284V23.626H31.5284ZM31.5284 23.586V23.626H31.8284V23.586H31.5284ZM31.5284 23.5462V23.586H31.8284V23.5462H31.5284ZM31.5284 23.5066V23.5462H31.8284V23.5066H31.5284ZM31.5284 23.4671V23.5066H31.8284V23.4671H31.5284ZM31.5284 23.4278V23.4671H31.8284V23.4278H31.5284ZM31.5284 23.3886V23.4278H31.8284V23.3886H31.5284ZM31.5284 23.3497V23.3886H31.8284V23.3497H31.5284ZM31.5284 23.3109V23.3497H31.8284V23.3109H31.5284ZM31.5284 23.2722V23.3109H31.8284V23.2722H31.5284ZM31.5284 23.2338V23.2722H31.8284V23.2338H31.5284ZM31.5284 23.1955V23.2338H31.8284V23.1955H31.5284ZM31.5284 23.1574V23.1955H31.8284V23.1574H31.5284ZM31.5284 23.1194V23.1574H31.8284V23.1194H31.5284ZM31.5284 23.0817V23.1194H31.8284V23.0817H31.5284ZM31.5284 23.0441V23.0817H31.8284V23.0441H31.5284ZM31.5284 23.0066V23.0441H31.8284V23.0066H31.5284ZM31.5284 22.9694V23.0066H31.8284V22.9694H31.5284ZM31.5284 22.9323V22.9694H31.8284V22.9323H31.5284ZM31.5284 22.8954V22.9323H31.8284V22.8954H31.5284ZM31.5284 22.8587V22.8954H31.8284V22.8587H31.5284ZM31.5284 22.8222V22.8587H31.8284V22.8222H31.5284ZM31.5284 22.7859V22.8222H31.8284V22.7859H31.5284ZM31.5284 22.7497V22.7859H31.8284V22.7497H31.5284ZM31.5284 22.7137V22.7497H31.8284V22.7137H31.5284ZM31.5284 22.6779V22.7137H31.8284V22.6779H31.5284ZM31.5284 22.6423V22.6779H31.8284V22.6423H31.5284ZM31.5284 22.6068V22.6423H31.8284V22.6068H31.5284ZM31.5284 22.5716V22.6068H31.8284V22.5716H31.5284ZM31.5284 22.5365V22.5716H31.8284V22.5365H31.5284ZM31.5284 22.5016V22.5365H31.8284V22.5016H31.5284ZM31.5284 22.4669V22.5016H31.8284V22.4669H31.5284ZM31.5284 22.4324V22.4669H31.8284V22.4324H31.5284ZM31.5284 22.3981V22.4324H31.8284V22.3981H31.5284ZM31.5284 22.3639V22.3981H31.8284V22.3639H31.5284ZM31.5284 22.33V22.3639H31.8284V22.33H31.5284ZM31.5284 22.2962V22.33H31.8284V22.2962H31.5284ZM31.5284 22.2627V22.2962H31.8284V22.2627H31.5284ZM31.5284 22.2293V22.2627H31.8284V22.2293H31.5284ZM31.5284 22.1961V22.2293H31.8284V22.1961H31.5284ZM31.5284 22.1631V22.1961H31.8284V22.1631H31.5284ZM31.5284 22.1303V22.1631H31.8284V22.1303H31.5284ZM31.5284 22.0977V22.1303H31.8284V22.0977H31.5284ZM31.5284 22.0653V22.0977H31.8284V22.0653H31.5284ZM31.5284 22.0331V22.0653H31.8284V22.0331H31.5284ZM31.5284 22.0011V22.0331H31.8284V22.0011H31.5284ZM31.5284 21.9693V22.0011H31.8284V21.9693H31.5284ZM31.5284 21.9377V21.9693H31.8284V21.9377H31.5284ZM31.5284 21.9062V21.9377H31.8284V21.9062H31.5284ZM31.5284 21.875V21.9062H31.8284V21.875H31.5284ZM31.5284 21.844V21.875H31.8284V21.844H31.5284ZM31.5284 21.8132V21.844H31.8284V21.8132H31.5284ZM31.5284 21.7825V21.8132H31.8284V21.7825H31.5284ZM31.5284 21.7521V21.7825H31.8284V21.7521H31.5284ZM31.5284 21.7219V21.7521H31.8284V21.7219H31.5284ZM31.5284 21.6919V21.7219H31.8284V21.6919H31.5284ZM31.5284 21.6621V21.6919H31.8284V21.6621H31.5284ZM31.5284 21.6325V21.6621H31.8284V21.6325H31.5284ZM31.5284 21.6031V21.6325H31.8284V21.6031H31.5284ZM31.5284 21.5739V21.6031H31.8284V21.5739H31.5284ZM31.5284 21.5449V21.5739H31.8284V21.5449H31.5284ZM31.5284 21.5161V21.5449H31.8284V21.5161H31.5284ZM31.5284 21.4876V21.5161H31.8284V21.4876H31.5284ZM31.5284 21.4592V21.4876H31.8284V21.4592H31.5284ZM31.5284 21.431V21.4592H31.8284V21.431H31.5284ZM31.5284 21.4031V21.431H31.8284V21.4031H31.5284ZM31.5284 21.3754V21.4031H31.8284V21.3754H31.5284ZM31.5284 21.3479V21.3754H31.8284V21.3479H31.5284ZM31.5284 21.3206V21.3479H31.8284V21.3206H31.5284ZM31.5284 21.2935V21.3206H31.8284V21.2935H31.5284ZM31.5284 21.2666V21.2935H31.8284V21.2666H31.5284ZM31.5284 21.2399V21.2666H31.8284V21.2399H31.5284ZM31.5284 21.2135V21.2399H31.8284V21.2135H31.5284ZM31.5284 21.1873V21.2135H31.8284V21.1873H31.5284ZM31.5284 21.1612V21.1873H31.8284V21.1612H31.5284ZM31.5284 21.1354V21.1612H31.8284V21.1354H31.5284ZM31.5284 21.1099V21.1354H31.8284V21.1099H31.5284ZM31.5284 21.0845V21.1099H31.8284V21.0845H31.5284ZM31.5284 21.0594V21.0845H31.8284V21.0594H31.5284ZM31.5284 21.0345V21.0594H31.8284V21.0345H31.5284ZM31.5284 21.0098V21.0345H31.8284V21.0098H31.5284ZM31.5284 20.9853V21.0098H31.8284V20.9853H31.5284ZM31.5284 20.961V20.9853H31.8284V20.961H31.5284ZM31.5284 20.937V20.961H31.8284V20.937H31.5284ZM31.5284 20.9132V20.937H31.8284V20.9132H31.5284ZM31.5284 20.8896V20.9132H31.8284V20.8896H31.5284ZM31.5284 20.8663V20.8896H31.8284V20.8663H31.5284ZM31.5284 20.8431V20.8663H31.8284V20.8431H31.5284ZM31.5284 20.8202V20.8431H31.8284V20.8202H31.5284ZM31.5284 20.7976V20.8202H31.8284V20.7976H31.5284ZM31.5284 20.7751V20.7976H31.8284V20.7751H31.5284ZM31.5284 20.7529V20.7751H31.8284V20.7529H31.5284ZM31.5284 20.7309V20.7529H31.8284V20.7309H31.5284ZM31.5284 20.7092V20.7309H31.8284V20.7092H31.5284ZM31.5284 20.6876V20.7092H31.8284V20.6876H31.5284ZM31.5284 20.6663V20.6876H31.8284V20.6663H31.5284ZM31.5284 20.6453V20.6663H31.8284V20.6453H31.5284ZM31.5284 20.6244V20.6453H31.8284V20.6244H31.5284ZM31.5284 20.6039V20.6244H31.8284V20.6039H31.5284ZM31.5284 20.5835V20.6039H31.8284V20.5835H31.5284ZM31.5284 20.5634V20.5835H31.8284V20.5634H31.5284ZM31.5284 20.5435V20.5634H31.8284V20.5435H31.5284ZM31.5284 20.5238V20.5435H31.8284V20.5238H31.5284ZM31.5284 20.5044V20.5238H31.8284V20.5044H31.5284ZM31.5284 20.4852V20.5044H31.8284V20.4852H31.5284ZM31.5284 20.4663V20.4852H31.8284V20.4663H31.5284ZM31.5284 20.4476V20.4663H31.8284V20.4476H31.5284ZM31.5284 20.4292V20.4476H31.8284V20.4292H31.5284ZM31.5284 20.4109V20.4292H31.8284V20.4109H31.5284ZM31.5284 20.393V20.4109H31.8284V20.393H31.5284ZM31.5284 20.3752V20.393H31.8284V20.3752H31.5284ZM31.5284 20.3578V20.3752H31.8284V20.3578H31.5284ZM31.5284 20.3405V20.3578H31.8284V20.3405H31.5284ZM31.5284 20.3235V20.3405H31.8284V20.3235H31.5284ZM31.5284 20.3068V20.3235H31.8284V20.3068H31.5284ZM31.5284 20.2903V20.3068H31.8284V20.2903H31.5284ZM31.5284 20.274V20.2903H31.8284V20.274H31.5284ZM31.5284 20.258V20.274H31.8284V20.258H31.5284ZM31.5284 20.2422V20.258H31.8284V20.2422H31.5284ZM31.5284 20.2267V20.2422H31.8284V20.2267H31.5284ZM31.5284 20.2115V20.2267H31.8284V20.2115H31.5284ZM31.5284 20.1964V20.2115H31.8284V20.1964H31.5284ZM31.5284 20.1817V20.1964H31.8284V20.1817H31.5284ZM31.5284 20.1672V20.1817H31.8284V20.1672H31.5284ZM31.5284 20.1529V20.1672H31.8284V20.1529H31.5284ZM31.5284 20.1389V20.1529H31.8284V20.1389H31.5284ZM31.5284 20.1252V20.1389H31.8284V20.1252H31.5284ZM31.5284 20.1117V20.1252H31.8284V20.1117H31.5284ZM31.5284 20.0984V20.1117H31.8284V20.0984H31.5284ZM31.5284 20.0854V20.0984H31.8284V20.0854H31.5284ZM31.5284 20.0727V20.0854H31.8284V20.0727H31.5284ZM31.5284 20.0602V20.0727H31.8284V20.0602H31.5284ZM31.5284 20.048V20.0602H31.8284V20.048H31.5284ZM31.5284 20.0361V20.048H31.8284V20.0361H31.5284ZM31.5284 20.0244V20.0361H31.8284V20.0244H31.5284ZM31.5284 20.0129V20.0244H31.8284V20.0129H31.5284ZM31.5284 20.0018V20.0129H31.8284V20.0018H31.5284ZM31.5284 19.9909V20.0018H31.8284V19.9909H31.5284ZM31.5284 19.9802V19.9909H31.8284V19.9802H31.5284ZM31.5284 19.9698V19.9802H31.8284V19.9698H31.5284ZM31.5284 19.9597V19.9698H31.8284V19.9597H31.5284ZM31.5284 19.9498V19.9597H31.8284V19.9498H31.5284ZM31.5284 19.9403V19.9498H31.8284V19.9403H31.5284ZM31.5284 19.9309V19.9403H31.8284V19.9309H31.5284ZM31.5284 19.9219V19.9309H31.8284V19.9219H31.5284ZM31.5284 19.9131V19.9219H31.8284V19.9131H31.5284ZM31.5284 19.9046V19.9131H31.8284V19.9046H31.5284ZM31.5284 19.8963V19.9046H31.8284V19.8963H31.5284ZM31.5284 19.8883V19.8963H31.8284V19.8883H31.5284ZM31.5284 19.8806V19.8883H31.8284V19.8806H31.5284ZM31.5284 19.8732V19.8806H31.8284V19.8732H31.5284ZM31.5284 19.866V19.8732H31.8284V19.866H31.5284ZM31.5284 19.8591V19.866H31.8284V19.8591H31.5284ZM31.5284 19.8525V19.8591H31.8284V19.8525H31.5284ZM31.5284 19.8461V19.8525H31.8284V19.8461H31.5284ZM31.5284 19.84V19.8461H31.8284V19.84H31.5284ZM31.5284 19.8342V19.84H31.8284V19.8342H31.5284ZM31.5284 19.8287V19.8342H31.8284V19.8287H31.5284ZM31.5284 19.8235V19.8287H31.8284V19.8235H31.5284ZM31.5284 19.8185V19.8235H31.8284V19.8185H31.5284ZM31.5284 19.8138V19.8185H31.8284V19.8138H31.5284ZM31.5284 19.8094V19.8138H31.8284V19.8094H31.5284ZM31.5284 19.8053V19.8094H31.8284V19.8053H31.5284ZM31.5284 19.8014V19.8053H31.8284V19.8014H31.5284ZM31.5284 19.7978V19.8014H31.8284V19.7978H31.5284ZM31.5284 19.7945V19.7978H31.8284V19.7945H31.5284ZM31.5284 19.7915V19.7945H31.8284V19.7915H31.5284ZM31.5284 19.7888V19.7915H31.8284V19.7888H31.5284ZM31.5284 19.7864V19.7888H31.8284V19.7864H31.5284ZM31.5284 19.7842V19.7864H31.8284V19.7842H31.5284ZM31.5284 19.7823V19.7842H31.8284V19.7823H31.5284ZM31.5284 19.7808V19.7823H31.8284V19.7808H31.5284ZM31.5284 19.7794V19.7808H31.8284V19.7794H31.5284ZM31.5284 19.7784V19.7794H31.8284V19.7784H31.5284ZM31.5284 19.7777V19.7784H31.8284V19.7777H31.5284ZM31.5284 19.7773V19.7777H31.8284V19.7773H31.5284ZM31.0784 19.9271C31.3784 19.9271 31.5284 19.9271 31.6033 19.9272C31.6409 19.9272 31.6595 19.9272 31.6687 19.9272C31.6735 19.9272 31.6753 19.9272 31.6759 19.9272C31.6768 19.9272 31.6749 19.9272 31.6724 19.9272C31.6716 19.9271 31.6699 19.927 31.6678 19.9269C31.6664 19.9268 31.6612 19.9264 31.6546 19.9254C31.6512 19.9248 31.6448 19.9237 31.6369 19.9214C31.6301 19.9195 31.6141 19.9144 31.5963 19.9028C31.5756 19.8893 31.5516 19.866 31.5381 19.8305C31.5269 19.8009 31.5284 19.7736 31.5284 19.7773H31.8284C31.8284 19.7773 31.8284 19.7755 31.8283 19.7737C31.8283 19.772 31.828 19.7667 31.8277 19.7632C31.8268 19.7538 31.8246 19.7399 31.8186 19.7241C31.8051 19.6885 31.7812 19.6653 31.7604 19.6517C31.7427 19.6401 31.7267 19.6351 31.7199 19.6331C31.712 19.6309 31.7055 19.6297 31.7022 19.6292C31.6956 19.6281 31.6903 19.6277 31.6888 19.6276C31.6867 19.6275 31.6849 19.6274 31.6841 19.6274C31.6813 19.6273 31.6788 19.6273 31.6786 19.6273C31.6768 19.6272 31.6739 19.6272 31.6693 19.6272C31.6598 19.6272 31.6409 19.6272 31.6034 19.6272C31.5284 19.6271 31.3784 19.6271 31.0784 19.6271V19.9271ZM31.6784 19.6271H31.0784V19.9271H31.6784V19.6271ZM15.8099 20.35C16.0585 20.35 16.2599 20.5515 16.2599 20.8H16.5599C16.5599 20.3858 16.2241 20.05 15.8099 20.05V20.35ZM15.3599 20.8C15.3599 20.5515 15.5614 20.35 15.8099 20.35V20.05C15.3957 20.05 15.0599 20.3858 15.0599 20.8H15.3599ZM15.3599 42.9195V20.8H15.0599V42.9195H15.3599ZM15.8099 43.3696C15.5614 43.3696 15.3599 43.1681 15.3599 42.9195H15.0599C15.0599 43.3338 15.3957 43.6696 15.8099 43.6696V43.3696ZM16.2599 42.9195C16.2599 43.1681 16.0585 43.3696 15.8099 43.3696V43.6696C16.2241 43.6696 16.5599 43.3338 16.5599 42.9195H16.2599ZM16.2599 20.8V42.9195H16.5599V20.8H16.2599ZM20.9236 20.35C21.1721 20.35 21.3736 20.5515 21.3736 20.8H21.6736C21.6736 20.3858 21.3378 20.05 20.9236 20.05V20.35ZM20.4736 20.8C20.4736 20.5515 20.675 20.35 20.9236 20.35V20.05C20.5093 20.05 20.1736 20.3858 20.1736 20.8H20.4736ZM20.4736 42.9195V20.8H20.1736V42.9195H20.4736ZM20.9236 43.3696C20.675 43.3696 20.4736 43.1681 20.4736 42.9195H20.1736C20.1736 43.3338 20.5093 43.6696 20.9236 43.6696V43.3696ZM21.3736 42.9195C21.3736 43.1681 21.1721 43.3696 20.9236 43.3696V43.6696C21.3378 43.6696 21.6736 43.3338 21.6736 42.9195H21.3736ZM21.3736 20.8V42.9195H21.6736V20.8H21.3736ZM26.0372 20.35C26.2857 20.35 26.4872 20.5515 26.4872 20.8H26.7872C26.7872 20.3858 26.4514 20.05 26.0372 20.05V20.35ZM25.5872 20.8C25.5872 20.5515 25.7887 20.35 26.0372 20.35V20.05C25.623 20.05 25.2872 20.3858 25.2872 20.8H25.5872ZM25.5872 42.9195V20.8H25.2872V42.9195H25.5872ZM26.0372 43.3696C25.7887 43.3696 25.5872 43.1681 25.5872 42.9195H25.2872C25.2872 43.3338 25.623 43.6696 26.0372 43.6696V43.3696ZM26.4872 42.9195C26.4872 43.1681 26.2857 43.3696 26.0372 43.3696V43.6696C26.4514 43.6696 26.7872 43.3338 26.7872 42.9195H26.4872ZM26.4872 20.8V42.9195H26.7872V20.8H26.4872ZM16.1549 7.24148C16.2978 7.09686 16.4191 6.97121 16.5014 6.8323C16.5881 6.68582 16.6285 6.53087 16.6285 6.33061L16.3285 6.33061C16.3285 6.48461 16.299 6.58531 16.2433 6.67944C16.183 6.78115 16.0892 6.8811 15.9415 7.03062L16.1549 7.24148ZM16.1551 7.24121L16.1552 7.24113L15.9412 7.03096L15.9411 7.03104L16.1551 7.24121ZM15.4486 8.71905C15.4486 7.95923 15.8415 7.5587 16.1548 7.24154L15.9414 7.03071C15.6221 7.35387 15.1486 7.83034 15.1486 8.71905H15.4486ZM15.8517 9.12218C15.6291 9.12218 15.4486 8.94173 15.4486 8.71905H15.1486C15.1486 9.10741 15.4634 9.42218 15.8517 9.42218V9.12218ZM16.2549 8.71905C16.2549 8.94173 16.0744 9.12218 15.8517 9.12218V9.42218C16.2401 9.42218 16.5549 9.10741 16.5549 8.71905H16.2549ZM16.7285 7.80813C16.5856 7.95274 16.4643 8.07841 16.382 8.21732C16.2952 8.36382 16.2549 8.51878 16.2549 8.71905H16.5549C16.5549 8.56507 16.5844 8.46435 16.6401 8.37019C16.7004 8.26845 16.7942 8.16848 16.9419 8.01896L16.7285 7.80813ZM16.7282 7.80842L16.7281 7.80849L16.9422 8.0186L16.9423 8.01852L16.7282 7.80842ZM17.4347 6.33061C17.4347 7.09036 17.0419 7.49089 16.7285 7.80805L16.942 8.01889C17.2612 7.69572 17.7347 7.21925 17.7347 6.33061L17.4347 6.33061ZM16.7285 4.8531C17.0419 5.17026 17.4347 5.57079 17.4347 6.33061H17.7347C17.7347 5.4419 17.2612 4.96543 16.942 4.64226L16.7285 4.8531ZM16.7286 4.85318L16.7287 4.85326L16.9418 4.64211L16.9417 4.64203L16.7286 4.85318ZM16.2549 3.94187C16.2549 4.14216 16.2952 4.29714 16.382 4.44366C16.4642 4.58261 16.5855 4.70832 16.7285 4.85301L16.9419 4.6422C16.7942 4.49261 16.7004 4.39261 16.6401 4.29084C16.5844 4.19665 16.5549 4.0959 16.5549 3.94187H16.2549ZM16.7285 3.03087C16.5856 3.17548 16.4643 3.30115 16.382 3.44008C16.2952 3.58658 16.2549 3.74156 16.2549 3.94187H16.5549C16.5549 3.78784 16.5844 3.6871 16.6401 3.59293C16.7004 3.49118 16.7942 3.39122 16.9419 3.2417L16.7285 3.03087ZM16.7285 3.03084L16.7284 3.03094L16.942 3.24163L16.9421 3.24152L16.7285 3.03084ZM17.4347 1.55312C17.4347 2.31293 17.0419 2.71354 16.7286 3.03077L16.942 3.24158C17.2613 2.91834 17.7347 2.4418 17.7347 1.55312H17.4347ZM17.0316 1.15C17.2543 1.15 17.4347 1.33045 17.4347 1.55312H17.7347C17.7347 1.16476 17.42 0.85 17.0316 0.85V1.15ZM16.6285 1.55312C16.6285 1.33046 16.809 1.15 17.0316 1.15V0.85C16.6433 0.85 16.3285 1.16475 16.3285 1.55312H16.6285ZM16.1549 2.46425C16.2978 2.31957 16.4191 2.19386 16.5014 2.05492C16.5881 1.9084 16.6285 1.75343 16.6285 1.55312H16.3285C16.3285 1.70714 16.299 1.80789 16.2432 1.90209C16.183 2.00387 16.0892 2.10387 15.9414 2.25347L16.1549 2.46425ZM16.1549 2.46428L16.155 2.46421L15.9414 2.25351L15.9413 2.25359L16.1549 2.46428ZM15.4486 3.94187C15.4486 3.18205 15.8415 2.78151 16.1548 2.46436L15.9414 2.25352C15.6221 2.57669 15.1486 3.05316 15.1486 3.94187H15.4486ZM16.1548 5.41951C15.8415 5.10228 15.4486 4.70167 15.4486 3.94187H15.1486C15.1486 4.83054 15.6221 5.30708 15.9414 5.63032L16.1548 5.41951ZM16.1549 5.41965L16.1548 5.41954L15.9413 5.63029L15.9414 5.63041L16.1549 5.41965ZM16.6285 6.33061C16.6285 6.13032 16.5882 5.97534 16.5014 5.82883C16.4191 5.68989 16.2978 5.56422 16.1549 5.4196L15.9415 5.63046C16.0892 5.77997 16.183 5.87993 16.2433 5.98167C16.299 6.07583 16.3285 6.17657 16.3285 6.33061H16.6285ZM10.6 19.55C10.8485 19.55 11.05 19.7514 11.05 20H11.35C11.35 19.5857 11.0142 19.25 10.6 19.25V19.55ZM10.15 20C10.15 19.7514 10.3515 19.55 10.6 19.55V19.25C10.1858 19.25 9.85 19.5857 9.85 20H10.15ZM10.15 24V20H9.85V24H10.15ZM10.6 24.45C10.3515 24.45 10.15 24.2485 10.15 24H9.85C9.85 24.4142 10.1858 24.75 10.6 24.75V24.45ZM11.05 24C11.05 24.2485 10.8485 24.45 10.6 24.45V24.75C11.0142 24.75 11.35 24.4142 11.35 24H11.05ZM11.05 20V24H11.35V20H11.05ZM11.35 26C11.35 25.5857 11.0142 25.25 10.6 25.25V25.55C10.8485 25.55 11.05 25.7514 11.05 26H11.35ZM11.35 42V26H11.05V42H11.35ZM10.6 42.75C11.0142 42.75 11.35 42.4142 11.35 42H11.05C11.05 42.2485 10.8485 42.45 10.6 42.45V42.75ZM9.85 42C9.85 42.4142 10.1858 42.75 10.6 42.75V42.45C10.3515 42.45 10.15 42.2485 10.15 42H9.85ZM9.85 26V42H10.15V26H9.85ZM10.6 25.25C10.1858 25.25 9.85 25.5857 9.85 26H10.15C10.15 25.7514 10.3515 25.55 10.6 25.55V25.25Z" fill="#21222F"/>
</svg>
