<svg width="39" height="38" viewBox="0 0 39 38" fill="none" xmlns="http://www.w3.org/2000/svg">
<path d="M19.8384 3.17306V2.24965C19.7969 0.947847 20.4432 0.822758 22.2143 1.15834L36.4702 4.18042C37.6892 4.46867 38.0327 4.83325 37.9976 5.85931V32.3865C37.9176 33.567 37.5732 33.9247 36.4702 34.0654L21.8749 36.8356C20.4042 37.1567 19.9341 37.0449 19.9232 36.1641V35.4085M19.8384 3.17306H12.8802C11.3603 3.17101 10.9919 3.51228 11.0133 4.60015V12.5751V13.4985M19.8384 3.17306L19.9232 24.9991M11.0133 13.4985C10.1648 12.9108 9.40986 13.1132 9.40106 14.0861V14.9256C9.40106 15.849 9.40106 16.0169 8.46764 16.0169H5.92195M11.0133 13.4985L16.8684 18.3674C17.8295 19.0773 17.677 19.4365 16.8684 20.0463L10.9285 24.9991V25.251M19.9232 35.4085V27.0139M19.9232 35.4085L12.0316 35.3246C11.106 35.3182 10.9139 35.0377 10.9285 34.2333V25.251M3.71569 16.0169H1.84886C1.27753 16.0131 1.00029 16.0822 1.00029 17.0242V21.7252C0.991915 22.4869 1.16008 22.7258 1.84886 22.7326H8.46764C9.17331 22.7253 9.4069 22.8133 9.40106 23.2363V24.6634C9.42725 25.0694 9.54728 25.2419 10.3345 25.251H10.9285M24.76 21.3055C23.6211 21.3129 23.0006 21.3008 22.978 20.2981V18.1155C22.988 17.2412 23.564 17.1784 24.76 17.1921" stroke="#5FB34E" stroke-width="1.2"/>
</svg>
