<svg width="39" height="38" viewBox="0 0 39 38" fill="none" xmlns="http://www.w3.org/2000/svg">
<g clip-path="url(#clip0)">
<path d="M20.33 37.2002C19.95 37.2002 19.64 37.1202 19.39 36.9202C18.93 36.5602 18.93 35.9602 18.92 35.7702V35.6002L11.62 35.5202C11.19 35.5202 10.66 35.4702 10.3 35.1002C9.96 34.7502 9.92 34.2502 9.92 33.8202V25.4502C9.21 25.4402 8.47 25.3002 8.4 24.3002V22.9402C8.33 22.9302 8.23 22.9302 8.07 22.9302H1.45C1.11 22.9302 0.68 22.8802 0.36 22.5602C0.04 22.2302 0 21.7702 0 21.3202V16.6302C0 16.1902 0.05 15.6902 0.38 15.3502C0.72 15.0202 1.18 15.0302 1.45 15.0202H3.31V16.2202H1.45C1.32 16.2202 1.25 16.2202 1.21 16.2302C1.22 16.2602 1.2 16.3802 1.2 16.6302V21.3302C1.2 21.5802 1.22 21.6902 1.23 21.7302C1.25 21.7302 1.32 21.7402 1.46 21.7402H8.07C8.53 21.7302 9.01 21.7602 9.32 22.0702C9.51 22.2602 9.61 22.5202 9.6 22.8502V24.2302C9.66 24.2402 9.77 24.2502 9.94 24.2502H10.01L16.08 19.1802C16.39 18.9502 16.49 18.8302 16.52 18.7802C16.49 18.7702 16.39 18.6502 16.11 18.4402L10.25 13.5702C9.94 13.3602 9.72 13.3402 9.67 13.3702C9.66 13.3802 9.6 13.4602 9.6 13.6802V14.5102C9.6 15.5602 9.5 16.2002 8.07 16.2002H5.52V15.0002H8.07C8.23 15.0002 8.33 14.9902 8.39 14.9902C8.4 14.8902 8.4 14.7002 8.4 14.5302V13.6902C8.41 12.8202 8.86 12.4602 9.12 12.3202C9.38 12.1802 9.69 12.1402 10.01 12.2002V4.20017C10 3.74017 10.05 3.15017 10.47 2.73017C10.94 2.25017 11.71 2.18017 12.47 2.18017C12.48 2.18017 12.48 2.18017 12.49 2.18017H18.85V1.85017C18.84 1.42017 18.87 0.770169 19.36 0.360169C19.9 -0.109831 20.72 -0.0598309 21.94 0.170169L36.21 3.19017C37.49 3.49017 38.26 3.98017 38.21 5.48017V31.9902C38.11 33.4802 37.55 34.0902 36.16 34.2602L21.6 37.0302C21.1 37.1302 20.68 37.2002 20.33 37.2002ZM20.12 35.0102V35.7702C20.12 35.9502 20.15 36.0102 20.15 36.0102C20.18 36.0102 20.42 36.0602 21.34 35.8602L35.95 33.0902C36.77 32.9802 36.93 32.8802 36.99 31.9602V5.47017C37.01 4.80017 36.97 4.62017 35.92 4.38017L21.69 1.35017C20.57 1.14017 20.22 1.19017 20.13 1.28017C20.12 1.29017 20.03 1.38017 20.04 1.84017V2.78017L20.12 24.6102H18.92L18.84 3.37017H12.48H12.47C11.68 3.37017 11.41 3.47017 11.32 3.56017C11.24 3.64017 11.21 3.85017 11.21 4.18017V12.8102L16.85 17.5002C17.27 17.8102 17.73 18.2202 17.73 18.8002C17.73 19.3902 17.27 19.7902 16.83 20.1202L11.13 24.8702V33.8202C11.12 34.1602 11.16 34.2502 11.17 34.2602C11.17 34.2402 11.26 34.3102 11.64 34.3102L18.93 34.3902V26.6002H20.13V35.0102H20.12ZM24.16 21.5102C23.16 21.5102 22.01 21.4202 21.98 19.9202V17.7202C21.99 17.0502 22.26 16.5902 22.79 16.3702C23.21 16.2002 23.75 16.1902 24.36 16.1902L24.35 17.3902C23.92 17.3802 23.46 17.3902 23.25 17.4702C23.21 17.4902 23.17 17.5002 23.17 17.7202V19.9002C23.18 20.2802 23.17 20.3102 24.35 20.3102L24.36 21.5102C24.3 21.5102 24.23 21.5102 24.16 21.5102Z" fill="#60B44F"/>
</g>
<defs>
<clipPath id="clip0">
<rect width="38.2" height="37.2" fill="white"/>
</clipPath>
</defs>
</svg>
