<svg width="43" height="38" viewBox="0 0 43 38" fill="none" xmlns="http://www.w3.org/2000/svg">
<path d="M18.8443 0.530762H2.74432C1.23107 0.530762 0 1.76183 0 3.27508V35.2556C0 36.7688 1.23107 37.9999 2.74432 37.9999H18.8443C20.3576 37.9999 21.5887 36.7688 21.5887 35.2556V3.27508C21.5887 1.76183 20.3576 0.530762 18.8443 0.530762ZM20.4909 30.3158H4.93978C4.63666 30.3158 4.39091 30.5615 4.39091 30.8646C4.39091 31.1678 4.63666 31.4135 4.93978 31.4135H20.4909V35.2556C20.4909 36.1635 19.7523 36.9021 18.8443 36.9021H2.74432C1.83635 36.9021 1.09773 36.1635 1.09773 35.2556V31.4135H2.74432C3.04744 31.4135 3.29318 31.1678 3.29318 30.8646C3.29318 30.5615 3.04744 30.3158 2.74432 30.3158H1.09773V6.0194H20.4909V30.3158ZM20.4909 4.92167H1.09773V3.27508C1.09773 2.36711 1.83635 1.62849 2.74432 1.62849H18.8443C19.7523 1.62849 20.4909 2.36711 20.4909 3.27508V4.92167Z" fill="#5FB34E"/>
<path d="M12.9897 2.72632H10.7942C10.4911 2.72632 10.2454 2.97206 10.2454 3.27518C10.2454 3.5783 10.4911 3.82405 10.7942 3.82405H12.9897C13.2928 3.82405 13.5385 3.5783 13.5385 3.27518C13.5385 2.97206 13.2928 2.72632 12.9897 2.72632Z" fill="#5FB34E"/>
<path d="M10.7943 32.5112C9.88633 32.5112 9.14771 33.2499 9.14771 34.1578C9.14771 35.0658 9.88633 35.8044 10.7943 35.8044C11.7023 35.8044 12.4409 35.0658 12.4409 34.1578C12.4409 33.2499 11.7023 32.5112 10.7943 32.5112ZM10.7943 34.7067C10.4916 34.7067 10.2454 34.4605 10.2454 34.1578C10.2454 33.8551 10.4916 33.609 10.7943 33.609C11.097 33.609 11.3432 33.8551 11.3432 34.1578C11.3432 34.4605 11.097 34.7067 10.7943 34.7067Z" fill="#5FB34E"/>
<path d="M8.59891 3.82405C8.90204 3.82405 9.14778 3.57831 9.14778 3.27518C9.14778 2.97205 8.90204 2.72632 8.59891 2.72632C8.29578 2.72632 8.05005 2.97205 8.05005 3.27518C8.05005 3.57831 8.29578 3.82405 8.59891 3.82405Z" fill="#5FB34E"/>
<path d="M31.5232 17.7422C31.5235 16.5194 31.0475 15.3698 30.183 14.5053C29.3185 13.6408 28.169 13.1649 26.9462 13.1651C26.6088 13.1652 26.3354 13.4387 26.3355 13.7761C26.3355 14.1134 26.6091 14.3869 26.9464 14.3869C27.8428 14.3866 28.6854 14.7356 29.319 15.3692C29.9527 16.0029 30.3015 16.8456 30.3013 17.7418C30.301 19.5923 28.7951 21.0982 26.9445 21.0986C26.6071 21.0986 26.3336 21.3722 26.3337 21.7096C26.3337 21.8783 26.4021 22.0309 26.5127 22.1414C26.6232 22.252 26.776 22.3204 26.9448 22.3204C29.4688 22.3198 31.5226 20.266 31.5232 17.7422Z" fill="#5FB34E"/>
<path d="M34.6203 17.8297C34.6207 15.7163 33.7981 13.7295 32.3039 12.2353C30.8099 10.7413 28.8231 9.91854 26.7096 9.91901C26.3722 9.91911 26.0988 10.1927 26.0988 10.53C26.099 10.8674 26.3724 11.1409 26.7099 11.1408C28.4968 11.1404 30.1766 11.836 31.44 13.0993C32.7033 14.3627 33.3989 16.0425 33.3984 17.8294C33.3977 21.5185 30.3958 24.5205 26.7066 24.5212C26.3692 24.5213 26.0958 24.7948 26.0959 25.1322C26.0958 25.301 26.1642 25.4536 26.2747 25.5641C26.3853 25.6747 26.5381 25.743 26.7069 25.7431C31.0693 25.7422 34.6193 22.1922 34.6203 17.8297Z" fill="#5FB34E"/>
<path d="M37.835 17.8567C37.8355 14.8796 36.6768 12.0808 34.572 9.97607C32.4672 7.8713 29.6686 6.71252 26.6914 6.71314C26.354 6.71325 26.0805 6.98678 26.0806 7.32417C26.0805 7.66146 26.3541 7.935 26.6915 7.93495C29.3423 7.93438 31.8341 8.96612 33.7079 10.8399C35.5818 12.7138 36.6135 15.2057 36.6129 17.8564C36.6118 23.3285 32.1589 27.7814 26.6868 27.7825C26.3494 27.7826 26.076 28.0561 26.0761 28.3935C26.0761 28.5622 26.1444 28.7148 26.255 28.8254C26.3656 28.936 26.5184 29.0043 26.6871 29.0044C32.8328 29.0031 37.8337 24.0023 37.835 17.8567Z" fill="#5FB34E"/>
</svg>
