<svg width="24" height="22" viewBox="0 0 24 22" fill="none" xmlns="http://www.w3.org/2000/svg">
<path d="M20.5395 3.96041C18.6305 2.05139 16.0923 1 13.3926 1C9.56542 1 6.06503 3.1742 4.35679 6.57447H1.92949C1.55239 6.57447 1.21565 6.79956 1.07118 7.14796C0.926851 7.4965 1.00595 7.89393 1.27265 8.16063L4.37368 11.2617C4.53216 11.4201 4.74296 11.5075 4.96722 11.5075C5.19148 11.5075 5.40214 11.4203 5.56048 11.2619L8.66179 8.16063C8.92835 7.89393 9.00745 7.4965 8.86311 7.14796C8.71892 6.79956 8.38191 6.57447 8.00481 6.57447H5.86123C7.43846 3.95945 10.292 2.31836 13.3926 2.31836C18.239 2.31836 22.1817 6.26109 22.1817 11.1074C22.1817 15.9537 18.239 19.8964 13.3926 19.8964C11.045 19.8964 8.83785 18.9823 7.17781 17.3224C6.92045 17.0649 6.50297 17.0649 6.24562 17.3224C5.98812 17.5796 5.98812 17.9971 6.24562 18.2545C8.1545 20.1635 10.6928 21.2147 13.3926 21.2147C16.0925 21.2147 18.6305 20.1635 20.5397 18.2545C22.4488 16.3455 23.5001 13.8072 23.5001 11.1074C23.5001 8.40768 22.4488 5.86942 20.5395 3.96041Z" fill="#21222F" stroke="#21222F" stroke-width="0.7"/>
</svg>
