<svg width="36" height="37" viewBox="0 0 36 37" fill="none" xmlns="http://www.w3.org/2000/svg">
<path d="M12.7492 0C19.6194 0 25.2088 5.58935 25.2088 12.4596C25.2088 15.8478 23.8488 18.9238 21.6468 21.1721L23.6734 23.1988C24.1119 22.9008 24.6258 22.7337 25.1704 22.7194C25.9475 22.699 26.6777 22.9903 27.2274 23.5396L35.5113 31.8236C35.8264 32.1387 36 32.5577 36 33.0034C36 33.4491 35.8264 33.868 35.5113 34.1831L33.9047 35.7897C33.5896 36.1048 33.1706 36.2784 32.725 36.2784C32.2794 36.2784 31.8604 36.1049 31.5453 35.7897L23.3514 27.5958C22.342 26.5864 22.1835 25.0546 22.9215 23.9528L20.87 21.9013C18.6875 23.7811 15.8488 24.9192 12.7492 24.9192C5.87894 24.9192 0.289585 19.3298 0.289585 12.4596C0.289585 5.58935 5.87894 0 12.7492 0ZM24.1044 26.8428L32.2983 35.0367C32.4122 35.1506 32.5638 35.2135 32.725 35.2135C32.8862 35.2135 33.0377 35.1507 33.1517 35.0367L34.7583 33.4301C34.8722 33.3161 34.9351 33.1646 34.9351 33.0034C34.9351 32.8422 34.8723 32.6907 34.7583 32.5766L26.4744 24.2927C26.1446 23.9633 25.7099 23.7834 25.2456 23.7834C25.2298 23.7834 25.214 23.7836 25.1983 23.7841C24.7166 23.7967 24.273 24.0017 23.949 24.3614C23.3411 25.0361 23.4108 26.1493 24.1044 26.8428ZM12.7492 23.8543C19.0322 23.8543 24.1439 18.7426 24.1439 12.4596C24.1439 6.17655 19.0322 1.06492 12.7492 1.06492C6.46614 1.06492 1.35451 6.17655 1.35451 12.4596C1.35451 18.7426 6.46614 23.8543 12.7492 23.8543Z" fill="#5FB34E"/>
<path d="M12.7492 2.27173C18.3668 2.27173 22.937 6.84195 22.937 12.4595C22.937 18.077 18.3668 22.6473 12.7492 22.6473C7.13171 22.6473 2.56149 18.077 2.56149 12.4595C2.56149 6.84195 7.13171 2.27173 12.7492 2.27173ZM12.7492 21.5823C17.7796 21.5823 21.8721 17.4898 21.8721 12.4595C21.8721 7.42915 17.7796 3.33665 12.7492 3.33665C7.71891 3.33665 3.62641 7.42915 3.62641 12.4595C3.62641 17.4898 7.71891 21.5823 12.7492 21.5823Z" fill="#5FB34E"/>
</svg>
