<svg width="43" height="44" viewBox="0 0 43 44" fill="none" xmlns="http://www.w3.org/2000/svg">
<path d="M29.1711 13.6301C28.7076 13.6301 28.3313 14.0054 28.3313 14.4696C28.3313 14.9335 28.7076 15.3095 29.1711 15.3095C29.6357 15.3095 30.011 14.9335 30.011 14.4696C30.011 14.0054 29.6357 13.6301 29.1711 13.6301Z" fill="#21222F"/>
<path d="M13.9116 28.8894C13.447 28.8894 13.0717 29.2657 13.0717 29.7292C13.0717 30.1938 13.447 30.5691 13.9116 30.5691C14.3751 30.5691 14.7514 30.1938 14.7514 29.7292C14.7514 29.2657 14.3751 28.8894 13.9116 28.8894Z" fill="#21222F"/>
<path d="M41.9971 5.76686C41.7137 5.70092 41.4158 5.78654 41.2111 5.99322L37.7294 9.50253H36.0602L34.2227 7.59877V5.90629L37.6546 2.42323C37.8576 2.21721 37.9403 1.92096 37.873 1.63916C37.8061 1.35768 37.5988 1.13066 37.3245 1.03814C36.4624 0.747478 35.5602 0.600177 34.6426 0.600177C31.9072 0.600177 29.4221 1.87569 27.8244 4.09964C26.3291 6.18153 25.8682 8.73289 26.5286 11.1747L20.3423 17.361L10.0358 7.03089V5.00345C10.0358 4.70852 9.88097 4.43492 9.62803 4.28335L3.68974 0.719921C3.35905 0.521442 2.93617 0.573604 2.66388 0.846225L0.288696 3.22108C0.0164031 3.4937 -0.035759 3.91658 0.162392 4.24727L3.72517 10.1856C3.87673 10.4385 4.15001 10.593 4.44494 10.5933L6.47172 10.594L16.7792 20.9241L10.6165 27.0868C8.1747 26.4267 5.62204 26.8883 3.53916 28.3846C1.31652 29.9813 0.0419922 32.4657 0.0419922 35.2011C0.0419922 36.1184 0.189293 37.0209 0.479958 37.8827C0.5728 38.1586 0.802117 38.3669 1.08556 38.4325C1.36934 38.4985 1.66689 38.4128 1.87193 38.2062L5.35335 34.6972H7.03173L8.94401 36.6095V38.2879L5.43504 41.7693C5.22836 41.9743 5.14273 42.2719 5.20868 42.5556C5.27429 42.8391 5.48261 43.0684 5.75851 43.1613C6.62034 43.4519 7.52284 43.5992 8.44011 43.5992C11.1755 43.5992 13.6596 42.3244 15.2566 40.1017C16.7529 38.0188 17.2145 35.4665 16.5544 33.0247L21.504 28.0752L22.6377 29.3068L22.1174 29.8268C21.7894 30.1548 21.7894 30.6866 22.1174 31.0147C22.4455 31.3424 22.977 31.3424 23.3054 31.0147L23.7765 30.5436L34.4143 42.0987C34.4221 42.1072 34.4303 42.1154 34.4385 42.1236C36.4069 44.092 39.596 44.0926 41.5654 42.1233C43.5292 40.1585 43.5292 36.9615 41.5654 34.9967C41.5569 34.9882 41.548 34.98 41.5392 34.9718L29.966 24.3543L30.4319 23.8885C30.76 23.5607 30.76 23.0289 30.4319 22.7009C30.1038 22.3728 29.5724 22.3728 29.244 22.7009L28.7273 23.2179L27.4934 22.0854L32.4669 17.112C33.1739 17.3009 33.9035 17.3967 34.6426 17.3967C39.2735 17.3967 43.0407 13.6292 43.0407 8.99862C43.0407 8.08102 42.8934 7.17885 42.6027 6.31669C42.5099 6.04079 42.2806 5.83247 41.9971 5.76686ZM7.41458 9.16101C7.25711 9.00321 7.04354 8.92284 6.82045 8.92284L4.92096 8.92218L1.94017 3.94545L3.38792 2.4977L8.35612 5.47915V7.37864C8.35612 7.60107 8.44437 7.81431 8.60151 7.97178L19.1547 18.5489L17.9668 19.7365L7.41458 9.16101ZM28.7771 25.5432L40.3896 36.1964C41.6868 37.5074 41.6829 39.63 40.3775 40.936C39.0692 42.2443 36.9512 42.2482 35.6376 40.9475L24.965 29.3547L28.7771 25.5432ZM27.5384 24.4065L23.8263 28.1179L22.6925 26.8863L26.3045 23.274L27.5384 24.4065ZM34.6426 15.717C33.9081 15.717 33.1857 15.5993 32.4961 15.367C32.1939 15.2656 31.86 15.3437 31.6342 15.5691C27.4239 19.7795 18.3516 28.8514 15.0109 32.1924C14.7852 32.4181 14.7068 32.7521 14.8088 33.0546C15.5069 35.1276 15.173 37.3388 13.8922 39.1218C12.6151 40.8996 10.6276 41.9195 8.44011 41.9195C8.19439 41.9195 7.94998 41.9061 7.70787 41.8802L10.3754 39.2333C10.5341 39.0759 10.6237 38.8613 10.6237 38.6372V36.2614C10.6237 36.0387 10.5351 35.8251 10.3777 35.6676L7.97327 33.2632C7.8158 33.1058 7.60223 33.0172 7.37948 33.0172H5.00363C4.77957 33.0172 4.56501 33.1067 4.40721 33.2655L1.76072 35.933C1.73448 35.6909 1.72135 35.4465 1.72135 35.2008C1.72135 33.0129 2.74098 31.0258 4.51908 29.7487C6.30178 28.4679 8.51327 28.1336 10.5866 28.8321C10.8888 28.9341 11.2227 28.8557 11.4485 28.63C11.4947 28.584 28.06 12.0184 28.0718 12.0066C28.2975 11.7809 28.3756 11.4473 28.2739 11.1448C27.5754 9.07178 27.9087 6.86128 29.1885 5.07957C30.4667 3.30015 32.4544 2.27987 34.6423 2.27987C34.8955 2.27987 35.1472 2.29397 35.3965 2.32153L32.7844 4.97262C32.6296 5.12976 32.543 5.34136 32.543 5.56182V7.93766C32.543 8.15549 32.6273 8.36447 32.7785 8.52096L35.0989 10.9253C35.2571 11.0894 35.4752 11.1819 35.7032 11.1819H38.0791C38.3028 11.1819 38.5174 11.0927 38.6752 10.9335L41.3217 8.26638C41.3479 8.50849 41.361 8.7529 41.361 8.99862C41.361 12.7031 38.3471 15.717 34.6426 15.717Z" fill="#21222F"/>
<path d="M26.2022 16.2509L15.6926 26.7605C15.3649 27.0882 15.3649 27.62 15.6926 27.9481C16.0207 28.2761 16.5525 28.2761 16.8806 27.9481L27.3901 17.4385C27.7182 17.1108 27.7182 16.579 27.3901 16.2509C27.062 15.9229 26.5302 15.9229 26.2022 16.2509Z" fill="#21222F"/>
<path d="M36.815 38.5611C37.1431 38.8882 37.6749 38.8882 38.0029 38.5591C38.3303 38.2308 38.3293 37.699 38.001 37.3716L30.4309 29.8258C30.1025 29.4983 29.5704 29.4993 29.2433 29.8277C28.9155 30.1564 28.9165 30.6879 29.2449 31.0153L36.815 38.5611Z" fill="#21222F"/>
</svg>
