<svg width="58" height="33" viewBox="0 0 58 33" fill="none" xmlns="http://www.w3.org/2000/svg">
<path d="M1.72003 17.655V29.65C1.72003 30.4784 2.3916 31.15 3.22003 31.15H14.145C14.2417 31.15 14.32 31.2284 14.32 31.325C14.32 31.4217 14.2417 31.5 14.145 31.5H1.78003C1.50389 31.5 1.28003 31.2761 1.28003 31V1.5C1.28003 1.22386 1.50389 1 1.78003 1H14.01C14.1067 1 14.185 1.07835 14.185 1.175C14.185 1.27165 14.1067 1.35 14.01 1.35H3.22003C2.3916 1.35 1.72003 2.02158 1.72003 2.85V14.305C1.72003 15.1334 2.3916 15.805 3.22003 15.805H7.32753C7.42418 15.805 7.50253 15.8834 7.50253 15.98C7.50253 16.0767 7.42418 16.155 7.32753 16.155H3.22003C2.3916 16.155 1.72003 16.8266 1.72003 17.655ZM51.0199 20.3447L57.2742 31.1978C57.3517 31.3322 57.2547 31.5 57.0996 31.5C57.0274 31.5 56.9608 31.4614 56.9248 31.3989L49.8105 19.0225C49.5429 18.557 49.0469 18.27 48.51 18.27H45.3636C44.5352 18.27 43.8636 18.9416 43.8636 19.77V31.28C43.8636 31.4015 43.7651 31.5 43.6436 31.5C43.5221 31.5 43.4236 31.4015 43.4236 31.28V1.5C43.4236 1.22386 43.6475 1 43.9236 1H49.5836C52.2074 1 54.1263 1.76688 55.396 3.15994C56.6728 4.56082 57.3636 6.67185 57.3636 9.5C57.3636 11.8428 56.8573 13.7468 55.9548 15.1663C55.057 16.5784 53.7517 17.5371 52.0925 17.9791C51.131 18.2352 50.4565 19.367 51.0199 20.3447ZM49.5836 1.395H45.3636C44.5352 1.395 43.8636 2.06657 43.8636 2.895V16.42C43.8636 17.2484 44.5352 17.92 45.3636 17.92H49.9436C52.042 17.92 53.802 17.2117 55.0278 15.763C56.2434 14.3263 56.8786 12.2267 56.8786 9.545C56.8786 6.91579 56.2917 4.86189 55.0414 3.46305C53.7816 2.05353 51.9263 1.395 49.5836 1.395ZM10.675 15.805H13.11C13.2067 15.805 13.285 15.8834 13.285 15.98C13.285 16.0767 13.2067 16.155 13.11 16.155H10.675C10.5784 16.155 10.5 16.0767 10.5 15.98C10.5 15.8834 10.5784 15.805 10.675 15.805Z" fill="#5FB34E" stroke="#5FB34E" stroke-linecap="round" stroke-linejoin="bevel"/>
<path d="M29.2951 32.0622C33.7301 32.0622 36.5901 28.9463 36.5901 23.0758V1.16319C36.5901 0.79692 36.2932 0.5 35.927 0.5C35.5607 0.5 35.2638 0.79692 35.2638 1.16319V23.0758C35.2638 28.1335 32.9426 30.6623 29.2951 30.6623C25.689 30.6623 23.3264 28.1335 23.3264 23.0758V1.16328C23.3264 0.79702 23.0295 0.5001 22.6632 0.5001C22.2969 0.5001 22 0.79702 22 1.16328V23.0758C22 28.9463 24.9014 32.0622 29.2951 32.0622Z" fill="#5FB34E"/>
</svg>
