<svg width="55" height="33" viewBox="0 0 55 33" fill="none" xmlns="http://www.w3.org/2000/svg">
<path d="M7.84671 32.5831C12.2818 32.5831 15.1418 29.4672 15.1418 23.5967V1.18418C15.1418 0.817914 14.8449 0.520996 14.4786 0.520996C14.1123 0.520996 13.8154 0.817915 13.8154 1.18418V23.5967C13.8154 28.6544 11.4942 31.1832 7.84671 31.1832C4.24062 31.1832 1.87801 28.6544 1.87801 23.5967V1.18419C1.87801 0.817917 1.58109 0.520996 1.21482 0.520996C0.848555 0.520996 0.551636 0.817916 0.551636 1.18418V23.5967C0.551636 29.4672 3.45308 32.5831 7.84671 32.5831ZM34.2109 31.608C34.2847 31.9151 34.5593 32.1315 34.8751 32.1315C35.3183 32.1315 35.6441 31.7161 35.5386 31.2857L28.1776 1.26574C28.0704 0.828483 27.6784 0.520996 27.2281 0.520996C26.7779 0.520996 26.3859 0.828483 26.2787 1.26574L18.9177 31.2857C18.8122 31.7161 19.138 32.1315 19.5812 32.1315C19.897 32.1315 20.1716 31.9151 20.2454 31.608L22.0079 24.2727C22.1159 23.8232 22.518 23.5064 22.9802 23.5064H31.4761C31.9383 23.5064 32.3404 23.8232 32.4484 24.2727L34.2109 31.608ZM23.791 22.1516C23.1447 22.1516 22.6681 21.5477 22.8185 20.919L25.5909 9.32679C26.1693 6.94115 26.7477 4.51065 27.203 2.43777C27.2056 2.42595 27.216 2.41763 27.2281 2.41763C27.2403 2.41763 27.2507 2.42595 27.2533 2.43777C27.7086 4.51065 28.287 6.94115 28.8654 9.32679L31.6378 20.919C31.7882 21.5477 31.3116 22.1516 30.6653 22.1516H23.791Z" fill="#5FB34E"/>
<path d="M42.1542 15.3779C41.6019 15.3779 41.1541 14.9302 41.1541 14.3779V1.18419C41.1541 0.817916 40.8572 0.520996 40.491 0.520996C40.1247 0.520996 39.8278 0.817917 39.8278 1.18419V31.4683C39.8278 31.8346 40.1247 32.1315 40.491 32.1315C40.8572 32.1315 41.1541 31.8346 41.1541 31.4683V17.7327C41.1541 17.1804 41.6019 16.7327 42.1541 16.7327H49.3574C49.486 16.7327 49.5902 16.6285 49.5902 16.4999V15.5293C49.5902 15.4457 49.5224 15.3779 49.4388 15.3779H42.1542Z" fill="#5FB34E"/>
<path d="M53.5889 0.520996C53.2227 0.520996 52.9257 0.817917 52.9257 1.18419V14.6118C52.9257 15.0349 52.5827 15.3779 52.1596 15.3779H51.5448C51.4612 15.3779 51.3934 15.4457 51.3934 15.5293V16.4999C51.3934 16.6285 51.4977 16.7327 51.6262 16.7327H52.1596C52.5827 16.7327 52.9257 17.0757 52.9257 17.4988V31.4683C52.9257 31.8346 53.2227 32.1315 53.5889 32.1315C53.9552 32.1315 54.2521 31.8346 54.2521 31.4683V1.18419C54.2521 0.817917 53.9552 0.520996 53.5889 0.520996Z" fill="#5FB34E"/>
</svg>
