<svg width="58" height="33" viewBox="0 0 58 33" fill="none" xmlns="http://www.w3.org/2000/svg">
<path d="M8.11495 32.4499C12.9299 32.4499 16.0349 29.3449 16.0349 23.4949V1.21988C16.0349 0.822243 15.7126 0.499883 15.3149 0.499883C14.9173 0.499883 14.5949 0.822243 14.5949 1.21988V23.4949C14.5949 28.5349 12.0749 31.0549 8.11495 31.0549C4.19995 31.0549 1.63495 28.5349 1.63495 23.4949V1.21988C1.63495 0.822243 1.31259 0.499883 0.914946 0.499883C0.517301 0.499883 0.194946 0.822243 0.194946 1.21988V23.4949C0.194946 29.3449 3.34495 32.4499 8.11495 32.4499ZM28.9541 32.5399C33.8141 32.5399 36.6941 29.0749 36.6941 24.8899C36.6941 15.6199 22.8791 15.2599 22.8791 7.2499C22.8791 3.73988 25.3541 1.39988 28.9541 1.39988C32.1873 1.39988 34.3748 3.37054 34.9083 7.0837C34.9618 7.4559 35.2727 7.7449 35.6488 7.7449C36.0683 7.7449 36.4026 7.3886 36.3471 6.9728C35.7815 2.73118 32.9868 0.00488281 28.9091 0.00488281C24.5441 0.00488281 21.3941 3.01988 21.3941 7.2499C21.3941 16.2499 35.2541 16.6549 35.2541 24.8899C35.2541 28.4899 32.9591 31.1449 28.9991 31.1449C25.3872 31.1449 23.2198 28.978 22.6485 25.3642C22.5901 24.9945 22.2793 24.7099 21.905 24.7099C21.4827 24.7099 21.1464 25.0686 21.2028 25.4871C21.7661 29.6614 24.5006 32.5399 28.9541 32.5399Z" fill="#5FB34E"/>
<path d="M42.2643 31C42.2643 31.5523 42.7121 32 43.2643 32H49.0143C53.2015 32 56.0794 29.8654 57.0823 26.0264C57.1995 25.5777 56.8464 25.1572 56.3827 25.1572C56.0261 25.1572 55.7227 25.4114 55.6327 25.7565C54.7923 28.976 52.4934 30.65 49.0143 30.65H44.7043C44.1521 30.65 43.7043 30.2023 43.7043 29.65V2.895C43.7043 2.34272 44.1521 1.895 44.7043 1.895H49.0143C53.4693 1.895 55.9893 4.325 55.9893 9.41002V21.9646C55.9893 22.366 56.3082 22.6946 56.7094 22.7068C57.128 22.7195 57.4743 22.3835 57.4743 21.9646V9.36502C57.4743 3.56 54.3243 0.5 49.0143 0.5H43.2643C42.7121 0.5 42.2643 0.94772 42.2643 1.5V31Z" fill="#5FB34E"/>
</svg>
